<?xml version="1.0" encoding="UTF-8" standalone="no"?>
<!-- Created with Inkscape (http://www.inkscape.org/) -->

<svg
   xmlns:dc="http://purl.org/dc/elements/1.1/"
   xmlns:cc="http://creativecommons.org/ns#"
   xmlns:rdf="http://www.w3.org/1999/02/22-rdf-syntax-ns#"
   xmlns:svg="http://www.w3.org/2000/svg"
   xmlns="http://www.w3.org/2000/svg"
   version="1.1"
   width="232"
   height="50"
   id="svg12289">
  <defs
     id="defs12291" />
  <metadata
     id="metadata12294">
    <rdf:RDF>
      <cc:Work
         rdf:about="">
        <dc:format>image/svg+xml</dc:format>
        <dc:type
           rdf:resource="http://purl.org/dc/dcmitype/StillImage" />
        <dc:title></dc:title>
      </cc:Work>
    </rdf:RDF>
  </metadata>
  <g
     transform="translate(0,-1002.3622)"
     id="layer1">
    <rect
       width="221"
       height="5.5"
       x="5.5"
       y="1044.8622"
       id="rect13259"
       style="fill:#000000;fill-opacity:0.90196078;fill-rule:nonzero;stroke:none" />
    <path
       d="m 5,18 0,22 222,0 0,-22 0,0 z"
       transform="translate(0,1002.3622)"
       id="path12301"
       style="fill:#eeeeee;fill-opacity:1;stroke:#000000;stroke-width:0.1;stroke-linecap:butt;stroke-linejoin:miter;stroke-miterlimit:4;stroke-opacity:1;stroke-dasharray:none" />
    <path
       d="m 5,16.5 0,1.5 222,0 0,-1.5 C 227,14 225,13 220,13 L 12.5,13 C 7.5,13 5,14 5,16.5 z"
       transform="translate(0,1002.3622)"
       id="path12811"
       style="fill:#555555;fill-opacity:1;stroke:none" />
    <rect
       width="7.1000061"
       height="21.099958"
       ry="0"
       x="208"
       y="1021.3622"
       id="rect12815"
       style="fill:#b3b3b3;fill-opacity:1;fill-rule:nonzero;stroke:#000000;stroke-width:0.2;stroke-linecap:butt;stroke-linejoin:round;stroke-miterlimit:4;stroke-opacity:1;stroke-dasharray:none" />
    <rect
       width="7"
       height="20.000017"
       ry="1.7382812e-05"
       x="17"
       y="1022.3622"
       id="rect12815-0"
       style="fill:#b3b3b3;fill-opacity:1;fill-rule:nonzero;stroke:#000000;stroke-width:0.2;stroke-linecap:butt;stroke-linejoin:round;stroke-miterlimit:4;stroke-opacity:1;stroke-dasharray:none" />
    <path
       d="m 208,40 7,0"
       transform="translate(0,1002.3622)"
       id="path12835"
       style="fill:#333333;stroke:#333333;stroke-width:0.5;stroke-linecap:butt;stroke-linejoin:miter;stroke-miterlimit:4;stroke-opacity:1;stroke-dasharray:none" />
    <path
       d="m 17,1042.3622 7,0"
       id="path12835-9"
       style="fill:#333333;stroke:#333333;stroke-width:0.5;stroke-linecap:butt;stroke-linejoin:miter;stroke-miterlimit:4;stroke-opacity:1;stroke-dasharray:none" />
    <rect
       width="11"
       height="8.0000172"
       ry="1"
       x="27"
       y="1023.3622"
       id="rect12855"
       style="fill:#666666;fill-opacity:1;fill-rule:nonzero;stroke:#000000;stroke-width:0.2;stroke-linecap:butt;stroke-linejoin:round;stroke-miterlimit:4;stroke-opacity:1;stroke-dasharray:none" />
    <path
       d="m 27,1026.3622 11,0"
       id="path12857"
       style="fill:none;stroke:#000000;stroke-width:0.2;stroke-linecap:butt;stroke-linejoin:miter;stroke-miterlimit:4;stroke-opacity:1;stroke-dasharray:none" />
    <rect
       width="11"
       height="8.0000172"
       ry="1"
       x="41"
       y="1023.3622"
       id="rect12855-2"
       style="fill:#666666;fill-opacity:1;fill-rule:nonzero;stroke:#000000;stroke-width:0.2;stroke-linecap:butt;stroke-linejoin:round;stroke-miterlimit:4;stroke-opacity:1;stroke-dasharray:none" />
    <path
       d="m 41,1026.3622 11,0"
       id="path12857-1"
       style="fill:none;stroke:#000000;stroke-width:0.2;stroke-linecap:butt;stroke-linejoin:miter;stroke-miterlimit:4;stroke-opacity:1;stroke-dasharray:none" />
    <rect
       width="11"
       height="8.0000172"
       ry="1"
       x="55"
       y="1023.3622"
       id="rect12855-0"
       style="fill:#666666;fill-opacity:1;fill-rule:nonzero;stroke:#000000;stroke-width:0.2;stroke-linecap:butt;stroke-linejoin:round;stroke-miterlimit:4;stroke-opacity:1;stroke-dasharray:none" />
    <path
       d="m 55,1026.3622 11,0"
       id="path12857-6"
       style="fill:none;stroke:#000000;stroke-width:0.2;stroke-linecap:butt;stroke-linejoin:miter;stroke-miterlimit:4;stroke-opacity:1;stroke-dasharray:none" />
    <rect
       width="11"
       height="8.0000172"
       ry="1"
       x="69"
       y="1023.3622"
       id="rect12855-29"
       style="fill:#666666;fill-opacity:1;fill-rule:nonzero;stroke:#000000;stroke-width:0.2;stroke-linecap:butt;stroke-linejoin:round;stroke-miterlimit:4;stroke-opacity:1;stroke-dasharray:none" />
    <path
       d="m 69,1026.3622 11,0"
       id="path12857-0"
       style="fill:none;stroke:#000000;stroke-width:0.2;stroke-linecap:butt;stroke-linejoin:miter;stroke-miterlimit:4;stroke-opacity:1;stroke-dasharray:none" />
    <rect
       width="11"
       height="8.0000172"
       ry="1"
       x="83"
       y="1023.3622"
       id="rect12855-3"
       style="fill:#666666;fill-opacity:1;fill-rule:nonzero;stroke:#000000;stroke-width:0.2;stroke-linecap:butt;stroke-linejoin:round;stroke-miterlimit:4;stroke-opacity:1;stroke-dasharray:none" />
    <path
       d="m 83,1026.3622 11,0"
       id="path12857-7"
       style="fill:none;stroke:#000000;stroke-width:0.2;stroke-linecap:butt;stroke-linejoin:miter;stroke-miterlimit:4;stroke-opacity:1;stroke-dasharray:none" />
    <rect
       width="11"
       height="8.0000172"
       ry="1"
       x="97"
       y="1023.3622"
       id="rect12855-7"
       style="fill:#666666;fill-opacity:1;fill-rule:nonzero;stroke:#000000;stroke-width:0.2;stroke-linecap:butt;stroke-linejoin:round;stroke-miterlimit:4;stroke-opacity:1;stroke-dasharray:none" />
    <path
       d="m 97,1026.3622 11,0"
       id="path12857-8"
       style="fill:none;stroke:#000000;stroke-width:0.2;stroke-linecap:butt;stroke-linejoin:miter;stroke-miterlimit:4;stroke-opacity:1;stroke-dasharray:none" />
    <rect
       width="11"
       height="8.0000172"
       ry="1"
       x="111"
       y="1023.3622"
       id="rect12855-9"
       style="fill:#666666;fill-opacity:1;fill-rule:nonzero;stroke:#000000;stroke-width:0.2;stroke-linecap:butt;stroke-linejoin:round;stroke-miterlimit:4;stroke-opacity:1;stroke-dasharray:none" />
    <path
       d="m 111,1026.3622 11,0"
       id="path12857-5"
       style="fill:none;stroke:#000000;stroke-width:0.2;stroke-linecap:butt;stroke-linejoin:miter;stroke-miterlimit:4;stroke-opacity:1;stroke-dasharray:none" />
    <rect
       width="11"
       height="8.0000172"
       ry="1"
       x="125"
       y="1023.3622"
       id="rect12855-08"
       style="fill:#666666;fill-opacity:1;fill-rule:nonzero;stroke:#000000;stroke-width:0.2;stroke-linecap:butt;stroke-linejoin:round;stroke-miterlimit:4;stroke-opacity:1;stroke-dasharray:none" />
    <path
       d="m 125,1026.3622 11,0"
       id="path12857-18"
       style="fill:none;stroke:#000000;stroke-width:0.2;stroke-linecap:butt;stroke-linejoin:miter;stroke-miterlimit:4;stroke-opacity:1;stroke-dasharray:none" />
    <rect
       width="11"
       height="8.0000172"
       ry="1"
       x="139"
       y="1023.3622"
       id="rect12855-4"
       style="fill:#666666;fill-opacity:1;fill-rule:nonzero;stroke:#000000;stroke-width:0.2;stroke-linecap:butt;stroke-linejoin:round;stroke-miterlimit:4;stroke-opacity:1;stroke-dasharray:none" />
    <path
       d="m 139,1026.3622 11,0"
       id="path12857-4"
       style="fill:none;stroke:#000000;stroke-width:0.2;stroke-linecap:butt;stroke-linejoin:miter;stroke-miterlimit:4;stroke-opacity:1;stroke-dasharray:none" />
    <rect
       width="11"
       height="8.0000172"
       ry="1"
       x="153"
       y="1023.3622"
       id="rect12855-1"
       style="fill:#666666;fill-opacity:1;fill-rule:nonzero;stroke:#000000;stroke-width:0.2;stroke-linecap:butt;stroke-linejoin:round;stroke-miterlimit:4;stroke-opacity:1;stroke-dasharray:none" />
    <path
       d="m 153,1026.3622 11,0"
       id="path12857-67"
       style="fill:none;stroke:#000000;stroke-width:0.2;stroke-linecap:butt;stroke-linejoin:miter;stroke-miterlimit:4;stroke-opacity:1;stroke-dasharray:none" />
    <rect
       width="11"
       height="8.0000172"
       ry="1"
       x="167"
       y="1023.3622"
       id="rect12855-8"
       style="fill:#666666;fill-opacity:1;fill-rule:nonzero;stroke:#000000;stroke-width:0.2;stroke-linecap:butt;stroke-linejoin:round;stroke-miterlimit:4;stroke-opacity:1;stroke-dasharray:none" />
    <path
       d="m 167,1026.3622 11,0"
       id="path12857-87"
       style="fill:none;stroke:#000000;stroke-width:0.2;stroke-linecap:butt;stroke-linejoin:miter;stroke-miterlimit:4;stroke-opacity:1;stroke-dasharray:none" />
    <rect
       width="11"
       height="8.0000172"
       ry="1"
       x="181"
       y="1023.3622"
       id="rect12855-78"
       style="fill:none;stroke:#a2a2a2;stroke-width:0.1;stroke-linecap:butt;stroke-linejoin:round;stroke-miterlimit:4;stroke-opacity:1;stroke-dasharray:none" />
    <rect
       width="9"
       height="8.0000172"
       ry="1.0020796"
       x="195"
       y="1023.3622"
       id="rect12855-20"
       style="fill:none;stroke:#a2a2a2;stroke-width:0.1;stroke-linecap:butt;stroke-linejoin:round;stroke-miterlimit:4;stroke-opacity:1;stroke-dasharray:none" />
    <rect
       width="5.5"
       height="8.0000172"
       ry="1.0020796"
       x="209"
       y="1023.3622"
       id="rect12855-20-1"
       style="fill:#666666;fill-opacity:1;fill-rule:nonzero;stroke:#000000;stroke-width:0.1812831;stroke-linecap:butt;stroke-linejoin:round;stroke-miterlimit:4;stroke-opacity:1;stroke-dasharray:none" />
    <rect
       width="5.5"
       height="8.0000172"
       ry="1.0020796"
       x="17.5"
       y="1023.3622"
       id="rect12855-20-1-4"
       style="fill:#666666;fill-opacity:1;fill-rule:nonzero;stroke:#000000;stroke-width:0.1812831;stroke-linecap:butt;stroke-linejoin:round;stroke-miterlimit:4;stroke-opacity:1;stroke-dasharray:none" />
    <rect
       width="4"
       height="7.9999828"
       ry="1"
       x="10.5"
       y="1023.3622"
       id="rect12855-25"
       style="fill:#666666;fill-opacity:1;fill-rule:nonzero;stroke:#000000;stroke-width:0.2;stroke-linecap:butt;stroke-linejoin:round;stroke-miterlimit:4;stroke-opacity:1;stroke-dasharray:none" />
    <rect
       width="4"
       height="7.9999828"
       ry="1"
       x="217.5"
       y="1023.3622"
       id="rect12855-25-8"
       style="fill:#666666;fill-opacity:1;fill-rule:nonzero;stroke:#000000;stroke-width:0.2;stroke-linecap:butt;stroke-linejoin:round;stroke-miterlimit:4;stroke-opacity:1;stroke-dasharray:none" />
    <path
       d="M 5,16.5 4.5,16 4,16.5 3.5,16 3,16.5 2.5,16 l -1,0 0,24 1,0 L 3,40.5 3.5,40 4,40.5 4.5,40 5,40.5 z"
       transform="translate(0,1002.3622)"
       id="path13056"
       style="fill:#1a1a1a;stroke:#000000;stroke-width:0.05;stroke-linecap:butt;stroke-linejoin:miter;stroke-miterlimit:4;stroke-opacity:1;stroke-dasharray:none" />
    <path
       d="m 3.5,40 0,-24"
       transform="translate(0,1002.3622)"
       id="path13058"
       style="fill:none;stroke:#000000;stroke-width:0.05;stroke-linecap:butt;stroke-linejoin:miter;stroke-miterlimit:4;stroke-opacity:1;stroke-dasharray:none" />
    <path
       d="m 2.5,16 0,24"
       transform="translate(0,1002.3622)"
       id="path13060"
       style="fill:none;stroke:#000000;stroke-width:0.05;stroke-linecap:butt;stroke-linejoin:miter;stroke-miterlimit:4;stroke-opacity:1;stroke-dasharray:none" />
    <path
       d="m 4.5,40 0,-24"
       transform="translate(0,1002.3622)"
       id="path13062"
       style="fill:none;stroke:#000000;stroke-width:0.05;stroke-linecap:butt;stroke-linejoin:miter;stroke-miterlimit:4;stroke-opacity:1;stroke-dasharray:none" />
    <path
       d="m 5,38.5 -2.5,0 0,1 2.5,0"
       transform="translate(0,1002.3622)"
       id="path13064"
       style="fill:none;stroke:#000000;stroke-width:0.1;stroke-linecap:butt;stroke-linejoin:miter;stroke-miterlimit:4;stroke-opacity:1;stroke-dasharray:none" />
    <path
       d="M 5.5,40 5.5,18 5,18 5,40 z"
       transform="translate(0,1002.3622)"
       id="path13068"
       style="fill:#4d4d4d;stroke:none" />
    <path
       d="m 4.5,1039.8622 0.5,0 0,-2 -0.5,0 z"
       id="path13066"
       style="fill:#000000;stroke:none" />
    <path
       d="m 4.5,1031.3622 0.5,0 0,-0.5 -0.5,0 z"
       id="path13070"
       style="fill:#ffffff;stroke:none" />
    <path
       d="M 15,46 A 3.75,4 0 1 1 7.5,46 3.75,4 0 1 1 15,46 z"
       transform="matrix(0.99999997,0,0,0.9375,15,1005.4872)"
       id="path13074"
       style="fill:#28170b;fill-opacity:1;fill-rule:nonzero;stroke:none" />
    <path
       d="M 15,46 A 3.75,4 0 1 1 7.5,46 3.75,4 0 1 1 15,46 z"
       transform="matrix(0.99999997,0,0,0.9375,37,1005.4872)"
       id="path13074-4"
       style="fill:#28170b;fill-opacity:1;fill-rule:nonzero;stroke:none" />
    <path
       d="m 25,1046.8622 4.5,0 2.5,2.5 10.5,0 2.5,-2.5 4,0 0,-1 -4.5,0 -2,1.5 -10.5,0 -2,-1.5 -5,0 z"
       id="path13097"
       style="fill:#1c1008;fill-opacity:1;stroke:none" />
    <path
       d="m 35,1047.3622 4.5,0 0,-0.5 -4.5,0 z"
       id="path13099"
       style="fill:#1c1008;fill-opacity:1;stroke:none" />
    <path
       d="m 34,1046.8622 6.5,0 c 0.5,0 0.5,-2.5 0,-2.5 l -6.5,0 c -0.5,0 -0.5,2.5 0,2.5 z"
       id="path13101"
       style="fill:#1c1008;fill-opacity:1;stroke:none" />
    <path
       d="m 46.5,1046.3622 3,0 0,2.5 -3,0 z"
       id="path13103"
       style="fill:none;stroke:#190e07;stroke-width:1px;stroke-linecap:butt;stroke-linejoin:miter;stroke-opacity:1" />
    <path
       d="m 25,1046.3622 3,0 0,2.5 -3,0 z"
       id="path13103-1"
       style="fill:none;stroke:#190e07;stroke-width:1px;stroke-linecap:butt;stroke-linejoin:miter;stroke-opacity:1" />
    <path
       d="m 47,44 a 1,1 0 1 1 -2,0 1,1 0 1 1 2,0 z"
       transform="matrix(1.75,0,0,1.75,-23,970.3622)"
       id="path13123"
       style="fill:#28170b;stroke:none" />
    <rect
       width="37.5"
       height="5"
       x="70"
       y="42.5"
       transform="translate(0,1002.3622)"
       id="rect13125"
       style="fill:#28170b;fill-opacity:1;fill-rule:nonzero;stroke:none" />
    <rect
       width="10"
       height="2.5"
       x="112.5"
       y="43.5"
       transform="translate(0,1002.3622)"
       id="rect13127"
       style="fill:#28170b;fill-opacity:1;fill-rule:nonzero;stroke:none" />
    <path
       d="m 140,43 0,3.5 12.5,0 0,-1 7.5,0 0,-1.5 -7.5,0 0,-1 z"
       transform="translate(0,1002.3622)"
       id="path13129"
       style="fill:#501616;stroke:none" />
    <path
       d="M 15,46 A 3.75,4 0 1 1 7.5,46 3.75,4 0 1 1 15,46 z"
       transform="matrix(0.99999997,0,0,0.9375,172.5,1005.4872)"
       id="path13074-8"
       style="fill:#28170b;fill-opacity:1;fill-rule:nonzero;stroke:none" />
    <path
       d="M 15,46 A 3.75,4 0 1 1 7.5,46 3.75,4 0 1 1 15,46 z"
       transform="matrix(0.99999997,0,0,0.9375,194.5,1005.4872)"
       id="path13074-4-3"
       style="fill:#28170b;fill-opacity:1;fill-rule:nonzero;stroke:none" />
    <path
       d="m 182.5,1046.8622 4.5,0 2.5,2.5 10.5,0 2.5,-2.5 4,0 0,-1 -4.5,0 -2,1.5 -10.5,0 -2,-1.5 -5,0 z"
       id="path13097-6"
       style="fill:#1c1008;fill-opacity:1;stroke:none" />
    <path
       d="m 192.5,1047.3622 4.5,0 0,-0.5 -4.5,0 z"
       id="path13099-9"
       style="fill:#1c1008;fill-opacity:1;stroke:none" />
    <path
       d="m 191.5,1046.8622 6.5,0 c 0.5,0 0.5,-2.5 0,-2.5 l -6.5,0 c -0.5,0 -0.5,2.5 0,2.5 z"
       id="path13101-3"
       style="fill:#1c1008;fill-opacity:1;stroke:none" />
    <path
       d="m 204,1046.3622 3,0 0,2.5 -3,0 z"
       id="path13103-9"
       style="fill:none;stroke:#190e07;stroke-width:1px;stroke-linecap:butt;stroke-linejoin:miter;stroke-opacity:1" />
    <path
       d="m 182.5,1046.3622 3,0 0,2.5 -3,0 z"
       id="path13103-1-7"
       style="fill:none;stroke:#190e07;stroke-width:1px;stroke-linecap:butt;stroke-linejoin:miter;stroke-opacity:1" />
    <path
       d="m 47,44 a 1,1 0 1 1 -2,0 1,1 0 1 1 2,0 z"
       transform="matrix(1.75,0,0,1.75,92,970.3622)"
       id="path13123-9"
       style="fill:#28170b;stroke:none" />
    <path
       d="m 213,45 -3,0"
       transform="translate(0,1002.3622)"
       id="path13189"
       style="fill:none;stroke:#100904;stroke-width:0.30000001;stroke-linecap:butt;stroke-linejoin:miter;stroke-miterlimit:4;stroke-opacity:1;stroke-dasharray:none" />
    <path
       d="m 19,1042.3622 0,7.5 3,0 0,-7.5"
       id="path13185-3"
       style="fill:none;stroke:#100904;stroke-width:0.30000001;stroke-linecap:butt;stroke-linejoin:miter;stroke-miterlimit:4;stroke-opacity:1;stroke-dasharray:none" />
    <path
       d="m 19,1044.8622 3,0"
       id="path13187-8"
       style="fill:none;stroke:#100904;stroke-width:0.30000001;stroke-linecap:butt;stroke-linejoin:miter;stroke-miterlimit:4;stroke-opacity:1;stroke-dasharray:none" />
    <path
       d="m 22,1047.3622 -3,0"
       id="path13189-8"
       style="fill:none;stroke:#100904;stroke-width:0.30000001;stroke-linecap:butt;stroke-linejoin:miter;stroke-miterlimit:4;stroke-opacity:1;stroke-dasharray:none" />
    <path
       d="m 5.5,40 0,8 -2,0 0,-3.5 1,-1.5 0.5,-3 z"
       transform="translate(0,1002.3622)"
       id="path13215"
       style="fill:#28170b;stroke:none" />
    <path
       d="m 227,1018.8622 0.5,-0.5 0.5,0.5 0.5,-0.5 0.5,0.5 0.5,-0.5 1,0 0,24 -1,0 -0.5,0.5 -0.5,-0.5 -0.5,0.5 -0.5,-0.5 -0.5,0.5 z"
       id="path13056-1"
       style="fill:#1a1a1a;stroke:#000000;stroke-width:0.05;stroke-linecap:butt;stroke-linejoin:miter;stroke-miterlimit:4;stroke-opacity:1;stroke-dasharray:none" />
    <path
       d="m 228.5,1042.3622 0,-24"
       id="path13058-6"
       style="fill:none;stroke:#000000;stroke-width:0.05;stroke-linecap:butt;stroke-linejoin:miter;stroke-miterlimit:4;stroke-opacity:1;stroke-dasharray:none" />
    <path
       d="m 229.5,1018.3622 0,24"
       id="path13060-6"
       style="fill:none;stroke:#000000;stroke-width:0.05;stroke-linecap:butt;stroke-linejoin:miter;stroke-miterlimit:4;stroke-opacity:1;stroke-dasharray:none" />
    <path
       d="m 227.5,1042.3622 0,-24"
       id="path13062-8"
       style="fill:none;stroke:#000000;stroke-width:0.05;stroke-linecap:butt;stroke-linejoin:miter;stroke-miterlimit:4;stroke-opacity:1;stroke-dasharray:none" />
    <path
       d="m 227,1040.8622 2.5,0 0,1 -2.5,0"
       id="path13064-5"
       style="fill:none;stroke:#000000;stroke-width:0.1;stroke-linecap:butt;stroke-linejoin:miter;stroke-miterlimit:4;stroke-opacity:1;stroke-dasharray:none" />
    <path
       d="m 226.5,1042.3622 0,-22 0.5,0 0,22 z"
       id="path13068-6"
       style="fill:#4d4d4d;stroke:none" />
    <path
       d="M 227,18 5,18"
       transform="translate(0,1002.3622)"
       id="path12813"
       style="fill:#ff6600;fill-opacity:1;stroke:#000000;stroke-width:0.2;stroke-linecap:butt;stroke-linejoin:miter;stroke-miterlimit:4;stroke-opacity:1;stroke-dasharray:none" />
    <path
       d="m 227.5,1039.8622 -0.5,0 0,-2 0.5,0 z"
       id="path13066-3"
       style="fill:#000000;stroke:none" />
    <path
       d="m 227.5,1031.3622 -0.5,0 0,-0.5 0.5,0 z"
       id="path13070-7"
       style="fill:#ffffff;stroke:none" />
    <rect
       width="221.5"
       height="2.5000174"
       x="5.5"
       y="1042.3622"
       id="rect13072"
       style="fill:#483e37;fill-opacity:1;fill-rule:nonzero;stroke:none" />
    <path
       d="m 226.5,1042.3622 0,8 2,0 0,-3.5 -1,-1.5 -0.5,-3 z"
       id="path13215-8"
       style="fill:#28170b;stroke:none" />
    <path
       d="m 210,42.5 3,0"
       transform="translate(0,1002.3622)"
       id="path13187"
       style="fill:none;stroke:#100904;stroke-width:0.30000001;stroke-linecap:butt;stroke-linejoin:miter;stroke-miterlimit:4;stroke-opacity:1;stroke-dasharray:none" />
    <path
       d="m 210,40 0,7.5 3,0 0,-7.5"
       transform="translate(0,1002.3622)"
       id="path13185"
       style="fill:none;stroke:#100904;stroke-width:0.30000001;stroke-linecap:butt;stroke-linejoin:miter;stroke-miterlimit:4;stroke-opacity:1;stroke-dasharray:none" />
  </g>
</svg>
