<?xml version="1.0" encoding="UTF-8" standalone="no"?>
<!-- Created with Inkscape (http://www.inkscape.org/) -->

<svg
   xmlns:dc="http://purl.org/dc/elements/1.1/"
   xmlns:cc="http://creativecommons.org/ns#"
   xmlns:rdf="http://www.w3.org/1999/02/22-rdf-syntax-ns#"
   xmlns:svg="http://www.w3.org/2000/svg"
   xmlns="http://www.w3.org/2000/svg"
   xmlns:sodipodi="http://sodipodi.sourceforge.net/DTD/sodipodi-0.dtd"
   xmlns:inkscape="http://www.inkscape.org/namespaces/inkscape"
   version="1.1"
   width="232"
   height="50"
   id="svg12289"
   inkscape:version="0.48.4 r9939"
   sodipodi:docname="Class153_ATW.svg">
  <sodipodi:namedview
     pagecolor="#ffffff"
     bordercolor="#666666"
     borderopacity="1"
     objecttolerance="10"
     gridtolerance="10"
     guidetolerance="10"
     inkscape:pageopacity="0"
     inkscape:pageshadow="2"
     inkscape:window-width="1366"
     inkscape:window-height="744"
     id="namedview138"
     showgrid="false"
     inkscape:zoom="1.362069"
     inkscape:cx="185.41738"
     inkscape:cy="105.06988"
     inkscape:window-x="0"
     inkscape:window-y="24"
     inkscape:window-maximized="1"
     inkscape:current-layer="layer1" />
  <defs
     id="defs12291" />
  <metadata
     id="metadata12294">
    <rdf:RDF>
      <cc:Work
         rdf:about="">
        <dc:format>image/svg+xml</dc:format>
        <dc:type
           rdf:resource="http://purl.org/dc/dcmitype/StillImage" />
        <dc:title />
      </cc:Work>
    </rdf:RDF>
  </metadata>
  <g
     transform="translate(0,-1002.3622)"
     id="layer1">
    <path
       d="m 5.5,1044.8622 221,0 0,5.5 -221,0 z"
       id="rect13259"
       style="fill:#000000;fill-opacity:0.90196078;fill-rule:nonzero;stroke:none" />
    <path
       d="m 5,18 0,22 222,0 0,-22 0,0 z"
       transform="translate(0,1002.3622)"
       id="path12301"
       style="fill:#f9f9f9;fill-opacity:1;stroke:#000000;stroke-width:0.1;stroke-linecap:butt;stroke-linejoin:miter;stroke-miterlimit:4;stroke-opacity:1;stroke-dasharray:none" />
    <path
       d="m 32.5,18 167,0 c 5,7 8.5,16 27,16 l 0,6 -221,0 0,-6 c 18.5,0 22,-9 27,-16 z"
       id="path13319"
       style="fill:#127676;fill-opacity:1;stroke:none"
       transform="translate(0,1002.3622)" />
    <path
       d="m 5,16.5 0,1.5 222,0 0,-1.5 C 227,14 225,13 220,13 L 12.5,13 C 7.5,13 5,14 5,16.5 z"
       transform="translate(0,1002.3622)"
       id="path12811"
       style="fill:#555555;fill-opacity:1;stroke:none" />
    <path
       d="m 208,1021.3622 7,0 0,21 -7,0 z"
       id="rect12815"
       style="fill:#00ffff;fill-opacity:1;fill-rule:nonzero;stroke:#000000;stroke-width:0.05;stroke-linecap:butt;stroke-linejoin:round;stroke-miterlimit:4;stroke-opacity:1" />
    <path
       d="m 17.000017,1022.3622 6.999966,0 c 9e-6,0 1.7e-5,0 1.7e-5,0 l 0,20 c 0,0 -8e-6,0 -1.7e-5,0 l -6.999966,0 c -9e-6,0 -1.7e-5,0 -1.7e-5,0 l 0,-20 c 0,0 8e-6,0 1.7e-5,0 z"
       id="rect12815-0"
       style="fill:#00ffff;fill-opacity:1;fill-rule:nonzero;stroke:#000000;stroke-width:0.05;stroke-linecap:butt;stroke-linejoin:round;stroke-miterlimit:4;stroke-opacity:1" />
    <path
       d="m 28,1023.3622 9,0 c 0.554,0 1,0.446 1,1 l 0,6 c 0,0.554 -0.446,1 -1,1 l -9,0 c -0.554,0 -1,-0.446 -1,-1 l 0,-6 c 0,-0.554 0.446,-1 1,-1 z"
       id="rect12855"
       style="fill:#666666;fill-opacity:1;fill-rule:nonzero;stroke:#000000;stroke-width:0.2;stroke-linecap:butt;stroke-linejoin:round;stroke-miterlimit:4;stroke-opacity:1" />
    <path
       d="m 27,1026.3622 11,0"
       id="path12857"
       style="fill:none;stroke:#000000;stroke-width:0.2;stroke-linecap:butt;stroke-linejoin:miter;stroke-miterlimit:4;stroke-opacity:1;stroke-dasharray:none" />
    <path
       d="m 42,1023.3622 9,0 c 0.554,0 1,0.446 1,1 l 0,6 c 0,0.554 -0.446,1 -1,1 l -9,0 c -0.554,0 -1,-0.446 -1,-1 l 0,-6 c 0,-0.554 0.446,-1 1,-1 z"
       id="rect12855-2"
       style="fill:#666666;fill-opacity:1;fill-rule:nonzero;stroke:#000000;stroke-width:0.2;stroke-linecap:butt;stroke-linejoin:round;stroke-miterlimit:4;stroke-opacity:1" />
    <path
       d="m 41,1026.3622 11,0"
       id="path12857-1"
       style="fill:none;stroke:#000000;stroke-width:0.2;stroke-linecap:butt;stroke-linejoin:miter;stroke-miterlimit:4;stroke-opacity:1;stroke-dasharray:none" />
    <path
       d="m 56,1023.3622 9,0 c 0.554,0 1,0.446 1,1 l 0,6 c 0,0.554 -0.446,1 -1,1 l -9,0 c -0.554,0 -1,-0.446 -1,-1 l 0,-6 c 0,-0.554 0.446,-1 1,-1 z"
       id="rect12855-0"
       style="fill:#666666;fill-opacity:1;fill-rule:nonzero;stroke:#000000;stroke-width:0.2;stroke-linecap:butt;stroke-linejoin:round;stroke-miterlimit:4;stroke-opacity:1" />
    <path
       d="m 55,1026.3622 11,0"
       id="path12857-6"
       style="fill:none;stroke:#000000;stroke-width:0.2;stroke-linecap:butt;stroke-linejoin:miter;stroke-miterlimit:4;stroke-opacity:1;stroke-dasharray:none" />
    <path
       d="m 70,1023.3622 9,0 c 0.554,0 1,0.446 1,1 l 0,6 c 0,0.554 -0.446,1 -1,1 l -9,0 c -0.554,0 -1,-0.446 -1,-1 l 0,-6 c 0,-0.554 0.446,-1 1,-1 z"
       id="rect12855-29"
       style="fill:#666666;fill-opacity:1;fill-rule:nonzero;stroke:#000000;stroke-width:0.2;stroke-linecap:butt;stroke-linejoin:round;stroke-miterlimit:4;stroke-opacity:1" />
    <path
       d="m 69,1026.3622 11,0"
       id="path12857-0"
       style="fill:none;stroke:#000000;stroke-width:0.2;stroke-linecap:butt;stroke-linejoin:miter;stroke-miterlimit:4;stroke-opacity:1;stroke-dasharray:none" />
    <path
       d="m 84,1023.3622 9,0 c 0.554,0 1,0.446 1,1 l 0,6 c 0,0.554 -0.446,1 -1,1 l -9,0 c -0.554,0 -1,-0.446 -1,-1 l 0,-6 c 0,-0.554 0.446,-1 1,-1 z"
       id="rect12855-3"
       style="fill:#666666;fill-opacity:1;fill-rule:nonzero;stroke:#000000;stroke-width:0.2;stroke-linecap:butt;stroke-linejoin:round;stroke-miterlimit:4;stroke-opacity:1" />
    <path
       d="m 83,1026.3622 11,0"
       id="path12857-7"
       style="fill:none;stroke:#000000;stroke-width:0.2;stroke-linecap:butt;stroke-linejoin:miter;stroke-miterlimit:4;stroke-opacity:1;stroke-dasharray:none" />
    <path
       d="m 98,1023.3622 9,0 c 0.554,0 1,0.446 1,1 l 0,6 c 0,0.554 -0.446,1 -1,1 l -9,0 c -0.554,0 -1,-0.446 -1,-1 l 0,-6 c 0,-0.554 0.446,-1 1,-1 z"
       id="rect12855-7"
       style="fill:#666666;fill-opacity:1;fill-rule:nonzero;stroke:#000000;stroke-width:0.2;stroke-linecap:butt;stroke-linejoin:round;stroke-miterlimit:4;stroke-opacity:1" />
    <path
       d="m 97,1026.3622 11,0"
       id="path12857-8"
       style="fill:none;stroke:#000000;stroke-width:0.2;stroke-linecap:butt;stroke-linejoin:miter;stroke-miterlimit:4;stroke-opacity:1;stroke-dasharray:none" />
    <path
       d="m 112,1023.3622 9,0 c 0.554,0 1,0.446 1,1 l 0,6 c 0,0.554 -0.446,1 -1,1 l -9,0 c -0.554,0 -1,-0.446 -1,-1 l 0,-6 c 0,-0.554 0.446,-1 1,-1 z"
       id="rect12855-9"
       style="fill:#666666;fill-opacity:1;fill-rule:nonzero;stroke:#000000;stroke-width:0.2;stroke-linecap:butt;stroke-linejoin:round;stroke-miterlimit:4;stroke-opacity:1" />
    <path
       d="m 111,1026.3622 11,0"
       id="path12857-5"
       style="fill:none;stroke:#000000;stroke-width:0.2;stroke-linecap:butt;stroke-linejoin:miter;stroke-miterlimit:4;stroke-opacity:1;stroke-dasharray:none" />
    <path
       d="m 126,1023.3622 9,0 c 0.554,0 1,0.446 1,1 l 0,6 c 0,0.554 -0.446,1 -1,1 l -9,0 c -0.554,0 -1,-0.446 -1,-1 l 0,-6 c 0,-0.554 0.446,-1 1,-1 z"
       id="rect12855-08"
       style="fill:#666666;fill-opacity:1;fill-rule:nonzero;stroke:#000000;stroke-width:0.2;stroke-linecap:butt;stroke-linejoin:round;stroke-miterlimit:4;stroke-opacity:1" />
    <path
       d="m 125,1026.3622 11,0"
       id="path12857-18"
       style="fill:none;stroke:#000000;stroke-width:0.2;stroke-linecap:butt;stroke-linejoin:miter;stroke-miterlimit:4;stroke-opacity:1;stroke-dasharray:none" />
    <path
       d="m 140,1023.3622 9,0 c 0.554,0 1,0.446 1,1 l 0,6 c 0,0.554 -0.446,1 -1,1 l -9,0 c -0.554,0 -1,-0.446 -1,-1 l 0,-6 c 0,-0.554 0.446,-1 1,-1 z"
       id="rect12855-4"
       style="fill:#666666;fill-opacity:1;fill-rule:nonzero;stroke:#000000;stroke-width:0.2;stroke-linecap:butt;stroke-linejoin:round;stroke-miterlimit:4;stroke-opacity:1" />
    <path
       d="m 139,1026.3622 11,0"
       id="path12857-4"
       style="fill:none;stroke:#000000;stroke-width:0.2;stroke-linecap:butt;stroke-linejoin:miter;stroke-miterlimit:4;stroke-opacity:1;stroke-dasharray:none" />
    <path
       d="m 154,1023.3622 9,0 c 0.554,0 1,0.446 1,1 l 0,6 c 0,0.554 -0.446,1 -1,1 l -9,0 c -0.554,0 -1,-0.446 -1,-1 l 0,-6 c 0,-0.554 0.446,-1 1,-1 z"
       id="rect12855-1"
       style="fill:#666666;fill-opacity:1;fill-rule:nonzero;stroke:#000000;stroke-width:0.2;stroke-linecap:butt;stroke-linejoin:round;stroke-miterlimit:4;stroke-opacity:1" />
    <path
       d="m 153,1026.3622 11,0"
       id="path12857-67"
       style="fill:none;stroke:#000000;stroke-width:0.2;stroke-linecap:butt;stroke-linejoin:miter;stroke-miterlimit:4;stroke-opacity:1;stroke-dasharray:none" />
    <path
       d="m 168,1023.3622 9,0 c 0.554,0 1,0.446 1,1 l 0,6 c 0,0.554 -0.446,1 -1,1 l -9,0 c -0.554,0 -1,-0.446 -1,-1 l 0,-6 c 0,-0.554 0.446,-1 1,-1 z"
       id="rect12855-8"
       style="fill:#666666;fill-opacity:1;fill-rule:nonzero;stroke:#000000;stroke-width:0.2;stroke-linecap:butt;stroke-linejoin:round;stroke-miterlimit:4;stroke-opacity:1" />
    <path
       d="m 167,1026.3622 11,0"
       id="path12857-87"
       style="fill:none;stroke:#000000;stroke-width:0.2;stroke-linecap:butt;stroke-linejoin:miter;stroke-miterlimit:4;stroke-opacity:1;stroke-dasharray:none" />
    <path
       d="m 182,1023.3622 9,0 c 0.554,0 1,0.446 1,1 l 0,6 c 0,0.554 -0.446,1 -1,1 l -9,0 c -0.554,0 -1,-0.446 -1,-1 l 0,-6 c 0,-0.554 0.446,-1 1,-1 z"
       id="rect12855-78"
       style="fill:none;stroke:#a2a2a2;stroke-width:0.1;stroke-linecap:butt;stroke-linejoin:round;stroke-miterlimit:4;stroke-opacity:1" />
    <path
       d="m 196.00208,1023.3622 6.99584,0 c 0.55515,0 1.00208,0.4469 1.00208,1.0021 l 0,5.9958 c 0,0.5552 -0.44693,1.0021 -1.00208,1.0021 l -6.99584,0 c -0.55515,0 -1.00208,-0.4469 -1.00208,-1.0021 l 0,-5.9958 c 0,-0.5552 0.44693,-1.0021 1.00208,-1.0021 z"
       id="rect12855-20"
       style="fill:none;stroke:#a2a2a2;stroke-width:0.1;stroke-linecap:butt;stroke-linejoin:round;stroke-miterlimit:4;stroke-opacity:1" />
    <path
       d="m 210.00208,1023.3622 3.49584,0 c 0.55515,0 1.00208,0.4469 1.00208,1.0021 l 0,5.9958 c 0,0.5552 -0.44693,1.0021 -1.00208,1.0021 l -3.49584,0 c -0.55515,0 -1.00208,-0.4469 -1.00208,-1.0021 l 0,-5.9958 c 0,-0.5552 0.44693,-1.0021 1.00208,-1.0021 z"
       id="rect12855-20-1"
       style="fill:#666666;fill-opacity:1;fill-rule:nonzero;stroke:#000000;stroke-width:0.1812831;stroke-linecap:butt;stroke-linejoin:round;stroke-miterlimit:4;stroke-opacity:1" />
    <path
       d="m 18.50208,1023.3622 3.49584,0 c 0.555152,0 1.00208,0.4469 1.00208,1.0021 l 0,5.9958 c 0,0.5552 -0.446928,1.0021 -1.00208,1.0021 l -3.49584,0 c -0.555152,0 -1.00208,-0.4469 -1.00208,-1.0021 l 0,-5.9958 c 0,-0.5552 0.446928,-1.0021 1.00208,-1.0021 z"
       id="rect12855-20-1-4"
       style="fill:#666666;fill-opacity:1;fill-rule:nonzero;stroke:#000000;stroke-width:0.1812831;stroke-linecap:butt;stroke-linejoin:round;stroke-miterlimit:4;stroke-opacity:1" />
    <path
       d="m 11.5,1023.3622 2,0 c 0.554,0 1,0.446 1,1 l 0,6 c 0,0.554 -0.446,1 -1,1 l -2,0 c -0.554,0 -1,-0.446 -1,-1 l 0,-6 c 0,-0.554 0.446,-1 1,-1 z"
       id="rect12855-25"
       style="fill:#666666;fill-opacity:1;fill-rule:nonzero;stroke:#000000;stroke-width:0.2;stroke-linecap:butt;stroke-linejoin:round;stroke-miterlimit:4;stroke-opacity:1" />
    <path
       d="m 218.5,1023.3622 2,0 c 0.554,0 1,0.446 1,1 l 0,6 c 0,0.554 -0.446,1 -1,1 l -2,0 c -0.554,0 -1,-0.446 -1,-1 l 0,-6 c 0,-0.554 0.446,-1 1,-1 z"
       id="rect12855-25-8"
       style="fill:#666666;fill-opacity:1;fill-rule:nonzero;stroke:#000000;stroke-width:0.2;stroke-linecap:butt;stroke-linejoin:round;stroke-miterlimit:4;stroke-opacity:1" />
    <path
       d="M 5,16.5 4.5,16 4,16.5 3.5,16 3,16.5 2.5,16 l -1,0 0,24 1,0 L 3,40.5 3.5,40 4,40.5 4.5,40 5,40.5 z"
       transform="translate(0,1002.3622)"
       id="path13056"
       style="fill:#1a1a1a;stroke:#000000;stroke-width:0.05;stroke-linecap:butt;stroke-linejoin:miter;stroke-miterlimit:4;stroke-opacity:1;stroke-dasharray:none" />
    <path
       d="m 3.5,40 0,-24"
       transform="translate(0,1002.3622)"
       id="path13058"
       style="fill:none;stroke:#000000;stroke-width:0.05;stroke-linecap:butt;stroke-linejoin:miter;stroke-miterlimit:4;stroke-opacity:1;stroke-dasharray:none" />
    <path
       d="m 2.5,16 0,24"
       transform="translate(0,1002.3622)"
       id="path13060"
       style="fill:none;stroke:#000000;stroke-width:0.05;stroke-linecap:butt;stroke-linejoin:miter;stroke-miterlimit:4;stroke-opacity:1;stroke-dasharray:none" />
    <path
       d="m 4.5,40 0,-24"
       transform="translate(0,1002.3622)"
       id="path13062"
       style="fill:none;stroke:#000000;stroke-width:0.05;stroke-linecap:butt;stroke-linejoin:miter;stroke-miterlimit:4;stroke-opacity:1;stroke-dasharray:none" />
    <path
       d="m 5,38.5 -2.5,0 0,1 2.5,0"
       transform="translate(0,1002.3622)"
       id="path13064"
       style="fill:none;stroke:#000000;stroke-width:0.1;stroke-linecap:butt;stroke-linejoin:miter;stroke-miterlimit:4;stroke-opacity:1;stroke-dasharray:none" />
    <path
       d="M 5.5,40 5.5,18 5,18 5,40 z"
       transform="translate(0,1002.3622)"
       id="path13068"
       style="fill:#cdcd00;fill-opacity:1;stroke:none" />
    <path
       d="m 4.5,1039.8622 0.5,0 0,-2 -0.5,0 z"
       id="path13066"
       style="fill:#000000;stroke:none" />
    <path
       d="m 4.5,1031.3622 0.5,0 0,-0.5 -0.5,0 z"
       id="path13070"
       style="fill:#ffffff;stroke:none" />
    <path
       d="m 15,46 c 0,2.209139 -1.678932,4 -3.75,4 -2.0710678,0 -3.75,-1.790861 -3.75,-4 0,-2.209139 1.6789322,-4 3.75,-4 2.071068,0 3.75,1.790861 3.75,4 z"
       transform="matrix(0.99999997,0,0,0.9375,15,1005.4872)"
       id="path13074"
       style="fill:#28170b;fill-opacity:1;fill-rule:nonzero;stroke:none" />
    <path
       d="m 15,46 c 0,2.209139 -1.678932,4 -3.75,4 -2.0710678,0 -3.75,-1.790861 -3.75,-4 0,-2.209139 1.6789322,-4 3.75,-4 2.071068,0 3.75,1.790861 3.75,4 z"
       transform="matrix(0.99999997,0,0,0.9375,37,1005.4872)"
       id="path13074-4"
       style="fill:#28170b;fill-opacity:1;fill-rule:nonzero;stroke:none" />
    <path
       d="m 25,1046.8622 4.5,0 2.5,2.5 10.5,0 2.5,-2.5 4,0 0,-1 -4.5,0 -2,1.5 -10.5,0 -2,-1.5 -5,0 z"
       id="path13097"
       style="fill:#1c1008;fill-opacity:1;stroke:none" />
    <path
       d="m 35,1047.3622 4.5,0 0,-0.5 -4.5,0 z"
       id="path13099"
       style="fill:#1c1008;fill-opacity:1;stroke:none" />
    <path
       d="m 34,1046.8622 6.5,0 c 0.5,0 0.5,-2.5 0,-2.5 l -6.5,0 c -0.5,0 -0.5,2.5 0,2.5 z"
       id="path13101"
       style="fill:#1c1008;fill-opacity:1;stroke:none" />
    <path
       d="m 46.5,1046.3622 3,0 0,2.5 -3,0 z"
       id="path13103"
       style="fill:none;stroke:#190e07;stroke-width:1px;stroke-linecap:butt;stroke-linejoin:miter;stroke-opacity:1" />
    <path
       d="m 25,1046.3622 3,0 0,2.5 -3,0 z"
       id="path13103-1"
       style="fill:none;stroke:#190e07;stroke-width:1px;stroke-linecap:butt;stroke-linejoin:miter;stroke-opacity:1" />
    <path
       d="m 47,44 c 0,0.552285 -0.447715,1 -1,1 -0.552285,0 -1,-0.447715 -1,-1 0,-0.552285 0.447715,-1 1,-1 0.552285,0 1,0.447715 1,1 z"
       transform="matrix(1.75,0,0,1.75,-23,970.3622)"
       id="path13123"
       style="fill:#28170b;stroke:none" />
    <path
       d="m 70,42.5 37.5,0 0,5 -37.5,0 z"
       transform="translate(0,1002.3622)"
       id="rect13125"
       style="fill:#28170b;fill-opacity:1;fill-rule:nonzero;stroke:none" />
    <path
       d="m 112.5,43.5 10,0 0,2.5 -10,0 z"
       transform="translate(0,1002.3622)"
       id="rect13127"
       style="fill:#28170b;fill-opacity:1;fill-rule:nonzero;stroke:none" />
    <path
       d="m 140,43 0,3.5 12.5,0 0,-1 7.5,0 0,-1.5 -7.5,0 0,-1 z"
       transform="translate(0,1002.3622)"
       id="path13129"
       style="fill:#501616;stroke:none" />
    <path
       d="m 15,46 c 0,2.209139 -1.678932,4 -3.75,4 -2.0710678,0 -3.75,-1.790861 -3.75,-4 0,-2.209139 1.6789322,-4 3.75,-4 2.071068,0 3.75,1.790861 3.75,4 z"
       transform="matrix(0.99999997,0,0,0.9375,172.5,1005.4872)"
       id="path13074-8"
       style="fill:#28170b;fill-opacity:1;fill-rule:nonzero;stroke:none" />
    <path
       d="m 15,46 c 0,2.209139 -1.678932,4 -3.75,4 -2.0710678,0 -3.75,-1.790861 -3.75,-4 0,-2.209139 1.6789322,-4 3.75,-4 2.071068,0 3.75,1.790861 3.75,4 z"
       transform="matrix(0.99999997,0,0,0.9375,194.5,1005.4872)"
       id="path13074-4-3"
       style="fill:#28170b;fill-opacity:1;fill-rule:nonzero;stroke:none" />
    <path
       d="m 182.5,1046.8622 4.5,0 2.5,2.5 10.5,0 2.5,-2.5 4,0 0,-1 -4.5,0 -2,1.5 -10.5,0 -2,-1.5 -5,0 z"
       id="path13097-6"
       style="fill:#1c1008;fill-opacity:1;stroke:none" />
    <path
       d="m 192.5,1047.3622 4.5,0 0,-0.5 -4.5,0 z"
       id="path13099-9"
       style="fill:#1c1008;fill-opacity:1;stroke:none" />
    <path
       d="m 191.5,1046.8622 6.5,0 c 0.5,0 0.5,-2.5 0,-2.5 l -6.5,0 c -0.5,0 -0.5,2.5 0,2.5 z"
       id="path13101-3"
       style="fill:#1c1008;fill-opacity:1;stroke:none" />
    <path
       d="m 204,1046.3622 3,0 0,2.5 -3,0 z"
       id="path13103-9"
       style="fill:none;stroke:#190e07;stroke-width:1px;stroke-linecap:butt;stroke-linejoin:miter;stroke-opacity:1" />
    <path
       d="m 182.5,1046.3622 3,0 0,2.5 -3,0 z"
       id="path13103-1-7"
       style="fill:none;stroke:#190e07;stroke-width:1px;stroke-linecap:butt;stroke-linejoin:miter;stroke-opacity:1" />
    <path
       d="m 47,44 c 0,0.552285 -0.447715,1 -1,1 -0.552285,0 -1,-0.447715 -1,-1 0,-0.552285 0.447715,-1 1,-1 0.552285,0 1,0.447715 1,1 z"
       transform="matrix(1.75,0,0,1.75,92,970.3622)"
       id="path13123-9"
       style="fill:#28170b;stroke:none" />
    <path
       d="m 213,45 -3,0"
       transform="translate(0,1002.3622)"
       id="path13189"
       style="fill:none;stroke:#100904;stroke-width:0.30000001;stroke-linecap:butt;stroke-linejoin:miter;stroke-miterlimit:4;stroke-opacity:1;stroke-dasharray:none" />
    <path
       d="m 19,1042.3622 0,7.5 3,0 0,-7.5"
       id="path13185-3"
       style="fill:none;stroke:#100904;stroke-width:0.30000001;stroke-linecap:butt;stroke-linejoin:miter;stroke-miterlimit:4;stroke-opacity:1;stroke-dasharray:none" />
    <path
       d="m 19,1044.8622 3,0"
       id="path13187-8"
       style="fill:none;stroke:#100904;stroke-width:0.30000001;stroke-linecap:butt;stroke-linejoin:miter;stroke-miterlimit:4;stroke-opacity:1;stroke-dasharray:none" />
    <path
       d="m 22,1047.3622 -3,0"
       id="path13189-8"
       style="fill:none;stroke:#100904;stroke-width:0.30000001;stroke-linecap:butt;stroke-linejoin:miter;stroke-miterlimit:4;stroke-opacity:1;stroke-dasharray:none" />
    <path
       d="m 5.5,40 0,8 -2,0 0,-3.5 L 5,43 5,40 z"
       transform="translate(0,1002.3622)"
       id="path13215"
       style="fill:#28170b;stroke:none" />
    <path
       d="m 227,1018.8622 0.5,-0.5 0.5,0.5 0.5,-0.5 0.5,0.5 0.5,-0.5 1,0 0,24 -1,0 -0.5,0.5 -0.5,-0.5 -0.5,0.5 -0.5,-0.5 -0.5,0.5 z"
       id="path13056-1"
       style="fill:#1a1a1a;stroke:#000000;stroke-width:0.05;stroke-linecap:butt;stroke-linejoin:miter;stroke-miterlimit:4;stroke-opacity:1;stroke-dasharray:none" />
    <path
       d="m 228.5,1042.3622 0,-24"
       id="path13058-6"
       style="fill:none;stroke:#000000;stroke-width:0.05;stroke-linecap:butt;stroke-linejoin:miter;stroke-miterlimit:4;stroke-opacity:1;stroke-dasharray:none" />
    <path
       d="m 229.5,1018.3622 0,24"
       id="path13060-6"
       style="fill:none;stroke:#000000;stroke-width:0.05;stroke-linecap:butt;stroke-linejoin:miter;stroke-miterlimit:4;stroke-opacity:1;stroke-dasharray:none" />
    <path
       d="m 227.5,1042.3622 0,-24"
       id="path13062-8"
       style="fill:none;stroke:#000000;stroke-width:0.05;stroke-linecap:butt;stroke-linejoin:miter;stroke-miterlimit:4;stroke-opacity:1;stroke-dasharray:none" />
    <path
       d="m 227,1040.8622 2.5,0 0,1 -2.5,0"
       id="path13064-5"
       style="fill:none;stroke:#000000;stroke-width:0.1;stroke-linecap:butt;stroke-linejoin:miter;stroke-miterlimit:4;stroke-opacity:1;stroke-dasharray:none" />
    <path
       d="m 226.5,1042.3622 0,-22 0.5,0 0,22 z"
       id="path13068-6"
       style="fill:#cdcd00;fill-opacity:1;stroke:none" />
    <path
       d="M 227,18 5,18"
       transform="translate(0,1002.3622)"
       id="path12813"
       style="fill:none;stroke:#d45500;stroke-width:0.2;stroke-linecap:butt;stroke-linejoin:miter;stroke-miterlimit:4;stroke-opacity:1;stroke-dasharray:none" />
    <path
       d="m 227.5,1039.8622 -0.5,0 0,-2 0.5,0 z"
       id="path13066-3"
       style="fill:#000000;stroke:none" />
    <path
       d="m 227.5,1031.3622 -0.5,0 0,-0.5 0.5,0 z"
       id="path13070-7"
       style="fill:#ffffff;stroke:none" />
    <path
       d="m 5.5,1042.3622 221.5,0 0,2.5 -221.5,0 z"
       id="rect13072"
       style="fill:#483e37;fill-opacity:1;fill-rule:nonzero;stroke:none" />
    <path
       d="m 226.5,1042.3622 0,8 2,0 0,-3.5 -1.5,-1.5 0,-3 z"
       id="path13215-8"
       style="fill:#28170b;stroke:none" />
    <path
       d="m 210,42.5 3,0"
       transform="translate(0,1002.3622)"
       id="path13187"
       style="fill:none;stroke:#100904;stroke-width:0.30000001;stroke-linecap:butt;stroke-linejoin:miter;stroke-miterlimit:4;stroke-opacity:1;stroke-dasharray:none" />
    <path
       d="m 210,40 0,7.5 3,0 0,-7.5"
       transform="translate(0,1002.3622)"
       id="path13185"
       style="fill:none;stroke:#100904;stroke-width:0.30000001;stroke-linecap:butt;stroke-linejoin:miter;stroke-miterlimit:4;stroke-opacity:1;stroke-dasharray:none" />
    <path
       d="m 17,20 0,20"
       transform="translate(0,1002.3622)"
       id="path13280"
       style="fill:none;stroke:#000000;stroke-width:0.5;stroke-linecap:butt;stroke-linejoin:miter;stroke-miterlimit:4;stroke-opacity:1;stroke-dasharray:none" />
    <path
       d="m 17,1042.3622 7,0"
       id="path12835-9"
       style="fill:#d4aa00;stroke:#cdcb00;stroke-width:0.5;stroke-linecap:butt;stroke-linejoin:miter;stroke-miterlimit:4;stroke-opacity:1;stroke-dasharray:none" />
    <path
       d="m 215,1021.3622 0,21"
       id="path13280-7"
       style="fill:none;stroke:#000000;stroke-width:0.5;stroke-linecap:butt;stroke-linejoin:miter;stroke-miterlimit:4;stroke-opacity:1;stroke-dasharray:none" />
    <path
       d="m 208,40 7,0"
       transform="translate(0,1002.3622)"
       id="path12835"
       style="fill:#ffff00;stroke:#cdcd00;stroke-width:0.5;stroke-linecap:butt;stroke-linejoin:miter;stroke-miterlimit:4;stroke-opacity:1;stroke-dasharray:none" />
    <path
       d="m 47.253205,1036.1122 157.493585,0"
       id="path13321"
       style="fill:#cdcd00;fill-opacity:1;stroke:#cdcd00;stroke-width:0.50319493;stroke-linecap:butt;stroke-linejoin:miter;stroke-miterlimit:4;stroke-opacity:1;stroke-dasharray:none" />
    <path
       d="M 5,40 6.5,40 6,43 5,43 4.5,40 z"
       transform="translate(0,1002.3622)"
       id="path13427"
       style="fill:#cdcd00;fill-opacity:1;stroke:none" />
    <path
       d="m 226,1042.3622 1.5,0 -0.5,3 -1,0 -0.5,-3 z"
       id="path13427-3"
       style="fill:#cdcd00;fill-opacity:1;stroke:none" />
    <g
       id="text13447"
       style="font-size:2px;font-style:normal;font-variant:normal;font-weight:normal;font-stretch:normal;line-height:125%;letter-spacing:0px;word-spacing:0px;fill:#ffffff;fill-opacity:1;stroke:none;font-family:Arial;-inkscape-font-specification:Arial">
      <path
         d="m 199.75977,1035.8368 -0.17579,0 0,-1.1201 c -0.0423,0.04 -0.098,0.081 -0.16699,0.1211 -0.0684,0.04 -0.12988,0.071 -0.18457,0.091 l 0,-0.1699 c 0.0983,-0.046 0.18425,-0.1022 0.25781,-0.168 0.0736,-0.066 0.12565,-0.1296 0.15625,-0.1914 l 0.11329,0 0,1.4375"
         id="path13497"
         style="fill:#ffffff" />
      <path
         d="m 201.13477,1035.6678 0,0.169 -0.94629,0 c -0.001,-0.042 0.006,-0.083 0.0205,-0.1221 0.0241,-0.064 0.0625,-0.1279 0.11524,-0.1904 0.0534,-0.062 0.13021,-0.1348 0.23047,-0.2168 0.1556,-0.1276 0.26074,-0.2285 0.31543,-0.3027 0.0547,-0.075 0.082,-0.1455 0.082,-0.212 0,-0.07 -0.0251,-0.1282 -0.0752,-0.1757 -0.0495,-0.048 -0.11426,-0.072 -0.19433,-0.072 -0.0846,0 -0.15235,0.025 -0.20313,0.076 -0.0508,0.051 -0.0765,0.1211 -0.0771,0.2109 l -0.18066,-0.018 c 0.0124,-0.1348 0.0589,-0.2373 0.13965,-0.3077 0.0807,-0.071 0.18913,-0.1064 0.32519,-0.1064 0.13737,0 0.2461,0.038 0.32618,0.1142 0.0801,0.076 0.12011,0.1706 0.12011,0.2833 0,0.057 -0.0117,0.1136 -0.0352,0.1689 -0.0234,0.055 -0.0625,0.1136 -0.11719,0.1748 -0.054,0.061 -0.14421,0.1452 -0.27051,0.252 -0.10547,0.089 -0.17318,0.1487 -0.20312,0.1806 -0.03,0.031 -0.0547,0.063 -0.0742,0.095 l 0.70215,0"
         id="path13499"
         style="fill:#ffffff" />
      <path
         d="m 201.3252,1035.4589 0.17578,-0.024 c 0.0202,0.1 0.0544,0.1716 0.10254,0.2158 0.0488,0.044 0.10807,0.065 0.17773,0.065 0.0827,0 0.15234,-0.029 0.20898,-0.086 0.0573,-0.057 0.0859,-0.1282 0.0859,-0.2129 0,-0.081 -0.0264,-0.1471 -0.0791,-0.1992 -0.0527,-0.053 -0.11979,-0.079 -0.20117,-0.079 -0.0332,0 -0.0745,0.01 -0.12403,0.02 l 0.0195,-0.1543 c 0.0117,0 0.0212,0 0.0283,0 0.0749,0 0.14225,-0.019 0.20214,-0.059 0.0599,-0.039 0.0898,-0.099 0.0898,-0.1806 0,-0.064 -0.0218,-0.1179 -0.0654,-0.1602 -0.0436,-0.042 -0.0999,-0.063 -0.16895,-0.063 -0.0684,0 -0.12532,0.022 -0.17089,0.065 -0.0456,0.043 -0.0749,0.1074 -0.0879,0.1933 l -0.17578,-0.031 c 0.0215,-0.1179 0.0703,-0.209 0.14649,-0.2735 0.0762,-0.065 0.1709,-0.098 0.28418,-0.098 0.0781,0 0.15006,0.017 0.21582,0.051 0.0658,0.033 0.11588,0.079 0.15039,0.1367 0.0352,0.058 0.0527,0.1195 0.0527,0.1846 0,0.062 -0.0166,0.1181 -0.0498,0.1689 -0.0332,0.051 -0.0824,0.091 -0.14746,0.1211 0.0846,0.019 0.15039,0.06 0.19726,0.1221 0.0469,0.061 0.0703,0.138 0.0703,0.2304 -1e-5,0.125 -0.0456,0.2312 -0.13672,0.3184 -0.0911,0.087 -0.20638,0.1299 -0.34571,0.1299 -0.12565,0 -0.23014,-0.038 -0.31347,-0.1123 -0.0827,-0.075 -0.12989,-0.1719 -0.1416,-0.291"
         id="path13501"
         style="fill:#ffffff" />
      <path
         d="m 203.00098,1035.8368 0,-0.3428 -0.6211,0 0,-0.1611 0.65332,-0.9277 0.14356,0 0,0.9277 0.19336,0 0,0.1611 -0.19336,0 0,0.3428 -0.17578,0 m 0,-0.5039 0,-0.6455 -0.44825,0.6455 0.44825,0"
         id="path13503"
         style="fill:#ffffff" />
      <path
         d="m 203.55078,1035.4618 0.18457,-0.016 c 0.0137,0.09 0.0452,0.1575 0.0947,0.2031 0.0501,0.045 0.11035,0.067 0.18066,0.067 0.0846,0 0.15625,-0.032 0.21485,-0.096 0.0586,-0.064 0.0879,-0.1485 0.0879,-0.2539 0,-0.1003 -0.0283,-0.1794 -0.085,-0.2373 -0.056,-0.058 -0.12956,-0.087 -0.22071,-0.087 -0.0566,0 -0.10775,0.013 -0.15332,0.039 -0.0456,0.025 -0.0814,0.059 -0.10742,0.1 l -0.16504,-0.021 0.13867,-0.7353 0.71192,0 0,0.168 -0.57129,0 -0.0772,0.3847 c 0.0859,-0.06 0.17611,-0.09 0.27051,-0.09 0.125,0 0.23047,0.043 0.3164,0.1299 0.0859,0.087 0.12891,0.1979 0.12891,0.3339 0,0.1296 -0.0378,0.2416 -0.11328,0.336 -0.0918,0.1159 -0.21712,0.1738 -0.37598,0.1738 -0.13021,0 -0.23665,-0.037 -0.31933,-0.1094 -0.082,-0.073 -0.12891,-0.1696 -0.14063,-0.29"
         id="path13505"
         style="fill:#ffffff" />
    </g>
    <path
       d="m 205.5,1035.3622 1,0 0,2 -1,0 z"
       id="rect13451"
       style="fill:#241f1c;fill-opacity:0.78431373;fill-rule:nonzero;stroke:none" />
    <path
       d="m 217.5,32.5 1,0 0,1.5 -1,0 z"
       transform="translate(0,1002.3622)"
       id="rect13457"
       style="fill:#ac9d93;fill-opacity:1;fill-rule:nonzero;stroke:none" />
    <path
       d="m 218.5,33.25 c 0,0.138071 -0.11193,0.25 -0.25,0.25 -0.13807,0 -0.25,-0.111929 -0.25,-0.25 0,-0.138071 0.11193,-0.25 0.25,-0.25 0.13807,0 0.25,0.111929 0.25,0.25 z"
       transform="translate(-0.22767857,1002.3577)"
       id="path13459"
       style="fill:#ffcc00;fill-opacity:1;fill-rule:nonzero;stroke:none" />
    <g
       transform="scale(1.0540182,0.94875022)"
       style="font-size:24.57914925000000039px;font-style:normal;font-variant:normal;font-weight:normal;font-stretch:normal;line-height:125%;letter-spacing:0px;word-spacing:0px;fill:#f2f2f2;fill-opacity:1;stroke:none;font-family:Symbol Signs;-inkscape-font-specification:Symbol Signs"
       id="text3115">
      <path
         d="m 36.661827,1091.2828 -0.483062,0 -0.192025,-0.4995 -0.879113,0 -0.181523,0.4995 -0.47106,0 0.85661,-2.1992 0.46956,0 0.880613,2.1992 m -0.817605,-0.8701 -0.303039,-0.8161 -0.297038,0.8161 0.600077,0"
         style="font-size:3.07239365999999992px;font-weight:bold;font-family:Arial;-inkscape-font-specification:Arial Bold;fill:#f2f2f2"
         id="path3954" />
      <path
         d="m 36.900357,1091.2828 0,-2.1992 0.93462,0 c 0.235029,0 0.40555,0.02 0.511565,0.06 0.107012,0.039 0.192523,0.109 0.256533,0.21 0.06401,0.101 0.09601,0.2165 0.09601,0.3465 -2e-6,0.1651 -0.04851,0.3016 -0.145519,0.4096 -0.09701,0.107 -0.242033,0.1745 -0.435056,0.2025 0.09601,0.056 0.175021,0.1175 0.237031,0.1845 0.06301,0.067 0.147517,0.1861 0.253532,0.3571 l 0.268534,0.429 -0.531068,0 -0.321041,-0.4785 c -0.114016,-0.171 -0.192026,-0.2786 -0.23403,-0.3226 -0.04201,-0.045 -0.08651,-0.076 -0.133517,-0.091 -0.04701,-0.017 -0.121516,-0.025 -0.223528,-0.025 l -0.09001,0 0,0.9181 -0.444057,0 m 0.444057,-1.2691 0.328542,0 c 0.213026,0 0.346043,-0.01 0.399051,-0.027 0.05301,-0.018 0.09451,-0.049 0.124516,-0.093 0.03,-0.044 0.045,-0.099 0.04501,-0.1651 -2e-6,-0.074 -0.02,-0.1335 -0.06001,-0.1785 -0.03901,-0.046 -0.09451,-0.075 -0.166521,-0.087 -0.03601,-0 -0.14402,-0.01 -0.324042,-0.01 l -0.346544,0 0,0.5581"
         style="font-size:3.07239365999999992px;font-weight:bold;font-family:Arial;-inkscape-font-specification:Arial Bold;fill:#f2f2f2"
         id="path3956" />
      <path
         d="m 39.120642,1091.2828 0,-2.1992 0.934619,0 c 0.235029,0 0.405551,0.02 0.511566,0.06 0.107012,0.039 0.192523,0.109 0.256533,0.21 0.06401,0.101 0.09601,0.2165 0.09601,0.3465 -2e-6,0.1651 -0.04851,0.3016 -0.145519,0.4096 -0.09701,0.107 -0.242032,0.1745 -0.435055,0.2025 0.09601,0.056 0.17502,0.1175 0.23703,0.1845 0.06301,0.067 0.147517,0.1861 0.253532,0.3571 l 0.268535,0.429 -0.531068,0 -0.321041,-0.4785 c -0.114016,-0.171 -0.192026,-0.2786 -0.23403,-0.3226 -0.04201,-0.045 -0.08651,-0.076 -0.133517,-0.091 -0.04701,-0.017 -0.121517,-0.025 -0.223529,-0.025 l -0.09001,0 0,0.9181 -0.444056,0 m 0.444056,-1.2691 0.328543,0 c 0.213026,0 0.346043,-0.01 0.399051,-0.027 0.053,-0.018 0.09451,-0.049 0.124516,-0.093 0.03,-0.044 0.045,-0.099 0.045,-0.1651 -10e-7,-0.074 -0.02,-0.1335 -0.06001,-0.1785 -0.03901,-0.046 -0.09451,-0.075 -0.166522,-0.087 -0.03601,-0 -0.144019,-0.01 -0.324041,-0.01 l -0.346545,0 0,0.5581"
         style="font-size:3.07239365999999992px;font-weight:bold;font-family:Arial;-inkscape-font-specification:Arial Bold;fill:#f2f2f2"
         id="path3958" />
      <path
         d="m 41.325924,1091.2828 0,-2.1992 0.444057,0 0,2.1992 -0.444057,0"
         style="font-size:3.07239365999999992px;font-weight:bold;font-family:Arial;-inkscape-font-specification:Arial Bold;fill:#f2f2f2"
         id="path3960" />
      <path
         d="m 42.752607,1091.2828 -0.786101,-2.1992 0.481562,0 0.556571,1.6277 0.538569,-1.6277 0.47106,0 -0.787601,2.1992 -0.47406,0"
         style="font-size:3.07239365999999992px;font-weight:bold;font-family:Arial;-inkscape-font-specification:Arial Bold;fill:#f2f2f2"
         id="path3962" />
      <path
         d="m 45.999023,1091.2828 -0.483062,0 -0.192025,-0.4995 -0.879112,0 -0.181524,0.4995 -0.47106,0 0.85661,-2.1992 0.46956,0 0.880613,2.1992 m -0.817605,-0.8701 -0.303039,-0.8161 -0.297038,0.8161 0.600077,0"
         style="font-size:3.07239365999999992px;font-weight:bold;font-family:Arial;-inkscape-font-specification:Arial Bold;fill:#f2f2f2"
         id="path3964" />
    </g>
    <g
       transform="scale(0.97262329,1.0281473)"
       style="font-size:32.33114242999999988px;font-style:normal;font-variant:normal;font-weight:normal;font-stretch:normal;line-height:125%;letter-spacing:0px;word-spacing:0px;fill:#f2f2f2;fill-opacity:1;stroke:none;font-family:Symbol Signs;-inkscape-font-specification:Symbol Signs"
       id="text3119">
      <path
         d="m 37.551432,1009.5532 0,-0.7654 -0.285936,0 0,-0.1025 0.687905,0 0,0.1025 -0.287121,0 0,0.7654 -0.114848,0"
         style="font-size:1.21241796000000002px;font-family:Arial;-inkscape-font-specification:Arial;fill:#f2f2f2"
         id="path3897" />
      <path
         d="m 38.013193,1009.5532 0,-0.6287 0.0959,0 0,0.095 c 0.02447,-0.045 0.04697,-0.074 0.06749,-0.088 0.02092,-0.014 0.04381,-0.021 0.06867,-0.021 0.03591,0 0.07242,0.011 0.10952,0.034 l -0.0367,0.099 c -0.02605,-0.015 -0.0521,-0.023 -0.07814,-0.023 -0.02328,0 -0.0442,0.01 -0.06275,0.021 -0.01855,0.014 -0.03177,0.033 -0.03966,0.058 -0.01184,0.038 -0.01776,0.079 -0.01776,0.1244 l 0,0.3291 -0.10656,0"
         style="font-size:1.21241796000000002px;font-family:Arial;-inkscape-font-specification:Arial;fill:#f2f2f2"
         id="path3899" />
      <path
         d="m 38.830746,1009.4757 c -0.03947,0.034 -0.07755,0.057 -0.114256,0.071 -0.03631,0.014 -0.07538,0.021 -0.117216,0.021 -0.06907,0 -0.12215,-0.017 -0.159248,-0.05 -0.0371,-0.034 -0.05565,-0.077 -0.05565,-0.1296 0,-0.031 0.0069,-0.059 0.02072,-0.084 0.01421,-0.026 0.03256,-0.046 0.05506,-0.062 0.02289,-0.015 0.04854,-0.027 0.07696,-0.035 0.02092,-0.01 0.05249,-0.011 0.09472,-0.016 0.08604,-0.01 0.149381,-0.023 0.190032,-0.037 3.94e-4,-0.015 5.92e-4,-0.024 5.92e-4,-0.028 0,-0.043 -0.01006,-0.074 -0.03019,-0.092 -0.02723,-0.024 -0.06769,-0.036 -0.12136,-0.036 -0.05012,0 -0.08722,0.01 -0.111296,0.027 -0.02368,0.017 -0.04124,0.048 -0.05269,0.093 l -0.104192,-0.014 c 0.0095,-0.045 0.02506,-0.08 0.04677,-0.1078 0.02171,-0.028 0.05308,-0.049 0.09413,-0.063 0.04104,-0.015 0.0886,-0.023 0.142672,-0.023 0.05367,0 0.09728,0.01 0.130832,0.019 0.03355,0.013 0.05821,0.029 0.074,0.048 0.01579,0.019 0.02684,0.043 0.03315,0.072 0.0036,0.018 0.0053,0.051 0.0053,0.098 l 0,0.1421 c 0,0.099 0.0022,0.1618 0.0065,0.1882 0.0047,0.026 0.01381,0.051 0.02723,0.075 l -0.111297,0 c -0.01105,-0.022 -0.01816,-0.048 -0.02131,-0.077 m -0.0089,-0.238 c -0.03868,0.016 -0.09669,0.029 -0.174048,0.04 -0.04381,0.01 -0.07479,0.013 -0.09294,0.021 -0.01816,0.01 -0.03217,0.019 -0.04203,0.035 -0.0099,0.015 -0.0148,0.032 -0.0148,0.05 0,0.028 0.01066,0.052 0.03197,0.071 0.02171,0.019 0.05328,0.029 0.09472,0.029 0.04104,0 0.07755,-0.01 0.10952,-0.027 0.03197,-0.018 0.05545,-0.043 0.07045,-0.074 0.01144,-0.024 0.01717,-0.06 0.01717,-0.1065 l 0,-0.039"
         style="font-size:1.21241796000000002px;font-family:Arial;-inkscape-font-specification:Arial;fill:#f2f2f2"
         id="path3901" />
      <path
         d="m 39.095963,1008.8079 0,-0.1226 0.10656,0 0,0.1226 -0.10656,0 m 0,0.7453 0,-0.6287 0.10656,0 0,0.6287 -0.10656,0"
         style="font-size:1.21241796000000002px;font-family:Arial;-inkscape-font-specification:Arial;fill:#f2f2f2"
         id="path3903" />
      <path
         d="m 39.365323,1009.5532 0,-0.6287 0.0959,0 0,0.089 c 0.04618,-0.069 0.112875,-0.1036 0.200097,-0.1036 0.03789,0 0.07262,0.01 0.104192,0.021 0.03197,0.013 0.05585,0.031 0.07163,0.053 0.01579,0.022 0.02684,0.048 0.03315,0.079 0.0039,0.02 0.0059,0.054 0.0059,0.1036 l 0,0.3866 -0.10656,0 0,-0.3824 c -1e-6,-0.043 -0.0041,-0.076 -0.01243,-0.097 -0.0083,-0.022 -0.02309,-0.039 -0.0444,-0.052 -0.02092,-0.013 -0.04559,-0.019 -0.074,-0.019 -0.04539,0 -0.08466,0.014 -0.117809,0.043 -0.03276,0.029 -0.04914,0.084 -0.04914,0.164 l 0,0.3433 -0.10656,0"
         style="font-size:1.21241796000000002px;font-family:Arial;-inkscape-font-specification:Arial;fill:#f2f2f2"
         id="path3905" />
      <path
         d="m 39.99758,1009.3656 0.105376,-0.017 c 0.0059,0.042 0.0223,0.075 0.04914,0.097 0.02723,0.023 0.06512,0.034 0.113664,0.034 0.04894,0 0.08525,-0.01 0.108929,-0.03 0.02368,-0.02 0.03552,-0.044 0.03552,-0.07 -10e-7,-0.024 -0.01046,-0.043 -0.03138,-0.057 -0.0146,-0.01 -0.05091,-0.022 -0.108929,-0.036 -0.07814,-0.02 -0.132411,-0.037 -0.1628,-0.051 -0.02999,-0.015 -0.05289,-0.034 -0.06867,-0.06 -0.01539,-0.026 -0.02309,-0.054 -0.02309,-0.085 0,-0.028 0.0063,-0.054 0.01894,-0.078 0.01302,-0.024 0.03059,-0.044 0.05269,-0.06 0.01658,-0.012 0.03907,-0.023 0.06749,-0.031 0.02881,-0.01 0.0596,-0.013 0.09235,-0.013 0.04933,0 0.09255,0.01 0.129649,0.021 0.03749,0.014 0.06512,0.034 0.08288,0.058 0.01776,0.024 0.02999,0.057 0.0367,0.097 l -0.104192,0.014 c -0.0047,-0.032 -0.01855,-0.058 -0.04144,-0.076 -0.0225,-0.018 -0.05447,-0.027 -0.09591,-0.027 -0.04894,0 -0.08387,0.01 -0.104784,0.024 -0.02092,0.016 -0.03138,0.035 -0.03138,0.057 0,0.014 0.0043,0.026 0.01302,0.037 0.0087,0.011 0.0223,0.021 0.04085,0.028 0.01066,0 0.04203,0.013 0.09413,0.027 0.07538,0.02 0.127872,0.037 0.157473,0.05 0.02999,0.013 0.05348,0.031 0.07045,0.056 0.01697,0.024 0.02545,0.055 0.02546,0.091 -1e-6,0.035 -0.01046,0.069 -0.03138,0.1007 -0.02052,0.031 -0.05032,0.055 -0.08939,0.073 -0.03907,0.017 -0.08328,0.025 -0.132609,0.025 -0.0817,0 -0.144053,-0.017 -0.187072,-0.051 -0.04262,-0.034 -0.06986,-0.084 -0.0817,-0.1509"
         style="font-size:1.21241796000000002px;font-family:Arial;-inkscape-font-specification:Arial;fill:#f2f2f2"
         id="path3907" />
      <path
         d="m 41.147838,1009.5532 -0.230288,-0.8679 0.117808,0 0.132016,0.569 c 0.01421,0.06 0.02644,0.1188 0.0367,0.1776 0.0221,-0.093 0.03513,-0.1463 0.03907,-0.1605 l 0.165168,-0.5861 0.138529,0 0.12432,0.4393 c 0.03118,0.1089 0.05367,0.2114 0.06749,0.3073 0.01105,-0.055 0.02546,-0.1178 0.04322,-0.1889 l 0.13616,-0.5577 0.11544,0 -0.237984,0.8679 -0.110704,0 -0.182928,-0.6612 c -0.01539,-0.055 -0.02447,-0.089 -0.02723,-0.1019 -0.0091,0.04 -0.01756,0.074 -0.02546,0.1019 l -0.184112,0.6612 -0.117216,0"
         style="font-size:1.21241796000000002px;font-family:Arial;-inkscape-font-specification:Arial;fill:#f2f2f2"
         id="path3909" />
      <path
         d="m 42.492864,1009.4757 c -0.03947,0.034 -0.07755,0.057 -0.114256,0.071 -0.03631,0.014 -0.07538,0.021 -0.117216,0.021 -0.06907,0 -0.12215,-0.017 -0.159248,-0.05 -0.0371,-0.034 -0.05565,-0.077 -0.05565,-0.1296 -10e-7,-0.031 0.0069,-0.059 0.02072,-0.084 0.01421,-0.026 0.03256,-0.046 0.05506,-0.062 0.02289,-0.015 0.04854,-0.027 0.07696,-0.035 0.02092,-0.01 0.05249,-0.011 0.09472,-0.016 0.08604,-0.01 0.149381,-0.023 0.190032,-0.037 3.94e-4,-0.015 5.92e-4,-0.024 5.92e-4,-0.028 0,-0.043 -0.01006,-0.074 -0.03019,-0.092 -0.02723,-0.024 -0.06769,-0.036 -0.12136,-0.036 -0.05012,0 -0.08722,0.01 -0.111296,0.027 -0.02368,0.017 -0.04124,0.048 -0.05269,0.093 l -0.104192,-0.014 c 0.0095,-0.045 0.02506,-0.08 0.04677,-0.1078 0.02171,-0.028 0.05308,-0.049 0.09413,-0.063 0.04104,-0.015 0.0886,-0.023 0.142672,-0.023 0.05367,0 0.09728,0.01 0.130832,0.019 0.03355,0.013 0.05821,0.029 0.074,0.048 0.01579,0.019 0.02684,0.043 0.03315,0.072 0.0036,0.018 0.0053,0.051 0.0053,0.098 l 0,0.1421 c 0,0.099 0.0022,0.1618 0.0065,0.1882 0.0047,0.026 0.01381,0.051 0.02723,0.075 l -0.111296,0 c -0.01105,-0.022 -0.01816,-0.048 -0.02131,-0.077 m -0.0089,-0.238 c -0.03868,0.016 -0.09669,0.029 -0.174048,0.04 -0.04381,0.01 -0.07479,0.013 -0.09294,0.021 -0.01816,0.01 -0.03217,0.019 -0.04203,0.035 -0.0099,0.015 -0.0148,0.032 -0.0148,0.05 0,0.028 0.01066,0.052 0.03197,0.071 0.02171,0.019 0.05328,0.029 0.09472,0.029 0.04105,0 0.07755,-0.01 0.10952,-0.027 0.03197,-0.018 0.05545,-0.043 0.07045,-0.074 0.01145,-0.024 0.01717,-0.06 0.01717,-0.1065 l 0,-0.039"
         style="font-size:1.21241796000000002px;font-family:Arial;-inkscape-font-specification:Arial;fill:#f2f2f2"
         id="path3911" />
      <path
         d="m 42.756305,1009.5532 0,-0.8679 0.10656,0 0,0.8679 -0.10656,0"
         style="font-size:1.21241796000000002px;font-family:Arial;-inkscape-font-specification:Arial;fill:#f2f2f2"
         id="path3913" />
      <path
         d="m 43.45901,1009.3508 0.110112,0.014 c -0.01737,0.064 -0.04953,0.1142 -0.0965,0.1498 -0.04697,0.036 -0.106956,0.053 -0.179969,0.053 -0.09196,0 -0.164971,-0.028 -0.21904,-0.085 -0.05367,-0.057 -0.08051,-0.1364 -0.08051,-0.2386 0,-0.1058 0.02723,-0.1879 0.0817,-0.2463 0.05446,-0.058 0.125109,-0.088 0.211936,-0.088 0.08406,0 0.152736,0.029 0.206017,0.086 0.05328,0.057 0.07992,0.1378 0.07992,0.2416 -10e-7,0.01 -1.98e-4,0.016 -5.92e-4,0.028 l -0.468865,0 c 0.0039,0.069 0.02348,0.122 0.05861,0.1587 0.03513,0.037 0.07893,0.055 0.131424,0.055 0.03907,0 0.07242,-0.01 0.100048,-0.031 0.02763,-0.02 0.04953,-0.053 0.06571,-0.098 m -0.349873,-0.1723 0.351057,0 c -0.0047,-0.053 -0.01816,-0.093 -0.04026,-0.119 -0.03394,-0.041 -0.07795,-0.062 -0.132016,-0.062 -0.04894,0 -0.09018,0.016 -0.123728,0.049 -0.03315,0.033 -0.0515,0.077 -0.05506,0.1314"
         style="font-size:1.21241796000000002px;font-family:Arial;-inkscape-font-specification:Arial;fill:#f2f2f2"
         id="path3915" />
      <path
         d="m 43.660882,1009.3656 0.105376,-0.017 c 0.0059,0.042 0.0223,0.075 0.04914,0.097 0.02723,0.023 0.06512,0.034 0.113665,0.034 0.04894,0 0.08525,-0.01 0.108928,-0.03 0.02368,-0.02 0.03552,-0.044 0.03552,-0.07 -10e-7,-0.024 -0.01046,-0.043 -0.03138,-0.057 -0.0146,-0.01 -0.05091,-0.022 -0.108928,-0.036 -0.07814,-0.02 -0.132411,-0.037 -0.162801,-0.051 -0.02999,-0.015 -0.05288,-0.034 -0.06867,-0.06 -0.01539,-0.026 -0.02309,-0.054 -0.02309,-0.085 0,-0.028 0.0063,-0.054 0.01894,-0.078 0.01302,-0.024 0.03059,-0.044 0.05269,-0.06 0.01658,-0.012 0.03907,-0.023 0.06749,-0.031 0.02881,-0.01 0.0596,-0.013 0.09235,-0.013 0.04933,0 0.09255,0.01 0.129648,0.021 0.03749,0.014 0.06512,0.034 0.08288,0.058 0.01776,0.024 0.02999,0.057 0.0367,0.097 l -0.104192,0.014 c -0.0047,-0.032 -0.01855,-0.058 -0.04144,-0.076 -0.0225,-0.018 -0.05447,-0.027 -0.0959,-0.027 -0.04894,0 -0.08387,0.01 -0.104785,0.024 -0.02092,0.016 -0.03138,0.035 -0.03138,0.057 0,0.014 0.0043,0.026 0.01302,0.037 0.0087,0.011 0.0223,0.021 0.04085,0.028 0.01065,0 0.04203,0.013 0.09413,0.027 0.07538,0.02 0.127871,0.037 0.157472,0.05 0.02999,0.013 0.05348,0.031 0.07045,0.056 0.01697,0.024 0.02546,0.055 0.02546,0.091 0,0.035 -0.01046,0.069 -0.03138,0.1007 -0.02052,0.031 -0.05032,0.055 -0.08939,0.073 -0.03907,0.017 -0.08328,0.025 -0.132608,0.025 -0.0817,0 -0.144054,-0.017 -0.187073,-0.051 -0.04262,-0.034 -0.06986,-0.084 -0.0817,-0.1509"
         style="font-size:1.21241796000000002px;font-family:Arial;-inkscape-font-specification:Arial;fill:#f2f2f2"
         id="path3917" />
      <path
         d="m 37.551432,1011.0687 0,-0.7654 -0.285936,0 0,-0.1024 0.687905,0 0,0.1024 -0.287121,0 0,0.7654 -0.114848,0"
         style="font-size:1.21241796000000002px;font-family:Arial;-inkscape-font-specification:Arial;fill:#f2f2f2"
         id="path3919" />
      <path
         d="m 38.013193,1011.0687 0,-0.6287 0.0959,0 0,0.095 c 0.02447,-0.045 0.04697,-0.074 0.06749,-0.088 0.02092,-0.014 0.04381,-0.021 0.06867,-0.021 0.03591,0 0.07242,0.012 0.10952,0.034 l -0.0367,0.099 c -0.02605,-0.015 -0.0521,-0.023 -0.07814,-0.023 -0.02328,0 -0.0442,0.01 -0.06275,0.021 -0.01855,0.014 -0.03177,0.033 -0.03966,0.058 -0.01184,0.038 -0.01776,0.079 -0.01776,0.1243 l 0,0.3291 -0.10656,0"
         style="font-size:1.21241796000000002px;font-family:Arial;-inkscape-font-specification:Arial;fill:#f2f2f2"
         id="path3921" />
      <path
         d="m 38.850874,1010.8663 0.110112,0.014 c -0.01736,0.064 -0.04953,0.1143 -0.0965,0.1498 -0.04697,0.035 -0.106955,0.053 -0.179968,0.053 -0.09196,0 -0.164971,-0.028 -0.21904,-0.085 -0.05367,-0.057 -0.08051,-0.1364 -0.08051,-0.2386 0,-0.1057 0.02723,-0.1878 0.0817,-0.2463 0.05446,-0.058 0.125109,-0.088 0.211936,-0.088 0.08406,0 0.152736,0.029 0.206016,0.086 0.05328,0.057 0.07992,0.1377 0.07992,0.2415 -1e-6,0.01 -1.98e-4,0.016 -5.92e-4,0.028 l -0.468865,0 c 0.0039,0.069 0.02348,0.122 0.05861,0.1587 0.03512,0.037 0.07893,0.055 0.131424,0.055 0.03907,0 0.07242,-0.01 0.100048,-0.031 0.02763,-0.021 0.04953,-0.053 0.06571,-0.098 m -0.349872,-0.1723 0.351056,0 c -0.0047,-0.053 -0.01816,-0.092 -0.04026,-0.119 -0.03394,-0.041 -0.07795,-0.062 -0.132016,-0.062 -0.04894,0 -0.09018,0.016 -0.123728,0.049 -0.03315,0.033 -0.0515,0.077 -0.05506,0.1314"
         style="font-size:1.21241796000000002px;font-family:Arial;-inkscape-font-specification:Arial;fill:#f2f2f2"
         id="path3923" />
      <path
         d="m 39.095371,1011.0687 0,-0.6287 0.0959,0 0,0.089 c 0.04618,-0.069 0.112874,-0.1036 0.200096,-0.1036 0.03789,0 0.07262,0.01 0.104192,0.021 0.03197,0.013 0.05585,0.031 0.07163,0.053 0.01579,0.022 0.02684,0.048 0.03315,0.079 0.0039,0.02 0.0059,0.054 0.0059,0.1036 l 0,0.3865 -0.10656,0 0,-0.3824 c 0,-0.043 -0.0041,-0.076 -0.01243,-0.097 -0.0083,-0.022 -0.02309,-0.039 -0.0444,-0.052 -0.02092,-0.013 -0.04558,-0.019 -0.074,-0.019 -0.04539,0 -0.08466,0.014 -0.117808,0.043 -0.03276,0.029 -0.04914,0.083 -0.04914,0.164 l 0,0.3433 -0.10656,0"
         style="font-size:1.21241796000000002px;font-family:Arial;-inkscape-font-specification:Arial;fill:#f2f2f2"
         id="path3925" />
      <path
         d="m 40.180508,1010.9912 c -0.03947,0.034 -0.07755,0.057 -0.114256,0.071 -0.03631,0.014 -0.07538,0.021 -0.117216,0.021 -0.06907,0 -0.12215,-0.017 -0.159248,-0.05 -0.0371,-0.034 -0.05565,-0.077 -0.05565,-0.1296 0,-0.031 0.0069,-0.059 0.02072,-0.084 0.01421,-0.026 0.03256,-0.046 0.05506,-0.062 0.02289,-0.015 0.04854,-0.027 0.07696,-0.035 0.02092,-0.01 0.05249,-0.011 0.09472,-0.016 0.08604,-0.01 0.149381,-0.023 0.190032,-0.037 3.95e-4,-0.015 5.92e-4,-0.024 5.92e-4,-0.028 0,-0.043 -0.01006,-0.074 -0.03019,-0.092 -0.02723,-0.024 -0.06769,-0.036 -0.12136,-0.036 -0.05012,0 -0.08722,0.01 -0.111296,0.027 -0.02368,0.017 -0.04124,0.048 -0.05269,0.093 l -0.104192,-0.014 c 0.0095,-0.045 0.02506,-0.081 0.04677,-0.1077 0.02171,-0.028 0.05308,-0.049 0.09413,-0.063 0.04104,-0.015 0.0886,-0.023 0.142672,-0.023 0.05367,0 0.09728,0.01 0.130832,0.019 0.03355,0.013 0.05821,0.029 0.074,0.048 0.01579,0.019 0.02684,0.043 0.03315,0.072 0.0036,0.018 0.0053,0.051 0.0053,0.098 l 0,0.1421 c -10e-7,0.099 0.0022,0.1618 0.0065,0.1883 0.0047,0.026 0.01381,0.051 0.02723,0.075 l -0.111296,0 c -0.01105,-0.022 -0.01816,-0.048 -0.02131,-0.077 m -0.0089,-0.238 c -0.03868,0.016 -0.09669,0.029 -0.174048,0.04 -0.04381,0.01 -0.07479,0.013 -0.09294,0.021 -0.01816,0.01 -0.03217,0.019 -0.04203,0.035 -0.0099,0.015 -0.0148,0.032 -0.0148,0.05 0,0.028 0.01066,0.052 0.03197,0.071 0.02171,0.019 0.05328,0.028 0.09472,0.028 0.04105,0 0.07755,-0.01 0.10952,-0.027 0.03197,-0.018 0.05545,-0.043 0.07045,-0.074 0.01145,-0.024 0.01717,-0.06 0.01717,-0.1065 l 0,-0.039"
         style="font-size:1.21241796000000002px;font-family:Arial;-inkscape-font-specification:Arial;fill:#f2f2f2"
         id="path3927" />
      <path
         d="m 40.857165,1011.0687 0,-0.092 c -0.04894,0.071 -0.11544,0.1066 -0.199504,0.1066 -0.0371,0 -0.07183,-0.01 -0.104192,-0.021 -0.03197,-0.014 -0.05585,-0.032 -0.07163,-0.053 -0.01539,-0.022 -0.02625,-0.048 -0.03256,-0.079 -0.0043,-0.021 -0.0065,-0.054 -0.0065,-0.099 l 0,-0.3896 0.10656,0 0,0.3487 c 0,0.056 0.0022,0.093 0.0065,0.1125 0.0067,0.028 0.02092,0.05 0.04262,0.066 0.02171,0.016 0.04854,0.024 0.08051,0.024 0.03197,0 0.06196,-0.01 0.08998,-0.024 0.02802,-0.017 0.04776,-0.039 0.0592,-0.067 0.01184,-0.028 0.01776,-0.069 0.01776,-0.1231 l 0,-0.3369 0.106561,0 0,0.6287 -0.09531,0"
         style="font-size:1.21241796000000002px;font-family:Arial;-inkscape-font-specification:Arial;fill:#f2f2f2"
         id="path3929" />
      <path
         d="m 41.30827,1011.0687 0.333297,-0.8678 0.123728,0 0.355201,0.8678 -0.130833,0 -0.101232,-0.2628 -0.362896,0 -0.09531,0.2628 -0.121952,0 m 0.250417,-0.3563 0.294224,0 -0.09058,-0.2404 c -0.02763,-0.073 -0.04815,-0.133 -0.06157,-0.18 -0.01105,0.056 -0.02664,0.1109 -0.04677,0.1658 l -0.09531,0.2546"
         style="font-size:1.21241796000000002px;font-family:Arial;-inkscape-font-specification:Arial;fill:#f2f2f2"
         id="path3931" />
      <path
         d="m 42.19864,1011.0687 0,-0.6287 0.0959,0 0,0.095 c 0.02447,-0.045 0.04697,-0.074 0.06749,-0.088 0.02092,-0.014 0.04381,-0.021 0.06867,-0.021 0.03591,0 0.07242,0.012 0.10952,0.034 l -0.0367,0.099 c -0.02605,-0.015 -0.0521,-0.023 -0.07814,-0.023 -0.02329,0 -0.0442,0.01 -0.06275,0.021 -0.01855,0.014 -0.03177,0.033 -0.03966,0.058 -0.01184,0.038 -0.01776,0.079 -0.01776,0.1243 l 0,0.3291 -0.10656,0"
         style="font-size:1.21241796000000002px;font-family:Arial;-inkscape-font-specification:Arial;fill:#f2f2f2"
         id="path3933" />
      <path
         d="m 42.603568,1011.0687 0,-0.6287 0.0959,0 0,0.095 c 0.02447,-0.045 0.04697,-0.074 0.06749,-0.088 0.02092,-0.014 0.04381,-0.021 0.06867,-0.021 0.03591,0 0.07242,0.012 0.10952,0.034 l -0.0367,0.099 c -0.02605,-0.015 -0.0521,-0.023 -0.07814,-0.023 -0.02329,0 -0.0442,0.01 -0.06275,0.021 -0.01855,0.014 -0.03177,0.033 -0.03966,0.058 -0.01184,0.038 -0.01776,0.079 -0.01776,0.1243 l 0,0.3291 -0.106561,0"
         style="font-size:1.21241796000000002px;font-family:Arial;-inkscape-font-specification:Arial;fill:#f2f2f2"
         id="path3935" />
      <path
         d="m 43.010273,1010.3234 0,-0.1225 0.10656,0 0,0.1225 -0.10656,0 m 0,0.7453 0,-0.6287 0.10656,0 0,0.6287 -0.10656,0"
         style="font-size:1.21241796000000002px;font-family:Arial;-inkscape-font-specification:Arial;fill:#f2f2f2"
         id="path3937" />
      <path
         d="m 43.454274,1011.0687 -0.239169,-0.6287 0.11248,0 0.134977,0.3766 c 0.0146,0.041 0.02802,0.083 0.04026,0.1266 0.0095,-0.033 0.02269,-0.073 0.03966,-0.1195 l 0.139712,-0.3837 0.10952,0 -0.237984,0.6287 -0.09946,0"
         style="font-size:1.21241796000000002px;font-family:Arial;-inkscape-font-specification:Arial;fill:#f2f2f2"
         id="path3939" />
      <path
         d="m 44.296099,1010.9912 c -0.03947,0.034 -0.07755,0.057 -0.114256,0.071 -0.03631,0.014 -0.07538,0.021 -0.117216,0.021 -0.06907,0 -0.12215,-0.017 -0.159248,-0.05 -0.0371,-0.034 -0.05565,-0.077 -0.05565,-0.1296 0,-0.031 0.0069,-0.059 0.02072,-0.084 0.01421,-0.026 0.03256,-0.046 0.05506,-0.062 0.02289,-0.015 0.04854,-0.027 0.07696,-0.035 0.02092,-0.01 0.05249,-0.011 0.09472,-0.016 0.08604,-0.01 0.149381,-0.023 0.190032,-0.037 3.94e-4,-0.015 5.92e-4,-0.024 5.92e-4,-0.028 0,-0.043 -0.01006,-0.074 -0.03019,-0.092 -0.02723,-0.024 -0.06769,-0.036 -0.12136,-0.036 -0.05012,0 -0.08722,0.01 -0.111296,0.027 -0.02368,0.017 -0.04124,0.048 -0.05269,0.093 l -0.104192,-0.014 c 0.0095,-0.045 0.02506,-0.081 0.04677,-0.1077 0.02171,-0.028 0.05308,-0.049 0.09413,-0.063 0.04105,-0.015 0.0886,-0.023 0.142672,-0.023 0.05367,0 0.09728,0.01 0.130832,0.019 0.03355,0.013 0.05821,0.029 0.074,0.048 0.01579,0.019 0.02684,0.043 0.03315,0.072 0.0036,0.018 0.0053,0.051 0.0053,0.098 l 0,0.1421 c 0,0.099 0.0022,0.1618 0.0065,0.1883 0.0047,0.026 0.01381,0.051 0.02723,0.075 l -0.111297,0 c -0.01105,-0.022 -0.01816,-0.048 -0.02131,-0.077 m -0.0089,-0.238 c -0.03868,0.016 -0.09669,0.029 -0.174048,0.04 -0.04381,0.01 -0.07479,0.013 -0.09294,0.021 -0.01816,0.01 -0.03217,0.019 -0.04203,0.035 -0.0099,0.015 -0.0148,0.032 -0.0148,0.05 0,0.028 0.01066,0.052 0.03197,0.071 0.02171,0.019 0.05328,0.028 0.09472,0.028 0.04104,0 0.07755,-0.01 0.10952,-0.027 0.03197,-0.018 0.05545,-0.043 0.07045,-0.074 0.01144,-0.024 0.01717,-0.06 0.01717,-0.1065 l 0,-0.039"
         style="font-size:1.21241796000000002px;font-family:Arial;-inkscape-font-specification:Arial;fill:#f2f2f2"
         id="path3941" />
      <path
         d="m 45.529829,1010.7645 0.114848,0.029 c -0.02408,0.094 -0.06749,0.1663 -0.13024,0.216 -0.06236,0.049 -0.138726,0.074 -0.229104,0.074 -0.09354,0 -0.169707,-0.019 -0.228513,-0.057 -0.05841,-0.038 -0.103008,-0.093 -0.133792,-0.1657 -0.03039,-0.072 -0.04558,-0.1498 -0.04558,-0.2327 0,-0.09 0.01717,-0.1691 0.0515,-0.2362 0.03473,-0.067 0.08387,-0.1186 0.147408,-0.1533 0.06394,-0.035 0.134187,-0.053 0.210753,-0.053 0.08683,0 0.159839,0.022 0.21904,0.066 0.0592,0.044 0.100442,0.1063 0.123728,0.1865 l -0.113072,0.027 c -0.02013,-0.063 -0.04933,-0.1091 -0.08762,-0.1379 -0.03828,-0.029 -0.08643,-0.043 -0.144448,-0.043 -0.0667,0 -0.122545,0.016 -0.167537,0.048 -0.0446,0.032 -0.07597,0.075 -0.09413,0.1291 -0.01816,0.054 -0.02723,0.1091 -0.02723,0.1663 0,0.074 0.01066,0.1383 0.03197,0.1936 0.02171,0.055 0.05525,0.096 0.10064,0.1231 0.04539,0.027 0.09452,0.041 0.147409,0.041 0.06433,0 0.118794,-0.019 0.163392,-0.056 0.0446,-0.037 0.07479,-0.092 0.09058,-0.1651"
         style="font-size:1.21241796000000002px;font-family:Arial;-inkscape-font-specification:Arial;fill:#f2f2f2"
         id="path3943" />
      <path
         d="m 45.768405,1011.3109 -0.01184,-0.1001 c 0.02329,0.01 0.04361,0.01 0.06098,0.01 0.02368,0 0.04262,-0 0.05683,-0.012 0.01421,-0.01 0.02585,-0.019 0.03493,-0.033 0.0067,-0.011 0.01756,-0.037 0.03256,-0.079 0.002,-0.01 0.0051,-0.015 0.0095,-0.026 l -0.238577,-0.6299 0.114848,0 0.130833,0.3641 c 0.01697,0.046 0.03216,0.095 0.04558,0.1457 0.01223,-0.049 0.02684,-0.097 0.04381,-0.1433 l 0.134384,-0.3665 0.10656,0 -0.239168,0.6394 c -0.02565,0.069 -0.04558,0.1166 -0.05979,0.1427 -0.01895,0.035 -0.04065,0.061 -0.06512,0.077 -0.02447,0.017 -0.05367,0.025 -0.08762,0.025 -0.02052,0 -0.04341,-0 -0.06867,-0.013"
         style="font-size:1.21241796000000002px;font-family:Arial;-inkscape-font-specification:Arial;fill:#f2f2f2"
         id="path3945" />
      <path
         d="m 46.37935,1011.0687 0,-0.6287 0.09531,0 0,0.088 c 0.01973,-0.031 0.04598,-0.055 0.07874,-0.074 0.03276,-0.019 0.07005,-0.028 0.111888,-0.028 0.04657,0 0.08466,0.01 0.114257,0.029 0.02999,0.019 0.05111,0.046 0.06334,0.081 0.04973,-0.073 0.114453,-0.1101 0.194176,-0.1101 0.06236,0 0.110309,0.017 0.143856,0.052 0.03355,0.034 0.05032,0.087 0.05032,0.1593 l 0,0.4315 -0.105968,0 0,-0.396 c -10e-7,-0.043 -0.0036,-0.073 -0.01066,-0.092 -0.0067,-0.019 -0.01914,-0.034 -0.0373,-0.046 -0.01816,-0.011 -0.03947,-0.017 -0.06394,-0.017 -0.0442,0 -0.08091,0.015 -0.110112,0.044 -0.02921,0.029 -0.04381,0.076 -0.04381,0.1409 l 0,0.3652 -0.10656,0 0,-0.4084 c -1e-6,-0.047 -0.0087,-0.083 -0.02605,-0.1066 -0.01737,-0.024 -0.04578,-0.036 -0.08525,-0.036 -0.02999,0 -0.05782,0.01 -0.08347,0.024 -0.02526,0.016 -0.04361,0.039 -0.05506,0.069 -0.01145,0.03 -0.01717,0.074 -0.01717,0.1315 l 0,0.3261 -0.10656,0"
         style="font-size:1.21241796000000002px;font-family:Arial;-inkscape-font-specification:Arial;fill:#f2f2f2"
         id="path3947" />
      <path
         d="m 47.389304,1011.0687 0,-0.6287 0.0959,0 0,0.095 c 0.02447,-0.045 0.04697,-0.074 0.06749,-0.088 0.02092,-0.014 0.04381,-0.021 0.06867,-0.021 0.03592,0 0.07242,0.012 0.109521,0.034 l -0.0367,0.099 c -0.02605,-0.015 -0.0521,-0.023 -0.07814,-0.023 -0.02329,0 -0.0442,0.01 -0.06275,0.021 -0.01855,0.014 -0.03177,0.033 -0.03966,0.058 -0.01184,0.038 -0.01776,0.079 -0.01776,0.1243 l 0,0.3291 -0.10656,0"
         style="font-size:1.21241796000000002px;font-family:Arial;-inkscape-font-specification:Arial;fill:#f2f2f2"
         id="path3949" />
      <path
         d="m 48.20745,1011.0687 0,-0.092 c -0.04894,0.071 -0.115441,0.1066 -0.199505,0.1066 -0.0371,0 -0.07183,-0.01 -0.104192,-0.021 -0.03197,-0.014 -0.05585,-0.032 -0.07163,-0.053 -0.01539,-0.022 -0.02625,-0.048 -0.03256,-0.079 -0.0043,-0.021 -0.0065,-0.054 -0.0065,-0.099 l 0,-0.3896 0.10656,0 0,0.3487 c 0,0.056 0.0022,0.093 0.0065,0.1125 0.0067,0.028 0.02092,0.05 0.04262,0.066 0.02171,0.016 0.04854,0.024 0.08051,0.024 0.03197,0 0.06196,-0.01 0.08998,-0.024 0.02802,-0.017 0.04775,-0.039 0.0592,-0.067 0.01184,-0.028 0.01776,-0.069 0.01776,-0.1231 l 0,-0.3369 0.10656,0 0,0.6287 -0.09531,0"
         style="font-size:1.21241796000000002px;font-family:Arial;-inkscape-font-specification:Arial;fill:#f2f2f2"
         id="path3951" />
    </g>
    <path
       transform="translate(0,1002.3622)"
       style="fill:#ffffff;fill-opacity:0.39215686;fill-rule:nonzero;stroke:none"
       d="m 35.690992,33.582146 c 0,1.111017 -0.92971,2.011674 -2.076566,2.011674 -1.146856,0 -2.076567,-0.900657 -2.076567,-2.011674 0,-1.111017 0.929711,-2.011674 2.076567,-2.011674 1.12379,0 2.043668,0.866067 2.075722,1.954296"
       id="path3125" />
  </g>
</svg>
