<?xml version="1.0" encoding="UTF-8" standalone="no"?>
<!-- Created with Inkscape (http://www.inkscape.org/) -->

<svg
   xmlns:dc="http://purl.org/dc/elements/1.1/"
   xmlns:cc="http://creativecommons.org/ns#"
   xmlns:rdf="http://www.w3.org/1999/02/22-rdf-syntax-ns#"
   xmlns:svg="http://www.w3.org/2000/svg"
   xmlns="http://www.w3.org/2000/svg"
   xmlns:sodipodi="http://sodipodi.sourceforge.net/DTD/sodipodi-0.dtd"
   xmlns:inkscape="http://www.inkscape.org/namespaces/inkscape"
   width="428"
   height="50"
   id="svg2"
   version="1.1"
   inkscape:version="0.48.4 r9939"
   sodipodi:docname="Edinburgh_tram.svg">
  <defs
     id="defs4" />
  <sodipodi:namedview
     id="base"
     pagecolor="#ffffff"
     bordercolor="#666666"
     borderopacity="1.0"
     inkscape:pageopacity="0.0"
     inkscape:pageshadow="2"
     inkscape:zoom="1"
     inkscape:cx="321.03217"
     inkscape:cy="176.21807"
     inkscape:document-units="px"
     inkscape:current-layer="layer1"
     showgrid="true"
     inkscape:snap-bbox="true"
     inkscape:window-width="1366"
     inkscape:window-height="744"
     inkscape:window-x="0"
     inkscape:window-y="24"
     inkscape:window-maximized="1"
     inkscape:snap-global="true">
    <inkscape:grid
       type="xygrid"
       id="grid2985"
       empspacing="5"
       visible="true"
       enabled="true"
       snapvisiblegridlinesonly="true"
       spacingx="0.5px"
       spacingy="0.5px" />
  </sodipodi:namedview>
  <metadata
     id="metadata7">
    <rdf:RDF>
      <cc:Work
         rdf:about="">
        <dc:format>image/svg+xml</dc:format>
        <dc:type
           rdf:resource="http://purl.org/dc/dcmitype/StillImage" />
        <dc:title></dc:title>
      </cc:Work>
    </rdf:RDF>
  </metadata>
  <g
     inkscape:label="Layer 1"
     inkscape:groupmode="layer"
     id="layer1"
     transform="translate(0,-1002.3622)">
    <path
       style="fill:#000000;stroke:none"
       d="m 1,1049.8622 9.5,1 228.5,0 0,-1 z"
       id="path4382-2"
       inkscape:connector-curvature="0" />
    <path
       transform="matrix(2,0,0,2,93.5,952.3622)"
       style="fill:#1a1a1a;fill-opacity:1;fill-rule:nonzero;stroke:none"
       d="M 40,48.75 C 40,49.440356 39.440356,50 38.75,50 38.059644,50 37.5,49.440356 37.5,48.75 c 0,-0.690356 0.559644,-1.25 1.25,-1.25 0.676471,0 1.230197,0.538151 1.249491,1.214347"
       id="path4050-2-5-5-5" />
    <path
       transform="matrix(2,0,0,2,76,952.3622)"
       style="fill:#1a1a1a;fill-opacity:1;fill-rule:nonzero;stroke:none"
       d="M 40,48.75 C 40,49.440356 39.440356,50 38.75,50 38.059644,50 37.5,49.440356 37.5,48.75 c 0,-0.690356 0.559644,-1.25 1.25,-1.25 0.676471,0 1.230197,0.538151 1.249491,1.214347"
       id="path4050-8-6-3" />
    <path
       style="fill:#ececec;fill-opacity:1;fill-rule:nonzero;stroke:none"
       d="m 143.00005,1018.8622 38.99995,0 0,31 -38.99995,0 z"
       id="rect3938-4-7-4" />
    <path
       transform="scale(-1,1)"
       style="fill:#cccccc;fill-opacity:1;fill-rule:nonzero;stroke:none"
       d="m -120.5,1017.3622 17.5,0 0,2.5 -17.5,0 z"
       id="rect4420-6" />
    <path
       transform="scale(-1,1)"
       style="fill:#4d4d4d;fill-opacity:1;fill-rule:nonzero;stroke:none"
       d="m -100.5,1017.3622 17.5,0 0,2.5 -17.5,0 z"
       id="rect4420-3-1" />
    <path
       style="fill:#ececec;fill-opacity:1;fill-rule:nonzero;stroke:none"
       d="m 82,1018.8622 54,0 0,31 -54,0 z"
       id="rect3938-9-3" />
    <path
       transform="scale(-1,1)"
       style="fill:#1a1a1a;fill-opacity:1;fill-rule:nonzero;stroke:none"
       d="m -63,1017.3622 25,0 0,2.5 -25,0 z"
       id="rect4378-4" />
    <path
       transform="matrix(2,0,0,2,-12.5,952.3622)"
       style="fill:#1a1a1a;fill-opacity:1;fill-rule:nonzero;stroke:none"
       d="M 40,48.75 C 40,49.440356 39.440356,50 38.75,50 38.059644,50 37.5,49.440356 37.5,48.75 c 0,-0.690356 0.559644,-1.25 1.25,-1.25 0.676471,0 1.230197,0.538151 1.249491,1.214347"
       id="path4050-2-2-2" />
    <path
       transform="matrix(2,0,0,2,-30,952.3622)"
       style="fill:#1a1a1a;fill-opacity:1;fill-rule:nonzero;stroke:none"
       d="M 40,48.75 C 40,49.440356 39.440356,50 38.75,50 38.059644,50 37.5,49.440356 37.5,48.75 c 0,-0.690356 0.559644,-1.25 1.25,-1.25 0.676471,0 1.230197,0.538151 1.249491,1.214347"
       id="path4050-9-0" />
    <path
       style="fill:#ececec;fill-opacity:1;stroke:none"
       d="m 75,1018.8622 -60,0 c -1,0 -1.5,-0.5 -2.5,-0.5 l -2.5,0 c -10,0 -10,20.5 -10,25.5 l 0,1 c 0,2.5 0.50000004,5 1,5 l 74,0 z"
       id="path3936-7-6"
       inkscape:connector-curvature="0"
       sodipodi:nodetypes="ccccccccc" />
    <path
       style="fill:#1a1a1a;fill-opacity:1;stroke:none"
       d="m 13,1018.3622 -3.5,0 c -2.5,0 -4.5,3 -6,5.5 l -2.50000004,16 -0.99999996,0 c 0,-16 6.5,-22 8,-22 2.5,0 2.5,0 5,0.5 z"
       id="path4370-5"
       inkscape:connector-curvature="0"
       sodipodi:nodetypes="ccccccc" />
    <path
       style="fill:#1a1a1a;fill-opacity:1;fill-rule:nonzero;stroke:none"
       d="m 82,1027.3622 54,0 0,12.5 -54,0 z"
       id="rect3976-9-2" />
    <path
       style="fill:#1a1a1a;fill-opacity:1;fill-rule:nonzero;stroke:none"
       d="m 143.00005,1027.3622 38.99997,0 0,12.5 -38.99997,0 z"
       id="rect3976-5-75-9" />
    <path
       style="fill:none;stroke:#000000;stroke-width:0.22599953;stroke-miterlimit:4;stroke-opacity:1"
       d="m 150.00005,1045.8622 24.49995,0 0,4 -24.49995,0 z"
       id="rect4091-4-6" />
    <path
       style="fill:none;stroke:#000000;stroke-width:0.22599953;stroke-miterlimit:4;stroke-opacity:1"
       d="m 44,1045.8622 24.5,0 0,4 -24.5,0 z"
       id="rect4091-7-5-5" />
    <path
       style="fill:#1a1a1a;stroke:none"
       d="m 75,1027.3622 0,12.5 -71.5,0 c 0,-3.5 0,-7.5 1.5,-12.5 z"
       id="path4014-0-2"
       inkscape:connector-curvature="0"
       sodipodi:nodetypes="ccccc" />
    <path
       style="fill:#d45500;stroke:none"
       d="m 0,1039.8622 0,3 0.99999996,-3 z"
       id="path4372-7"
       inkscape:connector-curvature="0"
       sodipodi:nodetypes="cccc" />
    <path
       style="fill:none;stroke:#000000;stroke-width:0.25;stroke-linecap:butt;stroke-linejoin:miter;stroke-miterlimit:4;stroke-opacity:1;stroke-dasharray:none"
       d="m 0.99999996,1039.8622 2.50000004,0"
       id="path4376-1"
       inkscape:connector-curvature="0" />
    <path
       style="fill:#666666;stroke:none"
       d="m 5.5,1049.8622 -3.5,0 -1.00000004,0.5 6.50000004,0.5 0.5,-1 z"
       id="path4380-7"
       inkscape:connector-curvature="0"
       sodipodi:nodetypes="cccccc" />
    <path
       transform="scale(-1,1)"
       style="fill:#999999;fill-opacity:1;fill-rule:nonzero;stroke:none"
       d="m -182.00002,1026.8622 39,0 0,0.5 -39,0 z"
       id="rect4384-2-1" />
    <path
       transform="scale(-1,1)"
       style="fill:#ff6600;fill-opacity:1;fill-rule:nonzero;stroke:none"
       d="m -3.5,1045.3622 1,0 0,0.5 -1,0 z"
       id="rect4474-6" />
    <path
       transform="scale(-1,1)"
       style="fill:none;stroke:#000000;stroke-width:0.25;stroke-miterlimit:4;stroke-opacity:1"
       d="m -18,1048.3622 5.5,0 0,2 -5.5,0 z"
       id="rect4476-7" />
    <path
       transform="matrix(1.135234,0,0,1.0010834,-259.7237,1001.3162)"
       style="fill:#800000;fill-opacity:1;fill-rule:nonzero;stroke:none"
       d="m 318.5235,44.497826 c 0,1.103368 -0.78876,1.997825 -1.76175,1.997825 C 315.78876,46.495651 315,45.601194 315,44.497826 315,43.394457 315.78876,42.5 316.76175,42.5 c 0.95342,0 1.73384,0.860105 1.76103,1.940843"
       id="path4486-3" />
    <g
       transform="scale(1.1507941,0.86896518)"
       style="font-size:2.3015883px;font-style:normal;font-variant:normal;font-weight:normal;font-stretch:normal;line-height:125%;letter-spacing:0px;word-spacing:0px;fill:#800000;fill-opacity:1;stroke:none;font-family:Arial;-inkscape-font-specification:Arial"
       id="text4488-5">
      <path
         d="m 92.43618,1202.6696 0,-0.8238 0.610797,0 0,0.1393 -0.444471,0 0,0.1827 0.413566,0 0,0.1388 -0.413566,0 0,0.2242 0.460205,0 0,0.1388 -0.626531,0"
         style="font-size:1.15079415px;font-weight:bold;fill:#800000;-inkscape-font-specification:Arial Bold"
         id="path4859" />
      <path
         d="m 93.751052,1202.6696 -0.146659,0 0,-0.088 c -0.02435,0.034 -0.05319,0.06 -0.08653,0.076 -0.03297,0.016 -0.06631,0.025 -0.10002,0.025 -0.06855,0 -0.127367,-0.027 -0.17644,-0.083 -0.0487,-0.055 -0.07305,-0.1326 -0.07305,-0.2315 0,-0.1011 0.02379,-0.1779 0.07136,-0.2304 0.04758,-0.053 0.107699,-0.079 0.180373,-0.079 0.06668,0 0.12437,0.028 0.173069,0.083 l 0,-0.2967 0.157897,0 0,0.8238 m -0.421433,-0.3113 c 0,0.064 0.0088,0.1097 0.02641,0.1382 0.02547,0.041 0.06106,0.062 0.106763,0.062 0.03634,0 0.06724,-0.015 0.09272,-0.046 0.02547,-0.031 0.03821,-0.077 0.03821,-0.1388 0,-0.068 -0.01236,-0.1178 -0.03709,-0.1478 -0.02472,-0.03 -0.05638,-0.045 -0.09496,-0.045 -0.03746,0 -0.06893,0.015 -0.0944,0.045 -0.0251,0.03 -0.03765,0.074 -0.03765,0.1332"
         style="font-size:1.15079415px;font-weight:bold;fill:#800000;-inkscape-font-specification:Arial Bold"
         id="path4861" />
      <path
         d="m 93.907263,1201.9919 0,-0.1461 0.157897,0 0,0.1461 -0.157897,0 m 0,0.6777 0,-0.5968 0.157897,0 0,0.5968 -0.157897,0"
         style="font-size:1.15079415px;font-weight:bold;fill:#800000;-inkscape-font-specification:Arial Bold"
         id="path4863" />
      <path
         d="m 94.769235,1202.6696 -0.157897,0 0,-0.3046 c 0,-0.064 -0.0034,-0.106 -0.01011,-0.1247 -0.0067,-0.019 -0.0178,-0.034 -0.03315,-0.044 -0.01499,-0.01 -0.03315,-0.016 -0.05451,-0.016 -0.02735,0 -0.05188,0.01 -0.07361,0.023 -0.02173,0.015 -0.03671,0.035 -0.04495,0.06 -0.0079,0.025 -0.0118,0.07 -0.0118,0.1371 l 0,0.2703 -0.157897,0 0,-0.5968 0.146659,0 0,0.088 c 0.05207,-0.067 0.117626,-0.1012 0.196669,-0.1012 0.03484,0 0.06668,0.01 0.09552,0.019 0.02884,0.012 0.05057,0.028 0.06518,0.048 0.01498,0.02 0.02529,0.042 0.03091,0.066 0.006,0.025 0.009,0.06 0.009,0.1062 l 0,0.3709"
         style="font-size:1.15079415px;font-weight:bold;fill:#800000;-inkscape-font-specification:Arial Bold"
         id="path4865" />
      <path
         d="m 94.923199,1202.6696 0,-0.8238 0.157897,0 0,0.2967 c 0.0487,-0.055 0.106388,-0.083 0.173069,-0.083 0.07267,0 0.132797,0.026 0.180373,0.079 0.04757,0.053 0.07136,0.128 0.07136,0.2265 -10e-7,0.1019 -0.02435,0.1804 -0.07305,0.2354 -0.04832,0.055 -0.107138,0.083 -0.17644,0.083 -0.03409,0 -0.0678,-0.01 -0.101144,-0.025 -0.03297,-0.017 -0.06144,-0.043 -0.08541,-0.076 l 0,0.088 -0.146659,0 m 0.156773,-0.3113 c 0,0.062 0.0097,0.1075 0.02922,0.1371 0.02735,0.042 0.06368,0.063 0.109011,0.063 0.03484,0 0.06443,-0.015 0.08878,-0.044 0.02472,-0.03 0.03709,-0.077 0.03709,-0.141 0,-0.068 -0.01236,-0.1173 -0.03709,-0.1473 -0.02472,-0.03 -0.05638,-0.045 -0.09496,-0.045 -0.03783,0 -0.0693,0.015 -0.0944,0.044 -0.0251,0.029 -0.03765,0.074 -0.03765,0.1338"
         style="font-size:1.15079415px;font-weight:bold;fill:#800000;-inkscape-font-specification:Arial Bold"
         id="path4867" />
      <path
         d="m 96.026231,1202.6696 0,-0.089 c -0.02173,0.032 -0.05039,0.057 -0.08597,0.075 -0.03521,0.018 -0.07249,0.027 -0.11182,0.027 -0.04008,0 -0.07605,-0.01 -0.107887,-0.026 -0.03184,-0.018 -0.05488,-0.042 -0.06911,-0.074 -0.01423,-0.032 -0.02135,-0.076 -0.02135,-0.1321 l 0,-0.3776 0.157897,0 0,0.2742 c 0,0.084 0.0028,0.1354 0.0084,0.1545 0.006,0.019 0.01667,0.034 0.03203,0.045 0.01536,0.011 0.03484,0.016 0.05844,0.016 0.02697,0 0.05113,-0.01 0.07249,-0.022 0.02135,-0.015 0.03596,-0.033 0.04383,-0.055 0.0079,-0.022 0.0118,-0.076 0.0118,-0.1613 l 0,-0.2517 0.157897,0 0,0.5968 -0.146658,0"
         style="font-size:1.15079415px;font-weight:bold;fill:#800000;-inkscape-font-specification:Arial Bold"
         id="path4869" />
      <path
         d="m 96.488122,1202.6696 -0.157897,0 0,-0.5968 0.146658,0 0,0.085 c 0.0251,-0.04 0.04757,-0.066 0.06743,-0.079 0.02023,-0.013 0.04308,-0.019 0.06855,-0.019 0.03596,0 0.07061,0.01 0.103954,0.03 l -0.04889,0.1377 c -0.0266,-0.017 -0.05132,-0.026 -0.07417,-0.026 -0.0221,0 -0.04083,0.01 -0.05619,0.019 -0.01536,0.012 -0.02753,0.034 -0.03652,0.066 -0.0086,0.032 -0.01292,0.099 -0.01292,0.2 l 0,0.1844"
         style="font-size:1.15079415px;font-weight:bold;fill:#800000;-inkscape-font-specification:Arial Bold"
         id="path4871" />
      <path
         d="m 96.769639,1202.7089 0.180374,0.022 c 0.003,0.021 0.0099,0.035 0.02079,0.043 0.01498,0.011 0.03858,0.017 0.0708,0.017 0.04121,0 0.07211,-0.01 0.09271,-0.018 0.01386,-0.01 0.02435,-0.022 0.03147,-0.04 0.0049,-0.013 0.0073,-0.037 0.0073,-0.072 l 0,-0.087 c -0.0472,0.064 -0.106763,0.097 -0.178688,0.097 -0.08017,0 -0.143662,-0.034 -0.190487,-0.1018 -0.03671,-0.053 -0.05507,-0.1202 -0.05507,-0.2 0,-0.1 0.02398,-0.1764 0.07193,-0.2293 0.04832,-0.053 0.108261,-0.079 0.179812,-0.079 0.0738,0 0.13467,0.032 0.182621,0.097 l 0,-0.084 0.147782,0 0,0.5355 c 0,0.07 -0.0058,0.1231 -0.01742,0.1579 -0.01161,0.035 -0.02791,0.062 -0.04889,0.082 -0.02098,0.02 -0.04907,0.035 -0.08429,0.047 -0.03484,0.011 -0.07904,0.017 -0.132611,0.017 -0.101144,0 -0.172881,-0.017 -0.215212,-0.052 -0.04233,-0.034 -0.0635,-0.078 -0.0635,-0.1315 0,-0.01 1.87e-4,-0.012 5.62e-4,-0.019 m 0.14104,-0.3501 c 0,0.063 0.01217,0.1098 0.03652,0.1394 0.02472,0.029 0.05507,0.044 0.09103,0.044 0.03858,0 0.07117,-0.015 0.09777,-0.045 0.0266,-0.03 0.0399,-0.075 0.0399,-0.1342 -10e-7,-0.062 -0.01274,-0.1077 -0.03821,-0.1377 -0.02547,-0.03 -0.05769,-0.045 -0.09665,-0.045 -0.03784,0 -0.06912,0.015 -0.09384,0.044 -0.02435,0.029 -0.03652,0.074 -0.03652,0.1343"
         style="font-size:1.15079415px;font-weight:bold;fill:#800000;-inkscape-font-specification:Arial Bold"
         id="path4873" />
      <path
         d="m 97.645097,1201.8458 0,0.3029 c 0.05095,-0.06 0.11182,-0.089 0.182621,-0.089 0.03634,0 0.06911,0.01 0.09833,0.02 0.02922,0.014 0.05113,0.031 0.06574,0.052 0.01498,0.021 0.0251,0.044 0.03034,0.07 0.0056,0.025 0.0084,0.065 0.0084,0.1186 l 0,0.3501 -0.157897,0 0,-0.3153 c 0,-0.062 -0.003,-0.1022 -0.009,-0.1191 -0.006,-0.017 -0.01667,-0.03 -0.03203,-0.04 -0.01499,-0.01 -0.0339,-0.015 -0.05675,-0.015 -0.02622,0 -0.04963,0.01 -0.07024,0.019 -0.0206,0.013 -0.03578,0.032 -0.04552,0.058 -0.0094,0.025 -0.01405,0.063 -0.01405,0.1135 l 0,0.299 -0.157897,0 0,-0.8238 0.157897,0"
         style="font-size:1.15079415px;font-weight:bold;fill:#800000;-inkscape-font-specification:Arial Bold"
         id="path4875" />
    </g>
    <g
       style="font-size:40px;font-style:normal;font-variant:normal;font-weight:normal;font-stretch:normal;line-height:125%;letter-spacing:0px;word-spacing:0px;fill:#800000;fill-opacity:1;stroke:none;font-family:Symbol Signs;-inkscape-font-specification:Symbol Signs"
       id="text4492-3">
      <path
         d="m 105.00634,1047.0096 0,-1.7841 -0.63721,0 0,-0.3633 1.70655,0 0,0.3633 -0.63575,0 0,1.7841 -0.43359,0"
         style="font-size:3px;font-weight:bold;fill:#800000;font-family:Arial;-inkscape-font-specification:Arial Bold"
         id="path4848" />
      <path
         d="m 106.58398,1047.0096 -0.41162,0 0,-1.5556 0.38232,0 0,0.2212 c 0.0654,-0.1045 0.12402,-0.1734 0.17578,-0.2066 0.0527,-0.033 0.1123,-0.05 0.17871,-0.05 0.0937,0 0.18408,0.026 0.271,0.078 l -0.12744,0.3588 c -0.0693,-0.045 -0.13379,-0.067 -0.19336,-0.067 -0.0576,0 -0.10645,0.016 -0.14649,0.048 -0.04,0.031 -0.0718,0.088 -0.0952,0.1714 -0.0225,0.083 -0.0337,0.2568 -0.0337,0.5215 l 0,0.4804"
         style="font-size:3px;font-weight:bold;fill:#800000;font-family:Arial;-inkscape-font-specification:Arial Bold"
         id="path4850" />
      <path
         d="m 107.66357,1045.9286 -0.37354,-0.067 c 0.042,-0.1504 0.11426,-0.2617 0.2168,-0.334 0.10254,-0.072 0.25488,-0.1084 0.45703,-0.1084 0.18359,0 0.32031,0.022 0.41016,0.066 0.0898,0.043 0.15283,0.098 0.18896,0.1656 0.0371,0.066 0.0557,0.1889 0.0557,0.3676 l -0.004,0.4805 c 0,0.1367 0.006,0.2378 0.019,0.3032 0.0137,0.064 0.0386,0.1338 0.0747,0.208 l -0.40723,0 c -0.0107,-0.027 -0.0239,-0.068 -0.0396,-0.1215 -0.007,-0.024 -0.0117,-0.041 -0.0146,-0.048 -0.0703,0.068 -0.1455,0.1197 -0.22558,0.1538 -0.0801,0.034 -0.16553,0.051 -0.25635,0.051 -0.16016,0 -0.28662,-0.043 -0.37939,-0.1304 -0.0918,-0.087 -0.1377,-0.1967 -0.1377,-0.3296 0,-0.088 0.021,-0.166 0.063,-0.2343 0.042,-0.069 0.10058,-0.1221 0.17578,-0.1582 0.0762,-0.037 0.18555,-0.069 0.32813,-0.097 0.19238,-0.036 0.32568,-0.07 0.3999,-0.1011 l 0,-0.041 c 0,-0.079 -0.0195,-0.1353 -0.0586,-0.1685 -0.0391,-0.034 -0.11279,-0.051 -0.22119,-0.051 -0.0732,0 -0.13037,0.015 -0.17138,0.044 -0.041,0.028 -0.0742,0.079 -0.0996,0.1509 m 0.55078,0.334 c -0.0527,0.018 -0.13623,0.038 -0.25049,0.063 -0.11426,0.024 -0.18897,0.048 -0.22412,0.072 -0.0537,0.038 -0.0806,0.086 -0.0806,0.1451 0,0.058 0.0215,0.1074 0.0645,0.1494 0.043,0.042 0.0977,0.063 0.16406,0.063 0.0742,0 0.14502,-0.024 0.2124,-0.073 0.0498,-0.037 0.0825,-0.082 0.0981,-0.1362 0.0108,-0.035 0.0161,-0.1021 0.0161,-0.2007 l 0,-0.082"
         style="font-size:3px;font-weight:bold;fill:#800000;font-family:Arial;-inkscape-font-specification:Arial Bold"
         id="path4852" />
      <path
         d="m 108.99511,1045.454 0.37939,0 0,0.2124 c 0.13575,-0.1651 0.29737,-0.2476 0.48487,-0.2476 0.0996,0 0.18603,0.021 0.25927,0.062 0.0733,0.041 0.1333,0.1031 0.18018,0.1861 0.0684,-0.083 0.14209,-0.145 0.22119,-0.1861 0.0791,-0.041 0.16357,-0.062 0.25342,-0.062 0.11426,0 0.21094,0.024 0.29004,0.07 0.0791,0.046 0.13818,0.1138 0.17725,0.2036 0.0283,0.066 0.0425,0.1739 0.0425,0.3223 l 0,0.9946 -0.41163,0 0,-0.8891 c 0,-0.1543 -0.0142,-0.2539 -0.0425,-0.2988 -0.0381,-0.059 -0.0967,-0.088 -0.17578,-0.088 -0.0576,0 -0.11182,0.017 -0.16259,0.053 -0.0508,0.035 -0.0874,0.087 -0.10987,0.1553 -0.0225,0.067 -0.0337,0.1743 -0.0337,0.3208 l 0,0.747 -0.41162,0 0,-0.8525 c 0,-0.1514 -0.007,-0.249 -0.022,-0.293 -0.0147,-0.044 -0.0376,-0.077 -0.0689,-0.098 -0.0303,-0.022 -0.0718,-0.032 -0.12451,-0.032 -0.0635,0 -0.12061,0.017 -0.17139,0.051 -0.0508,0.034 -0.0874,0.083 -0.10986,0.148 -0.0215,0.064 -0.0322,0.1714 -0.0322,0.3208 l 0,0.7558 -0.41162,0 0,-1.5556"
         style="font-size:3px;font-weight:bold;fill:#800000;font-family:Arial;-inkscape-font-specification:Arial Bold"
         id="path4854" />
      <path
         d="m 111.54687,1046.5658 0.41308,-0.063 c 0.0176,0.08 0.0532,0.1411 0.10694,0.1831 0.0537,0.041 0.1289,0.062 0.22558,0.062 0.10645,0 0.18653,-0.019 0.24024,-0.059 0.0361,-0.027 0.0542,-0.064 0.0542,-0.1098 0,-0.031 -0.01,-0.057 -0.0293,-0.078 -0.0205,-0.019 -0.0664,-0.038 -0.1377,-0.054 -0.33203,-0.073 -0.54248,-0.1401 -0.63134,-0.2006 -0.12305,-0.084 -0.18457,-0.2007 -0.18457,-0.3501 0,-0.1348 0.0532,-0.2481 0.15966,-0.3399 0.10645,-0.092 0.27149,-0.1377 0.49512,-0.1377 0.21289,0 0.37109,0.035 0.47461,0.104 0.10352,0.069 0.1748,0.1719 0.21387,0.3076 l -0.38819,0.072 c -0.0166,-0.061 -0.0483,-0.1069 -0.0952,-0.1391 -0.0459,-0.032 -0.11182,-0.048 -0.19775,-0.048 -0.1084,0 -0.18604,0.015 -0.23291,0.045 -0.0313,0.022 -0.0469,0.049 -0.0469,0.083 0,0.029 0.0137,0.054 0.041,0.075 0.0371,0.027 0.16503,0.066 0.38379,0.1158 0.21972,0.05 0.37304,0.1108 0.45996,0.1831 0.0859,0.073 0.1289,0.1753 0.1289,0.3061 0,0.1426 -0.0596,0.2652 -0.17871,0.3677 -0.11914,0.1025 -0.29541,0.1538 -0.52881,0.1538 -0.21191,0 -0.37988,-0.043 -0.5039,-0.1289 -0.12305,-0.086 -0.20362,-0.2026 -0.2417,-0.3501"
         style="font-size:3px;font-weight:bold;fill:#800000;font-family:Arial;-inkscape-font-specification:Arial Bold"
         id="path4856" />
    </g>
    <path
       style="fill:#000000;stroke:none"
       d="m 427,1049.8622 -9.5,1 -228.5,0 0,-1 z"
       id="path4382"
       inkscape:connector-curvature="0" />
    <path
       transform="scale(-1,1)"
       style="fill:#cccccc;fill-opacity:1;fill-rule:nonzero;stroke:none"
       d="m -232.5,1017.3622 40,0 0,2.5 -40,0 z"
       id="rect4420-6-1" />
    <path
       transform="scale(-1,1)"
       style="fill:#ececec;fill-opacity:1;fill-rule:nonzero;stroke:none"
       d="m -239,1018.8622 50,0 0,31 -50,0 z"
       id="rect3938-4-1-7" />
    <path
       transform="matrix(-2,0,0,2,334.5,952.3622)"
       style="fill:#1a1a1a;fill-opacity:1;fill-rule:nonzero;stroke:none"
       d="M 40,48.75 C 40,49.440356 39.440356,50 38.75,50 38.059644,50 37.5,49.440356 37.5,48.75 c 0,-0.690356 0.559644,-1.25 1.25,-1.25 0.676471,0 1.230197,0.538151 1.249491,1.214347"
       id="path4050-2-5-5" />
    <path
       transform="matrix(-2,0,0,2,352,952.3622)"
       style="fill:#1a1a1a;fill-opacity:1;fill-rule:nonzero;stroke:none"
       d="M 40,48.75 C 40,49.440356 39.440356,50 38.75,50 38.059644,50 37.5,49.440356 37.5,48.75 c 0,-0.690356 0.559644,-1.25 1.25,-1.25 0.676471,0 1.230197,0.538151 1.249491,1.214347"
       id="path4050-8-6" />
    <path
       transform="scale(-1,1)"
       style="fill:#ececec;fill-opacity:1;fill-rule:nonzero;stroke:none"
       d="m -284.99997,1018.8622 38.99997,0 0,31 -38.99997,0 z"
       id="rect3938-4-7" />
    <path
       transform="translate(0,1002.3622)"
       style="fill:#cccccc;fill-opacity:1;fill-rule:nonzero;stroke:none"
       d="m 307.5,15 17.5,0 0,2.5 -17.5,0 z"
       id="rect4420" />
    <path
       style="fill:#4d4d4d;fill-opacity:1;fill-rule:nonzero;stroke:none"
       d="m 327.5,1017.3622 17.5,0 0,2.5 -17.5,0 z"
       id="rect4420-3" />
    <path
       transform="scale(-1,1)"
       style="fill:#ececec;fill-opacity:1;fill-rule:nonzero;stroke:none"
       d="m -346,1018.8622 54,0 0,31 -54,0 z"
       id="rect3938-9" />
    <path
       transform="matrix(-2,0,0,2,440.5,952.3622)"
       style="fill:#1a1a1a;fill-opacity:1;fill-rule:nonzero;stroke:none"
       d="M 40,48.75 C 40,49.440356 39.440356,50 38.75,50 38.059644,50 37.5,49.440356 37.5,48.75 c 0,-0.690356 0.559644,-1.25 1.25,-1.25 0.676471,0 1.230197,0.538151 1.249491,1.214347"
       id="path4050-2-2" />
    <path
       transform="matrix(-2,0,0,2,458,952.3622)"
       style="fill:#1a1a1a;fill-opacity:1;fill-rule:nonzero;stroke:none"
       d="M 40,48.75 C 40,49.440356 39.440356,50 38.75,50 38.059644,50 37.5,49.440356 37.5,48.75 c 0,-0.690356 0.559644,-1.25 1.25,-1.25 0.676471,0 1.230197,0.538151 1.249491,1.214347"
       id="path4050-9" />
    <path
       style="fill:#1a1a1a;fill-opacity:1;fill-rule:nonzero;stroke:none"
       d="m 365,1017.3622 25,0 0,2.5 -25,0 z"
       id="rect4378" />
    <path
       style="fill:#ececec;fill-opacity:1;stroke:none"
       d="m 353,1018.8622 60,0 c 1,0 1.5,-0.5 2.5,-0.5 l 2.5,0 c 10,0 10,20.5 10,25.5 l 0,1 c 0,2.5 -0.5,5 -1,5 l -74,0 z"
       id="path3936-7"
       inkscape:connector-curvature="0"
       sodipodi:nodetypes="ccccccccc" />
    <path
       style="fill:#800000;stroke:none"
       d="M 423,25 5,25 c 1.5,-2.5 2.5,-2.5 7.5,-2.5 l 403,0 c 5,0 6,-0.5 7.5,2.5 z"
       id="path4364"
       inkscape:connector-curvature="0"
       transform="translate(0,1002.3622)"
       sodipodi:nodetypes="ccccc" />
    <path
       transform="scale(-1,1)"
       style="fill:#999999;fill-opacity:1;fill-rule:nonzero;stroke:none"
       d="m -75,1026.8622 40,0 0,0.5 -40,0 z"
       id="rect4384-3" />
    <path
       transform="scale(-1,1)"
       style="fill:#999999;fill-opacity:1;fill-rule:nonzero;stroke:none"
       d="m -136.00002,1026.8622 54.000005,0 0,0.5 -54.000005,0 z"
       id="rect4384-4-7" />
    <path
       transform="scale(-1,1)"
       style="fill:#333333;fill-opacity:1;fill-rule:nonzero;stroke:none"
       d="m -100.00002,1028.3622 15.499997,0 0,10.5 -15.499997,0 z"
       id="rect3148-2-2-7" />
    <path
       transform="scale(-1,1)"
       style="fill:#333333;fill-opacity:1;fill-rule:nonzero;stroke:none"
       d="m -117.50002,1028.3622 15.5,0 0,10.5 -15.5,0 z"
       id="rect3148-2-3-7" />
    <path
       transform="scale(-1,1)"
       style="fill:#1a1a1a;stroke:#000000;stroke-width:0.25;stroke-linecap:round;stroke-linejoin:miter;stroke-miterlimit:4;stroke-opacity:1"
       d="m -103,1026.3622 15,0 0,2 -15,0 z"
       id="rect4480-5" />
    <g
       transform="scale(-1.25327,0.79791267)"
       style="font-size:1.94249916px;font-style:normal;font-variant:normal;font-weight:normal;font-stretch:normal;line-height:125%;letter-spacing:0px;word-spacing:0px;fill:#d45500;fill-opacity:1;stroke:none;font-family:Sans;-inkscape-font-specification:Terminus"
       id="text4482-2">
      <path
         d="m -81.100317,1286.7214 0.895371,0 0,0.1612 -0.703776,0 0,0.4192 0.674373,0 0,0.1613 -0.674373,0 0,0.5131 0.720849,0 0,0.1613 -0.912444,0 0,-1.4161"
         style=""
         id="path4813" />
      <path
         d="m -79.179633,1287.2364 0,-0.5748 0.174522,0 0,1.4759 -0.174522,0 0,-0.1594 c -0.03668,0.063 -0.08315,0.1103 -0.139427,0.1413 -0.05565,0.03 -0.122671,0.046 -0.201079,0.046 -0.128362,0 -0.233012,-0.051 -0.313949,-0.1537 -0.08031,-0.1024 -0.120458,-0.2371 -0.120458,-0.4041 0,-0.1669 0.04015,-0.3016 0.120458,-0.404 0.08094,-0.1024 0.185587,-0.1537 0.313949,-0.1537 0.07841,0 0.145434,0.015 0.201079,0.046 0.05628,0.03 0.102752,0.077 0.139427,0.1404 m -0.5947,0.3708 c 0,0.1284 0.02624,0.2293 0.07872,0.3026 0.05312,0.073 0.125832,0.1091 0.218152,0.1091 0.09232,0 0.165036,-0.036 0.218152,-0.1091 0.05311,-0.073 0.07967,-0.1742 0.07967,-0.3026 0,-0.1283 -0.02656,-0.2289 -0.07967,-0.3016 -0.05312,-0.073 -0.125833,-0.11 -0.218152,-0.11 -0.09232,0 -0.165037,0.037 -0.218152,0.11 -0.05248,0.073 -0.07872,0.1733 -0.07872,0.3016"
         style=""
         id="path4815" />
      <path
         d="m -78.645635,1287.0751 0.174522,0 0,1.0624 -0.174522,0 0,-1.0624 m 0,-0.4135 0.174522,0 0,0.221 -0.174522,0 0,-0.221"
         style=""
         id="path4817" />
      <path
         d="m -77.223855,1287.4963 0,0.6412 -0.174521,0 0,-0.6355 c -10e-7,-0.1006 -0.0196,-0.1758 -0.05881,-0.2258 -0.0392,-0.05 -0.09801,-0.075 -0.176418,-0.075 -0.09422,0 -0.168515,0.03 -0.222895,0.09 -0.05438,0.06 -0.08157,0.142 -0.08157,0.2457 l 0,0.6004 -0.17547,0 0,-1.0624 0.17547,0 0,0.1651 c 0.04173,-0.064 0.09074,-0.1116 0.147015,-0.1432 0.05691,-0.032 0.122354,-0.047 0.196336,-0.047 0.122038,0 0.214357,0.038 0.276958,0.1139 0.0626,0.075 0.0939,0.1862 0.0939,0.3329"
         style=""
         id="path4819" />
      <path
         d="m -76.111281,1287.6072 c 0,-0.1283 -0.02656,-0.2289 -0.07967,-0.3016 -0.05248,-0.073 -0.124885,-0.11 -0.217204,-0.11 -0.09232,0 -0.165037,0.037 -0.218151,0.11 -0.05248,0.073 -0.07873,0.1733 -0.07873,0.3016 0,0.1284 0.02624,0.2293 0.07873,0.3026 0.05311,0.073 0.125832,0.1091 0.218151,0.1091 0.09232,0 0.16472,-0.036 0.217204,-0.1091 0.05311,-0.073 0.07967,-0.1742 0.07967,-0.3026 m -0.593752,-0.3708 c 0.03668,-0.063 0.08283,-0.11 0.138479,-0.1404 0.05628,-0.031 0.123303,-0.046 0.201079,-0.046 0.128993,0 0.233643,0.051 0.313949,0.1537 0.08094,0.1024 0.121405,0.2371 0.121406,0.404 -10e-7,0.167 -0.04047,0.3017 -0.121406,0.4041 -0.08031,0.1024 -0.184956,0.1537 -0.313949,0.1537 -0.07778,0 -0.144803,-0.015 -0.201079,-0.046 -0.05564,-0.031 -0.101804,-0.078 -0.138479,-0.1413 l 0,0.1594 -0.17547,0 0,-1.4759 0.17547,0 0,0.5748"
         style=""
         id="path4821" />
      <path
         d="m -75.658853,1287.7182 0,-0.6431 0.174522,0 0,0.6365 c -10e-7,0.1005 0.0196,0.1761 0.05881,0.2267 0.0392,0.05 0.09801,0.075 0.176418,0.075 0.09422,0 0.168514,-0.03 0.222894,-0.09 0.05501,-0.06 0.08252,-0.142 0.08252,-0.2457 l 0,-0.6023 0.174521,0 0,1.0624 -0.174521,0 0,-0.1632 c -0.04237,0.064 -0.09169,0.1126 -0.147964,0.1442 -0.05564,0.031 -0.120458,0.046 -0.19444,0.046 -0.122039,0 -0.214674,-0.038 -0.277906,-0.1139 -0.06323,-0.076 -0.09485,-0.1868 -0.09485,-0.3329 m 0.439149,-0.6687 0,0"
         style=""
         id="path4823" />
      <path
         d="m -73.792232,1287.2383 c -0.0196,-0.011 -0.0411,-0.02 -0.0645,-0.025 -0.02276,-0.01 -0.04806,-0.01 -0.07588,-0.01 -0.09864,0 -0.174522,0.032 -0.227637,0.097 -0.05248,0.064 -0.07872,0.1559 -0.07872,0.276 l 0,0.5597 -0.17547,0 0,-1.0624 0.17547,0 0,0.1651 c 0.03667,-0.064 0.08441,-0.1123 0.143221,-0.1432 0.05881,-0.032 0.130258,-0.047 0.214358,-0.047 0.01201,0 0.02529,10e-4 0.03984,0 0.01454,0 0.03067,0 0.04837,0.01 l 9.49e-4,0.1793"
         style=""
         id="path4825" />
      <path
         d="m -72.942389,1287.594 c -10e-7,-0.1265 -0.02624,-0.2245 -0.07872,-0.2941 -0.05185,-0.07 -0.124885,-0.1043 -0.219101,-0.1043 -0.09358,0 -0.166617,0.035 -0.2191,0.1043 -0.05185,0.07 -0.07778,0.1676 -0.07778,0.2941 0,0.1258 0.02593,0.2235 0.07778,0.2931 0.05248,0.07 0.125516,0.1043 0.2191,0.1043 0.09422,0 0.167249,-0.035 0.219101,-0.1043 0.05248,-0.07 0.07872,-0.1673 0.07872,-0.2931 m 0.174521,0.4116 c -10e-7,0.1809 -0.04015,0.3152 -0.120457,0.4031 -0.08031,0.089 -0.203293,0.1328 -0.368961,0.1328 -0.06134,0 -0.119194,-0 -0.173573,-0.014 -0.05438,-0.01 -0.10718,-0.023 -0.158398,-0.042 l 0,-0.1697 c 0.05122,0.028 0.101804,0.048 0.151758,0.062 0.04995,0.013 0.100855,0.02 0.152706,0.02 0.11445,0 0.20013,-0.03 0.25704,-0.09 0.05691,-0.059 0.08536,-0.1495 0.08536,-0.2703 l 0,-0.086 c -0.03604,0.063 -0.0822,0.1094 -0.138479,0.1404 -0.05628,0.031 -0.12362,0.047 -0.202028,0.047 -0.130259,0 -0.235224,-0.05 -0.314897,-0.149 -0.07967,-0.099 -0.119509,-0.2308 -0.119509,-0.3945 0,-0.1644 0.03984,-0.2963 0.119509,-0.3955 0.07967,-0.099 0.184638,-0.149 0.314897,-0.149 0.07841,0 0.14575,0.015 0.202028,0.046 0.05628,0.031 0.102436,0.078 0.138479,0.1404 l 0,-0.1613 0.174521,0 0,0.9305"
         style=""
         id="path4827" />
      <path
         d="m -71.525351,1287.4963 0,0.6412 -0.174521,0 0,-0.6355 c -10e-7,-0.1006 -0.0196,-0.1758 -0.05881,-0.2258 -0.0392,-0.05 -0.09801,-0.075 -0.176419,-0.075 -0.09422,0 -0.168514,0.03 -0.222894,0.09 -0.05438,0.06 -0.08157,0.142 -0.08157,0.2457 l 0,0.6004 -0.175469,0 0,-1.4759 0.175469,0 0,0.5786 c 0.04173,-0.064 0.09074,-0.1116 0.147016,-0.1432 0.05691,-0.032 0.122354,-0.047 0.196336,-0.047 0.122038,0 0.214357,0.038 0.276958,0.1139 0.0626,0.075 0.0939,0.1862 0.0939,0.3329"
         style=""
         id="path4829" />
    </g>
    <path
       style="fill:#550000;stroke:none"
       d="m 22,1025.8622 -1,0 0,1 0,0 c -1,0 -2,0 -2,-0.5 0,-0.5 1,-0.5 2,-0.5 z"
       id="path4418-6"
       inkscape:connector-curvature="0"
       sodipodi:nodetypes="ccccccc" />
    <g
       style="font-size:1px;font-style:normal;font-variant:normal;font-weight:normal;font-stretch:normal;line-height:125%;letter-spacing:0px;word-spacing:0px;fill:#ffffff;fill-opacity:1;stroke:none;font-family:Symbol Signs;-inkscape-font-specification:Symbol Signs"
       id="text4496-2">
      <path
         d="m 19.65332,1028.2167 0.161133,0 0,-0.5562 -0.175293,0.035 0,-0.09 0.174317,-0.035 0.09863,0 0,0.646 0.161133,0 0,0.083 -0.419922,0 0,-0.083"
         style=""
         id="path4806" />
      <path
         d="m 20.35791,1028.2167 0.344238,0 0,0.083 -0.46289,0 0,-0.083 c 0.03744,-0.039 0.08838,-0.091 0.152832,-0.1558 0.06478,-0.065 0.105468,-0.1076 0.12207,-0.1265 0.03158,-0.035 0.05355,-0.065 0.06592,-0.09 0.0127,-0.025 0.01904,-0.049 0.01904,-0.073 0,-0.039 -0.01367,-0.07 -0.04102,-0.095 -0.02702,-0.024 -0.06234,-0.037 -0.105957,-0.037 -0.03092,0 -0.06364,0.01 -0.09814,0.016 -0.03418,0.011 -0.0708,0.027 -0.109863,0.049 l 0,-0.1 c 0.03971,-0.016 0.07682,-0.028 0.111328,-0.036 0.0345,-0.01 0.06608,-0.012 0.09473,-0.012 0.07552,0 0.135742,0.019 0.180664,0.057 0.04492,0.038 0.06738,0.088 0.06738,0.1514 0,0.03 -0.0057,0.058 -0.01709,0.086 -0.01107,0.027 -0.03141,0.058 -0.06104,0.095 -0.0081,0.01 -0.03402,0.037 -0.07764,0.082 -0.04362,0.045 -0.105143,0.1079 -0.18457,0.189"
         style=""
         id="path4808" />
      <path
         d="m 21.208496,1027.9066 c 0.0472,0.01 0.08398,0.031 0.110352,0.063 0.02669,0.032 0.04004,0.071 0.04004,0.1182 -1e-6,0.072 -0.02474,0.1276 -0.07422,0.167 -0.04948,0.039 -0.119792,0.059 -0.210938,0.059 -0.0306,0 -0.06217,-0 -0.09473,-0.01 -0.03223,-0.01 -0.06559,-0.015 -0.100098,-0.027 l 0,-0.095 c 0.02734,0.016 0.05729,0.028 0.08984,0.036 0.03255,0.01 0.06657,0.012 0.102051,0.012 0.06185,0 0.108886,-0.012 0.141113,-0.037 0.03255,-0.024 0.04883,-0.06 0.04883,-0.1064 0,-0.043 -0.01514,-0.077 -0.04541,-0.1006 -0.02995,-0.024 -0.07178,-0.037 -0.125488,-0.037 l -0.08496,0 0,-0.081 0.08887,0 c 0.0485,0 0.08561,-0.01 0.111328,-0.029 0.02572,-0.019 0.03857,-0.047 0.03857,-0.084 0,-0.037 -0.01335,-0.066 -0.04004,-0.086 -0.02637,-0.02 -0.06429,-0.03 -0.113769,-0.03 -0.02702,0 -0.05599,0 -0.08691,0.01 -0.03092,0.01 -0.06494,0.015 -0.102051,0.027 l 0,-0.088 c 0.03743,-0.01 0.07243,-0.018 0.10498,-0.023 0.03288,-0.01 0.0638,-0.01 0.09277,-0.01 0.07487,0 0.134114,0.017 0.177734,0.051 0.04362,0.034 0.06543,0.08 0.06543,0.1377 -1e-6,0.04 -0.01156,0.074 -0.03467,0.1025 -0.02311,0.028 -0.05599,0.047 -0.09863,0.058"
         style=""
         id="path4810" />
    </g>
    <path
       style="fill:none;stroke:#000000;stroke-width:0.25;stroke-linecap:butt;stroke-linejoin:miter;stroke-miterlimit:4;stroke-opacity:1;stroke-dasharray:none"
       d="m 20.5,1040.3622 0,10"
       id="path4478-6"
       inkscape:connector-curvature="0"
       sodipodi:nodetypes="cc" />
    <path
       style="fill:#1a1a1a;fill-opacity:1;stroke:none"
       d="m 415,16 3.5,0 c 2.5,0 4.5,3 6,5.5 l 2.5,16 1,0 c 0,-16 -6.5,-22 -8,-22 -2.5,0 -2.5,0 -5,0.5 z"
       id="path4370"
       inkscape:connector-curvature="0"
       transform="translate(0,1002.3622)"
       sodipodi:nodetypes="ccccccc" />
    <path
       style="fill:#1a1a1a;fill-opacity:1;fill-rule:nonzero;stroke:none"
       d="m 189,1027.3622 50,0 0,12.5 -50,0 z"
       id="rect3976-5-7" />
    <path
       style="fill:#999999;stroke:none"
       d="m 420,20 c 2.88772,0.129942 3.20267,0.945956 4.5,1.5 2.17206,5.000674 2.11558,11.222781 2.5,16 l 1,3 0,0.5 c -0.5,-1 -3,-3 -5.5,-3 l -233.5,0 0,-0.5 235.5,0 c 0,-2.538225 -0.5,-9 -1.5,-12.5 -0.41213,-1.442468 -4.12604,-2.5 -5.5,-2.5 l -90,0 C 314,22.5 314,20 327.5,20 z"
       id="path4368"
       inkscape:connector-curvature="0"
       transform="translate(0,1002.3622)"
       sodipodi:nodetypes="cccccccccscccc" />
    <path
       style="fill:none;stroke:#000000;stroke-width:0.25;stroke-linecap:butt;stroke-linejoin:miter;stroke-miterlimit:4;stroke-opacity:1;stroke-dasharray:none"
       d="m 407.5,38 0,10"
       id="path4478"
       inkscape:connector-curvature="0"
       transform="translate(0,1002.3622)"
       sodipodi:nodetypes="cc" />
    <path
       style="fill:#800000;stroke:none"
       d="m 423,38.5 c 2.5,0 4.5,2 5,3 l 0,-0.5 c -0.5,-1 -3,-3 -5.5,-3 l -233.5,0 0,0.5 z"
       id="path4374"
       inkscape:connector-curvature="0"
       transform="translate(0,1002.3622)"
       sodipodi:nodetypes="ccccccc" />
    <path
       style="fill:#4d4d4d;stroke:none"
       d="m 352,1049.8622 -0.5,0.5 -0.5,-0.5 0,-31 0.5,-0.5 0.5,0.5 z"
       id="path2989-1-3-8"
       inkscape:connector-curvature="0"
       inkscape:transform-center-x="-1.0000022"
       sodipodi:nodetypes="ccccccc" />
    <path
       style="fill:#808080;stroke:none"
       d="m 351,1049.8622 -0.5,0.5 -0.5,-0.5 0,-31 0.5,-0.5 0.5,0.5 z"
       id="path2989-1-7-02"
       inkscape:connector-curvature="0"
       inkscape:transform-center-x="-1.0000022"
       sodipodi:nodetypes="ccccccc" />
    <path
       style="fill:#808080;stroke:none"
       d="m 349,1049.8622 -0.5,0.5 -0.5,-0.5 0,-31 0.5,-0.5 0.5,0.5 z"
       id="path2989-1-5-0"
       inkscape:connector-curvature="0"
       inkscape:transform-center-x="-1.0000022"
       sodipodi:nodetypes="ccccccc" />
    <path
       style="fill:#4d4d4d;stroke:none"
       d="m 350,1049.8622 -0.5,0.5 -0.5,-0.5 0,-31 0.5,-0.5 0.5,0.5 z"
       id="path2989-1-3-9-89"
       inkscape:connector-curvature="0"
       inkscape:transform-center-x="-1.0000022"
       sodipodi:nodetypes="ccccccc" />
    <path
       style="fill:#4d4d4d;stroke:none"
       d="m 348,1049.8622 -0.5,0.5 -0.5,-0.5 0,-31 0.5,-0.5 0.5,0.5 z"
       id="path2989-1-3-9-2-88"
       inkscape:connector-curvature="0"
       inkscape:transform-center-x="-1.0000022"
       sodipodi:nodetypes="ccccccc" />
    <path
       style="fill:#808080;stroke:none"
       d="m 347,1049.8622 -0.5,0.5 -0.5,-0.5 0,-31 0.5,-0.5 0.5,0.5 z"
       id="path2989-1-5-4-8"
       inkscape:connector-curvature="0"
       inkscape:transform-center-x="-1.0000022"
       sodipodi:nodetypes="ccccccc" />
    <path
       style="fill:#808080;stroke:none"
       d="m 292,1049.8622 -0.5,0.5 -0.5,-0.5 0,-31 0.5,-0.5 0.5,0.5 z"
       id="path2989-1-4-5"
       inkscape:connector-curvature="0"
       inkscape:transform-center-x="-1.0000022"
       sodipodi:nodetypes="ccccccc" />
    <path
       style="fill:none;stroke:#000000;stroke-width:1px;stroke-linecap:butt;stroke-linejoin:miter;stroke-opacity:1"
       d="M 282.5,16.5 290,10 277.5,5"
       id="path4303"
       inkscape:connector-curvature="0"
       transform="translate(0,1002.3622)" />
    <path
       style="fill:#4d4d4d;stroke:none"
       d="m 291,1049.8622 -0.5,0.5 -0.5,-0.5 0,-31 0.5,-0.5 0.5,0.5 z"
       id="path2989-1-3-6-6"
       inkscape:connector-curvature="0"
       inkscape:transform-center-x="-1.0000022"
       sodipodi:nodetypes="ccccccc" />
    <path
       style="fill:#808080;stroke:none"
       d="m 290,1049.8622 -0.5,0.5 -0.5,-0.5 0,-31 0.5,-0.5 0.5,0.5 z"
       id="path2989-1-7-0-5"
       inkscape:connector-curvature="0"
       inkscape:transform-center-x="-1.0000022"
       sodipodi:nodetypes="ccccccc" />
    <path
       style="fill:#808080;stroke:none"
       d="m 288,1049.8622 -0.5,0.5 -0.5,-0.5 0,-31 0.5,-0.5 0.5,0.5 z"
       id="path2989-1-5-6-0"
       inkscape:connector-curvature="0"
       inkscape:transform-center-x="-1.0000022"
       sodipodi:nodetypes="ccccccc" />
    <path
       style="fill:#4d4d4d;stroke:none"
       d="m 289,1049.8622 -0.5,0.5 -0.5,-0.5 0,-31 0.5,-0.5 0.5,0.5 z"
       id="path2989-1-3-9-0-2"
       inkscape:connector-curvature="0"
       inkscape:transform-center-x="-1.0000022"
       sodipodi:nodetypes="ccccccc" />
    <path
       style="fill:#4d4d4d;stroke:none"
       d="m 287,1049.8622 -0.5,0.5 -0.5,-0.5 0,-31 0.5,-0.5 0.5,0.5 z"
       id="path2989-1-3-9-2-6-6"
       inkscape:connector-curvature="0"
       inkscape:transform-center-x="-1.0000022"
       sodipodi:nodetypes="ccccccc" />
    <path
       style="fill:#808080;stroke:none"
       d="m 286,1049.8622 -0.5,0.5 -0.5,-0.5 0,-31 0.5,-0.5 0.5,0.5 z"
       id="path2989-1-5-4-5-6"
       inkscape:connector-curvature="0"
       inkscape:transform-center-x="-1.0000022"
       sodipodi:nodetypes="ccccccc" />
    <path
       style="fill:#808080;stroke:none"
       d="m 246,1049.8622 -0.5,0.5 -0.5,-0.5 0,-31 0.5,-0.5 0.5,0.5 z"
       id="path2989-1-0-3"
       inkscape:connector-curvature="0"
       inkscape:transform-center-x="-1.0000022"
       sodipodi:nodetypes="ccccccc" />
    <path
       style="fill:#4d4d4d;stroke:none"
       d="m 245,1049.8622 -0.5,0.5 -0.5,-0.5 0,-31 0.5,-0.5 0.5,0.5 z"
       id="path2989-1-3-7-5"
       inkscape:connector-curvature="0"
       inkscape:transform-center-x="-1.0000022"
       sodipodi:nodetypes="ccccccc" />
    <path
       style="fill:#808080;stroke:none"
       d="m 244,1049.8622 -0.5,0.5 -0.5,-0.5 0,-31 0.5,-0.5 0.5,0.5 z"
       id="path2989-1-7-7-6"
       inkscape:connector-curvature="0"
       inkscape:transform-center-x="-1.0000022"
       sodipodi:nodetypes="ccccccc" />
    <path
       style="fill:#808080;stroke:none"
       d="m 242,1049.8622 -0.5,0.5 -0.5,-0.5 0,-31 0.5,-0.5 0.5,0.5 z"
       id="path2989-1-5-7-3"
       inkscape:connector-curvature="0"
       inkscape:transform-center-x="-1.0000022"
       sodipodi:nodetypes="ccccccc" />
    <path
       style="fill:#4d4d4d;stroke:none"
       d="m 243,1049.8622 -0.5,0.5 -0.5,-0.5 0,-31 0.5,-0.5 0.5,0.5 z"
       id="path2989-1-3-9-8-9"
       inkscape:connector-curvature="0"
       inkscape:transform-center-x="-1.0000022"
       sodipodi:nodetypes="ccccccc" />
    <path
       style="fill:#4d4d4d;stroke:none"
       d="m 241,1049.8622 -0.5,0.5 -0.5,-0.5 0,-31 0.5,-0.5 0.5,0.5 z"
       id="path2989-1-3-9-2-8-6"
       inkscape:connector-curvature="0"
       inkscape:transform-center-x="-1.0000022"
       sodipodi:nodetypes="ccccccc" />
    <path
       style="fill:#808080;stroke:none"
       d="m 240,1049.8622 -0.5,0.5 -0.5,-0.5 0,-31 0.5,-0.5 0.5,0.5 z"
       id="path2989-1-5-4-3-0"
       inkscape:connector-curvature="0"
       inkscape:transform-center-x="-1.0000022"
       sodipodi:nodetypes="ccccccc" />
    <path
       transform="scale(-1,1)"
       style="fill:#1a1a1a;fill-opacity:1;fill-rule:nonzero;stroke:none"
       d="m -346,1027.3622 54,0 0,12.5 -54,0 z"
       id="rect3976-9" />
    <path
       transform="scale(-1,1)"
       style="fill:#1a1a1a;fill-opacity:1;fill-rule:nonzero;stroke:none"
       d="m -284.99997,1027.3622 38.99997,0 0,12.5 -38.99997,0 z"
       id="rect3976-5-75" />
    <path
       transform="scale(-1,1)"
       style="fill:#b3b3b3;fill-opacity:1;fill-rule:nonzero;stroke:none"
       d="m -309,1027.3622 14.5,0 0,21.5 -14.5,0 z"
       id="rect4016-5-5" />
    <path
       transform="scale(-1,1)"
       style="fill:#1a1a1a;fill-opacity:1;fill-rule:nonzero;stroke:none"
       d="m -308,1027.3622 12.5,0 0,21.5 -12.5,0 z"
       id="rect4018-9-3" />
    <path
       transform="scale(-1,1)"
       style="fill:none;stroke:#000000;stroke-width:0.22599953;stroke-miterlimit:4;stroke-opacity:1"
       d="m -277.99997,1045.8622 24.49997,0 0,4 -24.49997,0 z"
       id="rect4091-4" />
    <path
       transform="scale(-1,1)"
       style="fill:none;stroke:#000000;stroke-width:0.22599953;stroke-miterlimit:4;stroke-opacity:1"
       d="m -384,1045.8622 24.5,0 0,4 -24.5,0 z"
       id="rect4091-7-5" />
    <path
       style="fill:#808080;stroke:none"
       d="m 353,1049.8622 -0.5,0.5 -0.5,-0.5 0,-31 0.5,-0.5 0.5,0.5 z"
       id="path2989-0"
       inkscape:connector-curvature="0"
       sodipodi:nodetypes="ccccccc" />
    <path
       style="fill:#1a1a1a;stroke:none"
       d="m 353,1027.3622 0,12.5 71.5,0 c 0,-3.5 0,-7.5 -1.5,-12.5 z"
       id="path4014-0"
       inkscape:connector-curvature="0"
       sodipodi:nodetypes="ccccc" />
    <path
       transform="scale(-1,1)"
       style="fill:#b3b3b3;fill-opacity:1;fill-rule:nonzero;stroke:none"
       d="m -405.5,1027.3622 12.5,0 0,21.5 -12.5,0 z"
       id="rect4016-56" />
    <path
       transform="scale(-1,1)"
       style="fill:#1a1a1a;fill-opacity:1;fill-rule:nonzero;stroke:none"
       d="m -404.5,1027.3622 10.5,0 0,21.5 -10.5,0 z"
       id="rect4018-6" />
    <path
       style="fill:#000000;fill-opacity:1;fill-rule:nonzero;stroke:#000000;stroke-width:0.24065959;stroke-linecap:round;stroke-linejoin:miter;stroke-miterlimit:4;stroke-opacity:1"
       d="m 282.12033,1017.4825 2.75935,0 0,1.2593 -2.75935,0 z"
       id="rect4305" />
    <path
       style="fill:none;stroke:#000000;stroke-width:0.5;stroke-linecap:butt;stroke-linejoin:miter;stroke-miterlimit:4;stroke-opacity:1;stroke-dasharray:none"
       d="m 284.5,16.5 6,-6.5"
       id="path4366"
       inkscape:connector-curvature="0"
       transform="translate(0,1002.3622)"
       sodipodi:nodetypes="cc" />
    <path
       style="fill:#d45500;stroke:none"
       d="m 428,1039.8622 0,3 -1,-3 z"
       id="path4372"
       inkscape:connector-curvature="0"
       sodipodi:nodetypes="cccc" />
    <path
       style="fill:none;stroke:#000000;stroke-width:0.25;stroke-linecap:butt;stroke-linejoin:miter;stroke-opacity:1;stroke-miterlimit:4;stroke-dasharray:none"
       d="m 427,37.5 -2.5,0"
       id="path4376"
       inkscape:connector-curvature="0"
       transform="translate(0,1002.3622)" />
    <path
       style="fill:#666666;stroke:none"
       d="m 422.5,1049.8622 3.5,0 1,0.5 -6.5,0.5 -0.5,-1 z"
       id="path4380"
       inkscape:connector-curvature="0"
       sodipodi:nodetypes="cccccc" />
    <path
       transform="translate(0,1002.3622)"
       style="fill:#999999;fill-opacity:1;fill-rule:nonzero;stroke:none"
       d="m 353,24.5 40,0 0,0.5 -40,0 z"
       id="rect4384" />
    <path
       style="fill:#999999;fill-opacity:1;fill-rule:nonzero;stroke:none"
       d="m 292,1026.8622 54,0 0,0.5 -54,0 z"
       id="rect4384-4" />
    <path
       style="fill:#999999;fill-opacity:1;fill-rule:nonzero;stroke:none"
       d="m 246,1026.8622 39,0 0,0.5 -39,0 z"
       id="rect4384-2" />
    <path
       style="fill:#999999;fill-opacity:1;fill-rule:nonzero;stroke:none"
       d="m 189,1026.8622 50,0 0,0.5 -50,0 z"
       id="rect4384-7" />
    <path
       style="fill:#550000;stroke:none"
       d="m 406,1025.8622 1,0 0,1 0,0 c 1,0 2,0 2,-0.5 0,-0.5 -1,-0.5 -2,-0.5 z"
       id="path4418"
       inkscape:connector-curvature="0"
       sodipodi:nodetypes="ccccccc" />
    <path
       style="fill:#ffcc00;stroke:#ffcc00;stroke-width:0.5;stroke-linecap:butt;stroke-linejoin:miter;stroke-miterlimit:4;stroke-opacity:1;stroke-dasharray:none"
       d="m 393.5,46.5 11.5,0"
       id="path4440"
       inkscape:connector-curvature="0"
       transform="translate(0,1002.3622)"
       sodipodi:nodetypes="cc" />
    <path
       style="fill:#ffcc00;stroke:#ffcc00;stroke-width:0.5;stroke-linecap:butt;stroke-linejoin:miter;stroke-miterlimit:4;stroke-opacity:1;stroke-dasharray:none"
       d="m 295,1048.8622 13.5,0"
       id="path4440-9"
       inkscape:connector-curvature="0"
       sodipodi:nodetypes="cc" />
    <path
       transform="translate(0,1002.3622)"
       style="fill:#ff6600;fill-opacity:1;fill-rule:nonzero;stroke:none"
       d="m 424.5,43 1,0 0,0.5 -1,0 z"
       id="rect4474" />
    <path
       transform="translate(0,1002.3622)"
       style="fill:none;stroke:#000000;stroke-width:0.25;stroke-miterlimit:4;stroke-opacity:1"
       d="m 410,46 5.5,0 0,2 -5.5,0 z"
       id="rect4476" />
    <path
       style="fill:#333333;fill-opacity:1;fill-rule:nonzero;stroke:none"
       d="m 328,1028.3622 15.5,0 0,10.5 -15.5,0 z"
       id="rect3148-2-2" />
    <path
       style="fill:#333333;fill-opacity:1;fill-rule:nonzero;stroke:none"
       d="m 310.5,1028.3622 15.5,0 0,10.5 -15.5,0 z"
       id="rect3148-2-3" />
    <path
       transform="translate(0,1002.3622)"
       style="fill:#1a1a1a;stroke:#000000;stroke-width:0.25;stroke-linecap:round;stroke-linejoin:miter;stroke-miterlimit:4;stroke-opacity:1"
       d="m 325,24 15,0 0,2 -15,0 z"
       id="rect4480" />
    <g
       transform="scale(1.25327,0.79791267)"
       style="font-size:1.94249916px;font-style:normal;font-variant:normal;font-weight:normal;font-stretch:normal;line-height:125%;letter-spacing:0px;word-spacing:0px;fill:#d45500;fill-opacity:1;stroke:none;font-family:Sans;-inkscape-font-specification:Terminus"
       id="text4482">
      <path
         d="m 260.40631,1286.7212 0.89537,0 0,0.1613 -0.70377,0 0,0.4192 0.67437,0 0,0.1613 -0.67437,0 0,0.5131 0.72085,0 0,0.1612 -0.91245,0 0,-1.4161"
         style=""
         id="path4768" />
      <path
         d="m 262.327,1287.2363 0,-0.5748 0.17452,0 0,1.4758 -0.17452,0 0,-0.1593 c -0.0367,0.063 -0.0831,0.1103 -0.13943,0.1413 -0.0557,0.03 -0.12267,0.045 -0.20108,0.045 -0.12836,0 -0.23301,-0.051 -0.31395,-0.1536 -0.0803,-0.1025 -0.12046,-0.2371 -0.12046,-0.4041 0,-0.1669 0.0402,-0.3016 0.12046,-0.404 0.0809,-0.1025 0.18559,-0.1537 0.31395,-0.1537 0.0784,0 0.14543,0.015 0.20108,0.046 0.0563,0.03 0.10275,0.077 0.13943,0.1404 m -0.5947,0.3708 c 0,0.1284 0.0262,0.2292 0.0787,0.3026 0.0531,0.073 0.12583,0.1091 0.21815,0.1091 0.0923,0 0.16504,-0.036 0.21815,-0.1091 0.0531,-0.073 0.0797,-0.1742 0.0797,-0.3026 0,-0.1283 -0.0266,-0.2289 -0.0797,-0.3016 -0.0531,-0.073 -0.12583,-0.11 -0.21815,-0.11 -0.0923,0 -0.16503,0.037 -0.21815,0.11 -0.0525,0.073 -0.0787,0.1733 -0.0787,0.3016"
         style=""
         id="path4770" />
      <path
         d="m 262.861,1287.075 0.17452,0 0,1.0623 -0.17452,0 0,-1.0623 m 0,-0.4135 0.17452,0 0,0.221 -0.17452,0 0,-0.221"
         style=""
         id="path4772" />
      <path
         d="m 264.28278,1287.4962 0,0.6411 -0.17453,0 0,-0.6355 c 0,-0.1005 -0.0196,-0.1757 -0.0588,-0.2257 -0.0392,-0.05 -0.098,-0.075 -0.17642,-0.075 -0.0942,0 -0.16852,0.03 -0.22289,0.09 -0.0544,0.06 -0.0816,0.1419 -0.0816,0.2456 l 0,0.6004 -0.17547,0 0,-1.0623 0.17547,0 0,0.1651 c 0.0417,-0.064 0.0907,-0.1116 0.14701,-0.1433 0.0569,-0.032 0.12235,-0.047 0.19634,-0.047 0.12204,0 0.21435,0.038 0.27696,0.1138 0.0626,0.075 0.0939,0.1863 0.0939,0.333"
         style=""
         id="path4774" />
      <path
         d="m 265.39535,1287.6071 c 0,-0.1283 -0.0266,-0.2289 -0.0797,-0.3016 -0.0525,-0.073 -0.12489,-0.11 -0.21721,-0.11 -0.0923,0 -0.16503,0.037 -0.21815,0.11 -0.0525,0.073 -0.0787,0.1733 -0.0787,0.3016 0,0.1284 0.0262,0.2292 0.0787,0.3026 0.0531,0.073 0.12583,0.1091 0.21815,0.1091 0.0923,0 0.16472,-0.036 0.21721,-0.1091 0.0531,-0.073 0.0797,-0.1742 0.0797,-0.3026 m -0.59375,-0.3708 c 0.0367,-0.063 0.0828,-0.1101 0.13848,-0.1404 0.0563,-0.031 0.1233,-0.046 0.20108,-0.046 0.12899,0 0.23364,0.051 0.31394,0.1537 0.0809,0.1024 0.12141,0.2371 0.12141,0.404 0,0.167 -0.0405,0.3016 -0.12141,0.4041 -0.0803,0.1024 -0.18495,0.1536 -0.31394,0.1536 -0.0778,0 -0.14481,-0.015 -0.20108,-0.045 -0.0557,-0.031 -0.10181,-0.078 -0.13848,-0.1413 l 0,0.1593 -0.17547,0 0,-1.4758 0.17547,0 0,0.5748"
         style=""
         id="path4776" />
      <path
         d="m 265.84778,1287.7181 0,-0.6431 0.17452,0 0,0.6365 c 0,0.1005 0.0196,0.1761 0.0588,0.2266 0.0392,0.05 0.098,0.075 0.17642,0.075 0.0942,0 0.16852,-0.03 0.2229,-0.09 0.055,-0.06 0.0825,-0.142 0.0825,-0.2457 l 0,-0.6023 0.17452,0 0,1.0623 -0.17452,0 0,-0.1631 c -0.0424,0.064 -0.0917,0.1125 -0.14797,0.1442 -0.0556,0.031 -0.12046,0.046 -0.19444,0.046 -0.12204,0 -0.21467,-0.038 -0.2779,-0.1138 -0.0632,-0.076 -0.0949,-0.1868 -0.0949,-0.3329 m 0.43915,-0.6687 0,0"
         style=""
         id="path4778" />
      <path
         d="m 267.7144,1287.2382 c -0.0196,-0.011 -0.0411,-0.02 -0.0645,-0.025 -0.0228,-0.01 -0.0481,-0.01 -0.0759,-0.01 -0.0986,0 -0.17452,0.032 -0.22763,0.097 -0.0525,0.064 -0.0787,0.1559 -0.0787,0.276 l 0,0.5596 -0.17547,0 0,-1.0623 0.17547,0 0,0.1651 c 0.0367,-0.064 0.0844,-0.1123 0.14322,-0.1433 0.0588,-0.032 0.13026,-0.047 0.21436,-0.047 0.012,0 0.0253,10e-4 0.0398,0 0.0145,0 0.0307,0 0.0484,0.01 l 9.5e-4,0.1793"
         style=""
         id="path4780" />
      <path
         d="m 268.56424,1287.5938 c 0,-0.1264 -0.0262,-0.2244 -0.0787,-0.294 -0.0519,-0.07 -0.12489,-0.1043 -0.2191,-0.1043 -0.0936,0 -0.16662,0.035 -0.2191,0.1043 -0.0519,0.07 -0.0778,0.1676 -0.0778,0.294 0,0.1259 0.0259,0.2236 0.0778,0.2931 0.0525,0.07 0.12551,0.1044 0.2191,0.1044 0.0942,0 0.16725,-0.035 0.2191,-0.1044 0.0525,-0.07 0.0787,-0.1672 0.0787,-0.2931 m 0.17452,0.4117 c 0,0.1808 -0.0402,0.3152 -0.12046,0.4031 -0.0803,0.089 -0.20329,0.1328 -0.36896,0.1328 -0.0613,0 -0.11919,-0 -0.17357,-0.014 -0.0544,-0.01 -0.10718,-0.023 -0.1584,-0.042 l 0,-0.1698 c 0.0512,0.028 0.10181,0.048 0.15176,0.062 0.05,0.013 0.10086,0.02 0.15271,0.02 0.11445,0 0.20013,-0.03 0.25704,-0.09 0.0569,-0.059 0.0854,-0.1495 0.0854,-0.2703 l 0,-0.086 c -0.036,0.063 -0.0822,0.1094 -0.13848,0.1404 -0.0563,0.031 -0.12362,0.046 -0.20203,0.046 -0.13025,0 -0.23522,-0.05 -0.31489,-0.1489 -0.0797,-0.099 -0.11951,-0.2308 -0.11951,-0.3946 0,-0.1644 0.0398,-0.2962 0.11951,-0.3955 0.0797,-0.099 0.18464,-0.1489 0.31489,-0.1489 0.0784,0 0.14575,0.015 0.20203,0.046 0.0563,0.031 0.10244,0.078 0.13848,0.1404 l 0,-0.1613 0.17452,0 0,0.9305"
         style=""
         id="path4782" />
      <path
         d="m 269.98128,1287.4962 0,0.6411 -0.17452,0 0,-0.6355 c 0,-0.1005 -0.0196,-0.1757 -0.0588,-0.2257 -0.0392,-0.05 -0.098,-0.075 -0.17642,-0.075 -0.0942,0 -0.16851,0.03 -0.22289,0.09 -0.0544,0.06 -0.0816,0.1419 -0.0816,0.2456 l 0,0.6004 -0.17547,0 0,-1.4758 0.17547,0 0,0.5786 c 0.0417,-0.064 0.0907,-0.1116 0.14701,-0.1433 0.0569,-0.032 0.12236,-0.047 0.19634,-0.047 0.12204,0 0.21436,0.038 0.27696,0.1138 0.0626,0.075 0.0939,0.1863 0.0939,0.333"
         style=""
         id="path4784" />
    </g>
    <path
       transform="matrix(1.135234,0,0,1.0010834,-42.598705,1001.3162)"
       style="fill:#800000;fill-opacity:1;fill-rule:nonzero;stroke:none"
       d="m 318.5235,44.497826 c 0,1.103368 -0.78876,1.997825 -1.76175,1.997825 C 315.78876,46.495651 315,45.601194 315,44.497826 315,43.394457 315.78876,42.5 316.76175,42.5 c 0.95342,0 1.73384,0.860105 1.76103,1.940843"
       id="path4486" />
    <g
       transform="scale(1.1507941,0.86896519)"
       style="font-size:2.3015883px;font-style:normal;font-variant:normal;font-weight:normal;font-stretch:normal;line-height:125%;letter-spacing:0px;word-spacing:0px;fill:#800000;fill-opacity:1;stroke:none;font-family:Arial;-inkscape-font-specification:Arial"
       id="text4488">
      <path
         d="m 281.11024,1202.6696 0,-0.8238 0.6108,0 0,0.1393 -0.44447,0 0,0.1827 0.41357,0 0,0.1388 -0.41357,0 0,0.2242 0.46021,0 0,0.1388 -0.62654,0"
         style="font-size:1.15079415px;font-weight:bold;fill:#800000;-inkscape-font-specification:Arial Bold"
         id="path4748" />
      <path
         d="m 282.42512,1202.6696 -0.14666,0 0,-0.088 c -0.0243,0.034 -0.0532,0.06 -0.0865,0.076 -0.033,0.016 -0.0663,0.025 -0.10002,0.025 -0.0686,0 -0.12736,-0.027 -0.17644,-0.083 -0.0487,-0.055 -0.0731,-0.1326 -0.0731,-0.2315 0,-0.1011 0.0238,-0.1779 0.0714,-0.2304 0.0476,-0.053 0.1077,-0.079 0.18037,-0.079 0.0667,0 0.12437,0.028 0.17307,0.083 l 0,-0.2967 0.1579,0 0,0.8238 m -0.42144,-0.3113 c 0,0.064 0.009,0.1097 0.0264,0.1382 0.0255,0.041 0.0611,0.062 0.10677,0.062 0.0363,0 0.0672,-0.015 0.0927,-0.046 0.0255,-0.031 0.0382,-0.077 0.0382,-0.1388 0,-0.068 -0.0124,-0.1178 -0.0371,-0.1478 -0.0247,-0.03 -0.0564,-0.045 -0.095,-0.045 -0.0375,0 -0.0689,0.015 -0.0944,0.045 -0.0251,0.03 -0.0377,0.074 -0.0377,0.1332"
         style="font-size:1.15079415px;font-weight:bold;fill:#800000;-inkscape-font-specification:Arial Bold"
         id="path4750" />
      <path
         d="m 282.58133,1201.9919 0,-0.1461 0.1579,0 0,0.1461 -0.1579,0 m 0,0.6777 0,-0.5968 0.1579,0 0,0.5968 -0.1579,0"
         style="font-size:1.15079415px;font-weight:bold;fill:#800000;-inkscape-font-specification:Arial Bold"
         id="path4752" />
      <path
         d="m 283.4433,1202.6696 -0.1579,0 0,-0.3046 c 0,-0.064 -0.003,-0.106 -0.0101,-0.1247 -0.007,-0.019 -0.0178,-0.034 -0.0331,-0.044 -0.015,-0.01 -0.0332,-0.016 -0.0545,-0.016 -0.0274,0 -0.0519,0.01 -0.0736,0.023 -0.0217,0.015 -0.0367,0.035 -0.0449,0.06 -0.008,0.025 -0.0118,0.07 -0.0118,0.1371 l 0,0.2703 -0.1579,0 0,-0.5968 0.14666,0 0,0.088 c 0.0521,-0.067 0.11763,-0.1012 0.19667,-0.1012 0.0348,0 0.0667,0.01 0.0955,0.019 0.0289,0.012 0.0506,0.028 0.0652,0.048 0.015,0.02 0.0253,0.042 0.0309,0.066 0.006,0.025 0.009,0.06 0.009,0.1062 l 0,0.3709"
         style="font-size:1.15079415px;font-weight:bold;fill:#800000;-inkscape-font-specification:Arial Bold"
         id="path4754" />
      <path
         d="m 283.59726,1202.6696 0,-0.8238 0.1579,0 0,0.2967 c 0.0487,-0.055 0.10639,-0.083 0.17307,-0.083 0.0727,0 0.1328,0.026 0.18037,0.079 0.0476,0.053 0.0714,0.128 0.0714,0.2265 -1e-5,0.1019 -0.0244,0.1804 -0.0731,0.2354 -0.0483,0.055 -0.10714,0.083 -0.17644,0.083 -0.0341,0 -0.0678,-0.01 -0.10115,-0.025 -0.033,-0.017 -0.0614,-0.043 -0.0854,-0.076 l 0,0.088 -0.14666,0 m 0.15678,-0.3113 c 0,0.062 0.01,0.1075 0.0292,0.1371 0.0273,0.042 0.0637,0.063 0.10901,0.063 0.0348,0 0.0644,-0.015 0.0888,-0.044 0.0247,-0.03 0.0371,-0.077 0.0371,-0.141 0,-0.068 -0.0124,-0.1173 -0.0371,-0.1473 -0.0247,-0.03 -0.0564,-0.045 -0.095,-0.045 -0.0378,0 -0.0693,0.015 -0.0944,0.044 -0.0251,0.029 -0.0376,0.074 -0.0376,0.1338"
         style="font-size:1.15079415px;font-weight:bold;fill:#800000;-inkscape-font-specification:Arial Bold"
         id="path4756" />
      <path
         d="m 284.7003,1202.6696 0,-0.089 c -0.0217,0.032 -0.0504,0.057 -0.086,0.075 -0.0352,0.018 -0.0725,0.027 -0.11182,0.027 -0.0401,0 -0.076,-0.01 -0.10788,-0.026 -0.0318,-0.018 -0.0549,-0.042 -0.0691,-0.074 -0.0142,-0.032 -0.0213,-0.076 -0.0213,-0.1321 l 0,-0.3776 0.15789,0 0,0.2742 c 0,0.084 0.003,0.1354 0.008,0.1545 0.006,0.019 0.0167,0.034 0.032,0.045 0.0154,0.011 0.0348,0.016 0.0584,0.016 0.027,0 0.0511,-0.01 0.0725,-0.022 0.0214,-0.015 0.036,-0.033 0.0438,-0.055 0.008,-0.022 0.0118,-0.076 0.0118,-0.1613 l 0,-0.2517 0.15789,0 0,0.5968 -0.14665,0"
         style="font-size:1.15079415px;font-weight:bold;fill:#800000;-inkscape-font-specification:Arial Bold"
         id="path4758" />
      <path
         d="m 285.16219,1202.6696 -0.1579,0 0,-0.5968 0.14666,0 0,0.085 c 0.0251,-0.04 0.0476,-0.066 0.0674,-0.079 0.0202,-0.013 0.0431,-0.019 0.0685,-0.019 0.036,0 0.0706,0.01 0.10395,0.03 l -0.0489,0.1377 c -0.0266,-0.017 -0.0513,-0.026 -0.0742,-0.026 -0.0221,0 -0.0408,0.01 -0.0562,0.019 -0.0154,0.012 -0.0275,0.034 -0.0365,0.066 -0.009,0.032 -0.0129,0.099 -0.0129,0.2 l 0,0.1844"
         style="font-size:1.15079415px;font-weight:bold;fill:#800000;-inkscape-font-specification:Arial Bold"
         id="path4760" />
      <path
         d="m 285.4437,1202.7089 0.18038,0.022 c 0.003,0.021 0.01,0.035 0.0208,0.043 0.015,0.011 0.0386,0.017 0.0708,0.017 0.0412,0 0.0721,-0.01 0.0927,-0.018 0.0139,-0.01 0.0244,-0.022 0.0315,-0.04 0.005,-0.013 0.007,-0.037 0.007,-0.072 l 0,-0.087 c -0.0472,0.064 -0.10677,0.097 -0.17869,0.097 -0.0802,0 -0.14366,-0.034 -0.19049,-0.1018 -0.0367,-0.053 -0.0551,-0.1202 -0.0551,-0.2 0,-0.1 0.024,-0.1764 0.0719,-0.2293 0.0483,-0.053 0.10826,-0.079 0.17981,-0.079 0.0738,0 0.13467,0.032 0.18262,0.097 l 0,-0.084 0.14778,0 0,0.5355 c 0,0.07 -0.006,0.1231 -0.0174,0.1579 -0.0116,0.035 -0.0279,0.062 -0.0489,0.082 -0.021,0.02 -0.0491,0.035 -0.0843,0.047 -0.0348,0.011 -0.079,0.017 -0.13261,0.017 -0.10114,0 -0.17288,-0.017 -0.21521,-0.052 -0.0423,-0.034 -0.0635,-0.078 -0.0635,-0.1315 0,-0.01 1.9e-4,-0.012 5.6e-4,-0.019 m 0.14104,-0.3501 c 0,0.063 0.0122,0.1098 0.0365,0.1394 0.0247,0.029 0.0551,0.044 0.091,0.044 0.0386,0 0.0712,-0.015 0.0978,-0.045 0.0266,-0.03 0.0399,-0.075 0.0399,-0.1342 -10e-6,-0.062 -0.0127,-0.1077 -0.0382,-0.1377 -0.0255,-0.03 -0.0577,-0.045 -0.0967,-0.045 -0.0378,0 -0.0691,0.015 -0.0938,0.044 -0.0243,0.029 -0.0365,0.074 -0.0365,0.1343"
         style="font-size:1.15079415px;font-weight:bold;fill:#800000;-inkscape-font-specification:Arial Bold"
         id="path4762" />
      <path
         d="m 286.31916,1201.8458 0,0.3029 c 0.051,-0.06 0.11182,-0.089 0.18262,-0.089 0.0363,0 0.0691,0.01 0.0983,0.02 0.0292,0.014 0.0511,0.031 0.0657,0.052 0.015,0.021 0.0251,0.044 0.0303,0.07 0.006,0.025 0.008,0.065 0.008,0.1186 l 0,0.3501 -0.15789,0 0,-0.3153 c 0,-0.062 -0.003,-0.1022 -0.009,-0.1191 -0.006,-0.017 -0.0167,-0.03 -0.032,-0.04 -0.015,-0.01 -0.0339,-0.015 -0.0568,-0.015 -0.0262,0 -0.0496,0.01 -0.0702,0.019 -0.0206,0.013 -0.0358,0.032 -0.0455,0.058 -0.009,0.025 -0.014,0.063 -0.014,0.1135 l 0,0.299 -0.1579,0 0,-0.8238 0.1579,0"
         style="font-size:1.15079415px;font-weight:bold;fill:#800000;-inkscape-font-specification:Arial Bold"
         id="path4764" />
    </g>
    <g
       style="font-size:40px;font-style:normal;font-variant:normal;font-weight:normal;font-stretch:normal;line-height:125%;letter-spacing:0px;word-spacing:0px;fill:#800000;fill-opacity:1;stroke:none;font-family:Symbol Signs;-inkscape-font-specification:Symbol Signs"
       id="text4492">
      <path
         d="m 322.13135,1047.0096 0,-1.7841 -0.63721,0 0,-0.3633 1.70654,0 0,0.3633 -0.63574,0 0,1.7841 -0.43359,0"
         style="font-size:3px;font-weight:bold;fill:#800000;font-family:Arial;-inkscape-font-specification:Arial Bold"
         id="path4737" />
      <path
         d="m 323.70898,1047.0096 -0.41162,0 0,-1.5556 0.38233,0 0,0.2212 c 0.0654,-0.1045 0.12402,-0.1734 0.17578,-0.2066 0.0527,-0.033 0.1123,-0.05 0.17871,-0.05 0.0937,0 0.18408,0.026 0.271,0.078 l -0.12745,0.3588 c -0.0693,-0.045 -0.13379,-0.067 -0.19336,-0.067 -0.0576,0 -0.10644,0.016 -0.14648,0.048 -0.04,0.031 -0.0718,0.088 -0.0952,0.1714 -0.0225,0.083 -0.0337,0.2568 -0.0337,0.5215 l 0,0.4804"
         style="font-size:3px;font-weight:bold;fill:#800000;font-family:Arial;-inkscape-font-specification:Arial Bold"
         id="path4739" />
      <path
         d="m 324.78857,1045.9286 -0.37353,-0.067 c 0.042,-0.1504 0.11426,-0.2617 0.2168,-0.334 0.10253,-0.072 0.25488,-0.1084 0.45703,-0.1084 0.18359,0 0.32031,0.022 0.41015,0.066 0.0899,0.043 0.15283,0.098 0.18897,0.1656 0.0371,0.066 0.0557,0.1889 0.0557,0.3676 l -0.004,0.4805 c 0,0.1367 0.006,0.2378 0.019,0.3032 0.0137,0.064 0.0386,0.1338 0.0747,0.208 l -0.40723,0 c -0.0107,-0.027 -0.0239,-0.068 -0.0395,-0.1215 -0.007,-0.024 -0.0117,-0.041 -0.0147,-0.048 -0.0703,0.068 -0.14551,0.1197 -0.22558,0.1538 -0.0801,0.034 -0.16553,0.051 -0.25635,0.051 -0.16016,0 -0.28662,-0.043 -0.3794,-0.1304 -0.0918,-0.087 -0.13769,-0.1967 -0.13769,-0.3296 0,-0.088 0.021,-0.166 0.063,-0.2343 0.042,-0.069 0.10058,-0.1221 0.17578,-0.1582 0.0762,-0.037 0.18554,-0.069 0.32812,-0.097 0.19239,-0.036 0.32569,-0.07 0.39991,-0.1011 l 0,-0.041 c -10e-6,-0.079 -0.0195,-0.1353 -0.0586,-0.1685 -0.0391,-0.034 -0.11279,-0.051 -0.22119,-0.051 -0.0732,0 -0.13037,0.015 -0.17139,0.044 -0.041,0.028 -0.0742,0.079 -0.0996,0.1509 m 0.55079,0.334 c -0.0527,0.018 -0.13624,0.038 -0.25049,0.063 -0.11426,0.024 -0.18897,0.048 -0.22412,0.072 -0.0537,0.038 -0.0806,0.086 -0.0806,0.1451 0,0.058 0.0215,0.1074 0.0645,0.1494 0.043,0.042 0.0977,0.063 0.16407,0.063 0.0742,0 0.14501,-0.024 0.2124,-0.073 0.0498,-0.037 0.0825,-0.082 0.0981,-0.1362 0.0107,-0.035 0.0161,-0.1021 0.0161,-0.2007 l 0,-0.082"
         style="font-size:3px;font-weight:bold;fill:#800000;font-family:Arial;-inkscape-font-specification:Arial Bold"
         id="path4741" />
      <path
         d="m 326.12012,1045.454 0.37939,0 0,0.2124 c 0.13574,-0.1651 0.29736,-0.2476 0.48486,-0.2476 0.0996,0 0.18604,0.021 0.25928,0.062 0.0732,0.041 0.1333,0.1031 0.18018,0.1861 0.0684,-0.083 0.14209,-0.145 0.22119,-0.1861 0.0791,-0.041 0.16357,-0.062 0.25342,-0.062 0.11425,0 0.21093,0.024 0.29004,0.07 0.0791,0.046 0.13818,0.1138 0.17724,0.2036 0.0283,0.066 0.0425,0.1739 0.0425,0.3223 l 0,0.9946 -0.41162,0 0,-0.8891 c 0,-0.1543 -0.0142,-0.2539 -0.0425,-0.2988 -0.0381,-0.059 -0.0967,-0.088 -0.17578,-0.088 -0.0576,0 -0.11182,0.017 -0.1626,0.053 -0.0508,0.035 -0.0874,0.087 -0.10986,0.1553 -0.0225,0.067 -0.0337,0.1743 -0.0337,0.3208 l 0,0.747 -0.41162,0 0,-0.8525 c 0,-0.1514 -0.007,-0.249 -0.022,-0.293 -0.0147,-0.044 -0.0376,-0.077 -0.0688,-0.098 -0.0303,-0.022 -0.0718,-0.032 -0.12452,-0.032 -0.0635,0 -0.1206,0.017 -0.17138,0.051 -0.0508,0.034 -0.0874,0.083 -0.10987,0.148 -0.0215,0.064 -0.0322,0.1714 -0.0322,0.3208 l 0,0.7558 -0.41162,0 0,-1.5556"
         style="font-size:3px;font-weight:bold;fill:#800000;font-family:Arial;-inkscape-font-specification:Arial Bold"
         id="path4743" />
      <path
         d="m 328.67187,1046.5658 0.41309,-0.063 c 0.0176,0.08 0.0532,0.1411 0.10693,0.1831 0.0537,0.041 0.12891,0.062 0.22559,0.062 0.10644,0 0.18652,-0.019 0.24023,-0.059 0.0361,-0.027 0.0542,-0.064 0.0542,-0.1098 0,-0.031 -0.01,-0.057 -0.0293,-0.078 -0.0205,-0.019 -0.0664,-0.038 -0.1377,-0.054 -0.33203,-0.073 -0.54248,-0.1401 -0.63135,-0.2006 -0.12304,-0.084 -0.18457,-0.2007 -0.18457,-0.3501 0,-0.1348 0.0532,-0.2481 0.15967,-0.3399 0.10645,-0.092 0.27149,-0.1377 0.49512,-0.1377 0.21289,0 0.37109,0.035 0.47461,0.104 0.10351,0.069 0.1748,0.1719 0.21387,0.3076 l -0.38819,0.072 c -0.0166,-0.061 -0.0483,-0.1069 -0.0952,-0.1391 -0.0459,-0.032 -0.11182,-0.048 -0.19776,-0.048 -0.1084,0 -0.18603,0.015 -0.23291,0.045 -0.0312,0.022 -0.0469,0.049 -0.0469,0.083 0,0.029 0.0137,0.054 0.041,0.075 0.0371,0.027 0.16504,0.066 0.38379,0.1158 0.21973,0.05 0.37305,0.1108 0.45996,0.1831 0.0859,0.073 0.12891,0.1753 0.12891,0.3061 0,0.1426 -0.0596,0.2652 -0.17871,0.3677 -0.11914,0.1025 -0.29541,0.1538 -0.52881,0.1538 -0.21191,0 -0.37988,-0.043 -0.50391,-0.1289 -0.12304,-0.086 -0.20361,-0.2026 -0.2417,-0.3501"
         style="font-size:3px;font-weight:bold;fill:#800000;font-family:Arial;-inkscape-font-specification:Arial Bold"
         id="path4745" />
    </g>
    <g
       transform="translate(0,1002.3622)"
       style="font-size:1px;font-style:normal;font-variant:normal;font-weight:normal;font-stretch:normal;line-height:125%;letter-spacing:0px;word-spacing:0px;fill:#ffffff;fill-opacity:1;stroke:none;font-family:Symbol Signs;-inkscape-font-specification:Symbol Signs"
       id="text4496">
      <path
         d="m 406.65527,25.854492 0.16114,0 0,-0.556152 -0.1753,0.03516 0,-0.08984 0.17432,-0.03516 0.0986,0 0,0.645996 0.16114,0 0,0.08301 -0.41993,0 0,-0.08301"
         style=""
         id="path4730" />
      <path
         d="m 407.35986,25.854492 0.34424,0 0,0.08301 -0.46289,0 0,-0.08301 c 0.0374,-0.03874 0.0884,-0.09066 0.15283,-0.155762 0.0648,-0.06543 0.10547,-0.107584 0.12207,-0.126464 0.0316,-0.03548 0.0535,-0.06543 0.0659,-0.08984 0.0127,-0.02474 0.019,-0.04899 0.019,-0.07275 0,-0.03874 -0.0137,-0.07031 -0.041,-0.09473 -0.027,-0.02441 -0.0623,-0.03662 -0.10596,-0.03662 -0.0309,10e-7 -0.0636,0.0054 -0.0981,0.01611 -0.0342,0.01074 -0.0708,0.02702 -0.10987,0.04883 l 0,-0.09961 c 0.0397,-0.01595 0.0768,-0.02799 0.11133,-0.03613 0.0345,-0.0081 0.0661,-0.01221 0.0947,-0.01221 0.0755,10e-7 0.13574,0.01888 0.18066,0.05664 0.0449,0.03776 0.0674,0.08822 0.0674,0.151367 -10e-6,0.02995 -0.006,0.05843 -0.0171,0.08545 -0.0111,0.02669 -0.0314,0.05827 -0.061,0.09473 -0.008,0.0094 -0.034,0.03678 -0.0776,0.08203 -0.0436,0.04492 -0.10514,0.107911 -0.18457,0.188965"
         style=""
         id="path4732" />
      <path
         d="m 408.21045,25.544434 c 0.0472,0.01009 0.084,0.03109 0.11035,0.06299 0.0267,0.0319 0.04,0.07129 0.04,0.118164 0,0.07194 -0.0247,0.127604 -0.0742,0.166992 -0.0495,0.03939 -0.11979,0.05908 -0.21094,0.05908 -0.0306,0 -0.0622,-0.0031 -0.0947,-0.0093 -0.0322,-0.0059 -0.0656,-0.01481 -0.1001,-0.02686 l 0,-0.09521 c 0.0273,0.01595 0.0573,0.02799 0.0898,0.03613 0.0326,0.0081 0.0666,0.01221 0.10205,0.01221 0.0618,0 0.10889,-0.01221 0.14112,-0.03662 0.0326,-0.02441 0.0488,-0.0599 0.0488,-0.106445 -10e-6,-0.04297 -0.0151,-0.0765 -0.0454,-0.100586 -0.0299,-0.02441 -0.0718,-0.03662 -0.12549,-0.03662 l -0.085,0 0,-0.08105 0.0889,0 c 0.0485,1e-6 0.0856,-0.0096 0.11133,-0.02881 0.0257,-0.01953 0.0386,-0.04753 0.0386,-0.08398 0,-0.03743 -0.0134,-0.06608 -0.04,-0.08594 -0.0264,-0.02018 -0.0643,-0.03027 -0.11377,-0.03027 -0.027,10e-7 -0.056,0.0029 -0.0869,0.0088 -0.0309,0.0059 -0.0649,0.01497 -0.10205,0.02734 l 0,-0.08789 c 0.0374,-0.01042 0.0724,-0.01823 0.10498,-0.02344 0.0329,-0.0052 0.0638,-0.0078 0.0928,-0.0078 0.0749,10e-7 0.13411,0.01709 0.17773,0.05127 0.0436,0.03385 0.0654,0.07975 0.0654,0.137695 0,0.04036 -0.0116,0.07455 -0.0347,0.102539 -0.0231,0.02767 -0.056,0.04688 -0.0986,0.05762"
         style=""
         id="path4734" />
    </g>
    <path
       style="fill:#999999;stroke:none"
       d="m 8,1022.3622 c -2.88772,0.1299 -3.20267,0.946 -4.5,1.5 -2.17206,5.0007 -2.11558,11.2228 -2.5,16 l -1,3 0,0.5 c 0.5,-1 3,-3 5.5,-3 l 233.5,0 0,-0.5 -235.5,0 c 0,-2.5382 0.5,-9 1.5,-12.5 0.41213,-1.4425 4.12604,-2.5 5.5,-2.5 l 90,0 c 13.5,0 13.5,-2.5 0,-2.5 z"
       id="path4368-3"
       inkscape:connector-curvature="0"
       sodipodi:nodetypes="cccccccccscccc" />
    <path
       style="fill:#b3b3b3;fill-opacity:1;fill-rule:nonzero;stroke:none"
       d="m 22.5,1027.3622 12.5,0 0,21.5 -12.5,0 z"
       id="rect4016-56-1" />
    <path
       style="fill:#1a1a1a;fill-opacity:1;fill-rule:nonzero;stroke:none"
       d="m 23.5,1027.3622 10.5,0 0,21.5 -10.5,0 z"
       id="rect4018-6-9" />
    <path
       style="fill:#ffcc00;stroke:#ffcc00;stroke-width:0.5;stroke-linecap:butt;stroke-linejoin:miter;stroke-miterlimit:4;stroke-opacity:1;stroke-dasharray:none"
       d="m 34.5,1048.8622 -11.5,0"
       id="path4440-8"
       inkscape:connector-curvature="0"
       sodipodi:nodetypes="cc" />
    <path
       transform="scale(-1,1)"
       style="fill:#b3b3b3;fill-opacity:1;fill-rule:nonzero;stroke:none"
       d="m -236.5,1027.3622 14.5,0 0,21.5 -14.5,0 z"
       id="rect4016-4-7" />
    <path
       transform="scale(-1,1)"
       style="fill:#1a1a1a;fill-opacity:1;fill-rule:nonzero;stroke:none"
       d="m -235.5,1027.3622 12.5,0 0,21.5 -12.5,0 z"
       id="rect4018-7-0" />
    <path
       style="fill:#ffcc00;stroke:#ffcc00;stroke-width:0.5;stroke-linecap:butt;stroke-linejoin:miter;stroke-miterlimit:4;stroke-opacity:1;stroke-dasharray:none"
       d="m 222.5,1048.8622 13.5,0"
       id="path4440-2"
       inkscape:connector-curvature="0"
       sodipodi:nodetypes="cc" />
    <path
       style="fill:#b3b3b3;fill-opacity:1;fill-rule:nonzero;stroke:none"
       d="m 191.5,1027.3622 14.5,0 0,21.5 -14.5,0 z"
       id="rect4016-4" />
    <path
       style="fill:#1a1a1a;fill-opacity:1;fill-rule:nonzero;stroke:none"
       d="m 192.5,1027.3622 12.5,0 0,21.5 -12.5,0 z"
       id="rect4018-7" />
    <path
       style="fill:#ffcc00;stroke:#ffcc00;stroke-width:0.5;stroke-linecap:butt;stroke-linejoin:miter;stroke-miterlimit:4;stroke-opacity:1;stroke-dasharray:none"
       d="m 192,1048.8622 13.5,0"
       id="path4440-3"
       inkscape:connector-curvature="0"
       sodipodi:nodetypes="cc" />
    <path
       style="fill:#808080;stroke:none"
       d="m 182,1049.8622 0.5,0.5 0.5,-0.5 0,-31 -0.5,-0.5 -0.5,0.5 z"
       id="path2989-1-0-3-6"
       inkscape:connector-curvature="0"
       inkscape:transform-center-x="1.0000022"
       sodipodi:nodetypes="ccccccc" />
    <path
       style="fill:#4d4d4d;stroke:none"
       d="m 183,1049.8622 0.5,0.5 0.5,-0.5 0,-31 -0.5,-0.5 -0.5,0.5 z"
       id="path2989-1-3-7-5-2"
       inkscape:connector-curvature="0"
       inkscape:transform-center-x="1.0000022"
       sodipodi:nodetypes="ccccccc" />
    <path
       style="fill:#808080;stroke:none"
       d="m 184,1049.8622 0.5,0.5 0.5,-0.5 0,-31 -0.5,-0.5 -0.5,0.5 z"
       id="path2989-1-7-7-6-6"
       inkscape:connector-curvature="0"
       inkscape:transform-center-x="1.0000022"
       sodipodi:nodetypes="ccccccc" />
    <path
       style="fill:#808080;stroke:none"
       d="m 186,1049.8622 0.5,0.5 0.5,-0.5 0,-31 -0.5,-0.5 -0.5,0.5 z"
       id="path2989-1-5-7-3-1"
       inkscape:connector-curvature="0"
       inkscape:transform-center-x="1.0000022"
       sodipodi:nodetypes="ccccccc" />
    <path
       style="fill:#4d4d4d;stroke:none"
       d="m 185,1049.8622 0.5,0.5 0.5,-0.5 0,-31 -0.5,-0.5 -0.5,0.5 z"
       id="path2989-1-3-9-8-9-0"
       inkscape:connector-curvature="0"
       inkscape:transform-center-x="1.0000022"
       sodipodi:nodetypes="ccccccc" />
    <path
       style="fill:#4d4d4d;stroke:none"
       d="m 187,1049.8622 0.5,0.5 0.5,-0.5 0,-31 -0.5,-0.5 -0.5,0.5 z"
       id="path2989-1-3-9-2-8-6-9"
       inkscape:connector-curvature="0"
       inkscape:transform-center-x="1.0000022"
       sodipodi:nodetypes="ccccccc" />
    <path
       style="fill:#808080;stroke:none"
       d="m 188,1049.8622 0.5,0.5 0.5,-0.5 0,-31 -0.5,-0.5 -0.5,0.5 z"
       id="path2989-1-5-4-3-0-6"
       inkscape:connector-curvature="0"
       inkscape:transform-center-x="1.0000022"
       sodipodi:nodetypes="ccccccc" />
    <path
       style="fill:#808080;stroke:none"
       d="m 136,1049.8622 0.5,0.5 0.5,-0.5 0,-31 -0.5,-0.5 -0.5,0.5 z"
       id="path2989-1-4-5-5"
       inkscape:connector-curvature="0"
       inkscape:transform-center-x="1.0000022"
       sodipodi:nodetypes="ccccccc" />
    <path
       style="fill:#4d4d4d;stroke:none"
       d="m 137,1049.8622 0.5,0.5 0.5,-0.5 0,-31 -0.5,-0.5 -0.5,0.5 z"
       id="path2989-1-3-6-6-4"
       inkscape:connector-curvature="0"
       inkscape:transform-center-x="1.0000022"
       sodipodi:nodetypes="ccccccc" />
    <path
       style="fill:#808080;stroke:none"
       d="m 138,1049.8622 0.5,0.5 0.5,-0.5 0,-31 -0.5,-0.5 -0.5,0.5 z"
       id="path2989-1-7-0-5-1"
       inkscape:connector-curvature="0"
       inkscape:transform-center-x="1.0000022"
       sodipodi:nodetypes="ccccccc" />
    <path
       style="fill:#808080;stroke:none"
       d="m 140,1049.8622 0.5,0.5 0.5,-0.5 0,-31 -0.5,-0.5 -0.5,0.5 z"
       id="path2989-1-5-6-0-1"
       inkscape:connector-curvature="0"
       inkscape:transform-center-x="1.0000022"
       sodipodi:nodetypes="ccccccc" />
    <path
       style="fill:#4d4d4d;stroke:none"
       d="m 139,1049.8622 0.5,0.5 0.5,-0.5 0,-31 -0.5,-0.5 -0.5,0.5 z"
       id="path2989-1-3-9-0-2-7"
       inkscape:connector-curvature="0"
       inkscape:transform-center-x="1.0000022"
       sodipodi:nodetypes="ccccccc" />
    <path
       style="fill:#4d4d4d;stroke:none"
       d="m 141,1049.8622 0.5,0.5 0.5,-0.5 0,-31 -0.5,-0.5 -0.5,0.5 z"
       id="path2989-1-3-9-2-6-6-9"
       inkscape:connector-curvature="0"
       inkscape:transform-center-x="1.0000022"
       sodipodi:nodetypes="ccccccc" />
    <path
       style="fill:#808080;stroke:none"
       d="m 142,1049.8622 0.5,0.5 0.5,-0.5 0,-31 -0.5,-0.5 -0.5,0.5 z"
       id="path2989-1-5-4-5-6-7"
       inkscape:connector-curvature="0"
       inkscape:transform-center-x="1.0000022"
       sodipodi:nodetypes="ccccccc" />
    <path
       style="fill:#b3b3b3;fill-opacity:1;fill-rule:nonzero;stroke:none"
       d="m 119,1027.3622 14.5,0 0,21.5 -14.5,0 z"
       id="rect4016-5-5-0" />
    <path
       style="fill:#1a1a1a;fill-opacity:1;fill-rule:nonzero;stroke:none"
       d="m 120,1027.3622 12.5,0 0,21.5 -12.5,0 z"
       id="rect4018-9-3-9" />
    <path
       style="fill:#ffcc00;stroke:#ffcc00;stroke-width:0.5;stroke-linecap:butt;stroke-linejoin:miter;stroke-miterlimit:4;stroke-opacity:1;stroke-dasharray:none"
       d="m 133,1048.8622 -13.5,0"
       id="path4440-9-1"
       inkscape:connector-curvature="0"
       sodipodi:nodetypes="cc" />
    <path
       style="fill:#4d4d4d;stroke:none"
       d="m 76,1049.8622 0.5,0.5 0.5,-0.5 0,-31 -0.5,-0.5 -0.5,0.5 z"
       id="path2989-1-3-8-3"
       inkscape:connector-curvature="0"
       inkscape:transform-center-x="1.0000022"
       sodipodi:nodetypes="ccccccc" />
    <path
       style="fill:#808080;stroke:none"
       d="m 77,1049.8622 0.5,0.5 0.5,-0.5 0,-31 -0.5,-0.5 -0.5,0.5 z"
       id="path2989-1-7-02-1"
       inkscape:connector-curvature="0"
       inkscape:transform-center-x="1.0000022"
       sodipodi:nodetypes="ccccccc" />
    <path
       style="fill:#808080;stroke:none"
       d="m 79,1049.8622 0.5,0.5 0.5,-0.5 0,-31 -0.5,-0.5 -0.5,0.5 z"
       id="path2989-1-5-0-9"
       inkscape:connector-curvature="0"
       inkscape:transform-center-x="1.0000022"
       sodipodi:nodetypes="ccccccc" />
    <path
       style="fill:#4d4d4d;stroke:none"
       d="m 78,1049.8622 0.5,0.5 0.5,-0.5 0,-31 -0.5,-0.5 -0.5,0.5 z"
       id="path2989-1-3-9-89-8"
       inkscape:connector-curvature="0"
       inkscape:transform-center-x="1.0000022"
       sodipodi:nodetypes="ccccccc" />
    <path
       style="fill:#4d4d4d;stroke:none"
       d="m 80,1049.8622 0.5,0.5 0.5,-0.5 0,-31 -0.5,-0.5 -0.5,0.5 z"
       id="path2989-1-3-9-2-88-6"
       inkscape:connector-curvature="0"
       inkscape:transform-center-x="1.0000022"
       sodipodi:nodetypes="ccccccc" />
    <path
       style="fill:#808080;stroke:none"
       d="m 81,1049.8622 0.5,0.5 0.5,-0.5 0,-31 -0.5,-0.5 -0.5,0.5 z"
       id="path2989-1-5-4-8-8"
       inkscape:connector-curvature="0"
       inkscape:transform-center-x="1.0000022"
       sodipodi:nodetypes="ccccccc" />
    <path
       style="fill:#808080;stroke:none"
       d="m 75,1049.8622 0.5,0.5 0.5,-0.5 0,-31 -0.5,-0.5 -0.5,0.5 z"
       id="path2989-0-6"
       inkscape:connector-curvature="0"
       sodipodi:nodetypes="ccccccc" />
    <path
       style="fill:#333333;fill-opacity:1;fill-rule:nonzero;stroke:none"
       d="m 395,1028.3622 8.5,0 0,19 -8.5,0 z"
       id="rect3144" />
    <path
       style="fill:#333333;fill-opacity:1;fill-rule:nonzero;stroke:none"
       d="m 376.5,1028.3622 15.5,0 0,10.5 -15.5,0 z"
       id="rect3148" />
    <path
       style="fill:#333333;fill-opacity:1;fill-rule:nonzero;stroke:none"
       d="m 359,1028.3622 15.5,0 0,10.5 -15.5,0 z"
       id="rect3148-2" />
    <path
       style="fill:#333333;fill-opacity:1;fill-rule:nonzero;stroke:none"
       d="m 249.5,1028.3622 15.5,0 0,10.5 -15.5,0 z"
       id="rect3148-2-3-2" />
    <path
       style="fill:#333333;fill-opacity:1;fill-rule:nonzero;stroke:none"
       d="m 266,1028.3622 15.5,0 0,10.5 -15.5,0 z"
       id="rect3148-2-3-3" />
    <path
       style="fill:#333333;fill-opacity:1;fill-rule:nonzero;stroke:none"
       d="m 207,1028.3622 14,0 0,10.5 -14,0 z"
       id="rect3148-2-3-2-5" />
    <path
       style="fill:#333333;stroke:none;stroke-width:1px;stroke-linecap:butt;stroke-linejoin:miter;stroke-opacity:1"
       d="m 409,26 0,10.5 15,0 c 0.1339,-3.529202 -0.19111,-7.029722 -1,-10.5 z"
       id="path3236"
       inkscape:connector-curvature="0"
       transform="translate(0,1002.3622)"
       sodipodi:nodetypes="ccccc" />
    <path
       transform="scale(-1,1)"
       style="fill:#333333;fill-opacity:1;fill-rule:nonzero;stroke:none"
       d="m -51.5,1028.3622 15.5,0 0,10.5 -15.5,0 z"
       id="rect3148-6" />
    <path
       transform="scale(-1,1)"
       style="fill:#333333;fill-opacity:1;fill-rule:nonzero;stroke:none"
       d="m -69,1028.3622 15.5,0 0,10.5 -15.5,0 z"
       id="rect3148-2-31" />
    <path
       transform="scale(-1,1)"
       style="fill:#333333;fill-opacity:1;fill-rule:nonzero;stroke:none"
       d="m -178.50002,1028.3622 15.5,0 0,10.5 -15.5,0 z"
       id="rect3148-2-3-2-9" />
    <path
       transform="scale(-1,1)"
       style="fill:#333333;fill-opacity:1;fill-rule:nonzero;stroke:none"
       d="m -162.00002,1028.3622 15.5,0 0,10.5 -15.5,0 z"
       id="rect3148-2-3-3-1" />
    <path
       style="fill:#333333;stroke:none"
       d="m 18.999999,1028.3622 0,10.5 -14.9999995,0 c -0.1339,-3.5292 0.19111,-7.0297 1,-10.5 z"
       id="path3236-6"
       inkscape:connector-curvature="0"
       sodipodi:nodetypes="ccccc" />
    <path
       style="fill:#333333;fill-opacity:1;fill-rule:nonzero;stroke:none"
       d="m 24.5,1028.3622 8.5,0 0,19 -8.5,0 z"
       id="rect3144-0" />
    <path
       style="fill:#333333;fill-opacity:1;fill-rule:nonzero;stroke:none"
       d="m 121,1028.3622 5,0 0,19 -5,0 z"
       id="rect3144-0-4" />
    <path
       style="fill:#333333;fill-opacity:1;fill-rule:nonzero;stroke:none"
       d="m 126.5,1028.3622 5,0 0,19 -5,0 z"
       id="rect3144-0-4-4" />
    <path
       style="fill:#333333;fill-opacity:1;fill-rule:nonzero;stroke:none"
       d="m 193.5,1028.3622 5,0 0,19 -5,0 z"
       id="rect3144-0-4-5" />
    <path
       style="fill:#333333;fill-opacity:1;fill-rule:nonzero;stroke:none"
       d="m 199,1028.3622 5,0 0,19 -5,0 z"
       id="rect3144-0-4-4-9" />
    <path
       style="fill:#333333;fill-opacity:1;fill-rule:nonzero;stroke:none"
       d="m 224,1028.3622 5,0 0,19 -5,0 z"
       id="rect3144-0-4-5-4" />
    <path
       style="fill:#333333;fill-opacity:1;fill-rule:nonzero;stroke:none"
       d="m 229.5,1028.3622 5,0 0,19 -5,0 z"
       id="rect3144-0-4-4-9-4" />
    <path
       style="fill:#333333;fill-opacity:1;fill-rule:nonzero;stroke:none"
       d="m 296.5,1028.3622 5,0 0,19 -5,0 z"
       id="rect3144-0-4-5-7" />
    <path
       style="fill:#333333;fill-opacity:1;fill-rule:nonzero;stroke:none"
       d="m 302,1028.3622 5,0 0,19 -5,0 z"
       id="rect3144-0-4-4-9-2" />
    <path
       transform="translate(0,1002.3622)"
       style="fill:#ffffff;fill-opacity:0.19607843;fill-rule:nonzero;stroke:none"
       d="m 397.5,33.5 3.5,0 0,1 -3.5,0 z"
       id="rect4325" />
    <path
       style="fill:#ffffff;fill-opacity:0.19607843;fill-rule:nonzero;stroke:none"
       d="m 303,1035.8622 3.5,0 0,1 -3.5,0 z"
       id="rect4325-5" />
    <path
       style="fill:#ffffff;fill-opacity:0.19607843;fill-rule:nonzero;stroke:none"
       d="m 297,1035.8622 3.5,0 0,1 -3.5,0 z"
       id="rect4325-9" />
    <path
       style="fill:#ffffff;fill-opacity:0.19607843;fill-rule:nonzero;stroke:none"
       d="m 230.5,1035.8622 3.5,0 0,1 -3.5,0 z"
       id="rect4325-5-3" />
    <path
       style="fill:#ffffff;fill-opacity:0.19607843;fill-rule:nonzero;stroke:none"
       d="m 224.5,1035.8622 3.5,0 0,1 -3.5,0 z"
       id="rect4325-9-2" />
    <path
       style="fill:#ffffff;fill-opacity:0.19607843;fill-rule:nonzero;stroke:none"
       d="m 200,1035.8622 3.5,0 0,1 -3.5,0 z"
       id="rect4325-5-7" />
    <path
       style="fill:#ffffff;fill-opacity:0.19607843;fill-rule:nonzero;stroke:none"
       d="m 194,1035.8622 3.5,0 0,1 -3.5,0 z"
       id="rect4325-9-29" />
    <path
       style="fill:#ffffff;fill-opacity:0.19607843;fill-rule:nonzero;stroke:none"
       d="m 127.5,1035.8622 3.5,0 0,1 -3.5,0 z"
       id="rect4325-5-0" />
    <path
       style="fill:#ffffff;fill-opacity:0.19607843;fill-rule:nonzero;stroke:none"
       d="m 121.5,1035.8622 3.5,0 0,1 -3.5,0 z"
       id="rect4325-9-5" />
    <path
       style="fill:#ffffff;fill-opacity:0.19607843;fill-rule:nonzero;stroke:none"
       d="m 27,1035.8622 3.5,0 0,1 -3.5,0 z"
       id="rect4325-9-5-4" />
    <path
       transform="translate(0,1002.3622)"
       style="fill:#ffff00;fill-opacity:1;fill-rule:nonzero;stroke:none"
       d="m 402.5,36 0.5,0 0,0.5 -0.5,0 z"
       id="rect4409" />
    <path
       style="fill:#ffff00;fill-opacity:1;fill-rule:nonzero;stroke:none"
       d="m 302.5,1038.3622 0.5,0 0,0.5 -0.5,0 z"
       id="rect4409-2" />
    <path
       style="fill:#ffff00;fill-opacity:1;fill-rule:nonzero;stroke:none"
       d="m 230.5,1038.3622 0.5,0 0,0.5 -0.5,0 z"
       id="rect4409-7" />
    <path
       style="fill:#ffff00;fill-opacity:1;fill-rule:nonzero;stroke:none"
       d="m 200,1038.3622 0.5,0 0,0.5 -0.5,0 z"
       id="rect4409-76" />
    <path
       style="fill:#ffff00;fill-opacity:1;fill-rule:nonzero;stroke:none"
       d="m 127.5,1038.3622 0.5,0 0,0.5 -0.5,0 z"
       id="rect4409-6" />
    <path
       style="fill:#ffff00;fill-opacity:1;fill-rule:nonzero;stroke:none"
       d="m 25,1038.3622 0.5,0 0,0.5 -0.5,0 z"
       id="rect4409-5" />
  </g>
</svg>
