<?xml version="1.0" encoding="UTF-8" standalone="no"?>
<!-- Created with Inkscape (http://www.inkscape.org/) -->

<svg
   xmlns:dc="http://purl.org/dc/elements/1.1/"
   xmlns:cc="http://creativecommons.org/ns#"
   xmlns:rdf="http://www.w3.org/1999/02/22-rdf-syntax-ns#"
   xmlns:svg="http://www.w3.org/2000/svg"
   xmlns="http://www.w3.org/2000/svg"
   version="1.1"
   width="576"
   height="50"
   id="svg2">
  <defs
     id="defs4" />
  <metadata
     id="metadata7">
    <rdf:RDF>
      <cc:Work
         rdf:about="">
        <dc:format>image/svg+xml</dc:format>
        <dc:type
           rdf:resource="http://purl.org/dc/dcmitype/StillImage" />
        <dc:title></dc:title>
      </cc:Work>
    </rdf:RDF>
  </metadata>
  <g
     transform="translate(0,-1002.3622)"
     id="layer1">
    <path
       d="m 5,45 11.5,2 123.5,0 0,-2 z"
       transform="translate(0,1002.3622)"
       id="path4046"
       style="fill:#000000;stroke:none" />
    <path
       d="m 28,45.5 a 3.5,3.5 0 1 1 -0.0014,-0.09983"
       transform="translate(12.5,1002.8622)"
       id="path3949-4"
       style="fill:#666666;fill-opacity:1;fill-rule:nonzero;stroke:#1a1a1a;stroke-width:0.2;stroke-linecap:round;stroke-linejoin:miter;stroke-miterlimit:4;stroke-opacity:1;stroke-dasharray:none" />
    <path
       d="m 28,45.5 a 3.5,3.5 0 1 1 -0.0014,-0.09983"
       transform="translate(-4.5,1002.8622)"
       id="path3949-4-6"
       style="fill:#666666;fill-opacity:1;fill-rule:nonzero;stroke:#1a1a1a;stroke-width:0.2;stroke-linecap:round;stroke-linejoin:miter;stroke-miterlimit:4;stroke-opacity:1;stroke-dasharray:none" />
    <path
       d="m 28,45.5 a 3.5,3.5 0 1 1 -0.0014,-0.09983"
       transform="translate(90.5,1002.8622)"
       id="path3949-4-6-1"
       style="fill:#666666;fill-opacity:1;fill-rule:nonzero;stroke:#1a1a1a;stroke-width:0.2;stroke-linecap:round;stroke-linejoin:miter;stroke-miterlimit:4;stroke-opacity:1;stroke-dasharray:none" />
    <path
       d="m 28,45.5 a 3.5,3.5 0 1 1 -0.0014,-0.09983"
       transform="translate(107.5,1002.8622)"
       id="path3949-4-5"
       style="fill:#666666;fill-opacity:1;fill-rule:nonzero;stroke:#1a1a1a;stroke-width:0.2;stroke-linecap:round;stroke-linejoin:miter;stroke-miterlimit:4;stroke-opacity:1;stroke-dasharray:none" />
    <rect
       width="3"
       height="0.5"
       x="1.5"
       y="37.5"
       transform="translate(0,1002.3622)"
       id="rect4042"
       style="fill:#1a1a1a;fill-opacity:0.78431373;fill-rule:nonzero;stroke:none" />
    <path
       d="m 4,38.5 -1.5,0 -2.5,2 0,1 0.5,0 0,1 2,1.5 2,0 z"
       transform="translate(0,1002.3622)"
       id="path4044"
       style="fill:#000000;stroke:none" />
    <path
       d="M 5,45 C 4,45 4,42.5 4,40 4,32.5 5,15 10,15 l 130,0 0,30 z"
       transform="translate(0,1002.3622)"
       id="path2989"
       style="fill:#cccccc;fill-opacity:1;stroke:#000000;stroke-width:0.1;stroke-linecap:butt;stroke-linejoin:miter;stroke-miterlimit:4;stroke-opacity:1;stroke-dasharray:none" />
    <path
       d="M 140,40 8,40 C 6.5,40 7,39 7,31.5 7,27.5 8,20 9,20 l 131,0"
       transform="translate(0,1002.3622)"
       id="path3887"
       style="fill:none;stroke:#1a1a1a;stroke-width:0.2;stroke-linecap:butt;stroke-linejoin:miter;stroke-miterlimit:4;stroke-opacity:1;stroke-dasharray:none" />
    <path
       d="M 140,20 9,20 C 7.5,20 7,30 7,31.5 l 133,0 z"
       transform="translate(0,1002.3622)"
       id="path3791"
       style="fill:#1a1a1a;stroke:none" />
    <rect
       width="15"
       height="19.999969"
       x="37.5"
       y="1022.3622"
       id="rect3762"
       style="fill:#ffffff;fill-opacity:1;fill-rule:nonzero;stroke:none" />
    <rect
       width="5.5"
       height="17.5"
       x="38.5"
       y="1022.8622"
       id="rect3764"
       style="fill:#4d4d4d;fill-opacity:1;fill-rule:nonzero;stroke:none" />
    <rect
       width="5.5"
       height="17.499983"
       x="46"
       y="1022.8622"
       id="rect3764-1"
       style="fill:#4d4d4d;fill-opacity:1;fill-rule:nonzero;stroke:none" />
    <rect
       width="12.5"
       height="10.500017"
       x="22.5"
       y="1022.8622"
       id="rect3787"
       style="fill:#4d4d4d;fill-opacity:1;fill-rule:nonzero;stroke:none" />
    <rect
       width="12.5"
       height="10.500017"
       x="117.5"
       y="1022.8622"
       id="rect3787-0"
       style="fill:#4d4d4d;fill-opacity:1;fill-rule:nonzero;stroke:none" />
    <rect
       width="15"
       height="19.999969"
       x="100"
       y="1022.3622"
       id="rect3762-8"
       style="fill:#ffffff;fill-opacity:1;fill-rule:nonzero;stroke:none" />
    <rect
       width="5.5"
       height="17.5"
       x="101"
       y="1022.8622"
       id="rect3764-8"
       style="fill:#4d4d4d;fill-opacity:1;fill-rule:nonzero;stroke:none" />
    <rect
       width="5.5"
       height="17.499983"
       x="108.5"
       y="1022.8622"
       id="rect3764-1-6"
       style="fill:#4d4d4d;fill-opacity:1;fill-rule:nonzero;stroke:none" />
    <rect
       width="12.5"
       height="10.500017"
       x="85"
       y="1022.8622"
       id="rect3787-9"
       style="fill:#4d4d4d;fill-opacity:1;fill-rule:nonzero;stroke:none" />
    <rect
       width="12.5"
       height="10.500017"
       x="70"
       y="1022.8622"
       id="rect3787-8"
       style="fill:#4d4d4d;fill-opacity:1;fill-rule:nonzero;stroke:none" />
    <rect
       width="12.5"
       height="10.500017"
       x="55"
       y="1022.8622"
       id="rect3787-2"
       style="fill:#4d4d4d;fill-opacity:1;fill-rule:nonzero;stroke:none" />
    <path
       d="M 20,20.5 20,31 7.5,31 9,20.5 z"
       transform="translate(0,1002.3622)"
       id="path3885"
       style="fill:#666666;stroke:none" />
    <rect
       width="7.5"
       height="0.5"
       x="30"
       y="39.5"
       transform="translate(0,1002.3622)"
       id="rect4008"
       style="fill:#1a1a1a;fill-opacity:0.78431373;fill-rule:nonzero;stroke:none" />
    <rect
       width="7.5"
       height="0.5"
       x="52.5"
       y="1041.8622"
       id="rect4008-7"
       style="fill:#1a1a1a;fill-opacity:0.78431373;fill-rule:nonzero;stroke:none" />
    <rect
       width="7.5"
       height="0.5"
       x="92.5"
       y="1041.8622"
       id="rect4008-9"
       style="fill:#1a1a1a;fill-opacity:0.78431373;fill-rule:nonzero;stroke:none" />
    <rect
       width="7.5"
       height="0.5"
       x="115"
       y="1041.8622"
       id="rect4008-3"
       style="fill:#1a1a1a;fill-opacity:0.78431373;fill-rule:nonzero;stroke:none" />
    <path
       d="m 283,1047.3622 -11.5,2 -123.5,0 -8,0 0,-3 8,0 0,1 z"
       id="path4046-7"
       style="fill:#000000;stroke:none" />
    <path
       d="m 28,45.5 a 3.5,3.5 0 1 1 -0.0014,-0.09983"
       transform="matrix(-1,0,0,1,275.5,1002.8622)"
       id="path3949-4-9"
       style="fill:#666666;fill-opacity:1;fill-rule:nonzero;stroke:#1a1a1a;stroke-width:0.2;stroke-linecap:round;stroke-linejoin:miter;stroke-miterlimit:4;stroke-opacity:1;stroke-dasharray:none" />
    <path
       d="m 28,45.5 a 3.5,3.5 0 1 1 -0.0014,-0.09983"
       transform="matrix(-1,0,0,1,292.5,1002.8622)"
       id="path3949-4-6-16"
       style="fill:#666666;fill-opacity:1;fill-rule:nonzero;stroke:#1a1a1a;stroke-width:0.2;stroke-linecap:round;stroke-linejoin:miter;stroke-miterlimit:4;stroke-opacity:1;stroke-dasharray:none" />
    <path
       d="m 28,45.5 a 3.5,3.5 0 1 1 -0.0014,-0.09983"
       transform="matrix(-1,0,0,1,197.5,1002.8622)"
       id="path3949-4-6-1-7"
       style="fill:#666666;fill-opacity:1;fill-rule:nonzero;stroke:#1a1a1a;stroke-width:0.2;stroke-linecap:round;stroke-linejoin:miter;stroke-miterlimit:4;stroke-opacity:1;stroke-dasharray:none" />
    <path
       d="m 28,45.5 a 3.5,3.5 0 1 1 -0.0014,-0.09983"
       transform="matrix(-1,0,0,1,180.5,1002.8622)"
       id="path3949-4-5-5"
       style="fill:#666666;fill-opacity:1;fill-rule:nonzero;stroke:#1a1a1a;stroke-width:0.2;stroke-linecap:round;stroke-linejoin:miter;stroke-miterlimit:4;stroke-opacity:1;stroke-dasharray:none" />
    <rect
       width="3"
       height="0.5"
       x="-286.5"
       y="1039.8622"
       transform="scale(-1,1)"
       id="rect4042-8"
       style="fill:#1a1a1a;fill-opacity:0.78431373;fill-rule:nonzero;stroke:none" />
    <path
       d="m 284,1040.8622 1.5,0 2.5,2 0,1 -0.5,0 0,1 -2,1.5 -2,0 z"
       id="path4044-4"
       style="fill:#000000;stroke:none" />
    <path
       d="m 283,1047.3622 c 1,0 1,-2.5 1,-5 0,-7.5 -1,-25 -6,-25 l -130,0 0,30 z"
       id="path2989-0"
       style="fill:#cccccc;fill-opacity:1;stroke:#000000;stroke-width:0.1;stroke-linecap:butt;stroke-linejoin:miter;stroke-miterlimit:4;stroke-opacity:1;stroke-dasharray:none" />
    <path
       d="m 148,1042.3622 132,0 c 1.5,0 1,-1 1,-8.5 0,-4 -1,-11.5 -2,-11.5 l -131,0"
       id="path3887-8"
       style="fill:none;stroke:#1a1a1a;stroke-width:0.2;stroke-linecap:butt;stroke-linejoin:miter;stroke-miterlimit:4;stroke-opacity:1;stroke-dasharray:none" />
    <path
       d="m 148,1022.3622 131,0 c 1.5,0 2,10 2,11.5 l -133,0 z"
       id="path3791-0"
       style="fill:#1a1a1a;stroke:none" />
    <rect
       width="15"
       height="19.999969"
       x="-250.49998"
       y="1022.3622"
       transform="scale(-1,1)"
       id="rect3762-5"
       style="fill:#ffffff;fill-opacity:1;fill-rule:nonzero;stroke:none" />
    <rect
       width="5.5"
       height="17.5"
       x="-249.49998"
       y="1022.8622"
       transform="scale(-1,1)"
       id="rect3764-85"
       style="fill:#4d4d4d;fill-opacity:1;fill-rule:nonzero;stroke:none" />
    <rect
       width="5.5"
       height="17.499983"
       x="-241.99998"
       y="1022.8622"
       transform="scale(-1,1)"
       id="rect3764-1-67"
       style="fill:#4d4d4d;fill-opacity:1;fill-rule:nonzero;stroke:none" />
    <rect
       width="12.5"
       height="10.500017"
       x="-265.5"
       y="1022.8622"
       transform="scale(-1,1)"
       id="rect3787-92"
       style="fill:#4d4d4d;fill-opacity:1;fill-rule:nonzero;stroke:none" />
    <rect
       width="12.5"
       height="10.500017"
       x="-170.5"
       y="1022.8622"
       transform="scale(-1,1)"
       id="rect3787-0-1"
       style="fill:#4d4d4d;fill-opacity:1;fill-rule:nonzero;stroke:none" />
    <rect
       width="15"
       height="19.999969"
       x="-188"
       y="1022.3622"
       transform="scale(-1,1)"
       id="rect3762-8-4"
       style="fill:#ffffff;fill-opacity:1;fill-rule:nonzero;stroke:none" />
    <rect
       width="5.5"
       height="17.5"
       x="-187"
       y="1022.8622"
       transform="scale(-1,1)"
       id="rect3764-8-6"
       style="fill:#4d4d4d;fill-opacity:1;fill-rule:nonzero;stroke:none" />
    <rect
       width="5.5"
       height="17.499983"
       x="-179.5"
       y="1022.8622"
       transform="scale(-1,1)"
       id="rect3764-1-6-3"
       style="fill:#4d4d4d;fill-opacity:1;fill-rule:nonzero;stroke:none" />
    <rect
       width="12.5"
       height="10.500017"
       x="-203"
       y="1022.8622"
       transform="scale(-1,1)"
       id="rect3787-9-9"
       style="fill:#4d4d4d;fill-opacity:1;fill-rule:nonzero;stroke:none" />
    <rect
       width="12.5"
       height="10.500017"
       x="-217.99998"
       y="1022.8622"
       transform="scale(-1,1)"
       id="rect3787-8-8"
       style="fill:#4d4d4d;fill-opacity:1;fill-rule:nonzero;stroke:none" />
    <rect
       width="12.5"
       height="10.500017"
       x="-232.99998"
       y="1022.8622"
       transform="scale(-1,1)"
       id="rect3787-2-9"
       style="fill:#4d4d4d;fill-opacity:1;fill-rule:nonzero;stroke:none" />
    <path
       d="m 268,1022.8622 0,10.5 12.5,0 -1.5,-10.5 z"
       id="path3885-7"
       style="fill:#666666;stroke:none" />
    <rect
       width="7.5"
       height="0.5"
       x="-258"
       y="1041.8622"
       transform="scale(-1,1)"
       id="rect4008-5"
       style="fill:#1a1a1a;fill-opacity:0.78431373;fill-rule:nonzero;stroke:none" />
    <rect
       width="7.5"
       height="0.5"
       x="-235.49998"
       y="1041.8622"
       transform="scale(-1,1)"
       id="rect4008-7-2"
       style="fill:#1a1a1a;fill-opacity:0.78431373;fill-rule:nonzero;stroke:none" />
    <rect
       width="7.5"
       height="0.5"
       x="-195.5"
       y="1041.8622"
       transform="scale(-1,1)"
       id="rect4008-9-6"
       style="fill:#1a1a1a;fill-opacity:0.78431373;fill-rule:nonzero;stroke:none" />
    <rect
       width="7.5"
       height="0.5"
       x="-173"
       y="1041.8622"
       transform="scale(-1,1)"
       id="rect4008-3-6"
       style="fill:#1a1a1a;fill-opacity:0.78431373;fill-rule:nonzero;stroke:none" />
    <rect
       width="8.0035667"
       height="27.879087"
       x="139.99821"
       y="1018.422"
       id="rect4141"
       style="fill:#b3b3b3;fill-opacity:0.78431373;fill-rule:nonzero;stroke:#1a1a1a;stroke-width:0.09642185;stroke-miterlimit:4;stroke-opacity:1;stroke-dasharray:none" />
    <path
       d="m 293,1047.3622 11.5,2 123.5,0 0,-2 z"
       id="path4046-5"
       style="fill:#000000;stroke:none" />
    <path
       d="m 28,45.5 a 3.5,3.5 0 1 1 -0.0014,-0.09983"
       transform="translate(300.5,1002.8622)"
       id="path3949-4-4"
       style="fill:#666666;fill-opacity:1;fill-rule:nonzero;stroke:#1a1a1a;stroke-width:0.2;stroke-linecap:round;stroke-linejoin:miter;stroke-miterlimit:4;stroke-opacity:1;stroke-dasharray:none" />
    <path
       d="m 28,45.5 a 3.5,3.5 0 1 1 -0.0014,-0.09983"
       transform="translate(283.5,1002.8622)"
       id="path3949-4-6-5"
       style="fill:#666666;fill-opacity:1;fill-rule:nonzero;stroke:#1a1a1a;stroke-width:0.2;stroke-linecap:round;stroke-linejoin:miter;stroke-miterlimit:4;stroke-opacity:1;stroke-dasharray:none" />
    <path
       d="m 28,45.5 a 3.5,3.5 0 1 1 -0.0014,-0.09983"
       transform="translate(378.5,1002.8622)"
       id="path3949-4-6-1-8"
       style="fill:#666666;fill-opacity:1;fill-rule:nonzero;stroke:#1a1a1a;stroke-width:0.2;stroke-linecap:round;stroke-linejoin:miter;stroke-miterlimit:4;stroke-opacity:1;stroke-dasharray:none" />
    <path
       d="m 28,45.5 a 3.5,3.5 0 1 1 -0.0014,-0.09983"
       transform="translate(395.5,1002.8622)"
       id="path3949-4-5-2"
       style="fill:#666666;fill-opacity:1;fill-rule:nonzero;stroke:#1a1a1a;stroke-width:0.2;stroke-linecap:round;stroke-linejoin:miter;stroke-miterlimit:4;stroke-opacity:1;stroke-dasharray:none" />
    <rect
       width="3"
       height="0.5"
       x="289.5"
       y="1039.8622"
       id="rect4042-2"
       style="fill:#1a1a1a;fill-opacity:0.78431373;fill-rule:nonzero;stroke:none" />
    <path
       d="m 292,1040.8622 -1.5,0 -2.5,2 0,1 0.5,0 0,1 2,1.5 2,0 z"
       id="path4044-40"
       style="fill:#000000;stroke:none" />
    <path
       d="m 293,1047.3622 c -1,0 -1,-2.5 -1,-5 0,-7.5 1,-25 6,-25 l 130,0 0,30 z"
       id="path2989-9"
       style="fill:#cccccc;fill-opacity:1;stroke:#000000;stroke-width:0.1;stroke-linecap:butt;stroke-linejoin:miter;stroke-miterlimit:4;stroke-opacity:1;stroke-dasharray:none" />
    <path
       d="m 428,1042.3622 -132,0 c -1.5,0 -1,-1 -1,-8.5 0,-4 1,-11.5 2,-11.5 l 131,0"
       id="path3887-4"
       style="fill:none;stroke:#1a1a1a;stroke-width:0.2;stroke-linecap:butt;stroke-linejoin:miter;stroke-miterlimit:4;stroke-opacity:1;stroke-dasharray:none" />
    <path
       d="m 428,1022.3622 -131,0 c -1.5,0 -2,10 -2,11.5 l 133,0 z"
       id="path3791-1"
       style="fill:#1a1a1a;stroke:none" />
    <rect
       width="15"
       height="19.999969"
       x="325.5"
       y="1022.3622"
       id="rect3762-1"
       style="fill:#ffffff;fill-opacity:1;fill-rule:nonzero;stroke:none" />
    <rect
       width="5.5"
       height="17.5"
       x="326.5"
       y="1022.8622"
       id="rect3764-2"
       style="fill:#4d4d4d;fill-opacity:1;fill-rule:nonzero;stroke:none" />
    <rect
       width="5.5"
       height="17.499983"
       x="334"
       y="1022.8622"
       id="rect3764-1-1"
       style="fill:#4d4d4d;fill-opacity:1;fill-rule:nonzero;stroke:none" />
    <rect
       width="12.5"
       height="10.500017"
       x="310.5"
       y="1022.8622"
       id="rect3787-6"
       style="fill:#4d4d4d;fill-opacity:1;fill-rule:nonzero;stroke:none" />
    <rect
       width="12.5"
       height="10.500017"
       x="405.5"
       y="1022.8622"
       id="rect3787-0-0"
       style="fill:#4d4d4d;fill-opacity:1;fill-rule:nonzero;stroke:none" />
    <rect
       width="15"
       height="19.999969"
       x="388"
       y="1022.3622"
       id="rect3762-8-8"
       style="fill:#ffffff;fill-opacity:1;fill-rule:nonzero;stroke:none" />
    <rect
       width="5.5"
       height="17.5"
       x="389"
       y="1022.8622"
       id="rect3764-8-5"
       style="fill:#4d4d4d;fill-opacity:1;fill-rule:nonzero;stroke:none" />
    <rect
       width="5.5"
       height="17.499983"
       x="396.5"
       y="1022.8622"
       id="rect3764-1-6-2"
       style="fill:#4d4d4d;fill-opacity:1;fill-rule:nonzero;stroke:none" />
    <rect
       width="12.5"
       height="10.500017"
       x="373"
       y="1022.8622"
       id="rect3787-9-1"
       style="fill:#4d4d4d;fill-opacity:1;fill-rule:nonzero;stroke:none" />
    <rect
       width="12.5"
       height="10.500017"
       x="358"
       y="1022.8622"
       id="rect3787-8-9"
       style="fill:#4d4d4d;fill-opacity:1;fill-rule:nonzero;stroke:none" />
    <rect
       width="12.5"
       height="10.500017"
       x="343"
       y="1022.8622"
       id="rect3787-2-0"
       style="fill:#4d4d4d;fill-opacity:1;fill-rule:nonzero;stroke:none" />
    <path
       d="m 308,1022.8622 0,10.5 -12.5,0 1.5,-10.5 z"
       id="path3885-4"
       style="fill:#666666;stroke:none" />
    <rect
       width="7.5"
       height="0.5"
       x="318"
       y="1041.8622"
       id="rect4008-8"
       style="fill:#1a1a1a;fill-opacity:0.78431373;fill-rule:nonzero;stroke:none" />
    <rect
       width="7.5"
       height="0.5"
       x="340.5"
       y="1041.8622"
       id="rect4008-7-8"
       style="fill:#1a1a1a;fill-opacity:0.78431373;fill-rule:nonzero;stroke:none" />
    <rect
       width="7.5"
       height="0.5"
       x="380.5"
       y="1041.8622"
       id="rect4008-9-3"
       style="fill:#1a1a1a;fill-opacity:0.78431373;fill-rule:nonzero;stroke:none" />
    <rect
       width="7.5"
       height="0.5"
       x="403"
       y="1041.8622"
       id="rect4008-3-8"
       style="fill:#1a1a1a;fill-opacity:0.78431373;fill-rule:nonzero;stroke:none" />
    <path
       d="m 571,1047.3622 -11.5,2 -123.5,0 -8,0 0,-3 8,0 0,1 z"
       id="path4046-7-6"
       style="fill:#000000;stroke:none" />
    <path
       d="m 28,45.5 a 3.5,3.5 0 1 1 -0.0014,-0.09983"
       transform="matrix(-1,0,0,1,563.5,1002.8622)"
       id="path3949-4-9-5"
       style="fill:#666666;fill-opacity:1;fill-rule:nonzero;stroke:#1a1a1a;stroke-width:0.2;stroke-linecap:round;stroke-linejoin:miter;stroke-miterlimit:4;stroke-opacity:1;stroke-dasharray:none" />
    <path
       d="m 28,45.5 a 3.5,3.5 0 1 1 -0.0014,-0.09983"
       transform="matrix(-1,0,0,1,580.5,1002.8622)"
       id="path3949-4-6-16-4"
       style="fill:#666666;fill-opacity:1;fill-rule:nonzero;stroke:#1a1a1a;stroke-width:0.2;stroke-linecap:round;stroke-linejoin:miter;stroke-miterlimit:4;stroke-opacity:1;stroke-dasharray:none" />
    <path
       d="m 28,45.5 a 3.5,3.5 0 1 1 -0.0014,-0.09983"
       transform="matrix(-1,0,0,1,485.5,1002.8622)"
       id="path3949-4-6-1-7-2"
       style="fill:#666666;fill-opacity:1;fill-rule:nonzero;stroke:#1a1a1a;stroke-width:0.2;stroke-linecap:round;stroke-linejoin:miter;stroke-miterlimit:4;stroke-opacity:1;stroke-dasharray:none" />
    <path
       d="m 28,45.5 a 3.5,3.5 0 1 1 -0.0014,-0.09983"
       transform="matrix(-1,0,0,1,468.5,1002.8622)"
       id="path3949-4-5-5-2"
       style="fill:#666666;fill-opacity:1;fill-rule:nonzero;stroke:#1a1a1a;stroke-width:0.2;stroke-linecap:round;stroke-linejoin:miter;stroke-miterlimit:4;stroke-opacity:1;stroke-dasharray:none" />
    <rect
       width="3"
       height="0.5"
       x="-574.5"
       y="1039.8622"
       transform="scale(-1,1)"
       id="rect4042-8-8"
       style="fill:#1a1a1a;fill-opacity:0.78431373;fill-rule:nonzero;stroke:none" />
    <path
       d="m 572,1040.8622 1.5,0 2.5,2 0,1 -0.5,0 0,1 -2,1.5 -2,0 z"
       id="path4044-4-0"
       style="fill:#000000;stroke:none" />
    <path
       d="m 571,1047.3622 c 1,0 1,-2.5 1,-5 0,-7.5 -1,-25 -6,-25 l -130,0 0,30 z"
       id="path2989-0-3"
       style="fill:#cccccc;fill-opacity:1;stroke:#000000;stroke-width:0.1;stroke-linecap:butt;stroke-linejoin:miter;stroke-miterlimit:4;stroke-opacity:1;stroke-dasharray:none" />
    <path
       d="m 436,1042.3622 132,0 c 1.5,0 1,-1 1,-8.5 0,-4 -1,-11.5 -2,-11.5 l -131,0"
       id="path3887-8-3"
       style="fill:none;stroke:#1a1a1a;stroke-width:0.2;stroke-linecap:butt;stroke-linejoin:miter;stroke-miterlimit:4;stroke-opacity:1;stroke-dasharray:none" />
    <path
       d="m 436,1022.3622 131,0 c 1.5,0 2,10 2,11.5 l -133,0 z"
       id="path3791-0-2"
       style="fill:#1a1a1a;stroke:none" />
    <rect
       width="15"
       height="19.999969"
       x="-538.5"
       y="1022.3622"
       transform="scale(-1,1)"
       id="rect3762-5-7"
       style="fill:#ffffff;fill-opacity:1;fill-rule:nonzero;stroke:none" />
    <rect
       width="5.5"
       height="17.5"
       x="-537.5"
       y="1022.8622"
       transform="scale(-1,1)"
       id="rect3764-85-3"
       style="fill:#4d4d4d;fill-opacity:1;fill-rule:nonzero;stroke:none" />
    <rect
       width="5.5"
       height="17.499983"
       x="-530"
       y="1022.8622"
       transform="scale(-1,1)"
       id="rect3764-1-67-3"
       style="fill:#4d4d4d;fill-opacity:1;fill-rule:nonzero;stroke:none" />
    <rect
       width="12.5"
       height="10.500017"
       x="-553.5"
       y="1022.8622"
       transform="scale(-1,1)"
       id="rect3787-92-3"
       style="fill:#4d4d4d;fill-opacity:1;fill-rule:nonzero;stroke:none" />
    <rect
       width="12.5"
       height="10.500017"
       x="-458.5"
       y="1022.8622"
       transform="scale(-1,1)"
       id="rect3787-0-1-6"
       style="fill:#4d4d4d;fill-opacity:1;fill-rule:nonzero;stroke:none" />
    <rect
       width="15"
       height="19.999969"
       x="-476"
       y="1022.3622"
       transform="scale(-1,1)"
       id="rect3762-8-4-4"
       style="fill:#ffffff;fill-opacity:1;fill-rule:nonzero;stroke:none" />
    <rect
       width="5.5"
       height="17.5"
       x="-475"
       y="1022.8622"
       transform="scale(-1,1)"
       id="rect3764-8-6-5"
       style="fill:#4d4d4d;fill-opacity:1;fill-rule:nonzero;stroke:none" />
    <rect
       width="5.5"
       height="17.499983"
       x="-467.5"
       y="1022.8622"
       transform="scale(-1,1)"
       id="rect3764-1-6-3-7"
       style="fill:#4d4d4d;fill-opacity:1;fill-rule:nonzero;stroke:none" />
    <rect
       width="12.5"
       height="10.500017"
       x="-491"
       y="1022.8622"
       transform="scale(-1,1)"
       id="rect3787-9-9-1"
       style="fill:#4d4d4d;fill-opacity:1;fill-rule:nonzero;stroke:none" />
    <rect
       width="12.5"
       height="10.500017"
       x="-506"
       y="1022.8622"
       transform="scale(-1,1)"
       id="rect3787-8-8-7"
       style="fill:#4d4d4d;fill-opacity:1;fill-rule:nonzero;stroke:none" />
    <rect
       width="12.5"
       height="10.500017"
       x="-521"
       y="1022.8622"
       transform="scale(-1,1)"
       id="rect3787-2-9-7"
       style="fill:#4d4d4d;fill-opacity:1;fill-rule:nonzero;stroke:none" />
    <path
       d="m 556,1022.8622 0,10.5 12.5,0 -1.5,-10.5 z"
       id="path3885-7-8"
       style="fill:#666666;stroke:none" />
    <rect
       width="7.5"
       height="0.5"
       x="-546"
       y="1041.8622"
       transform="scale(-1,1)"
       id="rect4008-5-9"
       style="fill:#1a1a1a;fill-opacity:0.78431373;fill-rule:nonzero;stroke:none" />
    <rect
       width="7.5"
       height="0.5"
       x="-523.5"
       y="1041.8622"
       transform="scale(-1,1)"
       id="rect4008-7-2-9"
       style="fill:#1a1a1a;fill-opacity:0.78431373;fill-rule:nonzero;stroke:none" />
    <rect
       width="7.5"
       height="0.5"
       x="-483.5"
       y="1041.8622"
       transform="scale(-1,1)"
       id="rect4008-9-6-8"
       style="fill:#1a1a1a;fill-opacity:0.78431373;fill-rule:nonzero;stroke:none" />
    <rect
       width="7.5"
       height="0.5"
       x="-461"
       y="1041.8622"
       transform="scale(-1,1)"
       id="rect4008-3-6-0"
       style="fill:#1a1a1a;fill-opacity:0.78431373;fill-rule:nonzero;stroke:none" />
    <rect
       width="8.0035667"
       height="27.879087"
       x="427.99823"
       y="1018.4222"
       id="rect4141-3"
       style="fill:#b3b3b3;fill-opacity:0.78431373;fill-rule:nonzero;stroke:#1a1a1a;stroke-width:0.09642185;stroke-miterlimit:4;stroke-opacity:1;stroke-dasharray:none" />
  </g>
</svg>
