<?xml version="1.0" encoding="UTF-8" standalone="no"?>
<!-- Created with Inkscape (http://www.inkscape.org/) -->

<svg
   xmlns:dc="http://purl.org/dc/elements/1.1/"
   xmlns:cc="http://creativecommons.org/ns#"
   xmlns:rdf="http://www.w3.org/1999/02/22-rdf-syntax-ns#"
   xmlns:svg="http://www.w3.org/2000/svg"
   xmlns="http://www.w3.org/2000/svg"
   xmlns:sodipodi="http://sodipodi.sourceforge.net/DTD/sodipodi-0.dtd"
   xmlns:inkscape="http://www.inkscape.org/namespaces/inkscape"
   width="420"
   height="50"
   id="svg4153"
   version="1.1"
   inkscape:version="0.48.4 r9939"
   sodipodi:docname="Lint41erixx.svg">
  <defs
     id="defs4155" />
  <sodipodi:namedview
     id="base"
     pagecolor="#ffffff"
     bordercolor="#666666"
     borderopacity="1.0"
     inkscape:pageopacity="0.0"
     inkscape:pageshadow="2"
     inkscape:zoom="2.02"
     inkscape:cx="248.65868"
     inkscape:cy="68.573518"
     inkscape:document-units="px"
     inkscape:current-layer="layer1"
     showgrid="true"
     inkscape:snap-global="true"
     inkscape:snap-bbox="true"
     inkscape:bbox-nodes="true"
     inkscape:snap-bbox-edge-midpoints="true"
     inkscape:snap-bbox-midpoints="true"
     inkscape:bbox-paths="true"
     inkscape:window-width="1366"
     inkscape:window-height="744"
     inkscape:window-x="0"
     inkscape:window-y="24"
     inkscape:window-maximized="1">
    <inkscape:grid
       type="xygrid"
       id="grid4161"
       empspacing="5"
       visible="true"
       enabled="true"
       snapvisiblegridlinesonly="true"
       spacingx="0.5px"
       spacingy="0.5px" />
  </sodipodi:namedview>
  <metadata
     id="metadata4158">
    <rdf:RDF>
      <cc:Work
         rdf:about="">
        <dc:format>image/svg+xml</dc:format>
        <dc:type
           rdf:resource="http://purl.org/dc/dcmitype/StillImage" />
        <dc:title></dc:title>
      </cc:Work>
    </rdf:RDF>
  </metadata>
  <g
     inkscape:label="Layer 1"
     inkscape:groupmode="layer"
     id="layer1"
     transform="translate(0,-1002.3622)">
    <path
       style="fill:#181010;stroke:none;stroke-width:1px;stroke-linecap:butt;stroke-linejoin:miter;stroke-opacity:1;fill-opacity:1"
       d="m 174.5,45 11.5,2.5 48,0.5 11.5,-3 -2.5,-4 -66,0 z"
       id="path5050"
       inkscape:connector-curvature="0"
       transform="translate(0,1002.3622)" />
    <path
       style="fill:#302020;fill-opacity:1;stroke:#302020;stroke-width:0.1;stroke-linecap:butt;stroke-linejoin:miter;stroke-miterlimit:4;stroke-opacity:1;stroke-dasharray:none"
       d="m 4.5,37.5 -4,0.5 0,4 2,0 0,-1 z"
       id="path4925"
       inkscape:connector-curvature="0"
       transform="translate(0,1002.3622)"
       sodipodi:nodetypes="cccccc" />
    <path
       style="fill:#181010;stroke:none;stroke-width:1px;stroke-linecap:butt;stroke-linejoin:miter;stroke-opacity:1;fill-opacity:1"
       d="m 22.5,45 5,2.5 19,0 4.5,-2.5 -2.5,-4 -24,0 z"
       id="path4923"
       inkscape:connector-curvature="0"
       transform="translate(0,1002.3622)" />
    <path
       style="fill:#808080;stroke:#808080;stroke-width:0.2;stroke-linecap:butt;stroke-linejoin:miter;stroke-opacity:1;fill-opacity:1;stroke-miterlimit:4;stroke-dasharray:none"
       d="m 48.5,41 2.5,4 123.5,0 2.5,-4 -64,0 0,3.5 -17.5,0 0,-3.5 z"
       id="path4899"
       inkscape:connector-curvature="0"
       transform="translate(0,1002.3622)" />
    <path
       style="fill:#808080;fill-opacity:1;stroke:#808080;stroke-width:0.2;stroke-linecap:butt;stroke-linejoin:miter;stroke-miterlimit:4;stroke-opacity:1;stroke-dasharray:none"
       d="M 2.5,41 C 1,44 5,45 10,45 l 12.5,0 2,-4 z"
       id="path4897"
       inkscape:connector-curvature="0"
       transform="translate(0,1002.3622)"
       sodipodi:nodetypes="ccccc" />
    <path
       style="fill:#333333;stroke:#333333;stroke-width:1;stroke-linecap:butt;stroke-linejoin:miter;stroke-miterlimit:4;stroke-opacity:1;stroke-dasharray:none"
       d="m 210,1013.8622 0,29.5"
       id="path4673"
       inkscape:connector-curvature="0"
       sodipodi:nodetypes="cc" />
    <path
       style="fill:#1a1a1a;stroke:#1a1a1a;stroke-width:1;stroke-linecap:butt;stroke-linejoin:miter;stroke-miterlimit:4;stroke-opacity:1;stroke-dasharray:none"
       d="m 211,1013.8622 0,29.5"
       id="path4675"
       inkscape:connector-curvature="0"
       sodipodi:nodetypes="cc" />
    <path
       style="fill:#333333;stroke:#333333;stroke-width:1;stroke-linecap:butt;stroke-linejoin:miter;stroke-miterlimit:4;stroke-opacity:1;stroke-dasharray:none"
       d="m 212,1043.3622 0,-29.5"
       id="path4677"
       inkscape:connector-curvature="0"
       sodipodi:nodetypes="cc" />
    <path
       style="fill:#1a1a1a;stroke:#1a1a1a;stroke-width:1;stroke-linecap:butt;stroke-linejoin:miter;stroke-miterlimit:4;stroke-opacity:1;stroke-dasharray:none"
       d="m 209,1013.8622 0,29.5"
       id="path4679"
       inkscape:connector-curvature="0"
       sodipodi:nodetypes="cc" />
    <path
       style="fill:#333333;stroke:#333333;stroke-width:1;stroke-linecap:butt;stroke-linejoin:miter;stroke-miterlimit:4;stroke-opacity:1;stroke-dasharray:none"
       d="m 208,1043.3622 0,-29.5"
       id="path4681"
       inkscape:connector-curvature="0"
       sodipodi:nodetypes="cc" />
    <path
       style="fill:#ffffff;stroke:#999999;stroke-width:0.4;stroke-linecap:butt;stroke-linejoin:miter;stroke-miterlimit:4;stroke-opacity:1;stroke-dasharray:none"
       d="M 30,11.5 C 14.152407,12.405577 12.567649,19.235074 5,36 4.2109314,37.748056 3.4442326,39.017111 2.5,41 l 93,0 0,-22.5 17.5,0 0,22.5 94.5,0 0,-29.5 z"
       id="path4685"
       inkscape:connector-curvature="0"
       sodipodi:nodetypes="cscccccccc"
       transform="translate(0,1002.3622)" />
    <path
       style="fill:#000080;stroke:#999999;stroke-width:0.20000000000000001;stroke-linecap:butt;stroke-linejoin:miter;stroke-miterlimit:4;stroke-opacity:1;stroke-dasharray:none"
       d="M 207.5,17.5 30,17.5 c -3.5,0 -6,0 -7.5,0.5 -6.383682,5.138038 -8,17 -17.5,18 -2.5,5 -1.4529158,2.676926 -2.546875,5.078125 L 95.5,41 l 0,-22.5 17.5,0 0,22.5 94.5,0 z"
       id="path4687"
       inkscape:connector-curvature="0"
       sodipodi:nodetypes="ccccccccccc"
       transform="translate(0,1002.3622)" />
    <path
       style="fill:none;stroke:#000000;stroke-width:0.1;stroke-linecap:butt;stroke-linejoin:miter;stroke-opacity:1;stroke-miterlimit:4;stroke-dasharray:none"
       d="m 30,11.5 0,6"
       id="path4689"
       inkscape:connector-curvature="0"
       transform="translate(0,1002.3622)" />
    <path
       style="fill:#1e1e1e;fill-opacity:1;stroke:#141414;stroke-width:0.3;stroke-linecap:butt;stroke-linejoin:miter;stroke-miterlimit:4;stroke-opacity:1;stroke-dasharray:none"
       d="m 30.490481,1020.3532 0,14.519 17.509519,-0.01 0,-14.5 z"
       id="path4691"
       inkscape:connector-curvature="0"
       sodipodi:nodetypes="ccccc" />
    <path
       style="fill:#1e1e1e;fill-opacity:1;stroke:#141414;stroke-width:0.3;stroke-linecap:butt;stroke-linejoin:miter;stroke-miterlimit:4;stroke-opacity:1;stroke-dasharray:none"
       d="m 51,1020.3622 0,14.5 17.5,0 0,-14.5 z"
       id="path4691-2"
       inkscape:connector-curvature="0"
       sodipodi:nodetypes="ccccc" />
    <path
       style="fill:#1e1e1e;fill-opacity:1;stroke:#141414;stroke-width:0.3;stroke-linecap:butt;stroke-linejoin:miter;stroke-miterlimit:4;stroke-opacity:1;stroke-dasharray:none"
       d="m 116,1020.3622 0,17 17.5,0 0,-17 z"
       id="path4691-2-3-2"
       inkscape:connector-curvature="0"
       sodipodi:nodetypes="ccccc" />
    <path
       style="fill:#1e1e1e;fill-opacity:1;stroke:#141414;stroke-width:0.3;stroke-linecap:butt;stroke-linejoin:miter;stroke-miterlimit:4;stroke-opacity:1;stroke-dasharray:none"
       d="m 136.5,1020.3622 0,17 17.5,0 0,-17 z"
       id="path4691-2-3-2-2"
       inkscape:connector-curvature="0"
       sodipodi:nodetypes="ccccc" />
    <path
       style="fill:#1e1e1e;fill-opacity:1;stroke:#141414;stroke-width:0.3;stroke-linecap:butt;stroke-linejoin:miter;stroke-miterlimit:4;stroke-opacity:1;stroke-dasharray:none"
       d="m 157,1020.3622 0,17 17.5,0 0,-17 z"
       id="path4691-2-3-2-5"
       inkscape:connector-curvature="0"
       sodipodi:nodetypes="ccccc" />
    <path
       style="fill:#1e1e1e;fill-opacity:1;stroke:#141414;stroke-width:0.3;stroke-linecap:butt;stroke-linejoin:miter;stroke-miterlimit:4;stroke-opacity:1;stroke-dasharray:none"
       d="m 183.5,1020.3622 0,14.5 15,0 0,-14.5 z"
       id="path4691-2-3-3"
       inkscape:connector-curvature="0"
       sodipodi:nodetypes="ccccc" />
    <path
       style="fill:#1e1e1e;fill-opacity:1;stroke:#000000;stroke-width:0.2;stroke-linecap:butt;stroke-linejoin:miter;stroke-miterlimit:4;stroke-opacity:1;stroke-dasharray:none"
       d="m 25,32.5 -13,0 C 15,27 17.5,21.5 22.5,18 l 2.5,0 z"
       id="path4893"
       inkscape:connector-curvature="0"
       transform="translate(0,1002.3622)"
       sodipodi:nodetypes="ccccc" />
    <path
       style="fill:#999999;stroke:#999999;stroke-width:0.4;stroke-linecap:butt;stroke-linejoin:miter;stroke-miterlimit:4;stroke-opacity:1;stroke-dasharray:none"
       d="m 30,11.5 c 7.5,-1 14,-1 15,-1 l 162,0 0.5,1 z"
       id="path4901"
       inkscape:connector-curvature="0"
       transform="translate(0,1002.3622)"
       sodipodi:nodetypes="ccccc" />
    <path
       transform="translate(1.1,1002.2622)"
       style="fill:#392727;fill-opacity:1;fill-rule:nonzero;stroke:#392727;stroke-width:0.2;stroke-linecap:round;stroke-linejoin:miter;stroke-miterlimit:4;stroke-opacity:1"
       d="M 30,46.25 C 30,48.321068 28.321068,50 26.25,50 24.178932,50 22.5,48.321068 22.5,46.25 c 0,-2.071068 1.678932,-3.75 3.75,-3.75 2.029414,0 3.69059,1.614452 3.748474,3.64304"
       id="path4903" />
    <path
       transform="translate(19.9,1002.2622)"
       style="fill:#392727;fill-opacity:1;fill-rule:nonzero;stroke:#392727;stroke-width:0.2;stroke-linecap:round;stroke-linejoin:miter;stroke-miterlimit:4;stroke-opacity:1"
       d="M 30,46.25 C 30,48.321068 28.321068,50 26.25,50 24.178932,50 22.5,48.321068 22.5,46.25 c 0,-2.071068 1.678932,-3.75 3.75,-3.75 2.029414,0 3.69059,1.614452 3.748474,3.64304"
       id="path4903-6" />
    <path
       style="fill:#333333;stroke:#333333;stroke-width:1;stroke-linecap:butt;stroke-linejoin:miter;stroke-miterlimit:4;stroke-opacity:1;stroke-dasharray:none"
       d="m 210,1013.8622 0,29.5"
       id="path4673-0"
       inkscape:connector-curvature="0"
       sodipodi:nodetypes="cc" />
    <path
       style="fill:#1a1a1a;stroke:#1a1a1a;stroke-width:1;stroke-linecap:butt;stroke-linejoin:miter;stroke-miterlimit:4;stroke-opacity:1;stroke-dasharray:none"
       d="m 209,1013.8622 0,29.5"
       id="path4675-8"
       inkscape:connector-curvature="0"
       sodipodi:nodetypes="cc" />
    <path
       style="fill:#333333;stroke:#333333;stroke-width:1;stroke-linecap:butt;stroke-linejoin:miter;stroke-miterlimit:4;stroke-opacity:1;stroke-dasharray:none"
       d="m 208,1043.3622 0,-29.5"
       id="path4677-7"
       inkscape:connector-curvature="0"
       sodipodi:nodetypes="cc" />
    <path
       style="fill:#1a1a1a;stroke:#1a1a1a;stroke-width:1;stroke-linecap:butt;stroke-linejoin:miter;stroke-miterlimit:4;stroke-opacity:1;stroke-dasharray:none"
       d="m 211,1013.8622 0,29.5"
       id="path4679-7"
       inkscape:connector-curvature="0"
       sodipodi:nodetypes="cc" />
    <path
       transform="matrix(-1,0,0,1,220.1,1002.2622)"
       style="fill:#392727;fill-opacity:1;fill-rule:nonzero;stroke:#392727;stroke-width:0.2;stroke-linecap:round;stroke-linejoin:miter;stroke-miterlimit:4;stroke-opacity:1"
       d="M 30,46.25 C 30,48.321068 28.321068,50 26.25,50 24.178932,50 22.5,48.321068 22.5,46.25 c 0,-2.071068 1.678932,-3.75 3.75,-3.75 2.029414,0 3.69059,1.614452 3.748474,3.64304"
       id="path4903-6-5-0" />
    <path
       style="fill:none;stroke:#392727;stroke-width:0.82909745px;stroke-linecap:butt;stroke-linejoin:miter;stroke-opacity:1"
       d="m 226.08545,1047.2767 -6.43418,0 -4.82564,2.671 -9.65127,0 -4.82564,-2.671 -6.43417,0"
       id="path5048"
       inkscape:connector-curvature="0" />
    <path
       style="fill:#666666;fill-opacity:1;fill-rule:nonzero;stroke:none"
       d="m 133.5,1011.2622 23.5,0 0,2.6 -23.5,0 z"
       id="rect5052-9" />
    <path
       style="fill:#666666;fill-opacity:1;fill-rule:nonzero;stroke:none"
       d="m 48,1011.2622 23.5,0 0,2.6 -23.5,0 z"
       id="rect5052-4" />
    <path
       style="fill:#666666;stroke:none"
       d="m 207,1013.8622 -3,0 1.5,-2 1.5,0 z"
       id="path5088-5"
       inkscape:connector-curvature="0" />
    <path
       style="fill:#666666;stroke:#666666;stroke-width:0.50000000000000000;stroke-linecap:butt;stroke-linejoin:miter;stroke-opacity:1;stroke-miterlimit:4;stroke-dasharray:none"
       d="m 207,10 6,0"
       id="path5108"
       inkscape:connector-curvature="0"
       transform="translate(0,1002.3622)" />
    <path
       style="fill:#ffff32;stroke:none;stroke-width:1px;stroke-linecap:butt;stroke-linejoin:miter;stroke-opacity:1;fill-opacity:1"
       d="m 24.5,41 2,-4 69,0 0,4 z"
       id="path5167"
       inkscape:connector-curvature="0"
       transform="translate(0,1002.3622)" />
    <path
       style="fill:#ffff32;stroke:none;stroke-width:1px;stroke-linecap:butt;stroke-linejoin:miter;stroke-opacity:1;fill-opacity:1"
       d="m 113,37 94.5,0 0,4 -94.5,0 z"
       id="path5169"
       inkscape:connector-curvature="0"
       transform="translate(0,1002.3622)" />
    <path
       style="fill:#392727;fill-opacity:1;fill-rule:nonzero;stroke:none"
       d="m 181,1045.3622 7.5,0 0,4 -7.5,0 z"
       id="rect5171-6" />
    <path
       transform="translate(0,1002.3622)"
       style="fill:#141414;fill-opacity:1;fill-rule:nonzero;stroke:#000000;stroke-width:0.1;stroke-miterlimit:4;stroke-opacity:1"
       d="m 52.5,35.5 15,0 0,3 -15,0 z"
       id="rect5191" />
    <path
       style="fill:none;stroke:#141414;stroke-width:0.3;stroke-linecap:butt;stroke-linejoin:miter;stroke-opacity:1;stroke-miterlimit:4;stroke-dasharray:none"
       d="m 71.5,22.5 15,0"
       id="path5193"
       inkscape:connector-curvature="0"
       transform="translate(0,1002.3622)" />
    <path
       style="fill:none;stroke:#ffffff;stroke-width:0.10000000000000001;stroke-linecap:butt;stroke-linejoin:miter;stroke-opacity:1;stroke-miterlimit:4;stroke-dasharray:none"
       d="m 48.5,18.5 0,5.5 2,0 0,-5.5 z"
       id="path5195"
       inkscape:connector-curvature="0"
       transform="translate(0,1002.3622)" />
    <path
       style="fill:none;stroke:#ffffff;stroke-width:0.1;stroke-linecap:butt;stroke-linejoin:miter;stroke-opacity:1;stroke-miterlimit:4;stroke-dasharray:none"
       d="m 48.5,21 2,0"
       id="path5197"
       inkscape:connector-curvature="0"
       transform="translate(0,1002.3622)" />
    <g
       style="font-size:40px;font-style:normal;font-weight:normal;line-height:125%;letter-spacing:0px;word-spacing:0px;fill:#ffffff;fill-opacity:1;stroke:none;font-family:Sans"
       id="text5199">
      <path
         d="m 49.150574,1022.9585 1.032715,0 0,0.249 -1.388672,0 0,-0.249 c 0.112304,-0.1162 0.265136,-0.272 0.458496,-0.4673 0.194335,-0.1963 0.316405,-0.3227 0.366211,-0.3794 0.09473,-0.1064 0.160643,-0.1963 0.197754,-0.2695 0.03808,-0.074 0.05713,-0.147 0.05713,-0.2183 -2e-6,-0.1162 -0.04102,-0.2109 -0.123047,-0.2842 -0.08106,-0.073 -0.187013,-0.1098 -0.317871,-0.1098 -0.09278,0 -0.190919,0.016 -0.294434,0.048 -0.10254,0.032 -0.212403,0.081 -0.32959,0.1465 l 0,-0.2988 c 0.11914,-0.048 0.230468,-0.084 0.333985,-0.1084 0.103514,-0.024 0.198241,-0.037 0.284179,-0.037 0.226562,0 0.407226,0.057 0.541992,0.1699 0.134764,0.1133 0.202147,0.2646 0.202149,0.4541 -2e-6,0.09 -0.01709,0.1753 -0.05127,0.2563 -0.0332,0.08 -0.09424,0.1748 -0.183105,0.2842 -0.02442,0.028 -0.102052,0.1104 -0.23291,0.2461 -0.130861,0.1348 -0.315431,0.3237 -0.553711,0.5669"
         style="font-size:3px;fill:#ffffff"
         id="path5683" />
    </g>
    <path
       style="fill:none;stroke:#ffffff;stroke-width:0.1;stroke-linecap:butt;stroke-linejoin:miter;stroke-miterlimit:4;stroke-opacity:1;stroke-dasharray:none"
       d="m 134,1020.8622 0,5.5 2,0 0,-5.5 z"
       id="path5195-2"
       inkscape:connector-curvature="0" />
    <path
       style="fill:none;stroke:#ffffff;stroke-width:0.1;stroke-linecap:butt;stroke-linejoin:miter;stroke-miterlimit:4;stroke-opacity:1;stroke-dasharray:none"
       d="m 134,1023.3622 2,0"
       id="path5197-7"
       inkscape:connector-curvature="0" />
    <g
       style="font-size:40px;font-style:normal;font-weight:normal;line-height:125%;letter-spacing:0px;word-spacing:0px;fill:#ffffff;fill-opacity:1;stroke:none;font-family:Sans"
       id="text5199-7">
      <path
         d="m 134.65057,1022.9585 1.03272,0 0,0.249 -1.38867,0 0,-0.249 c 0.1123,-0.1162 0.26513,-0.272 0.45849,-0.4673 0.19434,-0.1963 0.31641,-0.3227 0.36621,-0.3794 0.0947,-0.1064 0.16065,-0.1963 0.19776,-0.2695 0.0381,-0.074 0.0571,-0.147 0.0571,-0.2183 0,-0.1162 -0.041,-0.2109 -0.12305,-0.2842 -0.0811,-0.073 -0.18701,-0.1098 -0.31787,-0.1098 -0.0928,0 -0.19092,0.016 -0.29444,0.048 -0.10253,0.032 -0.2124,0.081 -0.32958,0.1465 l 0,-0.2988 c 0.11914,-0.048 0.23046,-0.084 0.33398,-0.1084 0.10351,-0.024 0.19824,-0.037 0.28418,-0.037 0.22656,0 0.40722,0.057 0.54199,0.1699 0.13477,0.1133 0.20215,0.2646 0.20215,0.4541 0,0.09 -0.0171,0.1753 -0.0513,0.2563 -0.0332,0.08 -0.0942,0.1748 -0.18311,0.2842 -0.0244,0.028 -0.10205,0.1104 -0.23291,0.2461 -0.13086,0.1348 -0.31543,0.3237 -0.55371,0.5669"
         style="font-size:3px;fill:#ffffff"
         id="path5686" />
    </g>
    <g
       style="font-size:7.50000000000000000px;font-style:normal;font-variant:normal;font-weight:bold;font-stretch:normal;line-height:125%;letter-spacing:0px;word-spacing:0px;fill:#ffffff;fill-opacity:1;stroke:none;font-family:Arial;-inkscape-font-specification:Arial Bold"
       id="text5230">
      <path
         d="m 16.535767,1037.7648 1.02539,0.1721 c -0.131839,0.376 -0.340579,0.6628 -0.62622,0.8606 -0.283207,0.1953 -0.638431,0.293 -1.065674,0.293 -0.676271,0 -1.176759,-0.221 -1.501465,-0.6629 -0.256348,-0.354 -0.384522,-0.8008 -0.384522,-1.3403 0,-0.6445 0.168457,-1.1487 0.505371,-1.5125 0.336913,-0.3662 0.762938,-0.5493 1.278077,-0.5493 0.57861,0 1.035153,0.1917 1.369629,0.575 0.334468,0.3808 0.49438,0.9655 0.479736,1.7541 l -2.578125,0 c 0.0073,0.3052 0.09033,0.5432 0.249023,0.7141 0.15869,0.1685 0.356444,0.2527 0.593262,0.2527 0.161131,0 0.296628,-0.044 0.406494,-0.1318 0.109861,-0.088 0.192869,-0.2295 0.249024,-0.4248 m 0.05859,-1.0401 c -0.0073,-0.2978 -0.08423,-0.5236 -0.230713,-0.6775 -0.146486,-0.1562 -0.324709,-0.2343 -0.534668,-0.2343 -0.224611,0 -0.410157,0.082 -0.55664,0.2453 -0.146486,0.1636 -0.218507,0.3858 -0.216065,0.6665 l 1.538086,0"
         style="font-family:Arial;-inkscape-font-specification:Arial Bold;fill:#ffffff"
         id="path5689" />
      <path
         d="m 19.443481,1039.0026 -1.029052,0 0,-3.8892 0.95581,0 0,0.553 c 0.163573,-0.2612 0.310057,-0.4334 0.439453,-0.5164 0.131834,-0.083 0.28076,-0.1245 0.446778,-0.1245 0.234372,0 0.460202,0.065 0.67749,0.1941 l -0.318604,0.8972 c -0.173342,-0.1123 -0.334475,-0.1684 -0.483398,-0.1684 -0.144045,0 -0.266115,0.04 -0.366211,0.1208 -0.100099,0.078 -0.179445,0.221 -0.238037,0.4285 -0.05615,0.2075 -0.08423,0.6421 -0.08423,1.3037 l 0,1.2012"
         style="font-family:Arial;-inkscape-font-specification:Arial Bold;fill:#ffffff"
         id="path5691" />
      <path
         d="m 21.373413,1034.5861 0,-0.9522 1.029053,0 0,0.9522 -1.029053,0 m 0,4.4165 0,-3.8892 1.029053,0 0,3.8892 -1.029053,0"
         style="font-family:Arial;-inkscape-font-specification:Arial Bold;fill:#ffffff"
         id="path5693" />
      <path
         d="m 22.959106,1039.0026 1.402588,-2.0032 -1.343994,-1.886 1.256104,0 0.688476,1.0693 0.725098,-1.0693 1.208496,0 -1.318359,1.842 1.439209,2.0472 -1.263428,0 -0.791016,-1.2049 -0.79834,1.2049 -1.204834,0"
         style="font-family:Arial;-inkscape-font-specification:Arial Bold;fill:#ffffff"
         id="path5695" />
    </g>
    <g
       style="font-size:7px;font-style:normal;font-weight:bold;line-height:125%;letter-spacing:0px;word-spacing:0px;fill:#ffb400;fill-opacity:1;stroke:none;font-family:Sans;-inkscape-font-specification:Sans Bold"
       id="text5234">
      <path
         d="m 27.297607,1035.3177 -1.380859,-1.8696 1.29541,0 0.782715,1.1348 0.792969,-1.1348 1.29541,0 -1.380859,1.8628 1.449218,1.9653 -1.29541,0 -0.861328,-1.2099 -0.851074,1.2099 -1.29541,0 1.449218,-1.9585"
         style=""
         id="path5698" />
    </g>
    <g
       style="font-size:12px;font-style:normal;font-weight:bold;line-height:125%;letter-spacing:0px;word-spacing:0px;fill:#ffb400;fill-opacity:1;stroke:none;font-family:Sans;-inkscape-font-specification:Sans Bold"
       id="text5234-4">
      <path
         d="m 92.464844,1034.8973 3.035156,4.4649 -2.349609,0 -2.044922,-2.9883 -2.027344,2.9883 -2.361328,0 3.035156,-4.4649 -2.917969,-4.2832 2.355469,0 1.916016,2.8184 1.910156,-2.8184 2.367187,0 -2.917968,4.2832"
         style=""
         id="path5701" />
    </g>
    <g
       style="font-size:12px;font-style:normal;font-weight:bold;line-height:125%;letter-spacing:0px;word-spacing:0px;fill:#800080;fill-opacity:1;stroke:none;font-family:Sans;-inkscape-font-specification:Sans Bold"
       id="text5234-4-3">
      <path
         d="m 83.748047,1038.8973 3.035156,4.4649 -2.349609,0 -2.044922,-2.9883 -2.027344,2.9883 -2.361328,0 3.035156,-4.4649 -2.917969,-4.2832 2.355469,0 1.916016,2.8184 1.910156,-2.8184 2.367188,0 -2.917969,4.2832"
         style=""
         id="path5704" />
    </g>
    <path
       style="fill:#1e1e1e;fill-opacity:1;stroke:#141414;stroke-width:0.3;stroke-linecap:butt;stroke-linejoin:miter;stroke-miterlimit:4;stroke-opacity:1;stroke-dasharray:none"
       d="m 71.5,1020.3622 0,14.5 15,0 0,-14.5 z"
       id="path4691-2-3"
       inkscape:connector-curvature="0"
       sodipodi:nodetypes="ccccc" />
    <path
       style="fill:#ffff32;stroke:#000000;stroke-width:0.30000000999999998;stroke-linecap:butt;stroke-linejoin:miter;stroke-miterlimit:4;stroke-opacity:1;stroke-dasharray:none;fill-opacity:1"
       d="m 95.511606,1020.8622 -0.0132,26.0132 17.526414,0 -0.0132,-26.0132 z"
       id="path4729"
       inkscape:connector-curvature="0"
       sodipodi:nodetypes="ccccc" />
    <path
       style="fill:#1e1e1e;fill-opacity:1;fill-rule:nonzero;stroke:#141414;stroke-width:0.21162312;stroke-linecap:round;stroke-linejoin:miter;stroke-miterlimit:4;stroke-opacity:1"
       d="m 97.129028,1022.968 5.776772,0 0,22.2884 -5.776772,0 z"
       id="rect4731" />
    <path
       style="fill:#1e1e1e;fill-opacity:1;fill-rule:nonzero;stroke:#141414;stroke-width:0.21162312;stroke-linecap:round;stroke-linejoin:miter;stroke-miterlimit:4;stroke-opacity:1"
       d="m 105.61742,1022.968 5.77676,0 0,22.2884 -5.77676,0 z"
       id="rect4731-8" />
    <path
       style="fill:none;stroke:#000000;stroke-width:0.30000001;stroke-linecap:butt;stroke-linejoin:miter;stroke-miterlimit:4;stroke-opacity:1;stroke-dasharray:none"
       d="m 104.2616,1020.872 0,26.0056"
       id="path4751"
       inkscape:connector-curvature="0" />
    <g
       style="font-size:2px;font-style:normal;font-weight:normal;line-height:125%;letter-spacing:0px;word-spacing:0px;fill:#000000;fill-opacity:1;stroke:none;font-family:Sans"
       id="text5280">
      <path
         d="m 31.38623,1040.618 0,1.1338 0.238282,0 c 0.201171,0 0.348306,-0.045 0.441406,-0.1367 0.09375,-0.091 0.140624,-0.235 0.140625,-0.4316 -1e-6,-0.1953 -0.04688,-0.3382 -0.140625,-0.4287 -0.0931,-0.091 -0.240235,-0.1368 -0.441406,-0.1368 l -0.238282,0 m -0.197265,-0.1621 0.405273,0 c 0.282551,0 0.489908,0.059 0.622071,0.1768 0.13216,0.1172 0.19824,0.3008 0.198242,0.5508 -2e-6,0.2513 -0.06641,0.4358 -0.199219,0.5537 -0.132814,0.1178 -0.339845,0.1767 -0.621094,0.1767 l -0.405273,0 0,-1.458"
         style=""
         id="path5709" />
      <path
         d="m 33.655762,1041.3221 0,0.088 -0.826172,0 c 0.0078,0.1237 0.04492,0.2181 0.111328,0.2832 0.06706,0.065 0.160156,0.097 0.279297,0.097 0.06901,0 0.135741,-0.01 0.200195,-0.025 0.0651,-0.017 0.129556,-0.042 0.19336,-0.076 l 0,0.1699 c -0.06446,0.027 -0.130535,0.048 -0.198243,0.062 -0.06771,0.014 -0.136394,0.021 -0.206054,0.021 -0.17448,0 -0.312826,-0.051 -0.415039,-0.1524 -0.101563,-0.1015 -0.152344,-0.2389 -0.152344,-0.4121 0,-0.179 0.04818,-0.321 0.144531,-0.4258 0.09701,-0.1054 0.227539,-0.1582 0.391602,-0.1582 0.147134,0 0.263345,0.048 0.348632,0.1426 0.08594,0.094 0.128906,0.223 0.128907,0.3857 m -0.179688,-0.053 c -0.0013,-0.098 -0.02897,-0.1767 -0.08301,-0.2353 -0.05339,-0.059 -0.124349,-0.088 -0.21289,-0.088 -0.100261,0 -0.180665,0.028 -0.241211,0.085 -0.0599,0.057 -0.0944,0.1364 -0.103516,0.2393 l 0.640625,-0"
         style=""
         id="path5711" />
      <path
         d="m 34.584473,1040.9882 c -0.02018,-0.012 -0.04232,-0.02 -0.06641,-0.025 -0.02344,-0.01 -0.04948,-0.01 -0.07813,-0.01 -0.101563,0 -0.179688,0.033 -0.234375,0.1 -0.05404,0.066 -0.08105,0.1605 -0.08105,0.2842 l 0,0.5761 -0.180664,0 0,-1.0937 0.180664,0 0,0.1699 c 0.03776,-0.066 0.08691,-0.1155 0.147461,-0.1474 0.06055,-0.033 0.134114,-0.049 0.220703,-0.049 0.01237,0 0.02604,10e-4 0.04101,0 0.01497,0 0.03158,0 0.0498,0.01 l 9.77e-4,0.1846"
         style=""
         id="path5713" />
      <path
         d="m 35.419434,1040.4559 0.197265,0 0,0.5977 0.716797,0 0,-0.5977 0.197266,0 0,1.458 -0.197266,0 0,-0.6943 -0.716797,0 0,0.6943 -0.197265,0 0,-1.458"
         style=""
         id="path5715" />
      <path
         d="m 37.851074,1041.3221 0,0.088 -0.826172,0 c 0.0078,0.1237 0.04492,0.2181 0.111328,0.2832 0.06706,0.065 0.160156,0.097 0.279297,0.097 0.06901,0 0.135742,-0.01 0.200196,-0.025 0.0651,-0.017 0.129556,-0.042 0.193359,-0.076 l 0,0.1699 c -0.06445,0.027 -0.130535,0.048 -0.198242,0.062 -0.06771,0.014 -0.136394,0.021 -0.206055,0.021 -0.17448,0 -0.312826,-0.051 -0.415039,-0.1524 -0.101563,-0.1015 -0.152344,-0.2389 -0.152344,-0.4121 0,-0.179 0.04818,-0.321 0.144532,-0.4258 0.097,-0.1054 0.227538,-0.1582 0.391601,-0.1582 0.147135,0 0.263346,0.048 0.348633,0.1426 0.08594,0.094 0.128905,0.223 0.128906,0.3857 m -0.179687,-0.053 c -0.0013,-0.098 -0.02897,-0.1767 -0.08301,-0.2353 -0.05339,-0.059 -0.12435,-0.088 -0.212891,-0.088 -0.100261,0 -0.180664,0.028 -0.241211,0.085 -0.0599,0.057 -0.0944,0.1364 -0.103515,0.2393 l 0.640625,-0"
         style=""
         id="path5717" />
      <path
         d="m 38.145996,1040.8202 0.179688,0 0,1.0937 -0.179688,0 0,-1.0937 m 0,-0.4258 0.179688,0 0,0.2275 -0.179688,0 0,-0.2275"
         style=""
         id="path5719" />
      <path
         d="m 39.42041,1040.9862 0,-0.5918 0.179688,0 0,1.5195 -0.179688,0 0,-0.164 c -0.03776,0.065 -0.08561,0.1136 -0.143555,0.1455 -0.05729,0.031 -0.126302,0.047 -0.207031,0.047 -0.132162,0 -0.239909,-0.053 -0.323242,-0.1582 -0.08268,-0.1055 -0.124024,-0.2442 -0.124023,-0.4161 -1e-6,-0.1718 0.04134,-0.3105 0.124023,-0.416 0.08333,-0.1054 0.19108,-0.1582 0.323242,-0.1582 0.08073,0 0.149739,0.016 0.207031,0.048 0.05794,0.031 0.105794,0.079 0.143555,0.1445 m -0.612305,0.3818 c 0,0.1322 0.02702,0.236 0.08105,0.3116 0.05469,0.075 0.129557,0.1123 0.22461,0.1123 0.09505,0 0.169921,-0.037 0.224609,-0.1123 0.05469,-0.076 0.08203,-0.1794 0.08203,-0.3116 -10e-7,-0.1321 -0.02734,-0.2356 -0.08203,-0.3105 -0.05469,-0.075 -0.129558,-0.1133 -0.224609,-0.1133 -0.09505,0 -0.169923,0.038 -0.22461,0.1133 -0.05404,0.075 -0.08105,0.1784 -0.08105,0.3105"
         style=""
         id="path5721" />
      <path
         d="m 40.905762,1041.3221 0,0.088 -0.826172,0 c 0.0078,0.1237 0.04492,0.2181 0.111328,0.2832 0.06706,0.065 0.160156,0.097 0.279297,0.097 0.06901,0 0.135741,-0.01 0.200195,-0.025 0.0651,-0.017 0.129556,-0.042 0.19336,-0.076 l 0,0.1699 c -0.06446,0.027 -0.130535,0.048 -0.198243,0.062 -0.06771,0.014 -0.136394,0.021 -0.206054,0.021 -0.17448,0 -0.312826,-0.051 -0.415039,-0.1524 -0.101563,-0.1015 -0.152344,-0.2389 -0.152344,-0.4121 0,-0.179 0.04818,-0.321 0.144531,-0.4258 0.09701,-0.1054 0.227539,-0.1582 0.391602,-0.1582 0.147134,0 0.263345,0.048 0.348632,0.1426 0.08594,0.094 0.128906,0.223 0.128907,0.3857 m -0.179688,-0.053 c -0.0013,-0.098 -0.02897,-0.1767 -0.08301,-0.2353 -0.05339,-0.059 -0.124349,-0.088 -0.21289,-0.088 -0.100261,0 -0.180665,0.028 -0.241211,0.085 -0.0599,0.057 -0.0944,0.1364 -0.103516,0.2393 l 0.640625,-0"
         style=""
         id="path5723" />
      <path
         d="m 41.897949,1040.8524 0,0.1699 c -0.05078,-0.026 -0.103516,-0.046 -0.158203,-0.059 -0.05469,-0.013 -0.111329,-0.02 -0.169922,-0.02 -0.08919,0 -0.15625,0.014 -0.201172,0.041 -0.04427,0.027 -0.06641,0.068 -0.06641,0.1231 0,0.042 0.01595,0.074 0.04785,0.099 0.0319,0.023 0.09603,0.046 0.192382,0.067 l 0.06152,0.014 c 0.127603,0.027 0.218098,0.066 0.271484,0.1162 0.05404,0.05 0.08105,0.1188 0.08106,0.208 -1e-6,0.1015 -0.04037,0.1819 -0.121094,0.2412 -0.08008,0.059 -0.19043,0.089 -0.331054,0.089 -0.0586,0 -0.119793,-0.01 -0.183594,-0.018 -0.06315,-0.011 -0.129883,-0.028 -0.200196,-0.051 l 0,-0.1855 c 0.06641,0.034 0.131836,0.061 0.19629,0.078 0.06445,0.017 0.128254,0.025 0.191406,0.025 0.08463,0 0.149739,-0.014 0.195312,-0.043 0.04557,-0.029 0.06836,-0.07 0.06836,-0.123 -1e-6,-0.049 -0.0166,-0.086 -0.0498,-0.1124 -0.03255,-0.026 -0.104493,-0.051 -0.21582,-0.075 l -0.0625,-0.015 c -0.111329,-0.023 -0.191732,-0.059 -0.241211,-0.1074 -0.04948,-0.049 -0.07422,-0.1156 -0.07422,-0.2002 0,-0.1029 0.03646,-0.1823 0.109375,-0.2383 0.07292,-0.056 0.176432,-0.084 0.310547,-0.084 0.0664,0 0.128905,0 0.1875,0.015 0.05859,0.01 0.112629,0.024 0.162109,0.044"
         style=""
         id="path5725" />
      <path
         d="m 42.41748,1041.7499 0,0.5801 -0.180664,0 0,-1.5098 0.180664,0 0,0.166 c 0.03776,-0.065 0.08529,-0.1133 0.142579,-0.1445 0.05794,-0.032 0.126952,-0.048 0.207031,-0.048 0.132811,0 0.240559,0.053 0.323242,0.1582 0.08333,0.1055 0.124999,0.2442 0.125,0.416 -10e-7,0.1719 -0.04167,0.3106 -0.125,0.4161 -0.08268,0.1054 -0.190431,0.1582 -0.323242,0.1582 -0.08008,0 -0.149089,-0.016 -0.207031,-0.047 -0.05729,-0.032 -0.104819,-0.08 -0.142579,-0.1455 m 0.611329,-0.3819 c -1e-6,-0.1321 -0.02735,-0.2356 -0.08203,-0.3105 -0.05404,-0.075 -0.128581,-0.1133 -0.223632,-0.1133 -0.09505,0 -0.169923,0.038 -0.22461,0.1133 -0.05404,0.075 -0.08105,0.1784 -0.08105,0.3105 0,0.1322 0.02702,0.236 0.08105,0.3116 0.05469,0.075 0.129557,0.1123 0.22461,0.1123 0.09505,0 0.169595,-0.037 0.223632,-0.1123 0.05469,-0.076 0.08203,-0.1794 0.08203,-0.3116"
         style=""
         id="path5727" />
      <path
         d="m 44.146973,1040.9882 c -0.02018,-0.012 -0.04232,-0.02 -0.06641,-0.025 -0.02344,-0.01 -0.04948,-0.01 -0.07813,-0.01 -0.101563,0 -0.179688,0.033 -0.234375,0.1 -0.05404,0.066 -0.08105,0.1605 -0.08105,0.2842 l 0,0.5761 -0.180664,0 0,-1.0937 0.180664,0 0,0.1699 c 0.03776,-0.066 0.08691,-0.1155 0.147461,-0.1474 0.06055,-0.033 0.134114,-0.049 0.220703,-0.049 0.01237,0 0.02604,10e-4 0.04101,0 0.01497,0 0.03158,0 0.0498,0.01 l 9.77e-4,0.1846"
         style=""
         id="path5729" />
      <path
         d="m 44.337402,1040.8202 0.179688,0 0,1.0937 -0.179688,0 0,-1.0937 m 0,-0.4258 0.179688,0 0,0.2275 -0.179688,0 0,-0.2275"
         style=""
         id="path5731" />
      <path
         d="m 45.80127,1041.2538 0,0.6601 -0.179688,0 0,-0.6543 c -10e-7,-0.1035 -0.02018,-0.1809 -0.06055,-0.2324 -0.04036,-0.051 -0.100912,-0.077 -0.18164,-0.077 -0.09701,0 -0.173504,0.031 -0.229493,0.093 -0.05599,0.062 -0.08398,0.1462 -0.08398,0.253 l 0,0.6181 -0.180664,0 0,-1.0937 0.180664,0 0,0.1699 c 0.04297,-0.066 0.09342,-0.1149 0.151367,-0.1474 0.05859,-0.033 0.125976,-0.049 0.202149,-0.049 0.12565,0 0.220702,0.039 0.285156,0.1172 0.06445,0.077 0.09668,0.1917 0.09668,0.3428"
         style=""
         id="path5733" />
      <path
         d="m 46.339355,1040.5096 0,0.3106 0.370118,0 0,0.1396 -0.370118,0 0,0.5938 c 0,0.089 0.01204,0.1465 0.03613,0.1719 0.02474,0.025 0.07454,0.038 0.149414,0.038 l 0.184571,0 0,0.1504 -0.184571,0 c -0.138672,0 -0.234375,-0.026 -0.287109,-0.077 -0.05274,-0.052 -0.0791,-0.1465 -0.0791,-0.2832 l 0,-0.5938 -0.131836,0 0,-0.1396 0.131836,0 0,-0.3106 0.180664,0"
         style=""
         id="path5735" />
      <path
         d="m 47.882324,1041.3221 0,0.088 -0.826172,0 c 0.0078,0.1237 0.04492,0.2181 0.111328,0.2832 0.06706,0.065 0.160156,0.097 0.279297,0.097 0.06901,0 0.135742,-0.01 0.200196,-0.025 0.0651,-0.017 0.129556,-0.042 0.193359,-0.076 l 0,0.1699 c -0.06445,0.027 -0.130535,0.048 -0.198242,0.062 -0.06771,0.014 -0.136394,0.021 -0.206055,0.021 -0.17448,0 -0.312826,-0.051 -0.415039,-0.1524 -0.101563,-0.1015 -0.152344,-0.2389 -0.152344,-0.4121 0,-0.179 0.04818,-0.321 0.144532,-0.4258 0.097,-0.1054 0.227538,-0.1582 0.391601,-0.1582 0.147135,0 0.263346,0.048 0.348633,0.1426 0.08594,0.094 0.128905,0.223 0.128906,0.3857 m -0.179687,-0.053 c -0.0013,-0.098 -0.02897,-0.1767 -0.08301,-0.2353 -0.05339,-0.059 -0.12435,-0.088 -0.212891,-0.088 -0.100261,0 -0.180664,0.028 -0.241211,0.085 -0.0599,0.057 -0.0944,0.1364 -0.103515,0.2393 l 0.640625,-0"
         style=""
         id="path5737" />
      <path
         d="m 48.811035,1040.9882 c -0.02018,-0.012 -0.04232,-0.02 -0.06641,-0.025 -0.02344,-0.01 -0.04948,-0.01 -0.07813,-0.01 -0.101563,0 -0.179688,0.033 -0.234375,0.1 -0.05404,0.066 -0.08106,0.1605 -0.08106,0.2842 l 0,0.5761 -0.180664,0 0,-1.0937 0.180664,0 0,0.1699 c 0.03776,-0.066 0.08691,-0.1155 0.147461,-0.1474 0.06055,-0.033 0.134114,-0.049 0.220703,-0.049 0.01237,0 0.02604,10e-4 0.04102,0 0.01497,0 0.03157,0 0.0498,0.01 l 9.76e-4,0.1846"
         style=""
         id="path5739" />
    </g>
    <path
       style="fill:#302020;fill-opacity:1;stroke:#302020;stroke-width:0.1;stroke-linecap:butt;stroke-linejoin:miter;stroke-miterlimit:4;stroke-opacity:1;stroke-dasharray:none"
       d="m 415.5,1039.8622 4,0.5 0,4 -2,0 0,-1 z"
       id="path4925-5"
       inkscape:connector-curvature="0"
       sodipodi:nodetypes="cccccc" />
    <path
       style="fill:#181010;fill-opacity:1;stroke:none"
       d="m 397.5,1047.3622 -5,2.5 -19,0 -4.5,-2.5 2.5,-4 24,0 z"
       id="path4923-3"
       inkscape:connector-curvature="0" />
    <path
       style="fill:#808080;fill-opacity:1;stroke:#808080;stroke-width:0.2;stroke-linecap:butt;stroke-linejoin:miter;stroke-miterlimit:4;stroke-opacity:1;stroke-dasharray:none"
       d="m 371.5,1043.3622 -2.5,4 -123.5,0 -2.5,-4 64,0 0,3.5 17.5,0 0,-3.5 z"
       id="path4899-6"
       inkscape:connector-curvature="0" />
    <path
       style="fill:#808080;fill-opacity:1;stroke:#808080;stroke-width:0.2;stroke-linecap:butt;stroke-linejoin:miter;stroke-miterlimit:4;stroke-opacity:1;stroke-dasharray:none"
       d="m 417.5,1043.3622 c 1.5,3 -2.5,4 -7.5,4 l -12.5,0 -2,-4 z"
       id="path4897-9"
       inkscape:connector-curvature="0"
       sodipodi:nodetypes="ccccc" />
    <path
       style="fill:#ffffff;stroke:#999999;stroke-width:0.4;stroke-linecap:butt;stroke-linejoin:miter;stroke-miterlimit:4;stroke-opacity:1;stroke-dasharray:none"
       d="m 390,1013.8622 c 15.84759,0.9056 17.43235,7.7351 25,24.5 0.78907,1.748 1.55577,3.0171 2.5,5 l -93,0 0,-22.5 -17.5,0 0,22.5 -94.5,0 0,-29.5 z"
       id="path4685-6"
       inkscape:connector-curvature="0"
       sodipodi:nodetypes="cscccccccc" />
    <path
       style="fill:#ffff00;stroke:#fffe96;stroke-width:1px;stroke-linecap:butt;stroke-linejoin:miter;stroke-opacity:1;fill-opacity:1"
       d="m 372,17 17.5,0"
       id="path5871"
       inkscape:connector-curvature="0"
       transform="translate(0,1002.3622)" />
    <path
       style="fill:#000080;stroke:#999999;stroke-width:0.20000000000000001;stroke-linecap:butt;stroke-linejoin:miter;stroke-miterlimit:4;stroke-opacity:1;stroke-dasharray:none"
       d="m 212.5,1019.8622 177.5,0 c 3.5,0 6,0 7.5,0.5 6.38368,5.138 8.5,17.5 17.5,18 2.5,5 1.45292,2.6769 2.54687,5.0781 l -93.04687,-0.078 0,-22.5 -17.5,0 0,22.5 -94.5,0 z"
       id="path4687-1"
       inkscape:connector-curvature="0"
       sodipodi:nodetypes="ccccccccccc" />
    <path
       style="fill:#999999;stroke:#999999;stroke-width:0.4;stroke-linecap:butt;stroke-linejoin:miter;stroke-miterlimit:4;stroke-opacity:1;stroke-dasharray:none"
       d="m 390,1013.8622 c -7.5,-1 -14,-1 -15,-1 l -162,0 -0.5,1 z"
       id="path4901-0"
       inkscape:connector-curvature="0"
       sodipodi:nodetypes="ccccc" />
    <path
       style="fill:none;stroke:#999999;stroke-width:0.10000000000000001;stroke-linecap:butt;stroke-linejoin:miter;stroke-miterlimit:4;stroke-opacity:1;stroke-dasharray:none"
       d="m 390,1013.8622 0,6"
       id="path4689-4"
       inkscape:connector-curvature="0" />
    <path
       style="fill:#1e1e1e;fill-opacity:1;stroke:#141414;stroke-width:0.30000001;stroke-linecap:butt;stroke-linejoin:miter;stroke-miterlimit:4;stroke-opacity:1;stroke-dasharray:none"
       d="m 389.50952,1020.3532 0,14.519 -17.50952,-0.01 0,-14.5 z"
       id="path4691-5"
       inkscape:connector-curvature="0"
       sodipodi:nodetypes="ccccc" />
    <path
       style="fill:#1e1e1e;fill-opacity:1;stroke:#141414;stroke-width:0.30000001;stroke-linecap:butt;stroke-linejoin:miter;stroke-miterlimit:4;stroke-opacity:1;stroke-dasharray:none"
       d="m 369,1020.3622 0,14.5 -17.5,0 0,-14.5 z"
       id="path4691-2-5"
       inkscape:connector-curvature="0"
       sodipodi:nodetypes="ccccc" />
    <path
       style="fill:#1e1e1e;fill-opacity:1;stroke:#141414;stroke-width:0.30000001;stroke-linecap:butt;stroke-linejoin:miter;stroke-miterlimit:4;stroke-opacity:1;stroke-dasharray:none"
       d="m 304,1020.3622 0,17 -17.5,0 0,-17 z"
       id="path4691-2-3-2-3"
       inkscape:connector-curvature="0"
       sodipodi:nodetypes="ccccc" />
    <path
       style="fill:#1e1e1e;fill-opacity:1;stroke:#141414;stroke-width:0.30000001;stroke-linecap:butt;stroke-linejoin:miter;stroke-miterlimit:4;stroke-opacity:1;stroke-dasharray:none"
       d="m 283.5,1020.3622 0,17 -17.5,0 0,-17 z"
       id="path4691-2-3-2-2-7"
       inkscape:connector-curvature="0"
       sodipodi:nodetypes="ccccc" />
    <path
       style="fill:#1e1e1e;fill-opacity:1;stroke:#141414;stroke-width:0.30000001;stroke-linecap:butt;stroke-linejoin:miter;stroke-miterlimit:4;stroke-opacity:1;stroke-dasharray:none"
       d="m 263,1020.3622 0,17 -17.5,0 0,-17 z"
       id="path4691-2-3-2-5-2"
       inkscape:connector-curvature="0"
       sodipodi:nodetypes="ccccc" />
    <path
       style="fill:#1e1e1e;fill-opacity:1;stroke:#141414;stroke-width:0.30000001;stroke-linecap:butt;stroke-linejoin:miter;stroke-miterlimit:4;stroke-opacity:1;stroke-dasharray:none"
       d="m 236.5,1020.3622 0,14.5 -15,0 0,-14.5 z"
       id="path4691-2-3-3-3"
       inkscape:connector-curvature="0"
       sodipodi:nodetypes="ccccc" />
    <path
       style="fill:#1e1e1e;fill-opacity:1;stroke:#000000;stroke-width:0.2;stroke-linecap:butt;stroke-linejoin:miter;stroke-miterlimit:4;stroke-opacity:1;stroke-dasharray:none"
       d="m 395,1034.8622 13,0 c -3,-5.5 -5.5,-11 -10.5,-14.5 l -2.5,0 z"
       id="path4893-9"
       inkscape:connector-curvature="0"
       sodipodi:nodetypes="ccccc" />
    <path
       transform="matrix(-1,0,0,1,418.9,1002.2622)"
       style="fill:#392727;fill-opacity:1;fill-rule:nonzero;stroke:#392727;stroke-width:0.2;stroke-linecap:round;stroke-linejoin:miter;stroke-miterlimit:4;stroke-opacity:1"
       d="M 30,46.25 C 30,48.321068 28.321068,50 26.25,50 24.178932,50 22.5,48.321068 22.5,46.25 c 0,-2.071068 1.678932,-3.75 3.75,-3.75 2.029414,0 3.69059,1.614452 3.748474,3.64304"
       id="path4903-5" />
    <path
       transform="matrix(-1,0,0,1,400.1,1002.2622)"
       style="fill:#392727;fill-opacity:1;fill-rule:nonzero;stroke:#392727;stroke-width:0.2;stroke-linecap:round;stroke-linejoin:miter;stroke-miterlimit:4;stroke-opacity:1"
       d="M 30,46.25 C 30,48.321068 28.321068,50 26.25,50 24.178932,50 22.5,48.321068 22.5,46.25 c 0,-2.071068 1.678932,-3.75 3.75,-3.75 2.029414,0 3.69059,1.614452 3.748474,3.64304"
       id="path4903-6-8" />
    <path
       transform="translate(199.9,1002.2622)"
       style="fill:#392727;fill-opacity:1;fill-rule:nonzero;stroke:#392727;stroke-width:0.2;stroke-linecap:round;stroke-linejoin:miter;stroke-miterlimit:4;stroke-opacity:1"
       d="M 30,46.25 C 30,48.321068 28.321068,50 26.25,50 24.178932,50 22.5,48.321068 22.5,46.25 c 0,-2.071068 1.678932,-3.75 3.75,-3.75 2.029414,0 3.69059,1.614452 3.748474,3.64304"
       id="path4903-6-5-0-9" />
    <path
       transform="scale(-1,1)"
       style="fill:#666666;fill-opacity:1;fill-rule:nonzero;stroke:none"
       d="m -286.5,1011.2622 23.5,0 0,2.6 -23.5,0 z"
       id="rect5052-9-2" />
    <path
       transform="scale(-1,1)"
       style="fill:#666666;fill-opacity:1;fill-rule:nonzero;stroke:none"
       d="m -372,1011.2622 23.5,0 0,2.6 -23.5,0 z"
       id="rect5052-4-8" />
    <path
       style="fill:#666666;stroke:none"
       d="m 213,1013.8622 3,0 -1.5,-2 -1.5,0 z"
       id="path5088-5-0"
       inkscape:connector-curvature="0" />
    <path
       style="fill:#ffff32;fill-opacity:1;stroke:none"
       d="m 395.5,1043.3622 -2,-4 -69,0 0,4 z"
       id="path5167-8"
       inkscape:connector-curvature="0" />
    <path
       style="fill:#ffff32;fill-opacity:1;stroke:none"
       d="m 307,1039.3622 -94.5,0 0,4 94.5,0 z"
       id="path5169-3"
       inkscape:connector-curvature="0" />
    <path
       transform="scale(-1,1)"
       style="fill:#392727;fill-opacity:1;fill-rule:nonzero;stroke:none"
       d="m -239,1045.3622 7.5,0 0,4 -7.5,0 z"
       id="rect5171-6-1" />
    <path
       style="fill:none;stroke:#141414;stroke-width:0.30000001;stroke-linecap:butt;stroke-linejoin:miter;stroke-miterlimit:4;stroke-opacity:1;stroke-dasharray:none"
       d="m 348.5,1024.8622 -15,0"
       id="path5193-1"
       inkscape:connector-curvature="0" />
    <path
       style="fill:none;stroke:#ffffff;stroke-width:0.1;stroke-linecap:butt;stroke-linejoin:miter;stroke-miterlimit:4;stroke-opacity:1;stroke-dasharray:none"
       d="m 371.5,1020.8622 0,5.5 -2,0 0,-5.5 z"
       id="path5195-1"
       inkscape:connector-curvature="0" />
    <path
       style="fill:none;stroke:#ffffff;stroke-width:0.1;stroke-linecap:butt;stroke-linejoin:miter;stroke-miterlimit:4;stroke-opacity:1;stroke-dasharray:none"
       d="m 371.5,1023.3622 -2,0"
       id="path5197-4"
       inkscape:connector-curvature="0" />
    <g
       style="font-size:40px;font-style:normal;font-weight:normal;line-height:125%;letter-spacing:0px;word-spacing:0px;fill:#ffffff;fill-opacity:1;stroke:none;font-family:Sans"
       id="text5199-0">
      <path
         d="m 369.96906,1022.9585 0.48339,0 0,-1.6685 -0.52588,0.1055 0,-0.2695 0.52295,-0.1055 0.2959,0 0,1.938 0.4834,0 0,0.249 -1.25976,0 0,-0.249"
         style="font-size:3px;fill:#ffffff"
         id="path5748" />
    </g>
    <path
       style="fill:none;stroke:#ffffff;stroke-width:0.1;stroke-linecap:butt;stroke-linejoin:miter;stroke-miterlimit:4;stroke-opacity:1;stroke-dasharray:none"
       d="m 286,1020.8622 0,5.5 -2,0 0,-5.5 z"
       id="path5195-2-9"
       inkscape:connector-curvature="0" />
    <path
       style="fill:none;stroke:#ffffff;stroke-width:0.1;stroke-linecap:butt;stroke-linejoin:miter;stroke-miterlimit:4;stroke-opacity:1;stroke-dasharray:none"
       d="m 286,1023.3622 -2,0"
       id="path5197-7-7"
       inkscape:connector-curvature="0" />
    <g
       style="font-size:40px;font-style:normal;font-weight:normal;line-height:125%;letter-spacing:0px;word-spacing:0px;fill:#ffffff;fill-opacity:1;stroke:none;font-family:Sans"
       id="text5199-7-6">
      <path
         d="m 284.67267,1022.9585 1.03271,0 0,0.249 -1.38867,0 0,-0.249 c 0.11231,-0.1162 0.26514,-0.272 0.4585,-0.4673 0.19433,-0.1963 0.3164,-0.3227 0.36621,-0.3794 0.0947,-0.1064 0.16064,-0.1963 0.19775,-0.2695 0.0381,-0.074 0.0571,-0.147 0.0571,-0.2183 0,-0.1162 -0.041,-0.2109 -0.12305,-0.2842 -0.0811,-0.073 -0.18701,-0.1098 -0.31787,-0.1098 -0.0928,0 -0.19092,0.016 -0.29443,0.048 -0.10254,0.032 -0.2124,0.081 -0.32959,0.1465 l 0,-0.2988 c 0.11914,-0.048 0.23047,-0.084 0.33398,-0.1084 0.10352,-0.024 0.19825,-0.037 0.28418,-0.037 0.22657,0 0.40723,0.057 0.542,0.1699 0.13476,0.1133 0.20214,0.2646 0.20214,0.4541 0,0.09 -0.0171,0.1753 -0.0513,0.2563 -0.0332,0.08 -0.0942,0.1748 -0.18311,0.2842 -0.0244,0.028 -0.10205,0.1104 -0.23291,0.2461 -0.13086,0.1348 -0.31543,0.3237 -0.55371,0.5669"
         style="font-size:3px;fill:#ffffff"
         id="path5751" />
    </g>
    <g
       style="font-size:7.50000000000000000px;font-style:normal;font-variant:normal;font-weight:bold;font-stretch:normal;line-height:125%;letter-spacing:0px;word-spacing:0px;fill:#ffffff;fill-opacity:1;stroke:none;font-family:Arial;-inkscape-font-specification:Arial Bold"
       id="text5230-6">
      <path
         d="m 379.30396,1037.6566 1.02539,0.1721 c -0.13184,0.376 -0.34058,0.6629 -0.62623,0.8606 -0.2832,0.1953 -0.63843,0.293 -1.06567,0.293 -0.67627,0 -1.17676,-0.2209 -1.50146,-0.6628 -0.25635,-0.354 -0.38453,-0.8008 -0.38453,-1.3404 0,-0.6445 0.16846,-1.1487 0.50538,-1.5124 0.33691,-0.3662 0.76293,-0.5493 1.27807,-0.5493 0.57861,0 1.03516,0.1916 1.36963,0.5749 0.33447,0.3809 0.49438,0.9656 0.47974,1.7542 l -2.57813,0 c 0.007,0.3051 0.0903,0.5432 0.24903,0.7141 0.15869,0.1684 0.35644,0.2527 0.59326,0.2527 0.16113,0 0.29663,-0.044 0.40649,-0.1319 0.10986,-0.088 0.19287,-0.2295 0.24903,-0.4248 m 0.0586,-1.04 c -0.007,-0.2979 -0.0842,-0.5237 -0.23071,-0.6775 -0.14649,-0.1563 -0.32471,-0.2344 -0.53467,-0.2344 -0.22461,0 -0.41016,0.082 -0.55664,0.2454 -0.14649,0.1636 -0.21851,0.3857 -0.21607,0.6665 l 1.53809,0"
         style="font-family:Arial;-inkscape-font-specification:Arial Bold;fill:#ffffff"
         id="path5754" />
      <path
         d="m 382.21167,1038.8944 -1.02905,0 0,-3.8892 0.95581,0 0,0.553 c 0.16357,-0.2612 0.31005,-0.4333 0.43945,-0.5163 0.13183,-0.083 0.28076,-0.1245 0.44678,-0.1245 0.23437,0 0.4602,0.065 0.67749,0.1941 l -0.31861,0.8972 c -0.17334,-0.1123 -0.33447,-0.1685 -0.48339,-0.1685 -0.14405,0 -0.26612,0.04 -0.36621,0.1209 -0.1001,0.078 -0.17945,0.2209 -0.23804,0.4284 -0.0562,0.2075 -0.0842,0.6421 -0.0842,1.3037 l 0,1.2012"
         style="font-family:Arial;-inkscape-font-specification:Arial Bold;fill:#ffffff"
         id="path5756" />
      <path
         d="m 384.1416,1034.4779 0,-0.9521 1.02905,0 0,0.9521 -1.02905,0 m 0,4.4165 0,-3.8892 1.02905,0 0,3.8892 -1.02905,0"
         style="font-family:Arial;-inkscape-font-specification:Arial Bold;fill:#ffffff"
         id="path5758" />
      <path
         d="m 385.72729,1038.8944 1.40259,-2.0032 -1.34399,-1.886 1.2561,0 0.68848,1.0694 0.7251,-1.0694 1.20849,0 -1.31836,1.8421 1.43921,2.0471 -1.26343,0 -0.79101,-1.2048 -0.79834,1.2048 -1.20484,0"
         style="font-family:Arial;-inkscape-font-specification:Arial Bold;fill:#ffffff"
         id="path5760" />
    </g>
    <g
       style="font-size:7px;font-style:normal;font-weight:bold;line-height:125%;letter-spacing:0px;word-spacing:0px;fill:#ffb400;fill-opacity:1;stroke:none;font-family:Sans;-inkscape-font-specification:Sans Bold"
       id="text5234-9">
      <path
         d="m 391.0658,1035.2405 -1.38086,-1.8697 1.29541,0 0.78271,1.1348 0.79297,-1.1348 1.29541,0 -1.38086,1.8628 1.44922,1.9654 -1.29541,0 -0.86133,-1.21 -0.85107,1.21 -1.29541,0 1.44922,-1.9585"
         style=""
         id="path5763" />
    </g>
    <g
       style="font-size:12px;font-style:normal;font-weight:bold;line-height:125%;letter-spacing:0px;word-spacing:0px;fill:#ffb400;fill-opacity:1;stroke:none;font-family:Sans;-inkscape-font-specification:Sans Bold"
       id="text5234-4-9">
      <path
         d="m 330.24805,1034.8973 3.03515,4.4649 -2.34961,0 -2.04492,-2.9883 -2.02734,2.9883 -2.36133,0 3.03516,-4.4649 -2.91797,-4.2832 2.35547,0 1.91601,2.8184 1.91016,-2.8184 2.36719,0 -2.91797,4.2832"
         style=""
         id="path5766" />
    </g>
    <g
       style="font-size:12px;font-style:normal;font-weight:bold;line-height:125%;letter-spacing:0px;word-spacing:0px;fill:#800080;fill-opacity:1;stroke:none;font-family:Sans;-inkscape-font-specification:Sans Bold"
       id="text5234-4-3-6">
      <path
         d="m 338.96484,1038.8973 3.03516,4.4649 -2.34961,0 -2.04492,-2.9883 -2.02735,2.9883 -2.36132,0 3.03515,-4.4649 -2.91797,-4.2832 2.35547,0 1.91602,2.8184 1.91015,-2.8184 2.36719,0 -2.91797,4.2832"
         style=""
         id="path5769" />
    </g>
    <path
       style="fill:#1e1e1e;fill-opacity:1;stroke:#141414;stroke-width:0.30000001;stroke-linecap:butt;stroke-linejoin:miter;stroke-miterlimit:4;stroke-opacity:1;stroke-dasharray:none"
       d="m 348.5,1020.3622 0,14.5 -15,0 0,-14.5 z"
       id="path4691-2-3-8"
       inkscape:connector-curvature="0"
       sodipodi:nodetypes="ccccc" />
    <path
       style="fill:#ffff32;fill-opacity:1;stroke:#000000;stroke-width:0.30000001;stroke-linecap:butt;stroke-linejoin:miter;stroke-miterlimit:4;stroke-opacity:1;stroke-dasharray:none"
       d="m 324.48839,1020.8622 0.0132,26.0132 -17.52641,0 0.0132,-26.0132 z"
       id="path4729-0"
       inkscape:connector-curvature="0"
       sodipodi:nodetypes="ccccc" />
    <path
       transform="scale(-1,1)"
       style="fill:#1e1e1e;fill-opacity:1;fill-rule:nonzero;stroke:#141414;stroke-width:0.21162312;stroke-linecap:round;stroke-linejoin:miter;stroke-miterlimit:4;stroke-opacity:1"
       d="m -322.87097,1022.968 5.77677,0 0,22.2884 -5.77677,0 z"
       id="rect4731-88" />
    <path
       transform="scale(-1,1)"
       style="fill:#1e1e1e;fill-opacity:1;fill-rule:nonzero;stroke:#141414;stroke-width:0.21162312;stroke-linecap:round;stroke-linejoin:miter;stroke-miterlimit:4;stroke-opacity:1"
       d="m -314.3826,1022.968 5.77677,0 0,22.2884 -5.77677,0 z"
       id="rect4731-8-5" />
    <path
       style="fill:none;stroke:#000000;stroke-width:0.30000001;stroke-linecap:butt;stroke-linejoin:miter;stroke-miterlimit:4;stroke-opacity:1;stroke-dasharray:none"
       d="m 315.7384,1020.872 0,26.0056"
       id="path4751-6"
       inkscape:connector-curvature="0" />
    <g
       style="font-size:2px;font-style:normal;font-weight:normal;line-height:125%;letter-spacing:0px;word-spacing:0px;fill:#000000;fill-opacity:1;stroke:none;font-family:Sans"
       id="text5280-0">
      <path
         d="m 371.38623,1040.618 0,1.1338 0.23828,0 c 0.20117,0 0.34831,-0.045 0.44141,-0.1367 0.0937,-0.091 0.14062,-0.235 0.14062,-0.4316 0,-0.1953 -0.0469,-0.3382 -0.14062,-0.4287 -0.0931,-0.091 -0.24024,-0.1368 -0.44141,-0.1368 l -0.23828,0 m -0.19727,-0.1621 0.40528,0 c 0.28255,0 0.48991,0.059 0.62207,0.1768 0.13216,0.1172 0.19824,0.3008 0.19824,0.5508 0,0.2513 -0.0664,0.4358 -0.19922,0.5537 -0.13281,0.1178 -0.33984,0.1767 -0.62109,0.1767 l -0.40528,0 0,-1.458"
         style=""
         id="path5774" />
      <path
         d="m 373.65576,1041.3221 0,0.088 -0.82617,0 c 0.008,0.1237 0.0449,0.2181 0.11133,0.2832 0.067,0.065 0.16015,0.097 0.27929,0.097 0.069,0 0.13575,-0.01 0.2002,-0.025 0.0651,-0.017 0.12956,-0.042 0.19336,-0.076 l 0,0.1699 c -0.0644,0.027 -0.13054,0.048 -0.19824,0.062 -0.0677,0.014 -0.1364,0.021 -0.20606,0.021 -0.17448,0 -0.31282,-0.051 -0.41504,-0.1524 -0.10156,-0.1015 -0.15234,-0.2389 -0.15234,-0.4121 0,-0.179 0.0482,-0.321 0.14453,-0.4258 0.097,-0.1054 0.22754,-0.1582 0.3916,-0.1582 0.14714,0 0.26335,0.048 0.34864,0.1426 0.0859,0.094 0.1289,0.223 0.1289,0.3857 m -0.17969,-0.053 c -0.001,-0.098 -0.029,-0.1767 -0.083,-0.2353 -0.0534,-0.059 -0.12435,-0.088 -0.21289,-0.088 -0.10027,0 -0.18067,0.028 -0.24122,0.085 -0.0599,0.057 -0.0944,0.1364 -0.10351,0.2393 l 0.64062,-0"
         style=""
         id="path5776" />
      <path
         d="m 374.58447,1040.9882 c -0.0202,-0.012 -0.0423,-0.02 -0.0664,-0.025 -0.0234,-0.01 -0.0495,-0.01 -0.0781,-0.01 -0.10156,0 -0.17969,0.033 -0.23437,0.1 -0.054,0.066 -0.0811,0.1605 -0.0811,0.2842 l 0,0.5761 -0.18066,0 0,-1.0937 0.18066,0 0,0.1699 c 0.0378,-0.066 0.0869,-0.1155 0.14746,-0.1474 0.0605,-0.033 0.13412,-0.049 0.22071,-0.049 0.0124,0 0.026,10e-4 0.041,0 0.015,0 0.0316,0 0.0498,0.01 l 9.7e-4,0.1846"
         style=""
         id="path5778" />
      <path
         d="m 375.41943,1040.4559 0.19727,0 0,0.5977 0.7168,0 0,-0.5977 0.19726,0 0,1.458 -0.19726,0 0,-0.6943 -0.7168,0 0,0.6943 -0.19727,0 0,-1.458"
         style=""
         id="path5780" />
      <path
         d="m 377.85107,1041.3221 0,0.088 -0.82617,0 c 0.008,0.1237 0.0449,0.2181 0.11133,0.2832 0.0671,0.065 0.16016,0.097 0.2793,0.097 0.069,0 0.13574,-0.01 0.20019,-0.025 0.0651,-0.017 0.12956,-0.042 0.19336,-0.076 l 0,0.1699 c -0.0645,0.027 -0.13053,0.048 -0.19824,0.062 -0.0677,0.014 -0.13639,0.021 -0.20605,0.021 -0.17448,0 -0.31283,-0.051 -0.41504,-0.1524 -0.10157,-0.1015 -0.15235,-0.2389 -0.15235,-0.4121 0,-0.179 0.0482,-0.321 0.14453,-0.4258 0.097,-0.1054 0.22754,-0.1582 0.39161,-0.1582 0.14713,0 0.26334,0.048 0.34863,0.1426 0.0859,0.094 0.1289,0.223 0.1289,0.3857 m -0.17968,-0.053 c -0.001,-0.098 -0.029,-0.1767 -0.083,-0.2353 -0.0534,-0.059 -0.12435,-0.088 -0.21289,-0.088 -0.10026,0 -0.18067,0.028 -0.24121,0.085 -0.0599,0.057 -0.0944,0.1364 -0.10352,0.2393 l 0.64063,-0"
         style=""
         id="path5782" />
      <path
         d="m 378.146,1040.8202 0.17968,0 0,1.0937 -0.17968,0 0,-1.0937 m 0,-0.4258 0.17968,0 0,0.2275 -0.17968,0 0,-0.2275"
         style=""
         id="path5784" />
      <path
         d="m 379.42041,1040.9862 0,-0.5918 0.17969,0 0,1.5195 -0.17969,0 0,-0.164 c -0.0378,0.065 -0.0856,0.1136 -0.14355,0.1455 -0.0573,0.031 -0.12631,0.047 -0.20704,0.047 -0.13216,0 -0.2399,-0.053 -0.32324,-0.1582 -0.0827,-0.1055 -0.12402,-0.2442 -0.12402,-0.4161 0,-0.1718 0.0413,-0.3105 0.12402,-0.416 0.0833,-0.1054 0.19108,-0.1582 0.32324,-0.1582 0.0807,0 0.14974,0.016 0.20704,0.048 0.0579,0.031 0.10579,0.079 0.14355,0.1445 m -0.6123,0.3818 c 0,0.1322 0.027,0.236 0.0811,0.3116 0.0547,0.075 0.12956,0.1123 0.22461,0.1123 0.0951,0 0.16992,-0.037 0.22461,-0.1123 0.0547,-0.076 0.082,-0.1794 0.082,-0.3116 0,-0.1321 -0.0273,-0.2356 -0.082,-0.3105 -0.0547,-0.075 -0.12956,-0.1133 -0.22461,-0.1133 -0.0951,0 -0.16992,0.038 -0.22461,0.1133 -0.054,0.075 -0.0811,0.1784 -0.0811,0.3105"
         style=""
         id="path5786" />
      <path
         d="m 380.90576,1041.3221 0,0.088 -0.82617,0 c 0.008,0.1237 0.0449,0.2181 0.11133,0.2832 0.067,0.065 0.16015,0.097 0.27929,0.097 0.069,0 0.13575,-0.01 0.2002,-0.025 0.0651,-0.017 0.12956,-0.042 0.19336,-0.076 l 0,0.1699 c -0.0644,0.027 -0.13054,0.048 -0.19824,0.062 -0.0677,0.014 -0.1364,0.021 -0.20606,0.021 -0.17448,0 -0.31282,-0.051 -0.41504,-0.1524 -0.10156,-0.1015 -0.15234,-0.2389 -0.15234,-0.4121 0,-0.179 0.0482,-0.321 0.14453,-0.4258 0.097,-0.1054 0.22754,-0.1582 0.3916,-0.1582 0.14714,0 0.26335,0.048 0.34864,0.1426 0.0859,0.094 0.1289,0.223 0.1289,0.3857 m -0.17969,-0.053 c -0.001,-0.098 -0.029,-0.1767 -0.083,-0.2353 -0.0534,-0.059 -0.12435,-0.088 -0.21289,-0.088 -0.10027,0 -0.18067,0.028 -0.24122,0.085 -0.0599,0.057 -0.0944,0.1364 -0.10351,0.2393 l 0.64062,-0"
         style=""
         id="path5788" />
      <path
         d="m 381.89795,1040.8524 0,0.1699 c -0.0508,-0.026 -0.10352,-0.046 -0.1582,-0.059 -0.0547,-0.013 -0.11133,-0.02 -0.16993,-0.02 -0.0892,0 -0.15625,0.014 -0.20117,0.041 -0.0443,0.027 -0.0664,0.068 -0.0664,0.1231 0,0.042 0.0159,0.074 0.0478,0.099 0.0319,0.023 0.096,0.046 0.19238,0.067 l 0.0615,0.014 c 0.12761,0.027 0.2181,0.066 0.27149,0.1162 0.054,0.05 0.0811,0.1188 0.0811,0.208 0,0.1015 -0.0404,0.1819 -0.12109,0.2412 -0.0801,0.059 -0.19043,0.089 -0.33106,0.089 -0.0586,0 -0.11979,-0.01 -0.18359,-0.018 -0.0632,-0.011 -0.12988,-0.028 -0.20019,-0.051 l 0,-0.1855 c 0.0664,0.034 0.13183,0.061 0.19628,0.078 0.0645,0.017 0.12826,0.025 0.19141,0.025 0.0846,0 0.14974,-0.014 0.19531,-0.043 0.0456,-0.029 0.0684,-0.07 0.0684,-0.123 0,-0.049 -0.0166,-0.086 -0.0498,-0.1124 -0.0326,-0.026 -0.10449,-0.051 -0.21582,-0.075 l -0.0625,-0.015 c -0.11133,-0.023 -0.19173,-0.059 -0.24121,-0.1074 -0.0495,-0.049 -0.0742,-0.1156 -0.0742,-0.2002 0,-0.1029 0.0365,-0.1823 0.10937,-0.2383 0.0729,-0.056 0.17643,-0.084 0.31055,-0.084 0.0664,0 0.12891,0 0.1875,0.015 0.0586,0.01 0.11263,0.024 0.16211,0.044"
         style=""
         id="path5790" />
      <path
         d="m 382.41748,1041.7499 0,0.5801 -0.18066,0 0,-1.5098 0.18066,0 0,0.166 c 0.0378,-0.065 0.0853,-0.1133 0.14258,-0.1445 0.0579,-0.032 0.12695,-0.048 0.20703,-0.048 0.13281,0 0.24056,0.053 0.32324,0.1582 0.0833,0.1055 0.125,0.2442 0.125,0.416 0,0.1719 -0.0417,0.3106 -0.125,0.4161 -0.0827,0.1054 -0.19043,0.1582 -0.32324,0.1582 -0.0801,0 -0.14909,-0.016 -0.20703,-0.047 -0.0573,-0.032 -0.10482,-0.08 -0.14258,-0.1455 m 0.61133,-0.3819 c 0,-0.1321 -0.0274,-0.2356 -0.082,-0.3105 -0.054,-0.075 -0.12858,-0.1133 -0.22364,-0.1133 -0.0951,0 -0.16992,0.038 -0.2246,0.1133 -0.054,0.075 -0.0811,0.1784 -0.0811,0.3105 0,0.1322 0.027,0.236 0.0811,0.3116 0.0547,0.075 0.12955,0.1123 0.2246,0.1123 0.0951,0 0.1696,-0.037 0.22364,-0.1123 0.0547,-0.076 0.082,-0.1794 0.082,-0.3116"
         style=""
         id="path5792" />
      <path
         d="m 384.14697,1040.9882 c -0.0202,-0.012 -0.0423,-0.02 -0.0664,-0.025 -0.0234,-0.01 -0.0495,-0.01 -0.0781,-0.01 -0.10156,0 -0.17969,0.033 -0.23437,0.1 -0.054,0.066 -0.0811,0.1605 -0.0811,0.2842 l 0,0.5761 -0.18066,0 0,-1.0937 0.18066,0 0,0.1699 c 0.0378,-0.066 0.0869,-0.1155 0.14746,-0.1474 0.0605,-0.033 0.13412,-0.049 0.22071,-0.049 0.0124,0 0.026,10e-4 0.041,0 0.015,0 0.0316,0 0.0498,0.01 l 9.7e-4,0.1846"
         style=""
         id="path5794" />
      <path
         d="m 384.3374,1040.8202 0.17969,0 0,1.0937 -0.17969,0 0,-1.0937 m 0,-0.4258 0.17969,0 0,0.2275 -0.17969,0 0,-0.2275"
         style=""
         id="path5796" />
      <path
         d="m 385.80127,1041.2538 0,0.6601 -0.17969,0 0,-0.6543 c 0,-0.1035 -0.0202,-0.1809 -0.0605,-0.2324 -0.0404,-0.051 -0.10092,-0.077 -0.18165,-0.077 -0.097,0 -0.1735,0.031 -0.22949,0.093 -0.056,0.062 -0.084,0.1462 -0.084,0.253 l 0,0.6181 -0.18067,0 0,-1.0937 0.18067,0 0,0.1699 c 0.043,-0.066 0.0934,-0.1149 0.15137,-0.1474 0.0586,-0.033 0.12597,-0.049 0.20214,-0.049 0.12565,0 0.22071,0.039 0.28516,0.1172 0.0645,0.077 0.0967,0.1917 0.0967,0.3428"
         style=""
         id="path5798" />
      <path
         d="m 386.33936,1040.5096 0,0.3106 0.37011,0 0,0.1396 -0.37011,0 0,0.5938 c 0,0.089 0.012,0.1465 0.0361,0.1719 0.0247,0.025 0.0745,0.038 0.14941,0.038 l 0.18457,0 0,0.1504 -0.18457,0 c -0.13867,0 -0.23437,-0.026 -0.28711,-0.077 -0.0527,-0.052 -0.0791,-0.1465 -0.0791,-0.2832 l 0,-0.5938 -0.13183,0 0,-0.1396 0.13183,0 0,-0.3106 0.18067,0"
         style=""
         id="path5800" />
      <path
         d="m 387.88232,1041.3221 0,0.088 -0.82617,0 c 0.008,0.1237 0.0449,0.2181 0.11133,0.2832 0.0671,0.065 0.16016,0.097 0.2793,0.097 0.069,0 0.13574,-0.01 0.20019,-0.025 0.0651,-0.017 0.12956,-0.042 0.19336,-0.076 l 0,0.1699 c -0.0645,0.027 -0.13053,0.048 -0.19824,0.062 -0.0677,0.014 -0.13639,0.021 -0.20605,0.021 -0.17448,0 -0.31283,-0.051 -0.41504,-0.1524 -0.10157,-0.1015 -0.15235,-0.2389 -0.15235,-0.4121 0,-0.179 0.0482,-0.321 0.14453,-0.4258 0.097,-0.1054 0.22754,-0.1582 0.39161,-0.1582 0.14713,0 0.26334,0.048 0.34863,0.1426 0.0859,0.094 0.1289,0.223 0.1289,0.3857 m -0.17968,-0.053 c -0.001,-0.098 -0.029,-0.1767 -0.083,-0.2353 -0.0534,-0.059 -0.12435,-0.088 -0.21289,-0.088 -0.10026,0 -0.18067,0.028 -0.24121,0.085 -0.0599,0.057 -0.0944,0.1364 -0.10352,0.2393 l 0.64063,-0"
         style=""
         id="path5802" />
      <path
         d="m 388.81104,1040.9882 c -0.0202,-0.012 -0.0423,-0.02 -0.0664,-0.025 -0.0234,-0.01 -0.0495,-0.01 -0.0781,-0.01 -0.10156,0 -0.17968,0.033 -0.23437,0.1 -0.054,0.066 -0.0811,0.1605 -0.0811,0.2842 l 0,0.5761 -0.18066,0 0,-1.0937 0.18066,0 0,0.1699 c 0.0378,-0.066 0.0869,-0.1155 0.14747,-0.1474 0.0605,-0.033 0.13411,-0.049 0.2207,-0.049 0.0124,0 0.026,10e-4 0.041,0 0.015,0 0.0316,0 0.0498,0.01 l 9.8e-4,0.1846"
         style=""
         id="path5804" />
    </g>
    <path
       transform="translate(0,1002.3622)"
       style="fill:#00000a;fill-opacity:1;fill-rule:nonzero;stroke:#3c3c3c;stroke-width:0.40000001;stroke-linecap:round;stroke-linejoin:miter;stroke-miterlimit:4;stroke-opacity:1"
       d="m 288.68442,20.012489 13.31558,0 0,2.487511 -13.31558,0 z"
       id="rect5446" />
    <g
       style="font-size:40px;font-style:normal;font-weight:normal;line-height:125%;letter-spacing:0px;word-spacing:0px;fill:#000000;fill-opacity:1;stroke:none;font-family:Sans"
       id="text5448">
      <path
         d="m 291.5625,1024.2059 0,0.1563 0.625,0 0,-0.1563 -0.625,0 m 0,0 c 0,0 0,-0.1041 0,-0.3125 l -0.15625,0 c 0,0 0,0.1042 0,0.3125 l 0.15625,0 m 0.625,0 0.15625,0 0,-0.4687 -0.15625,0 0,0.4687 m 0,-0.4687 0,-0.1563 -0.3125,0 0,0.1563 0.3125,0 m -0.3125,-0.1563 0,-0.1562 -0.3125,0 0,0.1562 0.3125,0 m -0.3125,-0.1562 0,-0.4688 -0.15625,0 0,0.4688 0.15625,0 m 0.625,-0.4688 c 0,0 0,0.1042 0,0.3125 l 0.15625,0 c 0,0 0,-0.1041 0,-0.3125 l -0.15625,0 m -0.625,0 0.625,0 0,-0.1562 -0.625,0 0,0.1562"
         style="font-size:2.5px;font-variant:normal;font-weight:500;font-stretch:normal;fill:#ff6600;font-family:unifont;-inkscape-font-specification:unifont Medium"
         id="path5808" />
      <path
         d="m 292.8125,1024.2059 0,0.1563 0.625,0 0,-0.1563 -0.625,0 m 0,0 c 0,0 0,-0.3125 0,-0.9375 l -0.15625,0 c 0,0 0,0.3125 0,0.9375 l 0.15625,0 m 0.625,0 0.15625,0 c 0,0 0,-0.3125 0,-0.9375 l -0.15625,0 c 0,0 0,0.3125 0,0.9375 m -0.625,-0.9375 0.625,0 0,-0.1562 -0.625,0 0,0.1562"
         style="font-size:2.5px;font-variant:normal;font-weight:500;font-stretch:normal;fill:#ff6600;font-family:unifont;-inkscape-font-specification:unifont Medium"
         id="path5810" />
      <path
         d="m 294.84375,1024.3622 0,-0.1563 -0.3125,0 0,-1.4062 -0.3125,0 0,0.1562 0.15625,0 c 0,0 0,0.4167 0,1.25 l -0.3125,0 0,0.1563 0.78125,0"
         style="font-size:2.5px;font-variant:normal;font-weight:500;font-stretch:normal;fill:#ff6600;font-family:unifont;-inkscape-font-specification:unifont Medium"
         id="path5812" />
      <path
         d="m 295.9375,1024.3622 0,-0.1563 -0.3125,0 0,0.1563 0.3125,0 m 0,-1.0938 0,-0.1562 -0.3125,0 c 0,0 0,-0.1042 0,-0.3125 l -0.15625,0 c 0,0 0,0.1042 0,0.3125 l -0.3125,0 0,0.1562 0.3125,0 c 0,0 0,0.3125 0,0.9375 l 0.15625,0 c 0,0 0,-0.3125 0,-0.9375 l 0.3125,0"
         style="font-size:2.5px;font-variant:normal;font-weight:500;font-stretch:normal;fill:#ff6600;font-family:unifont;-inkscape-font-specification:unifont Medium"
         id="path5814" />
      <path
         d="m 296.5625,1024.2059 0,0.1563 0.46875,0 0,-0.1563 -0.46875,0 m 0,0 0,-0.4687 -0.15625,0 0,0.4687 0.15625,0 m 0.625,0 0,0.1563 0.15625,0 0,-1.0938 -0.15625,0 c 0,0 0,0.1042 0,0.3125 l -0.625,0 0,0.1563 0.625,0 c 0,0 0,0.1041 0,0.3125 l -0.15625,0 0,0.1562 0.15625,0 m -0.625,-0.9375 -0.15625,0 0,0.1563 0.15625,0 0,-0.1563 m 0,0 0.625,0 0,-0.1562 -0.625,0 0,0.1562"
         style="font-size:2.5px;font-variant:normal;font-weight:500;font-stretch:normal;fill:#ff6600;font-family:unifont;-inkscape-font-specification:unifont Medium"
         id="path5816" />
      <path
         d="m 297.8125,1024.2059 0,0.1563 0.46875,0 0,-0.1563 -0.46875,0 m 0,0 0,-1.0937 -0.15625,0 0,1.0937 0.15625,0 m 0.625,0 0,0.1563 0.15625,0 c 0,0 0,-0.4167 0,-1.25 l -0.15625,0 c 0,0 0,0.3125 0,0.9375 l -0.15625,0 0,0.1562 0.15625,0"
         style="font-size:2.5px;font-variant:normal;font-weight:500;font-stretch:normal;fill:#ff6600;font-family:unifont;-inkscape-font-specification:unifont Medium"
         id="path5818" />
    </g>
    <g
       style="font-size:2px;font-style:normal;font-weight:normal;line-height:125%;letter-spacing:0px;word-spacing:0px;fill:#ffffff;fill-opacity:1;stroke:none;font-family:Sans"
       id="text5452">
      <path
         d="m 399.09216,1037.8279 0.19922,0 0.48487,0.9148 0,-0.9148 0.14355,0 0,1.0935 -0.19922,0 -0.48486,-0.9148 0,0.9148 -0.14356,0 0,-1.0935"
         style="font-size:1.5px"
         id="path5821" />
      <path
         d="m 400.20837,1038.1011 0.13477,0 0,0.8203 -0.13477,0 0,-0.8203 m 0,-0.3194 0.13477,0 0,0.1707 -0.13477,0 0,-0.1707"
         style="font-size:1.5px"
         id="path5823" />
      <path
         d="m 401.32605,1038.4775 0,0.066 -0.61963,0 c 0.006,0.093 0.0337,0.1635 0.0835,0.2124 0.0503,0.048 0.12011,0.072 0.20947,0.072 0.0518,0 0.10181,-0.01 0.15015,-0.019 0.0488,-0.013 0.0972,-0.032 0.14502,-0.057 l 0,0.1274 c -0.0483,0.021 -0.0979,0.036 -0.14869,0.047 -0.0508,0.011 -0.10229,0.016 -0.15454,0.016 -0.13086,0 -0.23462,-0.038 -0.31128,-0.1142 -0.0762,-0.076 -0.11425,-0.1792 -0.11425,-0.3091 0,-0.1343 0.0361,-0.2407 0.10839,-0.3193 0.0728,-0.079 0.17066,-0.1187 0.29371,-0.1187 0.11035,0 0.1975,0.036 0.26147,0.1069 0.0644,0.071 0.0967,0.1673 0.0967,0.2893 m -0.13477,-0.039 c -9.7e-4,-0.074 -0.0217,-0.1326 -0.0623,-0.1765 -0.04,-0.044 -0.0933,-0.066 -0.15967,-0.066 -0.0752,0 -0.1355,0.021 -0.18091,0.064 -0.0449,0.043 -0.0708,0.1023 -0.0776,0.1794 l 0.48046,-7e-4"
         style="font-size:1.5px"
         id="path5825" />
      <path
         d="m 402.08704,1038.2256 0,-0.4439 0.13476,0 0,1.1397 -0.13476,0 0,-0.1231 c -0.0283,0.049 -0.0642,0.085 -0.10767,0.1092 -0.043,0.023 -0.0947,0.035 -0.15527,0.035 -0.0991,0 -0.17994,-0.04 -0.24243,-0.1186 -0.062,-0.079 -0.093,-0.1831 -0.093,-0.312 0,-0.1289 0.031,-0.2329 0.093,-0.312 0.0625,-0.079 0.14331,-0.1187 0.24243,-0.1187 0.0605,0 0.1123,0.012 0.15527,0.036 0.0435,0.023 0.0793,0.06 0.10767,0.1084 m -0.45923,0.2864 c 0,0.099 0.0203,0.177 0.0608,0.2336 0.041,0.056 0.0972,0.084 0.16846,0.084 0.0713,0 0.12744,-0.028 0.16845,-0.084 0.041,-0.057 0.0615,-0.1345 0.0615,-0.2336 0,-0.099 -0.0205,-0.1768 -0.0615,-0.2329 -0.041,-0.057 -0.0972,-0.085 -0.16845,-0.085 -0.0713,0 -0.12745,0.028 -0.16846,0.085 -0.0405,0.056 -0.0608,0.1337 -0.0608,0.2329"
         style="font-size:1.5px"
         id="path5827" />
      <path
         d="m 403.20105,1038.4775 0,0.066 -0.61963,0 c 0.006,0.093 0.0337,0.1635 0.0835,0.2124 0.0503,0.048 0.12011,0.072 0.20947,0.072 0.0518,0 0.10181,-0.01 0.15015,-0.019 0.0488,-0.013 0.0972,-0.032 0.14502,-0.057 l 0,0.1274 c -0.0483,0.021 -0.0979,0.036 -0.14869,0.047 -0.0508,0.011 -0.10229,0.016 -0.15454,0.016 -0.13086,0 -0.23462,-0.038 -0.31128,-0.1142 -0.0762,-0.076 -0.11425,-0.1792 -0.11425,-0.3091 0,-0.1343 0.0361,-0.2407 0.10839,-0.3193 0.0728,-0.079 0.17066,-0.1187 0.29371,-0.1187 0.11035,0 0.1975,0.036 0.26147,0.1069 0.0644,0.071 0.0967,0.1673 0.0967,0.2893 m -0.13477,-0.039 c -9.7e-4,-0.074 -0.0217,-0.1326 -0.0623,-0.1765 -0.04,-0.044 -0.0933,-0.066 -0.15967,-0.066 -0.0752,0 -0.1355,0.021 -0.18091,0.064 -0.0449,0.043 -0.0708,0.1023 -0.0776,0.1794 l 0.48046,-7e-4"
         style="font-size:1.5px"
         id="path5829" />
      <path
         d="m 403.89758,1038.2271 c -0.0151,-0.01 -0.0317,-0.015 -0.0498,-0.019 -0.0176,-0 -0.0371,-0.01 -0.0586,-0.01 -0.0762,0 -0.13476,0.025 -0.17578,0.075 -0.0405,0.049 -0.0608,0.1204 -0.0608,0.2132 l 0,0.4321 -0.1355,0 0,-0.8203 0.1355,0 0,0.1274 c 0.0283,-0.05 0.0652,-0.087 0.1106,-0.1106 0.0454,-0.024 0.10058,-0.037 0.16553,-0.037 0.009,0 0.0195,7e-4 0.0308,0 0.0112,10e-4 0.0237,0 0.0373,0.01 l 7.3e-4,0.1385"
         style="font-size:1.5px"
         id="path5831" />
      <path
         d="m 404.56335,1038.1252 0,0.1275 c -0.0381,-0.02 -0.0776,-0.034 -0.11865,-0.044 -0.041,-0.01 -0.0835,-0.015 -0.12744,-0.015 -0.0669,0 -0.11719,0.01 -0.15088,0.031 -0.0332,0.021 -0.0498,0.051 -0.0498,0.092 0,0.031 0.012,0.056 0.0359,0.074 0.0239,0.018 0.072,0.034 0.14428,0.051 l 0.0462,0.01 c 0.0957,0.021 0.16357,0.05 0.20361,0.087 0.0405,0.037 0.0608,0.089 0.0608,0.156 0,0.076 -0.0303,0.1364 -0.0908,0.1809 -0.0601,0.044 -0.14282,0.067 -0.24829,0.067 -0.0439,0 -0.0899,-0 -0.1377,-0.013 -0.0474,-0.01 -0.0974,-0.021 -0.15014,-0.038 l 0,-0.1392 c 0.0498,0.026 0.0989,0.045 0.14721,0.059 0.0483,0.013 0.0962,0.019 0.14356,0.019 0.0635,0 0.1123,-0.011 0.14648,-0.032 0.0342,-0.022 0.0513,-0.053 0.0513,-0.092 0,-0.037 -0.0125,-0.065 -0.0374,-0.084 -0.0244,-0.02 -0.0784,-0.038 -0.16187,-0.056 l -0.0469,-0.011 c -0.0835,-0.018 -0.1438,-0.044 -0.18091,-0.081 -0.0371,-0.037 -0.0557,-0.087 -0.0557,-0.1501 0,-0.077 0.0273,-0.1367 0.082,-0.1787 0.0547,-0.042 0.13232,-0.063 0.23291,-0.063 0.0498,0 0.0967,0 0.14062,0.011 0.0439,0.01 0.0845,0.018 0.12158,0.033"
         style="font-size:1.5px"
         id="path5833" />
      <path
         d="m 405.19543,1038.509 c -0.10888,0 -0.18432,0.013 -0.22631,0.037 -0.042,0.025 -0.063,0.067 -0.063,0.1274 0,0.048 0.0156,0.086 0.0469,0.1143 0.0317,0.028 0.0747,0.042 0.12891,0.042 0.0747,0 0.13452,-0.026 0.17944,-0.079 0.0454,-0.053 0.0681,-0.1237 0.0681,-0.2116 l 0,-0.03 -0.13404,0 m 0.2688,-0.056 0,0.468 -0.13476,0 0,-0.1245 c -0.0308,0.05 -0.0691,0.087 -0.11499,0.1106 -0.0459,0.023 -0.10205,0.035 -0.16846,0.035 -0.084,0 -0.15088,-0.023 -0.20068,-0.07 -0.0493,-0.047 -0.074,-0.1106 -0.074,-0.1897 0,-0.092 0.0308,-0.1618 0.0923,-0.2087 0.062,-0.047 0.15429,-0.07 0.27685,-0.07 l 0.18897,0 0,-0.013 c 0,-0.062 -0.0205,-0.1099 -0.0615,-0.1436 -0.0405,-0.034 -0.0976,-0.051 -0.17138,-0.051 -0.0469,0 -0.0925,0.01 -0.13697,0.017 -0.0444,0.011 -0.0872,0.028 -0.12817,0.051 l 0,-0.1245 c 0.0493,-0.019 0.0972,-0.033 0.14356,-0.043 0.0464,-0.01 0.0915,-0.015 0.13549,-0.015 0.11866,0 0.20728,0.031 0.26587,0.092 0.0586,0.062 0.0879,0.1548 0.0879,0.2798"
         style="font-size:1.5px"
         id="path5835" />
      <path
         d="m 406.33289,1038.1326 0,0.1259 c -0.0381,-0.021 -0.0764,-0.037 -0.11499,-0.047 -0.0381,-0.011 -0.0767,-0.016 -0.11573,-0.016 -0.0874,0 -0.15527,0.028 -0.20361,0.083 -0.0483,0.055 -0.0725,0.1328 -0.0725,0.2329 0,0.1001 0.0242,0.1779 0.0725,0.2336 0.0483,0.055 0.11621,0.083 0.20361,0.083 0.0391,0 0.0776,-0.01 0.11573,-0.015 0.0386,-0.011 0.0769,-0.027 0.11499,-0.048 l 0,0.1245 c -0.0376,0.018 -0.0767,0.031 -0.11719,0.04 -0.04,0.01 -0.0828,0.013 -0.12818,0.013 -0.12353,0 -0.22168,-0.039 -0.29443,-0.1164 -0.0727,-0.078 -0.10913,-0.1824 -0.10913,-0.3142 0,-0.1338 0.0366,-0.2391 0.10986,-0.3157 0.0737,-0.077 0.17456,-0.115 0.30249,-0.115 0.0415,0 0.082,0 0.12159,0.013 0.0396,0.01 0.0779,0.021 0.11499,0.038"
         style="font-size:1.5px"
         id="path5837" />
      <path
         d="m 407.25061,1038.4263 0,0.4951 -0.13477,0 0,-0.4907 c 0,-0.078 -0.0151,-0.1358 -0.0454,-0.1744 -0.0303,-0.039 -0.0757,-0.058 -0.13623,-0.058 -0.0727,0 -0.13012,0.023 -0.17212,0.07 -0.042,0.046 -0.063,0.1096 -0.063,0.1897 l 0,0.4636 -0.1355,0 0,-1.1397 0.1355,0 0,0.4468 c 0.0322,-0.049 0.0701,-0.086 0.11352,-0.1106 0.0439,-0.024 0.0945,-0.037 0.15161,-0.037 0.0942,0 0.16553,0.029 0.21387,0.088 0.0483,0.058 0.0725,0.1438 0.0725,0.2571"
         style="font-size:1.5px"
         id="path5839" />
      <path
         d="m 408.04382,1038.1252 0,0.1275 c -0.0381,-0.02 -0.0776,-0.034 -0.11865,-0.044 -0.041,-0.01 -0.0835,-0.015 -0.12744,-0.015 -0.0669,0 -0.11719,0.01 -0.15088,0.031 -0.0332,0.021 -0.0498,0.051 -0.0498,0.092 0,0.031 0.012,0.056 0.0359,0.074 0.0239,0.018 0.072,0.034 0.14429,0.051 l 0.0461,0.01 c 0.0957,0.021 0.16358,0.05 0.20362,0.087 0.0405,0.037 0.0608,0.089 0.0608,0.156 0,0.076 -0.0303,0.1364 -0.0908,0.1809 -0.0601,0.044 -0.14282,0.067 -0.24829,0.067 -0.0439,0 -0.0898,-0 -0.1377,-0.013 -0.0474,-0.01 -0.0974,-0.021 -0.15014,-0.038 l 0,-0.1392 c 0.0498,0.026 0.0989,0.045 0.14721,0.059 0.0483,0.013 0.0962,0.019 0.14356,0.019 0.0635,0 0.1123,-0.011 0.14648,-0.032 0.0342,-0.022 0.0513,-0.053 0.0513,-0.092 0,-0.037 -0.0125,-0.065 -0.0374,-0.084 -0.0244,-0.02 -0.0784,-0.038 -0.16187,-0.056 l -0.0469,-0.011 c -0.0835,-0.018 -0.1438,-0.044 -0.18091,-0.081 -0.0371,-0.037 -0.0557,-0.087 -0.0557,-0.1501 0,-0.077 0.0273,-0.1367 0.082,-0.1787 0.0547,-0.042 0.13232,-0.063 0.23291,-0.063 0.0498,0 0.0967,0 0.14062,0.011 0.0439,0.01 0.0845,0.018 0.12158,0.033"
         style="font-size:1.5px"
         id="path5841" />
      <path
         d="m 409.00476,1038.4775 0,0.066 -0.61963,0 c 0.006,0.093 0.0337,0.1635 0.0835,0.2124 0.0503,0.048 0.12011,0.072 0.20947,0.072 0.0518,0 0.10181,-0.01 0.15015,-0.019 0.0488,-0.013 0.0972,-0.032 0.14502,-0.057 l 0,0.1274 c -0.0483,0.021 -0.0979,0.036 -0.14869,0.047 -0.0508,0.011 -0.10229,0.016 -0.15454,0.016 -0.13086,0 -0.23462,-0.038 -0.31128,-0.1142 -0.0762,-0.076 -0.11425,-0.1792 -0.11425,-0.3091 0,-0.1343 0.0361,-0.2407 0.1084,-0.3193 0.0727,-0.079 0.17065,-0.1187 0.2937,-0.1187 0.11035,0 0.19751,0.036 0.26147,0.1069 0.0645,0.071 0.0967,0.1673 0.0967,0.2893 m -0.13476,-0.039 c -9.8e-4,-0.074 -0.0217,-0.1326 -0.0623,-0.1765 -0.04,-0.044 -0.0933,-0.066 -0.15967,-0.066 -0.0752,0 -0.1355,0.021 -0.18091,0.064 -0.0449,0.043 -0.0708,0.1023 -0.0776,0.1794 l 0.48047,-7e-4"
         style="font-size:1.5px"
         id="path5843" />
      <path
         d="m 409.90784,1038.4263 0,0.4951 -0.13477,0 0,-0.4907 c 0,-0.078 -0.0151,-0.1358 -0.0454,-0.1744 -0.0303,-0.039 -0.0757,-0.058 -0.13623,-0.058 -0.0727,0 -0.13013,0.023 -0.17212,0.07 -0.042,0.046 -0.063,0.1096 -0.063,0.1897 l 0,0.4636 -0.13549,0 0,-0.8203 0.13549,0 0,0.1274 c 0.0322,-0.049 0.0701,-0.086 0.11353,-0.1106 0.0439,-0.024 0.0945,-0.037 0.15161,-0.037 0.0942,0 0.16553,0.029 0.21387,0.088 0.0483,0.058 0.0725,0.1438 0.0725,0.2571"
         style="font-size:1.5px"
         id="path5845" />
    </g>
    <path
       style="fill:#ff0000;stroke:none"
       d="m 396,34.5 2,0 0,2 c 0,0.5 -0.5,1 -1,1 -0.5,0 -1,-0.5 -1,-1 z"
       id="path5456"
       inkscape:connector-curvature="0"
       transform="translate(0,1002.3622)"
       sodipodi:nodetypes="cccccc" />
    <path
       style="fill:#141414;fill-opacity:1;fill-rule:nonzero;stroke:#000000;stroke-width:0.06857991;stroke-miterlimit:4;stroke-opacity:1"
       d="m 341.5401,1043.8466 6.98228,0 0,3.0311 -6.98228,0 z"
       id="rect5191-3" />
    <path
       transform="matrix(0.99999817,-0.00191309,0,1,0,0)"
       style="fill:#141414;fill-opacity:1;fill-rule:nonzero;stroke:#000000;stroke-width:0.08706723;stroke-miterlimit:4;stroke-opacity:1"
       inkscape:transform-center-x="21.838985"
       inkscape:transform-center-y="0.53872867"
       d="m 351.0899,1044.5802 11.32148,0 0,3.0131 -11.32148,0 z"
       id="rect5191-3-7" />
    <g
       style="font-size:3px;font-style:normal;font-variant:normal;font-weight:bold;font-stretch:normal;line-height:125%;letter-spacing:0px;word-spacing:0px;fill:#ffffff;fill-opacity:1;stroke:none;font-family:Symbola;-inkscape-font-specification:Symbola Bold"
       id="text5494">
      <path
         d="m 286.37598,1036.3451 c -0.003,0 -0.009,0.01 -0.0176,0.01 -0.007,0 -0.019,-0.01 -0.0366,-0.028 -0.002,0 -0.003,0 -0.003,0.01 -10e-6,0.011 0.002,0.029 0.006,0.054 0.004,0.025 0.006,0.045 0.006,0.059 -1e-5,0.1425 -0.0527,0.2651 -0.15821,0.3676 -0.10547,0.1026 -0.22949,0.1539 -0.37207,0.1539 -0.11523,0 -0.21826,-0.034 -0.30908,-0.1011 -0.0898,-0.068 -0.15381,-0.1577 -0.19189,-0.2681 -0.009,0 -0.0767,0.016 -0.20362,0.041 -0.0234,0.031 -0.0435,0.068 -0.0601,0.1114 0.004,0 0.0127,0 0.0264,0.01 0.008,0.01 0.0117,0.021 0.0117,0.043 0,0.022 -0.004,0.037 -0.0117,0.045 l -0.16406,0 c -0.0127,-0.015 -0.019,-0.03 -0.019,-0.045 -1e-5,-0.028 0.0107,-0.043 0.0322,-0.044 0.0215,-9e-4 0.043,-0 0.0645,-0 0.0244,-0.042 0.0444,-0.083 0.06,-0.1245 -0.0527,-0.04 -0.0791,-0.083 -0.0791,-0.1289 0,-0.022 0.0112,-0.048 0.0337,-0.078 l -0.48779,-0.4717 c -0.006,0 -0.009,0.01 -0.009,0.019 0,0.01 0.0249,0.042 0.0747,0.104 0.0527,0.065 0.083,0.1103 0.0908,0.1348 0.0234,0.076 0.0351,0.165 0.0352,0.2666 -1e-5,0.06 -0.006,0.1015 -0.019,0.1259 l -0.0205,0 c -0.0303,0.064 -0.0605,0.1177 -0.0908,0.1597 -0.0439,0.061 -0.10449,0.1094 -0.18164,0.1465 -0.0772,0.037 -0.15429,0.056 -0.23144,0.056 -0.14551,0 -0.27002,-0.052 -0.37354,-0.1568 -0.10351,-0.1045 -0.15527,-0.2295 -0.15527,-0.375 0,-0.1396 0.0449,-0.2578 0.13477,-0.3545 0.0869,-0.094 0.20068,-0.1518 0.3413,-0.1743 0,-0.01 -0.006,-0.016 -0.0176,-0.026 0.0117,-0.02 0.0259,-0.031 0.0425,-0.031 0.0293,0 0.0747,0.01 0.13623,0.023 0.0664,0.018 0.10839,0.034 0.12597,0.05 l 0.0147,0 0.16699,-0.4321 c -0.0488,-0.03 -0.0732,-0.081 -0.0732,-0.1509 0,-0.026 0.0264,-0.066 0.0791,-0.1186 0.003,-0 0.008,-0 0.0161,-0 0.0146,0 0.0283,0.01 0.041,0.022 0.0137,0.014 0.0205,0.028 0.0205,0.043 0,0.012 -0.008,0.027 -0.0234,0.047 -0.0127,0.015 -0.0249,0.029 -0.0366,0.044 -0.005,0.01 -0.007,0.011 -0.007,0.013 0,0.017 0.0127,0.028 0.0381,0.034 0.0293,0.01 0.0464,0.015 0.0513,0.023 9.8e-4,0.014 0.001,0.024 0.001,0.029 0,0.019 -0.0127,0.059 -0.0381,0.1201 -0.0176,0.043 -0.0352,0.086 -0.0527,0.1275 l 0.59033,0.4643 c 0.005,0 0.009,-0 0.0117,-0.01 0.003,-0.01 0.0249,-0.061 0.0659,-0.1612 0.0517,-0.1269 0.0933,-0.227 0.12451,-0.3003 -0.006,-0.01 -0.0317,-0.024 -0.0776,-0.045 -0.041,-0.02 -0.0615,-0.036 -0.0615,-0.05 0,-0.031 0.0351,-0.047 0.10547,-0.047 0.0322,0 0.0767,0 0.1333,0.01 0.0635,0 0.10791,0.01 0.1333,0.01 0.0195,0.02 0.0293,0.039 0.0293,0.059 -10e-6,0.024 -0.0195,0.045 -0.0586,0.065 -0.0332,0.017 -0.063,0.025 -0.0893,0.025 -0.005,0 -0.0122,-10e-4 -0.022,-0 -0.01,-0 -0.0171,-0 -0.022,-0 -0.006,0 -0.0171,0.019 -0.0337,0.056 -0.0166,0.036 -0.0249,0.059 -0.0249,0.067 0,0.015 0.0273,0.058 0.082,0.1289 l 0.0264,-0.018 c 0.0635,-0.04 0.11327,-0.066 0.14941,-0.078 0.043,-0.015 0.10156,-0.022 0.17578,-0.022 0.0684,0 0.1167,0 0.14502,0.013 0.0615,0.019 0.12646,0.057 0.19482,0.1128 0.0645,0.053 0.11475,0.1079 0.15088,0.1655 0.0264,0.041 0.0449,0.086 0.0557,0.1348 9.7e-4,0.013 0.004,0.032 0.009,0.057 m -0.17432,-0.1055 c -0.0957,-0.1631 -0.22852,-0.2446 -0.39844,-0.2446 -0.0996,0 -0.18066,0.025 -0.24316,0.076 0.0459,0.065 0.11718,0.1513 0.21387,0.2578 0.0117,10e-4 0.0283,0 0.0498,0.01 0,0 0.02,0.012 0.0601,0.037 l 0.31787,-0.1348 m -0.49072,0.1 -0.20948,-0.2314 c -0.0713,0.067 -0.11865,0.1504 -0.14209,0.249 l 0.35157,-0.018 m 0.53613,0.1 c 0,-0.029 -0.008,-0.08 -0.0234,-0.1523 -0.085,0.029 -0.19385,0.073 -0.32666,0.1304 -0.0137,0.013 -0.0361,0.03 -0.0674,0.051 -0.0107,0 -0.0518,0.016 -0.12305,0.034 -0.0713,0.018 -0.17969,0.043 -0.32519,0.076 0.0244,0.092 0.0767,0.166 0.15674,0.2227 0.0771,0.055 0.16454,0.082 0.2622,0.082 0.12402,0 0.22949,-0.043 0.31641,-0.1289 0.0869,-0.086 0.13037,-0.1909 0.13037,-0.315 m -0.82031,-0.4409 c -0.0274,-0.034 -0.0508,-0.061 -0.0703,-0.081 l -0.15821,0.4511 0.0659,0 c 0,-0.1162 0.0542,-0.2397 0.1626,-0.3706 m 0.33398,0.4483 c -0.008,-0.01 -0.0117,-0.017 -0.0117,-0.026 l -0.38965,0.069 c 0.004,0.02 0.006,0.037 0.006,0.053 l 0.39551,-0.095 m -0.61377,-0.1773 -0.59033,-0.4526 c -0.003,0.012 -0.009,0.029 -0.0176,0.051 l 0.51416,0.5126 c 0.0312,10e-4 0.0532,-0.011 0.0659,-0.035 0.01,-0.025 0.019,-0.051 0.0278,-0.076 m 0.13916,0.2886 c -0.004,-0.012 -0.006,-0.028 -0.006,-0.048 l -0.0366,0 c -0.004,0.012 -0.01,0.03 -0.0176,0.054 0.0274,-0 0.0474,-0.01 0.0601,-0.01 m -0.6914,-0.126 c 0,-0.1201 -0.0532,-0.2319 -0.15967,-0.3354 -0.0147,0.04 -0.0405,0.098 -0.0776,0.1743 -0.0439,0.036 -0.0913,0.087 -0.14209,0.1538 l 0.37207,0.067 c 0,-0.01 9.8e-4,-0.016 0.003,-0.029 0.003,-0.014 0.004,-0.024 0.004,-0.031 m -0.2461,-0.3896 c -0.0303,-0.011 -0.0767,-0.026 -0.13916,-0.045 l -0.0498,0.3442 c 0.042,-0.029 0.0786,-0.075 0.10986,-0.1377 0.0264,-0.054 0.0527,-0.1074 0.0791,-0.1611 m 0.23438,0.4951 c -0.0713,-0.011 -0.17823,-0.027 -0.3208,-0.05 -0.042,-0 -0.0942,-0.01 -0.15674,-0.019 -0.0127,-0 -0.019,-0.016 -0.019,-0.037 0,-0.01 0.003,-0.021 0.0102,-0.035 0.008,-0.015 0.0127,-0.024 0.0147,-0.029 0.007,-0.024 0.0171,-0.085 0.0308,-0.1831 0.0147,-0.098 0.022,-0.1602 0.022,-0.1875 l -0.0806,0 c -0.0293,0 -0.0728,0.014 -0.13038,0.042 -0.0752,0.037 -0.13623,0.092 -0.1831,0.1656 -0.0459,0.072 -0.0688,0.1504 -0.0688,0.2343 0,0.125 0.0435,0.2305 0.13037,0.3164 0.0879,0.085 0.19434,0.1275 0.31934,0.1275 0.1084,0 0.20117,-0.031 0.27832,-0.092 0.0772,-0.062 0.12842,-0.147 0.15381,-0.2534"
         style="fill:#ffffff;font-family:Symbola;-inkscape-font-specification:Symbola Bold"
         id="path5850" />
    </g>
    <path
       style="fill:#333333;stroke:#333333;stroke-width:1;stroke-linecap:butt;stroke-linejoin:miter;stroke-miterlimit:4;stroke-opacity:1;stroke-dasharray:none"
       d="m 212,1043.3622 0,-29.5"
       id="path4681-6"
       inkscape:connector-curvature="0"
       sodipodi:nodetypes="cc" />
  </g>
</svg>
