<?xml version="1.0" encoding="UTF-8" standalone="no"?>
<!-- Created with Inkscape (http://www.inkscape.org/) -->

<svg
   xmlns:dc="http://purl.org/dc/elements/1.1/"
   xmlns:cc="http://creativecommons.org/ns#"
   xmlns:rdf="http://www.w3.org/1999/02/22-rdf-syntax-ns#"
   xmlns:svg="http://www.w3.org/2000/svg"
   xmlns="http://www.w3.org/2000/svg"
   version="1.1"
   width="420"
   height="50"
   id="svg4153">
  <defs
     id="defs4155" />
  <metadata
     id="metadata4158">
    <rdf:RDF>
      <cc:Work
         rdf:about="">
        <dc:format>image/svg+xml</dc:format>
        <dc:type
           rdf:resource="http://purl.org/dc/dcmitype/StillImage" />
        <dc:title></dc:title>
      </cc:Work>
    </rdf:RDF>
  </metadata>
  <g
     transform="translate(0,-1002.3622)"
     id="layer1">
    <path
       d="m 174.5,45 11.5,2.5 48,0.5 11.5,-3 -2.5,-4 -66,0 z"
       transform="translate(0,1002.3622)"
       id="path5050"
       style="fill:#181010;fill-opacity:1;stroke:none" />
    <path
       d="m 4,37.5 -3.5,0.5 0,4 2,0 0,-1 z"
       transform="translate(0,1002.3622)"
       id="path4925"
       style="fill:#302020;fill-opacity:1;stroke:#302020;stroke-width:0.1;stroke-linecap:butt;stroke-linejoin:miter;stroke-miterlimit:4;stroke-opacity:1;stroke-dasharray:none" />
    <path
       d="m 22.5,45 5,2.5 19,0 4.5,-2.5 -2.5,-4 -24,0 z"
       transform="translate(0,1002.3622)"
       id="path4923"
       style="fill:#181010;fill-opacity:1;stroke:none" />
    <path
       d="m 48.5,41 2.5,4 123.5,0 2.5,-4 -64,0 0,3.5 -17.5,0 0,-3.5 z"
       transform="translate(0,1002.3622)"
       id="path4899"
       style="fill:#808080;fill-opacity:1;stroke:#808080;stroke-width:0.2;stroke-linecap:butt;stroke-linejoin:miter;stroke-miterlimit:4;stroke-opacity:1;stroke-dasharray:none" />
    <path
       d="M 2.5,41 C 1,44 5,45 10,45 l 12.5,0 2,-4 z"
       transform="translate(0,1002.3622)"
       id="path4897"
       style="fill:#808080;fill-opacity:1;stroke:#808080;stroke-width:0.2;stroke-linecap:butt;stroke-linejoin:miter;stroke-miterlimit:4;stroke-opacity:1;stroke-dasharray:none" />
    <path
       d="m 210,1013.8622 0,29.5"
       id="path4673"
       style="fill:#333333;stroke:#333333;stroke-width:1;stroke-linecap:butt;stroke-linejoin:miter;stroke-miterlimit:4;stroke-opacity:1;stroke-dasharray:none" />
    <path
       d="m 211,1013.8622 0,29.5"
       id="path4675"
       style="fill:#1a1a1a;stroke:#1a1a1a;stroke-width:1;stroke-linecap:butt;stroke-linejoin:miter;stroke-miterlimit:4;stroke-opacity:1;stroke-dasharray:none" />
    <path
       d="m 212,1043.3622 0,-29.5"
       id="path4677"
       style="fill:#333333;stroke:#333333;stroke-width:1;stroke-linecap:butt;stroke-linejoin:miter;stroke-miterlimit:4;stroke-opacity:1;stroke-dasharray:none" />
    <path
       d="m 209,1013.8622 0,29.5"
       id="path4679"
       style="fill:#1a1a1a;stroke:#1a1a1a;stroke-width:1;stroke-linecap:butt;stroke-linejoin:miter;stroke-miterlimit:4;stroke-opacity:1;stroke-dasharray:none" />
    <path
       d="m 208,1043.3622 0,-29.5"
       id="path4681"
       style="fill:#333333;stroke:#333333;stroke-width:1;stroke-linecap:butt;stroke-linejoin:miter;stroke-miterlimit:4;stroke-opacity:1;stroke-dasharray:none" />
    <path
       d="M 30,11.5 C 12.5,12.5 12.5,20 2.5,41 l 93,0 0,-22.5 17.5,0 0,22.5 94.5,0 0,-29.5 z"
       transform="translate(0,1002.3622)"
       id="path4685"
       style="fill:none;stroke:#000000;stroke-width:0.2;stroke-linecap:butt;stroke-linejoin:miter;stroke-miterlimit:4;stroke-opacity:1;stroke-dasharray:none" />
    <path
       d="M 207.5,17.5 30,17.5 c -3.5,0 -6,0 -7.5,0.5 -7,5.5 -10,14.5 -15,23 l 88,0 0,-22.5 17.5,0 0,22.5 94.5,0 z"
       transform="translate(0,1002.3622)"
       id="path4687"
       style="fill:none;stroke:#000000;stroke-width:0.2;stroke-linecap:butt;stroke-linejoin:miter;stroke-miterlimit:4;stroke-opacity:1;stroke-dasharray:none" />
    <path
       d="m 30,11.5 0,6"
       transform="translate(0,1002.3622)"
       id="path4689"
       style="fill:none;stroke:#000000;stroke-width:0.1;stroke-linecap:butt;stroke-linejoin:miter;stroke-miterlimit:4;stroke-opacity:1;stroke-dasharray:none" />
    <path
       d="m 30.490481,1020.3532 0,14.519 17.509519,-0.01 0,-14.5 z"
       id="path4691"
       style="fill:#1e1e1e;fill-opacity:1;stroke:#141414;stroke-width:0.28096119;stroke-linecap:butt;stroke-linejoin:miter;stroke-miterlimit:4;stroke-opacity:1;stroke-dasharray:none" />
    <path
       d="m 95.511606,1020.8622 -0.0132,26.0132 17.526414,0 -0.0132,-26.0132 z"
       id="path4729"
       style="fill:none;stroke:#000000;stroke-width:0.30000001;stroke-linecap:butt;stroke-linejoin:miter;stroke-miterlimit:4;stroke-opacity:1;stroke-dasharray:none" />
    <rect
       width="5.7767677"
       height="22.288412"
       x="97.129028"
       y="1022.968"
       id="rect4731"
       style="fill:#1e1e1e;fill-opacity:1;fill-rule:nonzero;stroke:#141414;stroke-width:0.21162312;stroke-linecap:round;stroke-linejoin:miter;stroke-miterlimit:4;stroke-opacity:1;stroke-dasharray:none" />
    <rect
       width="5.7767677"
       height="22.288412"
       x="105.61742"
       y="1022.968"
       id="rect4731-8"
       style="fill:#1e1e1e;fill-opacity:1;fill-rule:nonzero;stroke:#141414;stroke-width:0.21162312;stroke-linecap:round;stroke-linejoin:miter;stroke-miterlimit:4;stroke-opacity:1;stroke-dasharray:none" />
    <path
       d="m 104.2616,1020.872 0,26.0056"
       id="path4751"
       style="fill:none;stroke:#000000;stroke-width:0.30000001;stroke-linecap:butt;stroke-linejoin:miter;stroke-miterlimit:4;stroke-opacity:1;stroke-dasharray:none" />
    <path
       d="m 51,1020.3622 0,14.5 17.5,0 0,-14.5 z"
       id="path4691-2"
       style="fill:#1e1e1e;fill-opacity:1;stroke:#141414;stroke-width:0.28096119;stroke-linecap:butt;stroke-linejoin:miter;stroke-miterlimit:4;stroke-opacity:1;stroke-dasharray:none" />
    <path
       d="m 71.5,1020.3622 0,14.5 15,0 0,-14.5 z"
       id="path4691-2-3"
       style="fill:#1e1e1e;fill-opacity:1;stroke:#141414;stroke-width:0.28096119;stroke-linecap:butt;stroke-linejoin:miter;stroke-miterlimit:4;stroke-opacity:1;stroke-dasharray:none" />
    <path
       d="m 116,1020.3622 0,17 17.5,0 0,-17 z"
       id="path4691-2-3-2"
       style="fill:#1e1e1e;fill-opacity:1;stroke:#141414;stroke-width:0.28096119;stroke-linecap:butt;stroke-linejoin:miter;stroke-miterlimit:4;stroke-opacity:1;stroke-dasharray:none" />
    <path
       d="m 136.5,1020.3622 0,17 17.5,0 0,-17 z"
       id="path4691-2-3-2-2"
       style="fill:#1e1e1e;fill-opacity:1;stroke:#141414;stroke-width:0.28096119;stroke-linecap:butt;stroke-linejoin:miter;stroke-miterlimit:4;stroke-opacity:1;stroke-dasharray:none" />
    <path
       d="m 157,1020.3622 0,17 17.5,0 0,-17 z"
       id="path4691-2-3-2-5"
       style="fill:#1e1e1e;fill-opacity:1;stroke:#141414;stroke-width:0.28096119;stroke-linecap:butt;stroke-linejoin:miter;stroke-miterlimit:4;stroke-opacity:1;stroke-dasharray:none" />
    <path
       d="m 183.5,1020.3622 0,14.5 15,0 0,-14.5 z"
       id="path4691-2-3-3"
       style="fill:#1e1e1e;fill-opacity:1;stroke:#141414;stroke-width:0.28096119;stroke-linecap:butt;stroke-linejoin:miter;stroke-miterlimit:4;stroke-opacity:1;stroke-dasharray:none" />
    <path
       d="m 25,32.5 -13,0 C 15,27 17.5,21.5 22.5,18 l 2.5,0 z"
       transform="translate(0,1002.3622)"
       id="path4893"
       style="fill:#1e1e1e;fill-opacity:1;stroke:#000000;stroke-width:0.2;stroke-linecap:butt;stroke-linejoin:miter;stroke-miterlimit:4;stroke-opacity:1;stroke-dasharray:none" />
    <path
       d="m 30,11.5 c 7.5,-1 14,-1 15,-1 l 162,0 0.5,1 z"
       transform="translate(0,1002.3622)"
       id="path4901"
       style="fill:#999999;stroke:#999999;stroke-width:0.2;stroke-linecap:butt;stroke-linejoin:miter;stroke-miterlimit:4;stroke-opacity:1;stroke-dasharray:none" />
    <path
       d="m 30,46.25 a 3.75,3.75 0 1 1 -0.0015,-0.10696"
       transform="translate(1.1,1002.2622)"
       id="path4903"
       style="fill:#392727;fill-opacity:1;fill-rule:nonzero;stroke:#392727;stroke-width:0.2;stroke-linecap:round;stroke-linejoin:miter;stroke-miterlimit:4;stroke-opacity:1;stroke-dasharray:none" />
    <path
       d="m 30,46.25 a 3.75,3.75 0 1 1 -0.0015,-0.10696"
       transform="translate(19.9,1002.2622)"
       id="path4903-6"
       style="fill:#392727;fill-opacity:1;fill-rule:nonzero;stroke:#392727;stroke-width:0.2;stroke-linecap:round;stroke-linejoin:miter;stroke-miterlimit:4;stroke-opacity:1;stroke-dasharray:none" />
    <path
       d="m 416,1039.8622 3.5,0.5 0,4 -2,0 0,-1 z"
       id="path4925-2"
       style="fill:#302020;fill-opacity:1;stroke:#302020;stroke-width:0.1;stroke-linecap:butt;stroke-linejoin:miter;stroke-miterlimit:4;stroke-opacity:1;stroke-dasharray:none" />
    <path
       d="m 397.5,1047.3622 -5,2.5 -19,0 -4.5,-2.5 2.5,-4 24,0 z"
       id="path4923-2"
       style="fill:#181010;fill-opacity:1;stroke:none" />
    <path
       d="m 371.5,1043.3622 -2.5,4 -123.5,0 -2.5,-4 64,0 0,3.5 17.5,0 0,-3.5 z"
       id="path4899-5"
       style="fill:#808080;fill-opacity:1;stroke:#808080;stroke-width:0.2;stroke-linecap:butt;stroke-linejoin:miter;stroke-miterlimit:4;stroke-opacity:1;stroke-dasharray:none" />
    <path
       d="m 417.5,1043.3622 c 1.5,3 -2.5,4 -7.5,4 l -12.5,0 -2,-4 z"
       id="path4897-7"
       style="fill:#808080;fill-opacity:1;stroke:#808080;stroke-width:0.2;stroke-linecap:butt;stroke-linejoin:miter;stroke-miterlimit:4;stroke-opacity:1;stroke-dasharray:none" />
    <path
       d="m 210,1013.8622 0,29.5"
       id="path4673-0"
       style="fill:#333333;stroke:#333333;stroke-width:1;stroke-linecap:butt;stroke-linejoin:miter;stroke-miterlimit:4;stroke-opacity:1;stroke-dasharray:none" />
    <path
       d="m 209,1013.8622 0,29.5"
       id="path4675-8"
       style="fill:#1a1a1a;stroke:#1a1a1a;stroke-width:1;stroke-linecap:butt;stroke-linejoin:miter;stroke-miterlimit:4;stroke-opacity:1;stroke-dasharray:none" />
    <path
       d="m 208,1043.3622 0,-29.5"
       id="path4677-7"
       style="fill:#333333;stroke:#333333;stroke-width:1;stroke-linecap:butt;stroke-linejoin:miter;stroke-miterlimit:4;stroke-opacity:1;stroke-dasharray:none" />
    <path
       d="m 211,1013.8622 0,29.5"
       id="path4679-7"
       style="fill:#1a1a1a;stroke:#1a1a1a;stroke-width:1;stroke-linecap:butt;stroke-linejoin:miter;stroke-miterlimit:4;stroke-opacity:1;stroke-dasharray:none" />
    <path
       d="m 212,1043.3622 0,-29.5"
       id="path4681-6"
       style="fill:#333333;stroke:#333333;stroke-width:1;stroke-linecap:butt;stroke-linejoin:miter;stroke-miterlimit:4;stroke-opacity:1;stroke-dasharray:none" />
    <path
       d="m 390,1013.8622 c 17.5,1 17.5,8.5 27.5,29.5 l -93,0 0,-22.5 -17.5,0 0,22.5 -94.5,0 0,-29.5 z"
       id="path4685-2"
       style="fill:none;stroke:#000000;stroke-width:0.2;stroke-linecap:butt;stroke-linejoin:miter;stroke-miterlimit:4;stroke-opacity:1;stroke-dasharray:none" />
    <path
       d="m 212.5,1019.8622 177.5,0 c 3.5,0 6,0 7.5,0.5 7,5.5 10,14.5 15,23 l -88,0 0,-22.5 -17.5,0 0,22.5 -94.5,0 z"
       id="path4687-4"
       style="fill:none;stroke:#000000;stroke-width:0.2;stroke-linecap:butt;stroke-linejoin:miter;stroke-miterlimit:4;stroke-opacity:1;stroke-dasharray:none" />
    <path
       d="m 390,1013.8622 0,6"
       id="path4689-8"
       style="fill:none;stroke:#000000;stroke-width:0.1;stroke-linecap:butt;stroke-linejoin:miter;stroke-miterlimit:4;stroke-opacity:1;stroke-dasharray:none" />
    <path
       d="m 389.50952,1020.3532 0,14.519 -17.50952,-0.01 0,-14.5 z"
       id="path4691-7"
       style="fill:#1e1e1e;fill-opacity:1;stroke:#141414;stroke-width:0.28096119;stroke-linecap:butt;stroke-linejoin:miter;stroke-miterlimit:4;stroke-opacity:1;stroke-dasharray:none" />
    <path
       d="m 324.48839,1020.8622 0.0132,26.0132 -17.52641,0 0.0132,-26.0132 z"
       id="path4729-7"
       style="fill:none;stroke:#000000;stroke-width:0.30000001;stroke-linecap:butt;stroke-linejoin:miter;stroke-miterlimit:4;stroke-opacity:1;stroke-dasharray:none" />
    <rect
       width="5.7767677"
       height="22.288412"
       x="-322.87097"
       y="1022.968"
       transform="scale(-1,1)"
       id="rect4731-0"
       style="fill:#1e1e1e;fill-opacity:1;fill-rule:nonzero;stroke:#141414;stroke-width:0.21162312;stroke-linecap:round;stroke-linejoin:miter;stroke-miterlimit:4;stroke-opacity:1;stroke-dasharray:none" />
    <rect
       width="5.7767677"
       height="22.288412"
       x="-314.3826"
       y="1022.968"
       transform="scale(-1,1)"
       id="rect4731-8-4"
       style="fill:#1e1e1e;fill-opacity:1;fill-rule:nonzero;stroke:#141414;stroke-width:0.21162312;stroke-linecap:round;stroke-linejoin:miter;stroke-miterlimit:4;stroke-opacity:1;stroke-dasharray:none" />
    <path
       d="m 315.7384,1020.872 0,26.0056"
       id="path4751-2"
       style="fill:none;stroke:#000000;stroke-width:0.30000001;stroke-linecap:butt;stroke-linejoin:miter;stroke-miterlimit:4;stroke-opacity:1;stroke-dasharray:none" />
    <path
       d="m 369,1020.3622 0,14.5 -17.5,0 0,-14.5 z"
       id="path4691-2-8"
       style="fill:#1e1e1e;fill-opacity:1;stroke:#141414;stroke-width:0.28096119;stroke-linecap:butt;stroke-linejoin:miter;stroke-miterlimit:4;stroke-opacity:1;stroke-dasharray:none" />
    <path
       d="m 348.5,1020.3622 0,14.5 -15,0 0,-14.5 z"
       id="path4691-2-3-0"
       style="fill:#1e1e1e;fill-opacity:1;stroke:#141414;stroke-width:0.28096119;stroke-linecap:butt;stroke-linejoin:miter;stroke-miterlimit:4;stroke-opacity:1;stroke-dasharray:none" />
    <path
       d="m 304,1020.3622 0,17 -17.5,0 0,-17 z"
       id="path4691-2-3-2-8"
       style="fill:#1e1e1e;fill-opacity:1;stroke:#141414;stroke-width:0.28096119;stroke-linecap:butt;stroke-linejoin:miter;stroke-miterlimit:4;stroke-opacity:1;stroke-dasharray:none" />
    <path
       d="m 283.5,1020.3622 0,17 -17.5,0 0,-17 z"
       id="path4691-2-3-2-2-6"
       style="fill:#1e1e1e;fill-opacity:1;stroke:#141414;stroke-width:0.28096119;stroke-linecap:butt;stroke-linejoin:miter;stroke-miterlimit:4;stroke-opacity:1;stroke-dasharray:none" />
    <path
       d="m 263,1020.3622 0,17 -17.5,0 0,-17 z"
       id="path4691-2-3-2-5-8"
       style="fill:#1e1e1e;fill-opacity:1;stroke:#141414;stroke-width:0.28096119;stroke-linecap:butt;stroke-linejoin:miter;stroke-miterlimit:4;stroke-opacity:1;stroke-dasharray:none" />
    <path
       d="m 236.5,1020.3622 0,14.5 -15,0 0,-14.5 z"
       id="path4691-2-3-3-9"
       style="fill:#1e1e1e;fill-opacity:1;stroke:#141414;stroke-width:0.28096119;stroke-linecap:butt;stroke-linejoin:miter;stroke-miterlimit:4;stroke-opacity:1;stroke-dasharray:none" />
    <path
       d="m 395,1034.8622 13,0 c -3,-5.5 -5.5,-11 -10.5,-14.5 l -2.5,0 z"
       id="path4893-3"
       style="fill:#1e1e1e;fill-opacity:1;stroke:#000000;stroke-width:0.2;stroke-linecap:butt;stroke-linejoin:miter;stroke-miterlimit:4;stroke-opacity:1;stroke-dasharray:none" />
    <path
       d="m 390,1013.8622 c -7.5,-1 -14,-1 -15,-1 l -162,0 -0.5,1 z"
       id="path4901-0"
       style="fill:#999999;stroke:#999999;stroke-width:0.2;stroke-linecap:butt;stroke-linejoin:miter;stroke-miterlimit:4;stroke-opacity:1;stroke-dasharray:none" />
    <path
       d="m 30,46.25 a 3.75,3.75 0 1 1 -0.0015,-0.10696"
       transform="matrix(-1,0,0,1,418.9,1002.2622)"
       id="path4903-5"
       style="fill:#392727;fill-opacity:1;fill-rule:nonzero;stroke:#392727;stroke-width:0.2;stroke-linecap:round;stroke-linejoin:miter;stroke-miterlimit:4;stroke-opacity:1;stroke-dasharray:none" />
    <path
       d="m 30,46.25 a 3.75,3.75 0 1 1 -0.0015,-0.10696"
       transform="matrix(-1,0,0,1,400.1,1002.2622)"
       id="path4903-6-5"
       style="fill:#392727;fill-opacity:1;fill-rule:nonzero;stroke:#392727;stroke-width:0.2;stroke-linecap:round;stroke-linejoin:miter;stroke-miterlimit:4;stroke-opacity:1;stroke-dasharray:none" />
    <path
       d="m 30,46.25 a 3.75,3.75 0 1 1 -0.0015,-0.10696"
       transform="matrix(-1,0,0,1,256.25,1002.2622)"
       id="path4903-6-5-3"
       style="fill:#392727;fill-opacity:1;fill-rule:nonzero;stroke:#392727;stroke-width:0.2;stroke-linecap:round;stroke-linejoin:miter;stroke-miterlimit:4;stroke-opacity:1;stroke-dasharray:none" />
    <path
       d="m 30,46.25 a 3.75,3.75 0 1 1 -0.0015,-0.10696"
       transform="matrix(-1,0,0,1,216.25,1002.2622)"
       id="path4903-6-5-0"
       style="fill:#392727;fill-opacity:1;fill-rule:nonzero;stroke:#392727;stroke-width:0.2;stroke-linecap:round;stroke-linejoin:miter;stroke-miterlimit:4;stroke-opacity:1;stroke-dasharray:none" />
    <path
       d="m 227.07463,1047.2876 -6.82986,0 -5.12238,2.6492 -10.24478,0 -5.12239,-2.6492 -6.82985,0"
       id="path5048"
       style="fill:none;stroke:#392727;stroke-width:0.85074168px;stroke-linecap:butt;stroke-linejoin:miter;stroke-opacity:1" />
    <rect
       width="23.5"
       height="2.6000173"
       x="348.5"
       y="1011.3622"
       id="rect5052"
       style="fill:#666666;fill-opacity:1;fill-rule:nonzero;stroke:none" />
    <rect
       width="23.5"
       height="2.6000173"
       x="263"
       y="1011.2622"
       id="rect5052-1"
       style="fill:#666666;fill-opacity:1;fill-rule:nonzero;stroke:none" />
    <rect
       width="23.5"
       height="2.6000173"
       x="133.5"
       y="1011.2622"
       id="rect5052-9"
       style="fill:#666666;fill-opacity:1;fill-rule:nonzero;stroke:none" />
    <rect
       width="23.5"
       height="2.6000173"
       x="48"
       y="1011.2622"
       id="rect5052-4"
       style="fill:#666666;fill-opacity:1;fill-rule:nonzero;stroke:none" />
    <path
       d="m 213,1013.8622 3,0 -1.5,-2 -1.5,0 z"
       id="path5088"
       style="fill:#666666;stroke:none" />
    <path
       d="m 207,1013.8622 -3,0 1.5,-2 1.5,0 z"
       id="path5088-5"
       style="fill:#666666;stroke:none" />
    <path
       d="m 207,10 6,0"
       transform="translate(0,1002.3622)"
       id="path5108"
       style="fill:#666666;stroke:#666666;stroke-width:0.5;stroke-linecap:butt;stroke-linejoin:miter;stroke-miterlimit:4;stroke-opacity:1;stroke-dasharray:none" />
  </g>
</svg>
