<?xml version="1.0" encoding="UTF-8" standalone="no"?>
<!-- Created with Inkscape (http://www.inkscape.org/) -->

<svg
   xmlns:dc="http://purl.org/dc/elements/1.1/"
   xmlns:cc="http://creativecommons.org/ns#"
   xmlns:rdf="http://www.w3.org/1999/02/22-rdf-syntax-ns#"
   xmlns:svg="http://www.w3.org/2000/svg"
   xmlns="http://www.w3.org/2000/svg"
   version="1.1"
   width="904"
   height="50"
   id="svg2">
  <defs
     id="defs4" />
  <metadata
     id="metadata7">
    <rdf:RDF>
      <cc:Work
         rdf:about="">
        <dc:format>image/svg+xml</dc:format>
        <dc:type
           rdf:resource="http://purl.org/dc/dcmitype/StillImage" />
        <dc:title></dc:title>
      </cc:Work>
    </rdf:RDF>
  </metadata>
  <g
     transform="translate(0,-1002.3622)"
     id="layer1">
    <path
       d="m 27.5,47.5 8,-7"
       transform="translate(0,1002.3622)"
       style="fill:none;stroke:#000000;stroke-width:1px;stroke-linecap:butt;stroke-linejoin:miter;stroke-opacity:1" />
    <path
       d="m 142.5,12.5 2.5,0 0,4 -2.5,0 z"
       transform="translate(0,1002.3622)"
       id="rect4018"
       style="fill:#1a1a1a;fill-opacity:1;fill-rule:nonzero;stroke:none" />
    <path
       d="m 364,1050.3622 4,0 1.5,1 11,0 1.5,-0.5 4,0 0,-8.5 -22.5,0 z"
       id="path3109-7"
       style="fill:#1a1a1a;stroke:none" />
    <path
       d="m 523,1050.6122 4,0 1.5,1 11,0 1.5,-0.5 4,0 0,-8.5 -22.5,0 z"
       id="path3109-7-6"
       style="fill:#1a1a1a;stroke:none" />
    <path
       d="m 526,1049.6122 15.5,0 3,-4 11,0.75 0,-2.5 -11.5,0.25 -3.5,4.5 -13.5,0 -4.5,-5 -6,0.25 1,2.5 5,-0.25 z"
       id="path4004-3-4-7"
       style="fill:#000000;stroke:none" />
    <path
       d="m 682.5,1050.3622 4,0 1.5,1 11,0 1.5,-0.5 4,0 0,-8.5 -22.5,0 z"
       id="path3109-7-6-7"
       style="fill:#1a1a1a;stroke:none" />
    <path
       d="m 685.5,1049.3622 15.5,0 3,-4 11,0.75 0,-2.5 -11.5,0.25 -3.5,4.5 -13.5,0 -4.5,-5 -6,0.25 1,2.5 5,-0.25 z"
       id="path4004-3-4-7-2"
       style="fill:#000000;stroke:none" />
    <path
       d="m 50.5,47.75 c 0,1.794925 -1.567003,3.25 -3.5,3.25 -1.932997,0 -3.5,-1.455075 -3.5,-3.25 0,-1.794925 1.567003,-3.25 3.5,-3.25 1.932997,0 3.5,1.455075 3.5,3.25 z"
       transform="translate(632.5,1000.8622)"
       style="fill:#28170b;fill-opacity:1;fill-rule:nonzero;stroke:#413025;stroke-width:1;stroke-linecap:round;stroke-linejoin:miter;stroke-miterlimit:4;stroke-opacity:1" />
    <path
       d="m 50.5,47.75 c 0,1.794925 -1.567003,3.25 -3.5,3.25 -1.932997,0 -3.5,-1.455075 -3.5,-3.25 0,-1.794925 1.567003,-3.25 3.5,-3.25 1.932997,0 3.5,1.455075 3.5,3.25 z"
       transform="translate(659.5,1000.8622)"
       style="fill:#28170b;fill-opacity:1;fill-rule:nonzero;stroke:#413025;stroke-width:1;stroke-linecap:round;stroke-linejoin:miter;stroke-miterlimit:4;stroke-opacity:1" />
    <path
       d="m 235.5,11.5 4.5,0 0,5 -4.5,0 z"
       transform="translate(0,1002.3622)"
       id="rect3935"
       style="fill:#1a1a1a;fill-opacity:1;fill-rule:nonzero;stroke:none" />
    <path
       d="m 204.5,48 4,0 1.5,1 11,0 1.5,-0.5 4,0 0,-8.5 -22.5,0 z"
       transform="translate(0,1002.3622)"
       id="path3109"
       style="fill:#1a1a1a;stroke:none" />
    <path
       d="m 207.5,1049.3622 15.5,0 3,-4 11,0.75 0,-2.5 -11.5,0.25 -3.5,4.5 -13.5,0 -4.5,-5 -6,0.25 1,2.5 5,-0.25 z"
       id="path4004-3"
       style="fill:#000000;stroke:none" />
    <path
       d="m 50.5,47.75 c 0,1.794925 -1.567003,3.25 -3.5,3.25 -1.932997,0 -3.5,-1.455075 -3.5,-3.25 0,-1.794925 1.567003,-3.25 3.5,-3.25 1.932997,0 3.5,1.455075 3.5,3.25 z"
       transform="translate(154.5,1000.8622)"
       style="fill:#28170b;fill-opacity:1;fill-rule:nonzero;stroke:#413025;stroke-width:1;stroke-linecap:round;stroke-linejoin:miter;stroke-miterlimit:4;stroke-opacity:1" />
    <path
       d="m 174,9.5 16,0 -1,7 -9.5,0 -0.5,-5 -5,-1.5 z"
       transform="translate(0,1002.3622)"
       id="path4020"
       style="fill:#1a1a1a;stroke:none" />
    <path
       d="m 135,12 8.5,0 0,4.5 -8.5,0 z"
       transform="translate(0,1002.3622)"
       id="rect4016"
       style="fill:#1a1a1a;fill-opacity:1;fill-rule:nonzero;stroke:none" />
    <path
       d="m 78,44.5 -4.5,0 -7.5,3.5 -18,0 -5.5,1.5 -1.5,0 -3,-1 -12,0 0,-11 49,0 z"
       transform="translate(0,1002.3622)"
       id="path4012"
       style="fill:#1a1a1a;stroke:none" />
    <path
       d="m 13.5,26.5 -1.5,0 c 3.081451,-4.669545 6,-9 10.5,-13 z"
       transform="translate(0,1002.3622)"
       id="path3797"
       style="fill:#b3b3b3;stroke:none" />
    <path
       d="m 9,36.5 14,0 C 23,34 29.5,20 33,9.5 27.5,9.5 26.5,10 22.5,13 l 0,0.5 c -4.5,5 -5.5,8.5 -9,13 l -1.5,0 c -3.5,4 -4,8.5 -3,10 z"
       transform="translate(0,1002.3622)"
       style="fill:#f2f2f2;stroke:#000000;stroke-width:0.2;stroke-linecap:butt;stroke-linejoin:miter;stroke-miterlimit:4;stroke-opacity:1;stroke-dasharray:none" />
    <path
       d="m 29,19 c -1.5,0 -4.5,0.5 -6.5,1.5 -1.5,1.5 -2.5,3 -3.5,5 l 0,0.5 c 0,0.5 0.5,1 1,1 l 6,0 z"
       transform="translate(0,1002.3622)"
       style="fill:#000000;fill-opacity:1;stroke:#000000;stroke-width:0.1;stroke-linecap:butt;stroke-linejoin:miter;stroke-miterlimit:4;stroke-opacity:1;stroke-dasharray:none" />
    <path
       d="m 25.5,26.5 1,-2.5 -6,0 -0.5,1 0,1 0.5,0.5 z"
       transform="translate(0,1002.3622)"
       id="path3793"
       style="fill:#333333;stroke:none" />
    <path
       d="m 13.083519,1040.597 -2.5,0 0,-1.5 -3.9999997,0 0,5 1,-0.5 2.9999997,-0.5 2.5,0 z"
       id="path3803"
       style="fill:#333333;stroke:none" />
    <path
       d="M 23,36.5 24,42 C 15,42 12.5,42 9.5,41.5 l 0,0 c -0.5,-4 0,-1 -0.5,-5 z"
       transform="translate(0,1002.3622)"
       style="fill:#f2f2f2;stroke:#000000;stroke-width:0.2;stroke-linecap:butt;stroke-linejoin:miter;stroke-miterlimit:4;stroke-opacity:1;stroke-dasharray:none" />
    <path
       d="m 6.1460193,1040.597 0,0.5 -1,0 0,1.5 1,0 0,0.5 1,0 0,-2.5 z"
       id="path3805"
       style="fill:#000000;stroke:none" />
    <path
       d="m 6.1460193,1041.597 -2.5,0"
       style="fill:none;stroke:#000000;stroke-width:0.30000001;stroke-linecap:butt;stroke-linejoin:miter;stroke-miterlimit:4;stroke-opacity:1;stroke-dasharray:none" />
    <path
       d="m 7.1460193,1042.097 -3,2.5"
       style="fill:none;stroke:#000000;stroke-width:0.5;stroke-linecap:butt;stroke-linejoin:miter;stroke-miterlimit:4;stroke-opacity:1;stroke-dasharray:none" />
    <path
       d="m 8.5,38 1,0 0,2.5 -1,0 z"
       transform="translate(0,1002.3622)"
       id="rect3811"
       style="fill:#000000;fill-opacity:1;fill-rule:nonzero;stroke:none" />
    <path
       d="m 33,9.5 1.5,0 c 2.640711,0.530479 5.324193,0.732419 8,1 l 82.5,0 7.5,1.5 2.5,0 0,4.5 -104.5,0 z"
       transform="translate(0,1002.3622)"
       style="fill:#f2f2f2;stroke:#000000;stroke-width:0.2;stroke-linecap:butt;stroke-linejoin:miter;stroke-miterlimit:4;stroke-opacity:1;stroke-dasharray:none" />
    <path
       d="m 67.5,16.5 0,-6"
       transform="translate(0,1002.3622)"
       style="fill:none;stroke:#000000;stroke-width:0.1;stroke-linecap:butt;stroke-linejoin:miter;stroke-miterlimit:4;stroke-opacity:1;stroke-dasharray:none" />
    <path
       d="m 77,16.5 0,-6"
       transform="translate(0,1002.3622)"
       style="fill:none;stroke:#000000;stroke-width:0.1;stroke-linecap:butt;stroke-linejoin:miter;stroke-miterlimit:4;stroke-opacity:1;stroke-dasharray:none" />
    <path
       d="m 63.5,10.5 1,-1 0,-1 62,0 8,3.5 -2,0 -7.5,-1.5 z"
       transform="translate(0,1002.3622)"
       id="path3821"
       style="fill:#1a1a1a;stroke:none" />
    <path
       d="m 51,47.75 c 0,2.071068 -1.790861,3.75 -4,3.75 -2.209139,0 -4,-1.678932 -4,-3.75 0,-2.071068 1.790861,-3.75 4,-3.75 2.209139,0 4,1.678932 4,3.75 z"
       transform="translate(-2.5,1000.3622)"
       style="fill:#28170b;fill-opacity:1;fill-rule:nonzero;stroke:#413025;stroke-width:1;stroke-linecap:round;stroke-linejoin:miter;stroke-miterlimit:4;stroke-opacity:1" />
    <path
       d="m 51,47.75 c 0,2.071068 -1.790861,3.75 -4,3.75 -2.209139,0 -4,-1.678932 -4,-3.75 0,-2.071068 1.790861,-3.75 4,-3.75 2.209139,0 4,1.678932 4,3.75 z"
       transform="translate(22.5,1000.3622)"
       style="fill:#28170b;fill-opacity:1;fill-rule:nonzero;stroke:#413025;stroke-width:1;stroke-linecap:round;stroke-linejoin:miter;stroke-miterlimit:4;stroke-opacity:1" />
    <path
       d="m 52.5,48 8.5,0 4.5,-5 12,0 0,-2.5 -12.5,0 -5,5 -6,0 -5,-5 -10.5,0 1,2.5 8.5,0 z"
       transform="translate(0,1002.3622)"
       id="path4004"
       style="fill:#000000;stroke:none" />
    <path
       d="m 22,44.5 c 0.747524,1.472594 0.195498,2.109003 -0.5,3.5 l 6,0 0.5,-3.5 -1,-1 0.5,-1 -2,0 0,1 -1.5,1 z"
       transform="translate(0,1002.3622)"
       style="fill:#000000;stroke:#000000;stroke-width:1px;stroke-linecap:butt;stroke-linejoin:miter;stroke-opacity:1" />
    <path
       d="m 144,9.5 29,0 0,7 -29,0 z"
       transform="translate(0,1002.3622)"
       id="rect4014"
       style="fill:#1a1a1a;fill-opacity:1;fill-rule:nonzero;stroke:none" />
    <path
       d="m 135,16.5 75.5,0 0,-0.5 3.5,0 0,25.5 -1.5,0 0,2.5 -13,0 -0.5,0.5 -121.5,0 L 73,42 73,41.5 c -2,-1 -6,-2 -8,-2 l -16,0 c -2.5,0 -6.5,1 -9,3 l -16,0 0,-0.5 -1,-5.5 7.5,-20 z"
       transform="translate(0,1002.3622)"
       style="fill:#f2f2f2;fill-opacity:1;stroke:#000000;stroke-width:0.2;stroke-linecap:butt;stroke-linejoin:miter;stroke-miterlimit:4;stroke-opacity:1;stroke-dasharray:none" />
    <path
       d="m 83.16037,1012.9631 -4.11572,6.9584 c -0.41711,0.4652 -0.8264,0.4144 -1.2435,-0.051 l -4.12501,-6.9142 z"
       id="path5189-5-03-0"
       style="fill:#d40000;stroke:none" />
    <path
       d="m 32.75,1021.1122 3.5,0 c 0.554,0 1,0.446 1,1 l 0,15.5 c 0,0.554 -0.446,1 -1,1 l -3.5,0 c -0.554,0 -1,-0.446 -1,-1 l 0,-15.5 c 0,-0.554 0.446,-1 1,-1 z"
       style="fill:#f2f2f2;fill-opacity:1;fill-rule:nonzero;stroke:#000000;stroke-width:0.30000001;stroke-miterlimit:4;stroke-opacity:1" />
    <path
       d="m 33.75,1022.6122 1.5,0 c 0.554,0 1,0.446 1,1 l 0,4.5 c 0,0.554 -0.446,1 -1,1 l -1.5,0 c -0.554,0 -1,-0.446 -1,-1 l 0,-4.5 c 0,-0.554 0.446,-1 1,-1 z"
       style="fill:#666666;fill-opacity:1;fill-rule:nonzero;stroke:#000000;stroke-width:0.40000001;stroke-linecap:round;stroke-linejoin:miter;stroke-miterlimit:4;stroke-opacity:1" />
    <path
       d="m 38.5,24.5 0,13.5"
       transform="translate(0,1002.3622)"
       style="fill:none;stroke:#646464;stroke-width:0.5;stroke-linecap:butt;stroke-linejoin:miter;stroke-miterlimit:4;stroke-opacity:1;stroke-dasharray:none" />
    <path
       d="m 30.5,38 0,-13.5"
       transform="translate(0,1002.3622)"
       style="fill:none;stroke:#646464;stroke-width:0.5;stroke-linecap:butt;stroke-linejoin:miter;stroke-miterlimit:4;stroke-opacity:1;stroke-dasharray:none" />
    <path
       d="m 32.5,38.5 4,0 0,1 -4,0 z"
       transform="translate(0,1002.3622)"
       id="rect3833"
       style="fill:#cccccc;fill-opacity:1;fill-rule:nonzero;stroke:none" />
    <path
       d="m 32.5,1043.8622 4,0 0,1 -4,0 z"
       id="rect3833-8"
       style="fill:#333333;fill-opacity:1;fill-rule:nonzero;stroke:none" />
    <path
       d="m 65.39733,1022.9135 10.42754,0 c 0.59222,-0.02 1.61311,0.766 1.2513,1.3958 l -5.83942,9.7712 c -0.41709,0.4652 -0.83419,0.4652 -1.2513,0 l -5.83942,-9.7712 c -0.37796,-0.6425 0.6667,-1.4018 1.2513,-1.3958 z"
       id="path5189-5-2-9"
       style="fill:#d40000;stroke:none" />
    <path
       d="m 83.25395,1036.2501 -10.42754,0 c -0.59222,0.02 -1.61311,-0.766 -1.2513,-1.3958 l 5.83941,-9.7712 c 0.4171,-0.4652 0.8342,-0.4652 1.25131,0 l 5.83942,9.7712 c 0.37796,0.6425 -0.66671,1.4019 -1.2513,1.3958 z"
       id="path5189-6-3"
       style="fill:#d40000;stroke:none" />
    <path
       d="m 68.41074,1036.2368 -10.42754,0 c -0.59222,0.02 -1.61311,-0.766 -1.2513,-1.3958 l 5.83942,-9.7711 c 0.4171,-0.4653 0.83419,-0.4653 1.2513,0 l 5.83942,9.7711 c 0.37796,0.6425 -0.6667,1.4018 -1.2513,1.3958 z"
       id="path5189-7-7"
       style="fill:#333333;stroke:none" />
    <path
       d="m 67,23 12,0 c 0.554,0 1,0.446 1,1 l 0,7 c 0,0.554 -0.446,1 -1,1 l -12,0 c -0.554,0 -1,-0.446 -1,-1 l 0,-7 c 0,-0.554 0.446,-1 1,-1 z"
       transform="translate(0,1002.3622)"
       style="fill:#999999;fill-opacity:1;fill-rule:nonzero;stroke:#000000;stroke-width:0.40000001;stroke-miterlimit:4;stroke-opacity:1" />
    <path
       d="m 85,1025.3622 12,0 c 0.554,0 1,0.446 1,1 l 0,7 c 0,0.554 -0.446,1 -1,1 l -12,0 c -0.554,0 -1,-0.446 -1,-1 l 0,-7 c 0,-0.554 0.446,-1 1,-1 z"
       style="fill:#999999;fill-opacity:1;fill-rule:nonzero;stroke:#000000;stroke-width:0.40000001;stroke-miterlimit:4;stroke-opacity:1" />
    <path
       d="m 122.5,1027.8622 12,0 c 0.554,0 1,0.446 1,1 l 0,7 c 0,0.554 -0.446,1 -1,1 l -12,0 c -0.554,0 -1,-0.446 -1,-1 l 0,-7 c 0,-0.554 0.446,-1 1,-1 z"
       style="fill:#999999;fill-opacity:1;fill-rule:nonzero;stroke:#000000;stroke-width:0.40000001;stroke-miterlimit:4;stroke-opacity:1" />
    <path
       d="m 140.5,1027.8622 12,0 c 0.554,0 1,0.446 1,1 l 0,7 c 0,0.554 -0.446,1 -1,1 l -12,0 c -0.554,0 -1,-0.446 -1,-1 l 0,-7 c 0,-0.554 0.446,-1 1,-1 z"
       style="fill:#999999;fill-opacity:1;fill-rule:nonzero;stroke:#000000;stroke-width:0.40000001;stroke-miterlimit:4;stroke-opacity:1" />
    <path
       d="m 158.5,1027.8622 12,0 c 0.554,0 1,0.446 1,1 l 0,7 c 0,0.554 -0.446,1 -1,1 l -12,0 c -0.554,0 -1,-0.446 -1,-1 l 0,-7 c 0,-0.554 0.446,-1 1,-1 z"
       style="fill:#999999;fill-opacity:1;fill-rule:nonzero;stroke:#000000;stroke-width:0.40000001;stroke-miterlimit:4;stroke-opacity:1" />
    <path
       d="m 176,1027.8622 12,0 c 0.554,0 1,0.446 1,1 l 0,7 c 0,0.554 -0.446,1 -1,1 l -12,0 c -0.554,0 -1,-0.446 -1,-1 l 0,-7 c 0,-0.554 0.446,-1 1,-1 z"
       style="fill:#999999;fill-opacity:1;fill-rule:nonzero;stroke:#000000;stroke-width:0.40000001;stroke-miterlimit:4;stroke-opacity:1" />
    <path
       d="m 194,1027.8622 12,0 c 0.554,0 1,0.446 1,1 l 0,5 c 0,0.554 -0.446,1 -1,1 l -12,0 c -0.554,0 -1,-0.446 -1,-1 l 0,-5 c 0,-0.554 0.446,-1 1,-1 z"
       style="fill:#999999;fill-opacity:1;fill-rule:nonzero;stroke:#000000;stroke-width:0.40000001;stroke-miterlimit:4;stroke-opacity:1" />
    <path
       d="m 104,42.5 13.5,0 0,0.5 -13.5,0 z"
       transform="translate(0,1002.3622)"
       id="rect3970"
       style="fill:#999999;fill-opacity:1;stroke:none" />
    <path
       d="m -120,1012.8622 20,0 0,34 -20,0 z"
       transform="scale(-1,1)"
       id="rect5346-1"
       style="fill:#333333;fill-opacity:1;fill-rule:nonzero;stroke:none" />
    <path
       d="m 103.5,21 14.5,0 c 0.277,0 0.5,0.223 0.5,0.5 l 0,20.5 c 0,0.277 -0.223,0.5 -0.5,0.5 l -14.5,0 c -0.277,0 -0.5,-0.223 -0.5,-0.5 l 0,-20.5 c 0,-0.277 0.223,-0.5 0.5,-0.5 z"
       transform="translate(0,1002.3622)"
       style="fill:#f2f2f2;stroke:#000000;stroke-width:0.5;stroke-linecap:round;stroke-linejoin:miter;stroke-miterlimit:4;stroke-opacity:1" />
    <path
       d="m 110.75,1045.1065 0,-21.9886"
       style="fill:none;stroke:#000000;stroke-width:0.50564992;stroke-linecap:butt;stroke-linejoin:miter;stroke-miterlimit:4;stroke-opacity:1;stroke-dasharray:none" />
    <path
       d="m 106,1025.3622 1.5,0 c 0.554,0 1,0.446 1,1 l 0,11.5 c 0,0.554 -0.446,1 -1,1 l -1.5,0 c -0.554,0 -1,-0.446 -1,-1 l 0,-11.5 c 0,-0.554 0.446,-1 1,-1 z"
       style="fill:#999999;fill-opacity:1;fill-rule:nonzero;stroke:#000000;stroke-width:0.40000001;stroke-miterlimit:4;stroke-opacity:1" />
    <path
       d="m 114,1025.3622 1.5,0 c 0.554,0 1,0.446 1,1 l 0,11.5 c 0,0.554 -0.446,1 -1,1 l -1.5,0 c -0.554,0 -1,-0.446 -1,-1 l 0,-11.5 c 0,-0.554 0.446,-1 1,-1 z"
       style="fill:#999999;fill-opacity:1;fill-rule:nonzero;stroke:#000000;stroke-width:0.40000001;stroke-miterlimit:4;stroke-opacity:1" />
    <path
       d="m 114.5,33.75 c 0,6.82e-4 0,0.0014 0,0.002"
       transform="translate(0,1002.3622)"
       id="path3978"
       style="fill:#333333;fill-opacity:1;fill-rule:nonzero;stroke:none" />
    <path
       d="m 112,1036.3622 c 0.277,0 0.5,0.223 0.5,0.5 0,0.277 -0.223,0.5 -0.5,0.5 -0.277,0 -0.5,-0.223 -0.5,-0.5 0,-0.277 0.223,-0.5 0.5,-0.5 z"
       id="rect3980"
       style="fill:#550000;fill-opacity:1;fill-rule:nonzero;stroke:none" />
    <path
       d="m 205,10 0,1 -0.5,0 0,2 -0.5,0 0,3.5 4,0 0,-3.5 -0.5,0 0,-2 -0.5,0 0,-1 z"
       transform="translate(0,1002.3622)"
       id="path4022"
       style="fill:#000000;stroke:none" />
    <path
       d="m 50.5,47.75 c 0,1.794925 -1.567003,3.25 -3.5,3.25 -1.932997,0 -3.5,-1.455075 -3.5,-3.25 0,-1.794925 1.567003,-3.25 3.5,-3.25 1.932997,0 3.5,1.455075 3.5,3.25 z"
       transform="translate(181.5,1000.8622)"
       style="fill:#28170b;fill-opacity:1;fill-rule:nonzero;stroke:#413025;stroke-width:1;stroke-linecap:round;stroke-linejoin:miter;stroke-miterlimit:4;stroke-opacity:1" />
    <path
       d="m 303.5,9.5 29,0 0,7 -29,0 z"
       transform="translate(0,1002.3622)"
       id="rect3879"
       style="fill:#1a1a1a;fill-opacity:1;fill-rule:nonzero;stroke:none" />
    <path
       d="m 303,12 0,4.5 -13,0 0,-2 0.5,0 2.5,-2.5 z"
       transform="translate(0,1002.3622)"
       id="path3881"
       style="fill:#1a1a1a;stroke:none" />
    <path
       d="m 341.5,12.5 18.5,0 0,4 -18.5,0 z"
       transform="translate(0,1002.3622)"
       id="rect3883"
       style="fill:#1a1a1a;fill-opacity:1;fill-rule:nonzero;stroke:none" />
    <path
       d="m 362.5,11 3,0 0,5.5 -3,0 z"
       transform="translate(0,1002.3622)"
       id="rect3885"
       style="fill:#1a1a1a;fill-opacity:1;fill-rule:nonzero;stroke:none" />
    <path
       d="m 237.5,6.5 -7.5,12"
       transform="translate(0,1002.3622)"
       style="fill:none;stroke:#000000;stroke-width:0.5;stroke-linecap:butt;stroke-linejoin:miter;stroke-miterlimit:4;stroke-opacity:1;stroke-dasharray:none" />
    <path
       d="m 367,1049.3622 15.5,0 3,-4 11,0.75 0,-2.5 -11.5,0.25 -3.5,4.5 -13.5,0 -4.5,-5 -6,0.25 1,2.5 5,-0.25 z"
       id="path4004-3-4"
       style="fill:#000000;stroke:none" />
    <path
       d="m -373.5,1019.8622 0.5,0 0,24 -0.5,0 z"
       transform="scale(-1,1)"
       id="rect3945-4-4-0"
       style="fill:#1a1a1a;fill-opacity:1;fill-rule:nonzero;stroke:none" />
    <path
       d="m 50.5,47.75 c 0,1.794925 -1.567003,3.25 -3.5,3.25 -1.932997,0 -3.5,-1.455075 -3.5,-3.25 0,-1.794925 1.567003,-3.25 3.5,-3.25 1.932997,0 3.5,1.455075 3.5,3.25 z"
       transform="translate(314,1000.8622)"
       style="fill:#28170b;fill-opacity:1;fill-rule:nonzero;stroke:#413025;stroke-width:1;stroke-linecap:round;stroke-linejoin:miter;stroke-miterlimit:4;stroke-opacity:1" />
    <path
       d="m 216.5,16 3.5,0 0,0.5 150,0 0,-0.5 3,0 0,25.5 -1.5,0 0,2.5 -153.5,0 0,-2.5 -1.5,0 z"
       transform="translate(0,1002.3622)"
       style="fill:#f2f2f2;fill-opacity:1;stroke:#000000;stroke-width:0.2;stroke-linecap:butt;stroke-linejoin:miter;stroke-miterlimit:4;stroke-opacity:1;stroke-dasharray:none" />
    <path
       d="m 244,1027.8622 12,0 c 0.554,0 1,0.446 1,1 l 0,7 c 0,0.554 -0.446,1 -1,1 l -12,0 c -0.554,0 -1,-0.446 -1,-1 l 0,-7 c 0,-0.554 0.446,-1 1,-1 z"
       style="fill:#999999;fill-opacity:1;fill-rule:nonzero;stroke:#000000;stroke-width:0.40000001;stroke-miterlimit:4;stroke-opacity:1" />
    <path
       d="m 262,1027.8622 12,0 c 0.554,0 1,0.446 1,1 l 0,7 c 0,0.554 -0.446,1 -1,1 l -12,0 c -0.554,0 -1,-0.446 -1,-1 l 0,-7 c 0,-0.554 0.446,-1 1,-1 z"
       style="fill:#999999;fill-opacity:1;fill-rule:nonzero;stroke:#000000;stroke-width:0.40000001;stroke-miterlimit:4;stroke-opacity:1" />
    <path
       d="m 279.5,1027.8622 12,0 c 0.554,0 1,0.446 1,1 l 0,7 c 0,0.554 -0.446,1 -1,1 l -12,0 c -0.554,0 -1,-0.446 -1,-1 l 0,-7 c 0,-0.554 0.446,-1 1,-1 z"
       style="fill:#999999;fill-opacity:1;fill-rule:nonzero;stroke:#000000;stroke-width:0.40000001;stroke-miterlimit:4;stroke-opacity:1" />
    <path
       d="m 297.5,1027.8622 12,0 c 0.554,0 1,0.446 1,1 l 0,7 c 0,0.554 -0.446,1 -1,1 l -12,0 c -0.554,0 -1,-0.446 -1,-1 l 0,-7 c 0,-0.554 0.446,-1 1,-1 z"
       style="fill:#999999;fill-opacity:1;fill-rule:nonzero;stroke:#000000;stroke-width:0.40000001;stroke-miterlimit:4;stroke-opacity:1" />
    <path
       d="m 314.5,1044.8623 13.5,0 0,0.5 -13.5,0 z"
       id="rect3970-7"
       style="fill:#999999;fill-opacity:1;stroke:none" />
    <path
       d="m 312.5,1018.8623 18.5,0 0,27.5 -18.5,0 z"
       id="rect5384-9"
       style="fill:#333333;fill-opacity:1;fill-rule:nonzero;stroke:none" />
    <path
       d="m 314,1023.3622 14.5,0 c 0.277,0 0.5,0.223 0.5,0.5 l 0,20.5 c 0,0.277 -0.223,0.5 -0.5,0.5 l -14.5,0 c -0.277,0 -0.5,-0.223 -0.5,-0.5 l 0,-20.5 c 0,-0.277 0.223,-0.5 0.5,-0.5 z"
       style="fill:#f2f2f2;stroke:#000000;stroke-width:0.5;stroke-linecap:round;stroke-linejoin:miter;stroke-miterlimit:4;stroke-opacity:1" />
    <path
       d="m 321.25002,1045.1065 0,-21.9886"
       style="fill:none;stroke:#000000;stroke-width:0.50564992;stroke-linecap:butt;stroke-linejoin:miter;stroke-miterlimit:4;stroke-opacity:1;stroke-dasharray:none" />
    <path
       d="m 316.5,1025.3622 1.5,0 c 0.554,0 1,0.446 1,1 l 0,11.5 c 0,0.554 -0.446,1 -1,1 l -1.5,0 c -0.554,0 -1,-0.446 -1,-1 l 0,-11.5 c 0,-0.554 0.446,-1 1,-1 z"
       style="fill:#999999;fill-opacity:1;fill-rule:nonzero;stroke:#000000;stroke-width:0.40000001;stroke-miterlimit:4;stroke-opacity:1" />
    <path
       d="m 324.5,1025.3622 1.5,0 c 0.554,0 1,0.446 1,1 l 0,11.5 c 0,0.554 -0.446,1 -1,1 l -1.5,0 c -0.554,0 -1,-0.446 -1,-1 l 0,-11.5 c 0,-0.554 0.446,-1 1,-1 z"
       style="fill:#999999;fill-opacity:1;fill-rule:nonzero;stroke:#000000;stroke-width:0.40000001;stroke-miterlimit:4;stroke-opacity:1" />
    <path
       d="m 114.5,33.75 c 0,6.82e-4 0,0.0014 0,0.002"
       transform="translate(210.50002,1002.3622)"
       id="path3978-2"
       style="fill:#333333;fill-opacity:1;fill-rule:nonzero;stroke:none" />
    <path
       d="m 322.5,1036.3622 c 0.277,0 0.5,0.223 0.5,0.5 0,0.277 -0.223,0.5 -0.5,0.5 -0.277,0 -0.5,-0.223 -0.5,-0.5 0,-0.277 0.223,-0.5 0.5,-0.5 z"
       id="rect3980-8"
       style="fill:#550000;fill-opacity:1;fill-rule:nonzero;stroke:none" />
    <path
       d="m 333,1027.8622 12,0 c 0.554,0 1,0.446 1,1 l 0,7 c 0,0.554 -0.446,1 -1,1 l -12,0 c -0.554,0 -1,-0.446 -1,-1 l 0,-7 c 0,-0.554 0.446,-1 1,-1 z"
       style="fill:#999999;fill-opacity:1;fill-rule:nonzero;stroke:#000000;stroke-width:0.40000001;stroke-miterlimit:4;stroke-opacity:1" />
    <path
       d="m 372,1014.3622 c 0,-1.5 0.5,-4.5 2,-4.5 l 1,0 c 1.5,0 2,2.5 2,4.5"
       style="fill:none;stroke:#1a1a1a;stroke-width:0.5;stroke-linecap:butt;stroke-linejoin:miter;stroke-miterlimit:4;stroke-opacity:1;stroke-dasharray:none" />
    <path
       d="m 370.5,16 -0.5,-0.5 0,-0.5 0.5,0 -0.5,-0.5 0,-1.5 0.5,-0.5 -0.5,-0.5 0,-1 1,0 0,0.5 0.5,0.5 1,0 0,0.5 -0.5,0.5 -0.5,-0.5 -0.5,0 0.5,0.5 0,1.5 -0.5,0.5 0.5,0 0,0.5 -0.5,0.5 z"
       transform="translate(0,1002.3622)"
       id="path3891"
       style="fill:#1a1a1a;stroke:none" />
    <path
       d="m 378,1018.3622 0.5,-0.5 0,-0.5 -0.5,0 0.5,-0.5 0,-1.5 -0.5,-0.5 0.5,-0.5 0,-1 -1,0 0,0.5 -0.5,0.5 -1,0 0,0.5 0.5,0.5 0.5,-0.5 0.5,0 -0.5,0.5 0,1.5 0.5,0.5 -0.5,0 0,0.5 0.5,0.5 z"
       id="path3891-3"
       style="fill:#1a1a1a;stroke:none" />
    <path
       d="m 212.5,1014.3622 c 0,-1.5 0.5,-4.5 2,-4.5 l 1,0 c 1.5,0 2,2.5 2,4.5"
       style="fill:none;stroke:#1a1a1a;stroke-width:0.5;stroke-linecap:butt;stroke-linejoin:miter;stroke-miterlimit:4;stroke-opacity:1;stroke-dasharray:none" />
    <path
       d="m 211,1018.3622 -0.5,-0.5 0,-0.5 0.5,0 -0.5,-0.5 0,-1.5 0.5,-0.5 -0.5,-0.5 0,-1 1,0 0,0.5 0.5,0.5 1,0 0,0.5 -0.5,0.5 -0.5,-0.5 -0.5,0 0.5,0.5 0,1.5 -0.5,0.5 0.5,0 0,0.5 -0.5,0.5 z"
       id="path3891-4"
       style="fill:#1a1a1a;stroke:none" />
    <path
       d="m 219,1018.3622 0.5,-0.5 0,-0.5 -0.5,0 0.5,-0.5 0,-1.5 -0.5,-0.5 0.5,-0.5 0,-1 -1,0 0,0.5 -0.5,0.5 -1,0 0,0.5 0.5,0.5 0.5,-0.5 0.5,0 -0.5,0.5 0,1.5 0.5,0.5 -0.5,0 0,0.5 0.5,0.5 z"
       id="path3891-3-8"
       style="fill:#1a1a1a;stroke:none" />
    <path
       d="m 224.5,16.5 0,-1.5 4,0 0,1.5"
       transform="translate(0,1002.3622)"
       style="fill:none;stroke:#000000;stroke-width:1px;stroke-linecap:butt;stroke-linejoin:miter;stroke-opacity:1" />
    <path
       d="m 226.5,15 11,-8.5 -11.5,-6"
       transform="translate(0,1002.3622)"
       style="fill:none;stroke:#000000;stroke-width:1px;stroke-linecap:butt;stroke-linejoin:miter;stroke-opacity:1" />
    <path
       d="m 223.25,1002.8622 6.5,0"
       style="fill:none;stroke:#000000;stroke-width:1px;stroke-linecap:butt;stroke-linejoin:miter;stroke-opacity:1" />
    <path
       d="m 214,17.5 0.5,0 0,24 -0.5,0 z"
       transform="translate(0,1002.3622)"
       id="rect3945"
       style="fill:#1a1a1a;fill-opacity:1;fill-rule:nonzero;stroke:none" />
    <path
       d="m 214.5,1019.8622 0.5,0 0,24 -0.5,0 z"
       id="rect3945-9"
       style="fill:#333333;fill-opacity:1;fill-rule:nonzero;stroke:none" />
    <path
       d="m 215,1019.8622 0.5,0 0,24 -0.5,0 z"
       id="rect3945-2"
       style="fill:#1a1a1a;fill-opacity:1;fill-rule:nonzero;stroke:none" />
    <path
       d="m 215.5,1019.8622 0.5,0 0,24 -0.5,0 z"
       id="rect3945-1"
       style="fill:#333333;fill-opacity:1;fill-rule:nonzero;stroke:none" />
    <path
       d="m 216,1019.8622 0.5,0 0,24 -0.5,0 z"
       id="rect3945-4"
       style="fill:#1a1a1a;fill-opacity:1;fill-rule:nonzero;stroke:none" />
    <path
       d="m -445,1011.8622 29,0 0,7 -29,0 z"
       transform="scale(-1,1)"
       id="rect3879-5"
       style="fill:#1a1a1a;fill-opacity:1;fill-rule:nonzero;stroke:none" />
    <path
       d="m 445.5,1014.3622 0,4.5 13,0 0,-2 -0.5,0 -2.5,-2.5 z"
       id="path3881-9"
       style="fill:#1a1a1a;stroke:none" />
    <path
       d="m -407,1014.8622 18.5,0 0,4 -18.5,0 z"
       transform="scale(-1,1)"
       id="rect3883-2"
       style="fill:#1a1a1a;fill-opacity:1;fill-rule:nonzero;stroke:none" />
    <path
       d="m -386,1013.3622 3,0 0,5.5 -3,0 z"
       transform="scale(-1,1)"
       id="rect3885-3"
       style="fill:#1a1a1a;fill-opacity:1;fill-rule:nonzero;stroke:none" />
    <path
       d="m 50.5,47.75 c 0,1.794925 -1.567003,3.25 -3.5,3.25 -1.932997,0 -3.5,-1.455075 -3.5,-3.25 0,-1.794925 1.567003,-3.25 3.5,-3.25 1.932997,0 3.5,1.455075 3.5,3.25 z"
       transform="translate(341,1000.8622)"
       style="fill:#28170b;fill-opacity:1;fill-rule:nonzero;stroke:#413025;stroke-width:1;stroke-linecap:round;stroke-linejoin:miter;stroke-miterlimit:4;stroke-opacity:1" />
    <path
       d="m -375.5,1019.8622 0.5,0 0,24 -0.5,0 z"
       transform="scale(-1,1)"
       id="rect3945-8-8"
       style="fill:#1a1a1a;fill-opacity:1;fill-rule:nonzero;stroke:none" />
    <path
       d="m 50.5,47.75 c 0,1.794925 -1.567003,3.25 -3.5,3.25 -1.932997,0 -3.5,-1.455075 -3.5,-3.25 0,-1.794925 1.567003,-3.25 3.5,-3.25 1.932997,0 3.5,1.455075 3.5,3.25 z"
       transform="translate(473,1001.1122)"
       style="fill:#28170b;fill-opacity:1;fill-rule:nonzero;stroke:#413025;stroke-width:1;stroke-linecap:round;stroke-linejoin:miter;stroke-miterlimit:4;stroke-opacity:1" />
    <path
       d="m 532,1018.3622 -3.5,0 0,0.5 -150,0 0,-0.5 -3,0 0,25.5 1.5,0 0,2.5 153.5,0 0,-2.5 1.5,0 z"
       style="fill:#f2f2f2;fill-opacity:1;stroke:#000000;stroke-width:0.2;stroke-linecap:butt;stroke-linejoin:miter;stroke-miterlimit:4;stroke-opacity:1;stroke-dasharray:none" />
    <path
       d="m -504.5,1027.8622 12,0 c 0.554,0 1,0.446 1,1 l 0,7 c 0,0.554 -0.446,1 -1,1 l -12,0 c -0.554,0 -1,-0.446 -1,-1 l 0,-7 c 0,-0.554 0.446,-1 1,-1 z"
       transform="scale(-1,1)"
       style="fill:#999999;fill-opacity:1;fill-rule:nonzero;stroke:#000000;stroke-width:0.40000001;stroke-miterlimit:4;stroke-opacity:1" />
    <path
       d="m -486.5,1027.8622 12,0 c 0.554,0 1,0.446 1,1 l 0,7 c 0,0.554 -0.446,1 -1,1 l -12,0 c -0.554,0 -1,-0.446 -1,-1 l 0,-7 c 0,-0.554 0.446,-1 1,-1 z"
       transform="scale(-1,1)"
       style="fill:#999999;fill-opacity:1;fill-rule:nonzero;stroke:#000000;stroke-width:0.40000001;stroke-miterlimit:4;stroke-opacity:1" />
    <path
       d="m -469,1027.8622 12,0 c 0.554,0 1,0.446 1,1 l 0,7 c 0,0.554 -0.446,1 -1,1 l -12,0 c -0.554,0 -1,-0.446 -1,-1 l 0,-7 c 0,-0.554 0.446,-1 1,-1 z"
       transform="scale(-1,1)"
       style="fill:#999999;fill-opacity:1;fill-rule:nonzero;stroke:#000000;stroke-width:0.40000001;stroke-miterlimit:4;stroke-opacity:1" />
    <path
       d="m -451,1027.8622 12,0 c 0.554,0 1,0.446 1,1 l 0,7 c 0,0.554 -0.446,1 -1,1 l -12,0 c -0.554,0 -1,-0.446 -1,-1 l 0,-7 c 0,-0.554 0.446,-1 1,-1 z"
       transform="scale(-1,1)"
       style="fill:#999999;fill-opacity:1;fill-rule:nonzero;stroke:#000000;stroke-width:0.40000001;stroke-miterlimit:4;stroke-opacity:1" />
    <path
       d="m -415.5,1027.8622 12,0 c 0.554,0 1,0.446 1,1 l 0,7 c 0,0.554 -0.446,1 -1,1 l -12,0 c -0.554,0 -1,-0.446 -1,-1 l 0,-7 c 0,-0.554 0.446,-1 1,-1 z"
       transform="scale(-1,1)"
       style="fill:#999999;fill-opacity:1;fill-rule:nonzero;stroke:#000000;stroke-width:0.40000001;stroke-miterlimit:4;stroke-opacity:1" />
    <path
       d="m 536,1014.3622 c 0,-1.5 -0.5,-4.5 -2,-4.5 l -1,0 c -1.5,0 -2,2.5 -2,4.5"
       style="fill:none;stroke:#1a1a1a;stroke-width:0.5;stroke-linecap:butt;stroke-linejoin:miter;stroke-miterlimit:4;stroke-opacity:1;stroke-dasharray:none" />
    <path
       d="m 537.5,1018.3622 0.5,-0.5 0,-0.5 -0.5,0 0.5,-0.5 0,-1.5 -0.5,-0.5 0.5,-0.5 0,-1 -1,0 0,0.5 -0.5,0.5 -1,0 0,0.5 0.5,0.5 0.5,-0.5 0.5,0 -0.5,0.5 0,1.5 0.5,0.5 -0.5,0 0,0.5 0.5,0.5 z"
       id="path3891-4-9"
       style="fill:#1a1a1a;stroke:none" />
    <path
       d="m 529.5,1018.3622 -0.5,-0.5 0,-0.5 0.5,0 -0.5,-0.5 0,-1.5 0.5,-0.5 -0.5,-0.5 0,-1 1,0 0,0.5 0.5,0.5 1,0 0,0.5 -0.5,0.5 -0.5,-0.5 -0.5,0 0.5,0.5 0,1.5 -0.5,0.5 0.5,0 0,0.5 -0.5,0.5 z"
       id="path3891-3-8-1"
       style="fill:#1a1a1a;stroke:none" />
    <path
       d="m 50.5,47.75 c 0,1.794925 -1.567003,3.25 -3.5,3.25 -1.932997,0 -3.5,-1.455075 -3.5,-3.25 0,-1.794925 1.567003,-3.25 3.5,-3.25 1.932997,0 3.5,1.455075 3.5,3.25 z"
       transform="translate(500,1001.1122)"
       style="fill:#28170b;fill-opacity:1;fill-rule:nonzero;stroke:#413025;stroke-width:1;stroke-linecap:round;stroke-linejoin:miter;stroke-miterlimit:4;stroke-opacity:1" />
    <path
       d="m -534.5,1019.8622 0.5,0 0,24 -0.5,0 z"
       transform="scale(-1,1)"
       id="rect3945-8"
       style="fill:#1a1a1a;fill-opacity:1;fill-rule:nonzero;stroke:none" />
    <path
       d="m -534,1019.8622 0.5,0 0,24 -0.5,0 z"
       transform="scale(-1,1)"
       id="rect3945-9-1"
       style="fill:#333333;fill-opacity:1;fill-rule:nonzero;stroke:none" />
    <path
       d="m -533.5,1019.8622 0.5,0 0,24 -0.5,0 z"
       transform="scale(-1,1)"
       id="rect3945-2-6"
       style="fill:#1a1a1a;fill-opacity:1;fill-rule:nonzero;stroke:none" />
    <path
       d="m -533,1019.8622 0.5,0 0,24 -0.5,0 z"
       transform="scale(-1,1)"
       id="rect3945-1-2"
       style="fill:#333333;fill-opacity:1;fill-rule:nonzero;stroke:none" />
    <path
       d="m -532.5,1019.8622 0.5,0 0,24 -0.5,0 z"
       transform="scale(-1,1)"
       id="rect3945-4-4"
       style="fill:#1a1a1a;fill-opacity:1;fill-rule:nonzero;stroke:none" />
    <path
       d="m -375,1019.8622 0.5,0 0,24 -0.5,0 z"
       transform="scale(-1,1)"
       id="rect3945-9-1-0"
       style="fill:#333333;fill-opacity:1;fill-rule:nonzero;stroke:none" />
    <path
       d="m -374.5,1019.8622 0.5,0 0,24 -0.5,0 z"
       transform="scale(-1,1)"
       id="rect3945-2-6-7"
       style="fill:#1a1a1a;fill-opacity:1;fill-rule:nonzero;stroke:none" />
    <path
       d="m -374,1019.8622 0.5,0 0,24 -0.5,0 z"
       transform="scale(-1,1)"
       id="rect3945-1-2-0"
       style="fill:#333333;fill-opacity:1;fill-rule:nonzero;stroke:none" />
    <path
       d="m -604,1011.8622 29,0 0,7 -29,0 z"
       transform="scale(-1,1)"
       id="rect3879-5-6"
       style="fill:#1a1a1a;fill-opacity:1;fill-rule:nonzero;stroke:none" />
    <path
       d="m 604.49999,1014.3622 0,4.5 13,0 0,-2 -0.5,0 -2.5,-2.5 z"
       id="path3881-9-7"
       style="fill:#1a1a1a;stroke:none" />
    <path
       d="m -566,1014.8622 18.5,0 0,4 -18.5,0 z"
       transform="scale(-1,1)"
       id="rect3883-2-6"
       style="fill:#1a1a1a;fill-opacity:1;fill-rule:nonzero;stroke:none" />
    <path
       d="m -545,1013.3622 3,0 0,5.5 -3,0 z"
       transform="scale(-1,1)"
       id="rect3885-3-3"
       style="fill:#1a1a1a;fill-opacity:1;fill-rule:nonzero;stroke:none" />
    <path
       d="m 690.99999,1018.3622 -3.5,0 0,0.5 -150,0 0,-0.5 -3,0 0,25.5 1.5,0 0,2.5 153.5,0 0,-2.5 1.5,0 z"
       style="fill:#f2f2f2;fill-opacity:1;stroke:#000000;stroke-width:0.2;stroke-linecap:butt;stroke-linejoin:miter;stroke-miterlimit:4;stroke-opacity:1;stroke-dasharray:none" />
    <path
       d="m 577.5,16.5 18.5,0 0,27.5 -18.5,0 z"
       transform="translate(0,1002.3622)"
       id="rect5384"
       style="fill:#333333;fill-opacity:1;fill-rule:nonzero;stroke:none" />
    <path
       d="m -663.5,1027.8623 12,0 c 0.554,0 1,0.446 1,1 l 0,7 c 0,0.554 -0.446,1 -1,1 l -12,0 c -0.554,0 -1,-0.446 -1,-1 l 0,-7 c 0,-0.554 0.446,-1 1,-1 z"
       transform="scale(-1,1)"
       style="fill:#999999;fill-opacity:1;fill-rule:nonzero;stroke:#000000;stroke-width:0.40000001;stroke-miterlimit:4;stroke-opacity:1" />
    <path
       d="m -645.5,1027.8623 12,0 c 0.554,0 1,0.446 1,1 l 0,7 c 0,0.554 -0.446,1 -1,1 l -12,0 c -0.554,0 -1,-0.446 -1,-1 l 0,-7 c 0,-0.554 0.446,-1 1,-1 z"
       transform="scale(-1,1)"
       style="fill:#999999;fill-opacity:1;fill-rule:nonzero;stroke:#000000;stroke-width:0.40000001;stroke-miterlimit:4;stroke-opacity:1" />
    <path
       d="m -628,1027.8623 12,0 c 0.554,0 1,0.446 1,1 l 0,7 c 0,0.554 -0.446,1 -1,1 l -12,0 c -0.554,0 -1,-0.446 -1,-1 l 0,-7 c 0,-0.554 0.446,-1 1,-1 z"
       transform="scale(-1,1)"
       style="fill:#999999;fill-opacity:1;fill-rule:nonzero;stroke:#000000;stroke-width:0.40000001;stroke-miterlimit:4;stroke-opacity:1" />
    <path
       d="m -610,1027.8623 12,0 c 0.554,0 1,0.446 1,1 l 0,7 c 0,0.554 -0.446,1 -1,1 l -12,0 c -0.554,0 -1,-0.446 -1,-1 l 0,-7 c 0,-0.554 0.446,-1 1,-1 z"
       transform="scale(-1,1)"
       style="fill:#999999;fill-opacity:1;fill-rule:nonzero;stroke:#000000;stroke-width:0.40000001;stroke-miterlimit:4;stroke-opacity:1" />
    <path
       d="m -593,1044.8624 13.5,0 0,0.5 -13.5,0 z"
       transform="scale(-1,1)"
       id="rect3970-7-8-8"
       style="fill:#999999;fill-opacity:1;stroke:none" />
    <path
       d="m -593.5,1023.3622 14.5,0 c 0.277,0 0.5,0.223 0.5,0.5 l 0,20.5 c 0,0.277 -0.223,0.5 -0.5,0.5 l -14.5,0 c -0.277,0 -0.5,-0.223 -0.5,-0.5 l 0,-20.5 c 0,-0.277 0.223,-0.5 0.5,-0.5 z"
       transform="scale(-1,1)"
       style="fill:#f2f2f2;stroke:#000000;stroke-width:0.5;stroke-linecap:round;stroke-linejoin:miter;stroke-miterlimit:4;stroke-opacity:1" />
    <path
       d="m 586.24997,1045.1065 0,-21.9886"
       style="fill:none;stroke:#000000;stroke-width:0.50564992;stroke-linecap:butt;stroke-linejoin:miter;stroke-miterlimit:4;stroke-opacity:1;stroke-dasharray:none" />
    <path
       d="m -591,1025.3622 1.5,0 c 0.554,0 1,0.446 1,1 l 0,11.5 c 0,0.554 -0.446,1 -1,1 l -1.5,0 c -0.554,0 -1,-0.446 -1,-1 l 0,-11.5 c 0,-0.554 0.446,-1 1,-1 z"
       transform="scale(-1,1)"
       style="fill:#999999;fill-opacity:1;fill-rule:nonzero;stroke:#000000;stroke-width:0.40000001;stroke-miterlimit:4;stroke-opacity:1" />
    <path
       d="m -583,1025.3622 1.5,0 c 0.554,0 1,0.446 1,1 l 0,11.5 c 0,0.554 -0.446,1 -1,1 l -1.5,0 c -0.554,0 -1,-0.446 -1,-1 l 0,-11.5 c 0,-0.554 0.446,-1 1,-1 z"
       transform="scale(-1,1)"
       style="fill:#999999;fill-opacity:1;fill-rule:nonzero;stroke:#000000;stroke-width:0.40000001;stroke-miterlimit:4;stroke-opacity:1" />
    <path
       d="m 114.5,33.75 c 0,6.82e-4 0,0.0014 0,0.002"
       transform="matrix(-1,0,0,1,696.99997,1002.3622)"
       id="path3978-2-9-4"
       style="fill:#333333;fill-opacity:1;fill-rule:nonzero;stroke:none" />
    <path
       d="m -585,1036.3623 c 0.277,0 0.5,0.223 0.5,0.5 0,0.277 -0.223,0.5 -0.5,0.5 -0.277,0 -0.5,-0.223 -0.5,-0.5 0,-0.277 0.223,-0.5 0.5,-0.5 z"
       transform="scale(-1,1)"
       id="rect3980-8-5-3"
       style="fill:#550000;fill-opacity:1;fill-rule:nonzero;stroke:none" />
    <path
       d="m -574.5,1027.8623 12,0 c 0.554,0 1,0.446 1,1 l 0,7 c 0,0.554 -0.446,1 -1,1 l -12,0 c -0.554,0 -1,-0.446 -1,-1 l 0,-7 c 0,-0.554 0.446,-1 1,-1 z"
       transform="scale(-1,1)"
       style="fill:#999999;fill-opacity:1;fill-rule:nonzero;stroke:#000000;stroke-width:0.40000001;stroke-miterlimit:4;stroke-opacity:1" />
    <path
       d="m 694.99999,1014.3622 c 0,-1.5 -0.5,-4.5 -2,-4.5 l -1,0 c -1.5,0 -2,2.5 -2,4.5"
       style="fill:none;stroke:#1a1a1a;stroke-width:0.5;stroke-linecap:butt;stroke-linejoin:miter;stroke-miterlimit:4;stroke-opacity:1;stroke-dasharray:none" />
    <path
       d="m 696.49999,1018.3622 0.5,-0.5 0,-0.5 -0.5,0 0.5,-0.5 0,-1.5 -0.5,-0.5 0.5,-0.5 0,-1 -1,0 0,0.5 -0.5,0.5 -1,0 0,0.5 0.5,0.5 0.5,-0.5 0.5,0 -0.5,0.5 0,1.5 0.5,0.5 -0.5,0 0,0.5 0.5,0.5 z"
       id="path3891-4-9-9"
       style="fill:#1a1a1a;stroke:none" />
    <path
       d="m 688.49999,1018.3622 -0.5,-0.5 0,-0.5 0.5,0 -0.5,-0.5 0,-1.5 0.5,-0.5 -0.5,-0.5 0,-1 1,0 0,0.5 0.5,0.5 1,0 0,0.5 -0.5,0.5 -0.5,-0.5 -0.5,0 0.5,0.5 0,1.5 -0.5,0.5 0.5,0 0,0.5 -0.5,0.5 z"
       id="path3891-3-8-1-8"
       style="fill:#1a1a1a;stroke:none" />
    <path
       d="m -693.5,1019.8622 0.5,0 0,24 -0.5,0 z"
       transform="scale(-1,1)"
       id="rect3945-8-1"
       style="fill:#1a1a1a;fill-opacity:1;fill-rule:nonzero;stroke:none" />
    <path
       d="m -693,1019.8622 0.5,0 0,24 -0.5,0 z"
       transform="scale(-1,1)"
       id="rect3945-9-1-04"
       style="fill:#333333;fill-opacity:1;fill-rule:nonzero;stroke:none" />
    <path
       d="m -692.5,1019.8622 0.5,0 0,24 -0.5,0 z"
       transform="scale(-1,1)"
       id="rect3945-2-6-3"
       style="fill:#1a1a1a;fill-opacity:1;fill-rule:nonzero;stroke:none" />
    <path
       d="m -692,1019.8622 0.5,0 0,24 -0.5,0 z"
       transform="scale(-1,1)"
       id="rect3945-1-2-6"
       style="fill:#333333;fill-opacity:1;fill-rule:nonzero;stroke:none" />
    <path
       d="m -691.5,1019.8622 0.5,0 0,24 -0.5,0 z"
       transform="scale(-1,1)"
       id="rect3945-4-4-3"
       style="fill:#1a1a1a;fill-opacity:1;fill-rule:nonzero;stroke:none" />
    <path
       d="m 879.99999,1049.8622 -8,-7"
       style="fill:none;stroke:#000000;stroke-width:1px;stroke-linecap:butt;stroke-linejoin:miter;stroke-opacity:1" />
    <path
       d="m -765,1014.8622 2.5,0 0,4 -2.5,0 z"
       transform="scale(-1,1)"
       id="rect4018-0"
       style="fill:#1a1a1a;fill-opacity:1;fill-rule:nonzero;stroke:none" />
    <path
       d="m 733.49999,1011.8622 -16,0 1,7 9.5,0 0.5,-5 5,-1.5 z"
       id="path4020-9"
       style="fill:#1a1a1a;stroke:none" />
    <path
       d="m -772.5,1014.3622 8.5,0 0,4.5 -8.5,0 z"
       transform="scale(-1,1)"
       id="rect4016-9"
       style="fill:#1a1a1a;fill-opacity:1;fill-rule:nonzero;stroke:none" />
    <path
       d="m 829.49999,1046.8622 4.5,0 7.5,3.5 18,0 5.5,1.5 1.5,0 3,-1 12,0 0,-11 -49,0 z"
       id="path4012-2"
       style="fill:#1a1a1a;stroke:none" />
    <path
       d="m 893.99999,1028.8622 1.5,0 c -3.08145,-4.6695 -6,-9 -10.5,-13 z"
       id="path3797-9"
       style="fill:#b3b3b3;stroke:none" />
    <path
       d="m 898.49999,1038.8622 -14,0 c 0,-2.5 -6.5,-16.5 -10,-27 5.5,0 6.5,0.5 10.5,3.5 l 0,0.5 c 4.5,5 5.5,8.5 9,13 l 1.5,0 c 3.5,4 4,8.5 3,10 z"
       style="fill:#f2f2f2;stroke:#000000;stroke-width:0.2;stroke-linecap:butt;stroke-linejoin:miter;stroke-miterlimit:4;stroke-opacity:1;stroke-dasharray:none" />
    <path
       d="m 878.49999,1021.3622 c 1.5,0 4.5,0.5 6.5,1.5 1.5,1.5 2.5,3 3.5,5 l 0,0.5 c 0,0.5 -0.5,1 -1,1 l -6,0 z"
       style="fill:#000000;fill-opacity:1;stroke:#000000;stroke-width:0.1;stroke-linecap:butt;stroke-linejoin:miter;stroke-miterlimit:4;stroke-opacity:1;stroke-dasharray:none" />
    <path
       d="m 881.99999,1028.8622 -1,-2.5 6,0 0.5,1 0,1 -0.5,0.5 z"
       id="path3793-9"
       style="fill:#333333;stroke:none" />
    <path
       d="m 894.41647,1040.597 2.5,0 0,-1.5 4,0 0,5 -1,-0.5 -3,-0.5 -2.5,0 z"
       id="path3803-3"
       style="fill:#333333;stroke:none" />
    <path
       d="m 884.49999,1038.8622 -1,5.5 c 9,0 11.5,0 14.5,-0.5 l 0,0 c 0.5,-4 0,-1 0.5,-5 z"
       style="fill:#f2f2f2;stroke:#000000;stroke-width:0.2;stroke-linecap:butt;stroke-linejoin:miter;stroke-miterlimit:4;stroke-opacity:1;stroke-dasharray:none" />
    <path
       d="m 901.35397,1040.597 0,0.5 1,0 0,1.5 -1,0 0,0.5 -1,0 0,-2.5 z"
       id="path3805-4"
       style="fill:#000000;stroke:none" />
    <path
       d="m 901.35397,1041.597 2.5,0"
       style="fill:none;stroke:#000000;stroke-width:0.30000001;stroke-linecap:butt;stroke-linejoin:miter;stroke-miterlimit:4;stroke-opacity:1;stroke-dasharray:none" />
    <path
       d="m 900.35397,1042.097 3,2.5"
       style="fill:none;stroke:#000000;stroke-width:0.5;stroke-linecap:butt;stroke-linejoin:miter;stroke-miterlimit:4;stroke-opacity:1;stroke-dasharray:none" />
    <path
       d="m -899,1040.3622 1,0 0,2.5 -1,0 z"
       transform="scale(-1,1)"
       id="rect3811-1"
       style="fill:#000000;fill-opacity:1;fill-rule:nonzero;stroke:none" />
    <path
       d="m 874.49999,1011.8622 -1.5,0 c -2.64071,0.5305 -5.3242,0.7324 -8,1 l -82.5,0 -7.5,1.5 -2.5,0 0,4.5 104.5,0 z"
       style="fill:#f2f2f2;stroke:#000000;stroke-width:0.2;stroke-linecap:butt;stroke-linejoin:miter;stroke-miterlimit:4;stroke-opacity:1;stroke-dasharray:none" />
    <path
       d="m 843.99999,1012.8622 -1,-1 0,-1 -62,0 -8,3.5 2,0 7.5,-1.5 z"
       id="path3821-5"
       style="fill:#1a1a1a;stroke:none" />
    <path
       d="m 51,47.75 c 0,2.071068 -1.790861,3.75 -4,3.75 -2.209139,0 -4,-1.678932 -4,-3.75 0,-2.071068 1.790861,-3.75 4,-3.75 2.209139,0 4,1.678932 4,3.75 z"
       transform="matrix(-1,0,0,1,909.99999,1000.3622)"
       style="fill:#28170b;fill-opacity:1;fill-rule:nonzero;stroke:#413025;stroke-width:1;stroke-linecap:round;stroke-linejoin:miter;stroke-miterlimit:4;stroke-opacity:1" />
    <path
       d="m 51,47.75 c 0,2.071068 -1.790861,3.75 -4,3.75 -2.209139,0 -4,-1.678932 -4,-3.75 0,-2.071068 1.790861,-3.75 4,-3.75 2.209139,0 4,1.678932 4,3.75 z"
       transform="matrix(-1,0,0,1,884.99999,1000.3622)"
       style="fill:#28170b;fill-opacity:1;fill-rule:nonzero;stroke:#413025;stroke-width:1;stroke-linecap:round;stroke-linejoin:miter;stroke-miterlimit:4;stroke-opacity:1" />
    <path
       d="m 854.99999,1050.3622 -8.5,0 -4.5,-5 -12,0 0,-2.5 12.5,0 5,5 6,0 5,-5 10.5,0 -1,2.5 -8.5,0 z"
       id="path4004-8"
       style="fill:#000000;stroke:none" />
    <path
       d="m 885.49999,1046.8622 c -0.74752,1.4726 -0.19551,2.109 0.5,3.5 l -6,0 -0.5,-3.5 1,-1 -0.5,-1 2,0 0,1 1.5,1 z"
       style="fill:#000000;stroke:#000000;stroke-width:1px;stroke-linecap:butt;stroke-linejoin:miter;stroke-opacity:1" />
    <path
       d="m -763.5,1011.8622 29,0 0,7 -29,0 z"
       transform="scale(-1,1)"
       id="rect4014-9"
       style="fill:#1a1a1a;fill-opacity:1;fill-rule:nonzero;stroke:none" />
    <path
       d="m 772.49999,1018.8622 -75.5,0 0,-0.5 -3.5,0 0,25.5 1.5,0 0,2.5 13,0 0.5,0.5 121.5,0 4.5,-2.5 0,-0.5 c 2,-1 6,-2 8,-2 l 16,0 c 2.5,0 6.5,1 9,3 l 16,0 0,-0.5 1,-5.5 -7.5,-20 z"
       style="fill:#f2f2f2;fill-opacity:1;stroke:#000000;stroke-width:0.2;stroke-linecap:butt;stroke-linejoin:miter;stroke-miterlimit:4;stroke-opacity:1;stroke-dasharray:none" />
    <path
       d="m 787.5,10.5 20,0 0,34 -20,0 z"
       transform="translate(0,1002.3622)"
       id="rect5346"
       style="fill:#333333;fill-opacity:1;fill-rule:nonzero;stroke:none" />
    <path
       d="m 824.33963,1012.9631 4.11572,6.9584 c 0.41711,0.4652 0.8264,0.4144 1.2435,-0.051 l 4.12501,-6.9142 z"
       id="path5189-5-03"
       style="fill:#d40000;stroke:none" />
    <path
       d="m 830.49999,1018.8622 0,-6"
       style="fill:none;stroke:#000000;stroke-width:0.1;stroke-linecap:butt;stroke-linejoin:miter;stroke-miterlimit:4;stroke-opacity:1;stroke-dasharray:none" />
    <path
       d="m -874.75,1021.1122 3.5,0 c 0.554,0 1,0.446 1,1 l 0,15.5 c 0,0.554 -0.446,1 -1,1 l -3.5,0 c -0.554,0 -1,-0.446 -1,-1 l 0,-15.5 c 0,-0.554 0.446,-1 1,-1 z"
       transform="scale(-1,1)"
       style="fill:#f2f2f2;fill-opacity:1;fill-rule:nonzero;stroke:#000000;stroke-width:0.30000001;stroke-miterlimit:4;stroke-opacity:1" />
    <path
       d="m -873.75,1022.6122 1.5,0 c 0.554,0 1,0.446 1,1 l 0,4.5 c 0,0.554 -0.446,1 -1,1 l -1.5,0 c -0.554,0 -1,-0.446 -1,-1 l 0,-4.5 c 0,-0.554 0.446,-1 1,-1 z"
       transform="scale(-1,1)"
       style="fill:#666666;fill-opacity:1;fill-rule:nonzero;stroke:#000000;stroke-width:0.40000001;stroke-linecap:round;stroke-linejoin:miter;stroke-miterlimit:4;stroke-opacity:1" />
    <path
       d="m 868.99999,1026.8622 0,13.5"
       style="fill:none;stroke:#646464;stroke-width:0.5;stroke-linecap:butt;stroke-linejoin:miter;stroke-miterlimit:4;stroke-opacity:1;stroke-dasharray:none" />
    <path
       d="m 876.99999,1040.3622 0,-13.5"
       style="fill:none;stroke:#646464;stroke-width:0.5;stroke-linecap:butt;stroke-linejoin:miter;stroke-miterlimit:4;stroke-opacity:1;stroke-dasharray:none" />
    <path
       d="m -875,1040.8622 4,0 0,1 -4,0 z"
       transform="scale(-1,1)"
       id="rect3833-7"
       style="fill:#cccccc;fill-opacity:1;fill-rule:nonzero;stroke:none" />
    <path
       d="m -875,1043.8622 4,0 0,1 -4,0 z"
       transform="scale(-1,1)"
       id="rect3833-8-2"
       style="fill:#333333;fill-opacity:1;fill-rule:nonzero;stroke:none" />
    <path
       d="m 842.10267,1022.9135 -10.42754,0 c -0.59222,-0.02 -1.61311,0.766 -1.2513,1.3958 l 5.83942,9.7712 c 0.41709,0.4652 0.83419,0.4652 1.2513,0 l 5.83942,-9.7712 c 0.37796,-0.6425 -0.6667,-1.4018 -1.2513,-1.3958 z"
       id="path5189-5-2"
       style="fill:#d40000;stroke:none" />
    <path
       d="m 824.24605,1036.2501 10.42754,0 c 0.59222,0.02 1.61311,-0.766 1.2513,-1.3958 l -5.83941,-9.7712 c -0.4171,-0.4652 -0.8342,-0.4652 -1.25131,0 l -5.83942,9.7712 c -0.37796,0.6425 0.66671,1.4019 1.2513,1.3958 z"
       id="path5189-6"
       style="fill:#d40000;stroke:none" />
    <path
       d="m 839.08926,1036.2368 10.42754,0 c 0.59222,0.02 1.61311,-0.766 1.2513,-1.3958 l -5.83942,-9.7711 c -0.4171,-0.4653 -0.83419,-0.4653 -1.2513,0 l -5.83942,9.7711 c -0.37796,0.6425 0.6667,1.4018 1.2513,1.3958 z"
       id="path5189-7"
       style="fill:#333333;stroke:none" />
    <path
       d="m -840.5,1025.3622 12,0 c 0.554,0 1,0.446 1,1 l 0,7 c 0,0.554 -0.446,1 -1,1 l -12,0 c -0.554,0 -1,-0.446 -1,-1 l 0,-7 c 0,-0.554 0.446,-1 1,-1 z"
       transform="scale(-1,1)"
       style="fill:#999999;fill-opacity:1;fill-rule:nonzero;stroke:#000000;stroke-width:0.40000001;stroke-miterlimit:4;stroke-opacity:1" />
    <path
       d="m -822.5,1025.3622 12,0 c 0.554,0 1,0.446 1,1 l 0,7 c 0,0.554 -0.446,1 -1,1 l -12,0 c -0.554,0 -1,-0.446 -1,-1 l 0,-7 c 0,-0.554 0.446,-1 1,-1 z"
       transform="scale(-1,1)"
       style="fill:#999999;fill-opacity:1;fill-rule:nonzero;stroke:#000000;stroke-width:0.40000001;stroke-miterlimit:4;stroke-opacity:1" />
    <path
       d="m -785,1027.8622 12,0 c 0.554,0 1,0.446 1,1 l 0,7 c 0,0.554 -0.446,1 -1,1 l -12,0 c -0.554,0 -1,-0.446 -1,-1 l 0,-7 c 0,-0.554 0.446,-1 1,-1 z"
       transform="scale(-1,1)"
       style="fill:#999999;fill-opacity:1;fill-rule:nonzero;stroke:#000000;stroke-width:0.40000001;stroke-miterlimit:4;stroke-opacity:1" />
    <path
       d="m -767,1027.8622 12,0 c 0.554,0 1,0.446 1,1 l 0,7 c 0,0.554 -0.446,1 -1,1 l -12,0 c -0.554,0 -1,-0.446 -1,-1 l 0,-7 c 0,-0.554 0.446,-1 1,-1 z"
       transform="scale(-1,1)"
       style="fill:#999999;fill-opacity:1;fill-rule:nonzero;stroke:#000000;stroke-width:0.40000001;stroke-miterlimit:4;stroke-opacity:1" />
    <path
       d="m -749,1027.8622 12,0 c 0.554,0 1,0.446 1,1 l 0,7 c 0,0.554 -0.446,1 -1,1 l -12,0 c -0.554,0 -1,-0.446 -1,-1 l 0,-7 c 0,-0.554 0.446,-1 1,-1 z"
       transform="scale(-1,1)"
       style="fill:#999999;fill-opacity:1;fill-rule:nonzero;stroke:#000000;stroke-width:0.40000001;stroke-miterlimit:4;stroke-opacity:1" />
    <path
       d="m -731.5,1027.8622 12,0 c 0.554,0 1,0.446 1,1 l 0,7 c 0,0.554 -0.446,1 -1,1 l -12,0 c -0.554,0 -1,-0.446 -1,-1 l 0,-7 c 0,-0.554 0.446,-1 1,-1 z"
       transform="scale(-1,1)"
       style="fill:#999999;fill-opacity:1;fill-rule:nonzero;stroke:#000000;stroke-width:0.40000001;stroke-miterlimit:4;stroke-opacity:1" />
    <path
       d="m -803.5,1044.8622 13.5,0 0,0.5 -13.5,0 z"
       transform="scale(-1,1)"
       id="rect3970-3"
       style="fill:#999999;fill-opacity:1;stroke:none" />
    <path
       d="m -804,1023.3622 14.5,0 c 0.277,0 0.5,0.223 0.5,0.5 l 0,20.5 c 0,0.277 -0.223,0.5 -0.5,0.5 l -14.5,0 c -0.277,0 -0.5,-0.223 -0.5,-0.5 l 0,-20.5 c 0,-0.277 0.223,-0.5 0.5,-0.5 z"
       transform="scale(-1,1)"
       style="fill:#f2f2f2;stroke:#000000;stroke-width:0.5;stroke-linecap:round;stroke-linejoin:miter;stroke-miterlimit:4;stroke-opacity:1" />
    <path
       d="m 796.74999,1045.1065 0,-21.9886"
       style="fill:none;stroke:#000000;stroke-width:0.50564992;stroke-linecap:butt;stroke-linejoin:miter;stroke-miterlimit:4;stroke-opacity:1;stroke-dasharray:none" />
    <path
       d="m -801.5,1025.3622 1.5,0 c 0.554,0 1,0.446 1,1 l 0,11.5 c 0,0.554 -0.446,1 -1,1 l -1.5,0 c -0.554,0 -1,-0.446 -1,-1 l 0,-11.5 c 0,-0.554 0.446,-1 1,-1 z"
       transform="scale(-1,1)"
       style="fill:#999999;fill-opacity:1;fill-rule:nonzero;stroke:#000000;stroke-width:0.40000001;stroke-miterlimit:4;stroke-opacity:1" />
    <path
       d="m -793.5,1025.3622 1.5,0 c 0.554,0 1,0.446 1,1 l 0,11.5 c 0,0.554 -0.446,1 -1,1 l -1.5,0 c -0.554,0 -1,-0.446 -1,-1 l 0,-11.5 c 0,-0.554 0.446,-1 1,-1 z"
       transform="scale(-1,1)"
       style="fill:#999999;fill-opacity:1;fill-rule:nonzero;stroke:#000000;stroke-width:0.40000001;stroke-miterlimit:4;stroke-opacity:1" />
    <path
       d="m 114.5,33.75 c 0,6.82e-4 0,0.0014 0,0.002"
       transform="matrix(-1,0,0,1,907.49999,1002.3622)"
       id="path3978-5"
       style="fill:#333333;fill-opacity:1;fill-rule:nonzero;stroke:none" />
    <path
       d="m -795.5,1036.3622 c 0.277,0 0.5,0.223 0.5,0.5 0,0.277 -0.223,0.5 -0.5,0.5 -0.277,0 -0.5,-0.223 -0.5,-0.5 0,-0.277 0.223,-0.5 0.5,-0.5 z"
       transform="scale(-1,1)"
       id="rect3980-9"
       style="fill:#550000;fill-opacity:1;fill-rule:nonzero;stroke:none" />
    <path
       d="m 702.49999,1012.3622 0,1 0.5,0 0,2 0.5,0 0,3.5 -4,0 0,-3.5 0.5,0 0,-2 0.5,0 0,-1 z"
       id="path4022-6"
       style="fill:#000000;stroke:none" />
    <path
       d="m 853.66034,1036.3276 10.42754,0 c 0.59222,0.02 1.61311,-0.766 1.2513,-1.3958 l -5.83942,-9.7712 c -0.41709,-0.4652 -0.8342,-0.4652 -1.2513,0 l -5.83943,9.7712 c -0.37795,0.6425 0.66671,1.4018 1.25131,1.3958 z"
       id="path5189"
       style="fill:#333333;stroke:none" />
    <path
       d="m 856.73625,1022.8901 -10.42754,0 c -0.59222,-0.02 -1.61312,0.766 -1.25131,1.3959 l 5.83942,9.7712 c 0.4171,0.4652 0.8342,0.4652 1.2513,0 l 5.83943,-9.7712 c 0.37795,-0.6425 -0.66671,-1.4019 -1.2513,-1.3959 z"
       id="path5189-5"
       style="fill:#d40000;stroke:none" />
    <path
       d="m 853.71343,1041.764 -1.30035,-2.1618 c -0.4171,-0.4653 -0.8342,-0.4653 -1.2513,0 l -1.30427,2.1657 z"
       id="path5189-58"
       style="fill:#d40000;stroke:none" />
    <path
       d="m 826.90083,1046.7719 -4.16754,-7.0837 c -0.4171,-0.4652 -0.83421,-0.4652 -1.25131,0 l -4.18318,7.072 z"
       id="path5189-59"
       style="fill:#d40000;stroke:none" />
    <path
       d="m 839.48107,1042.159 -1.93317,-3.2398 c -0.4171,-0.4653 -0.83421,-0.4653 -1.25131,0 l -2.97194,5.9836 1.0794,-0.5936 8.1e-4,-0.5146 z"
       id="path5189-8"
       style="fill:#d40000;stroke:none" />
    <path
       d="m 849.7916,1037.3176 -10.45488,-0.023 c -0.59222,-0.02 -1.6131,0.766 -1.2513,1.3958 l 2.02186,3.3423 c 2.60437,-0.4712 4.17458,-0.1378 9.05711,-0.2652 l 1.87851,-3.0537 c 0.37796,-0.6424 -0.66671,-1.4018 -1.2513,-1.3958 z"
       id="path5189-5-3"
       style="fill:#333333;stroke:none" />
    <path
       d="m 864.12152,1037.292 -10.42753,0 c -0.59222,-0.021 -1.61312,0.766 -1.25132,1.3959 l 1.86195,3.0757 c 4.6671,-0.01 5.47279,-0.1648 8.49915,0.7071 l 2.56906,-3.7828 c 0.37794,-0.6426 -0.66671,-1.402 -1.25131,-1.3959 z"
       id="path5189-5-0"
       style="fill:#d40000;stroke:none" />
    <path
       d="m 834.52986,1037.4002 -10.42754,0 c -0.59222,-0.02 -1.6131,0.766 -1.2513,1.3959 l 4.77691,7.9665 2.35714,0 1.26917,-0.7047 4.52692,-7.2595 c 0.37796,-0.6425 -0.6667,-1.4019 -1.2513,-1.3959 z"
       id="path5189-5-1"
       style="fill:#333333;stroke:none" />
    <path
       d="m 839.2906,1012.9615 4.11135,6.9695 c 0.4171,0.4653 0.83421,0.4653 1.25131,0 l 4.21616,-6.9676 z"
       id="path5189-5-08"
       style="fill:#d40000;stroke:none" />
    <path
       d="m 846.16621,1021.8474 10.42753,0 c 0.59223,0.02 1.61312,-0.766 1.25132,-1.3958 l -4.49567,-7.5056 c -0.0265,-0.012 -3.61069,0 -3.61069,0 l -4.8238,7.5056 c -0.37794,0.6425 0.66671,1.4018 1.25131,1.3958 z"
       id="path5189-7-2"
       style="fill:#d40000;stroke:none" />
    <path
       d="m 831.29409,1021.8927 10.42754,0 c 0.59222,0.02 1.61312,-0.766 1.25131,-1.3958 l -4.59723,-7.533 -3.80599,0 -4.52693,7.5369 c -0.37795,0.6424 0.66671,1.4018 1.2513,1.3958 z"
       id="path5189-7-6"
       style="fill:#d40000;stroke:none" />
    <path
       d="m -839,1013.3622 3.5,0 0,1 -3.5,0 z"
       transform="scale(-1,1)"
       id="rect3819-9"
       style="fill:#999999;fill-opacity:0.78431373;fill-rule:nonzero;stroke:none" />
    <path
       d="m 839.99999,1018.8622 0,-6"
       style="fill:none;stroke:#000000;stroke-width:0.1;stroke-linecap:butt;stroke-linejoin:miter;stroke-miterlimit:4;stroke-opacity:1;stroke-dasharray:none" />
    <path
       d="m 786.10274,1018.8547 73.89452,0"
       style="fill:none;stroke:#000000;stroke-width:0.20548213;stroke-linecap:butt;stroke-linejoin:miter;stroke-miterlimit:4;stroke-opacity:1;stroke-dasharray:none" />
    <g
       id="text5342"
       style="font-size:40px;font-style:normal;font-variant:normal;font-weight:normal;font-stretch:normal;line-height:125%;letter-spacing:0px;word-spacing:0px;fill:#000000;fill-opacity:1;stroke:none;font-family:Arial;-inkscape-font-specification:Arial">
      <path
         d="m 885.22461,1030.9418 -0.26367,0 c -0.002,-0.2217 -0.11182,-0.3614 -0.32959,-0.419 -0.0645,-0.017 -0.13672,-0.025 -0.2168,-0.025 -0.20801,0 -0.35303,0.062 -0.43506,0.1861 l -0.0352,0.072 c -0.0117,0.034 -0.0176,0.071 -0.0176,0.1114 0,0.1123 0.0537,0.1963 0.16113,0.2519 0.0498,0.026 0.11572,0.05 0.19775,0.072 l 0.54932,0.1479 c 0.24023,0.065 0.38818,0.1954 0.44385,0.3897 0.0146,0.05 0.022,0.1025 0.022,0.1582 0,0.168 -0.0581,0.3149 -0.17432,0.4409 -0.0225,0.022 -0.0444,0.042 -0.0659,0.06 -0.14649,0.1123 -0.35157,0.1684 -0.61524,0.1684 -0.33789,0 -0.58301,-0.104 -0.73535,-0.312 -0.084,-0.1142 -0.12695,-0.2651 -0.12891,-0.4526 l 0.26368,0 c -0.002,0.09 0.0142,0.1689 0.0483,0.2373 0.0176,0.033 0.0396,0.066 0.0659,0.098 0.10157,0.1221 0.26953,0.1831 0.50391,0.1831 0.17773,0 0.31201,-0.031 0.40283,-0.092 0.0879,-0.062 0.13867,-0.1495 0.15235,-0.2608 0.002,-0.015 0.003,-0.029 0.003,-0.043 -10e-6,-0.1523 -0.10987,-0.2632 -0.32959,-0.3325 l -0.0718,-0.022 -0.54346,-0.1435 c -0.28613,-0.074 -0.4292,-0.2442 -0.4292,-0.5098 0,-0.248 0.10401,-0.4282 0.31201,-0.5405 0.12793,-0.068 0.28272,-0.1025 0.46436,-0.1026 0.35254,10e-5 0.5918,0.1114 0.71777,0.334 0.0557,0.098 0.0835,0.2124 0.0835,0.3443"
         id="path6392"
         style="font-size:3px;font-family:Khmer OS;-inkscape-font-specification:Khmer OS" />
      <path
         d="m 886.32031,1032.4872 c -0.43945,0 -0.65918,-0.1953 -0.65918,-0.586 l 0,-1.3183 0.21973,0 0,1.3183 c 0,0.2442 0.14648,0.3663 0.43945,0.3663 0.29297,0 0.43945,-0.1221 0.43946,-0.3663 l 0,-1.3183 0.21972,0 0,1.3183 c 0,0.3907 -0.21973,0.586 -0.65918,0.586 m -0.14648,-2.1621 c 0,0.073 -0.0361,0.1098 -0.1084,0.1098 -0.0732,10e-4 -0.10986,-0.035 -0.10986,-0.1084 0,-0.073 0.0366,-0.1098 0.10986,-0.1098 0.0723,-10e-4 0.1084,0.035 0.1084,0.1084 m 0.29443,0 c 0,-0.073 0.0366,-0.1099 0.10986,-0.1099 0.0723,10e-4 0.1084,0.038 0.1084,0.1099 0,0.073 -0.0366,0.1098 -0.10986,0.1098 -0.0732,0 -0.10938,-0.037 -0.1084,-0.1098"
         id="path6394"
         style="font-size:3px;font-family:Khmer OS;-inkscape-font-specification:Khmer OS" />
      <path
         d="m 889.43164,1032.4872 -0.30615,0 -0.50391,-1.7974 -0.48926,1.7974 -0.30615,0 -0.56103,-2.187 0.31201,0 0.41162,1.7754 0.48486,-1.7754 0.3003,0 0.49804,1.7754 0.40283,-1.7754 0.31202,0 -0.55518,2.187"
         id="path6396"
         style="font-size:3px;font-family:Khmer OS;-inkscape-font-specification:Khmer OS" />
      <path
         d="m 890.57715,1031.4911 0,0.75 1.29053,0 0,0.2461 -1.56885,0 0,-2.187 1.51465,0 0,0.2461 -1.23633,0 0,0.6987 1.19238,0 0,0.2461 -1.19238,0"
         id="path6398"
         style="font-size:3px;font-family:Khmer OS;-inkscape-font-specification:Khmer OS" />
      <path
         d="m 893.20654,1031.3651 0.77344,1.1221 -0.34424,0 -0.59765,-0.9126 -0.60059,0.9126 -0.33838,0 0.77344,-1.1221 -0.7251,-1.0649 0.33838,0 0.56103,0.8584 0.56397,-0.8584 0.33398,0 -0.73828,1.0649"
         id="path6400"
         style="font-size:3px;font-family:Khmer OS;-inkscape-font-specification:Khmer OS" />
    </g>
    <path
       d="m 751.00274,1046.8622 73.89452,0"
       style="fill:none;stroke:#000000;stroke-width:0.20548213;stroke-linecap:butt;stroke-linejoin:miter;stroke-miterlimit:4;stroke-opacity:1;stroke-dasharray:none" />
    <path
       d="m 548.55274,1046.3622 73.89452,0"
       style="fill:none;stroke:#000000;stroke-width:0.20548213;stroke-linecap:butt;stroke-linejoin:miter;stroke-miterlimit:4;stroke-opacity:1;stroke-dasharray:none" />
    <path
       d="m 550.00274,1018.8622 73.89452,0"
       style="fill:none;stroke:#000000;stroke-width:0.20548213;stroke-linecap:butt;stroke-linejoin:miter;stroke-miterlimit:4;stroke-opacity:1;stroke-dasharray:none" />
    <path
       d="m 390.05274,1046.3621 73.89452,0"
       style="fill:none;stroke:#000000;stroke-width:0.20548213;stroke-linecap:butt;stroke-linejoin:miter;stroke-miterlimit:4;stroke-opacity:1;stroke-dasharray:none" />
    <path
       d="m 391.50274,1018.8621 73.89452,0"
       style="fill:none;stroke:#000000;stroke-width:0.20548213;stroke-linecap:butt;stroke-linejoin:miter;stroke-miterlimit:4;stroke-opacity:1;stroke-dasharray:none" />
    <path
       d="m 283.55274,1046.3622 73.89452,0"
       style="fill:none;stroke:#000000;stroke-width:0.20548213;stroke-linecap:butt;stroke-linejoin:miter;stroke-miterlimit:4;stroke-opacity:1;stroke-dasharray:none" />
    <path
       d="m 285.00274,1018.8622 73.89452,0"
       style="fill:none;stroke:#000000;stroke-width:0.20548213;stroke-linecap:butt;stroke-linejoin:miter;stroke-miterlimit:4;stroke-opacity:1;stroke-dasharray:none" />
    <path
       d="m 433,1027.8622 -12,0 c -0.554,0 -1,0.446 -1,1 l 0,7 c 0,0.554 0.446,1 1,1 l 12,0 c 0.554,0 1,-0.446 1,-1 l 0,-7 c 0,-0.554 -0.446,-1 -1,-1 z"
       style="fill:#999999;fill-opacity:1;fill-rule:nonzero;stroke:#000000;stroke-width:0.40000001;stroke-miterlimit:4;stroke-opacity:1" />
    <path
       d="m 226.5,1027.8622 12,0 c 0.554,0 1,0.446 1,1 l 0,5 c 0,0.554 -0.446,1 -1,1 l -12,0 c -0.554,0 -1,-0.446 -1,-1 l 0,-5 c 0,-0.554 0.446,-1 1,-1 z"
       style="fill:#999999;fill-opacity:1;fill-rule:nonzero;stroke:#000000;stroke-width:0.40000001;stroke-miterlimit:4;stroke-opacity:1" />
    <path
       d="m 351,1027.8622 12,0 c 0.554,0 1,0.446 1,1 l 0,5 c 0,0.554 -0.446,1 -1,1 l -12,0 c -0.554,0 -1,-0.446 -1,-1 l 0,-5 c 0,-0.554 0.446,-1 1,-1 z"
       style="fill:#999999;fill-opacity:1;fill-rule:nonzero;stroke:#000000;stroke-width:0.40000001;stroke-miterlimit:4;stroke-opacity:1" />
    <path
       d="m 385.5,1027.8622 12,0 c 0.554,0 1,0.446 1,1 l 0,5 c 0,0.554 -0.446,1 -1,1 l -12,0 c -0.554,0 -1,-0.446 -1,-1 l 0,-5 c 0,-0.554 0.446,-1 1,-1 z"
       style="fill:#999999;fill-opacity:1;fill-rule:nonzero;stroke:#000000;stroke-width:0.40000001;stroke-miterlimit:4;stroke-opacity:1" />
    <path
       d="m 510.5,1027.8622 12,0 c 0.554,0 1,0.446 1,1 l 0,5 c 0,0.554 -0.446,1 -1,1 l -12,0 c -0.554,0 -1,-0.446 -1,-1 l 0,-5 c 0,-0.554 0.446,-1 1,-1 z"
       style="fill:#999999;fill-opacity:1;fill-rule:nonzero;stroke:#000000;stroke-width:0.40000001;stroke-miterlimit:4;stroke-opacity:1" />
    <path
       d="m 544,1027.8622 12,0 c 0.554,0 1,0.446 1,1 l 0,5 c 0,0.554 -0.446,1 -1,1 l -12,0 c -0.554,0 -1,-0.446 -1,-1 l 0,-5 c 0,-0.554 0.446,-1 1,-1 z"
       style="fill:#999999;fill-opacity:1;fill-rule:nonzero;stroke:#000000;stroke-width:0.40000001;stroke-miterlimit:4;stroke-opacity:1" />
    <path
       d="m 669,1027.8622 12,0 c 0.554,0 1,0.446 1,1 l 0,5 c 0,0.554 -0.446,1 -1,1 l -12,0 c -0.554,0 -1,-0.446 -1,-1 l 0,-5 c 0,-0.554 0.446,-1 1,-1 z"
       style="fill:#999999;fill-opacity:1;fill-rule:nonzero;stroke:#000000;stroke-width:0.40000001;stroke-miterlimit:4;stroke-opacity:1" />
    <path
       d="m 701.5,1027.8622 12,0 c 0.554,0 1,0.446 1,1 l 0,5 c 0,0.554 -0.446,1 -1,1 l -12,0 c -0.554,0 -1,-0.446 -1,-1 l 0,-5 c 0,-0.554 0.446,-1 1,-1 z"
       style="fill:#999999;fill-opacity:1;fill-rule:nonzero;stroke:#000000;stroke-width:0.40000001;stroke-miterlimit:4;stroke-opacity:1" />
    <path
       d="m 77.00001,1018.8622 0,-6"
       style="fill:none;stroke:#000000;stroke-width:0.1;stroke-linecap:butt;stroke-linejoin:miter;stroke-miterlimit:4;stroke-opacity:1;stroke-dasharray:none" />
    <path
       d="m 114.50001,1036.1122 c 0,7e-4 0,0 0,0"
       id="path3978-5-3"
       style="fill:#333333;fill-opacity:1;fill-rule:nonzero;stroke:none" />
    <path
       d="m 53.83966,1036.3276 -10.42754,0 c -0.59222,0.02 -1.61311,-0.766 -1.2513,-1.3958 l 5.83942,-9.7712 c 0.41709,-0.4652 0.8342,-0.4652 1.2513,0 l 5.83943,9.7712 c 0.37795,0.6425 -0.66671,1.4018 -1.25131,1.3958 z"
       id="path5189-0"
       style="fill:#333333;stroke:none" />
    <path
       d="m 50.76375,1022.8901 10.42754,0 c 0.59222,-0.02 1.61312,0.766 1.25131,1.3959 l -5.83942,9.7712 c -0.4171,0.4652 -0.8342,0.4652 -1.2513,0 l -5.83943,-9.7712 c -0.37795,-0.6425 0.66671,-1.4019 1.2513,-1.3959 z"
       id="path5189-5-6"
       style="fill:#d40000;stroke:none" />
    <path
       d="m 53.78657,1041.764 1.30035,-2.1618 c 0.4171,-0.4653 0.8342,-0.4653 1.2513,0 l 1.30427,2.1657 z"
       id="path5189-58-4"
       style="fill:#d40000;stroke:none" />
    <path
       d="m 80.59917,1046.7719 4.16754,-7.0837 c 0.4171,-0.4652 0.83421,-0.4652 1.25131,0 l 4.18318,7.072 z"
       id="path5189-59-4"
       style="fill:#d40000;stroke:none" />
    <path
       d="m 68.01893,1042.159 1.93317,-3.2398 c 0.4171,-0.4653 0.83421,-0.4653 1.25131,0 l 2.97194,5.9836 -1.0794,-0.5936 -8.1e-4,-0.5146 z"
       id="path5189-8-5"
       style="fill:#d40000;stroke:none" />
    <path
       d="m 57.7084,1037.3176 10.45488,-0.023 c 0.59222,-0.02 1.6131,0.766 1.2513,1.3958 l -2.02186,3.3423 c -2.60437,-0.4712 -4.17458,-0.1378 -9.05711,-0.2652 l -1.87851,-3.0537 c -0.37796,-0.6424 0.66671,-1.4018 1.2513,-1.3958 z"
       id="path5189-5-3-4"
       style="fill:#333333;stroke:none" />
    <path
       d="m 43.37848,1037.292 10.42753,0 c 0.59222,-0.021 1.61312,0.766 1.25132,1.3959 l -1.86195,3.0757 c -4.6671,-0.01 -5.47279,-0.1648 -8.49915,0.7071 l -2.56906,-3.7828 c -0.37794,-0.6426 0.66671,-1.402 1.25131,-1.3959 z"
       id="path5189-5-0-9"
       style="fill:#d40000;stroke:none" />
    <path
       d="m 72.97014,1037.4002 10.42754,0 c 0.59222,-0.02 1.6131,0.766 1.2513,1.3959 l -4.77691,7.9665 -2.35714,0 -1.26917,-0.7047 -4.52692,-7.2595 c -0.37796,-0.6425 0.6667,-1.4019 1.2513,-1.3959 z"
       id="path5189-5-1-8"
       style="fill:#333333;stroke:none" />
    <path
       d="m 68.2094,1012.9615 -4.11135,6.9695 c -0.4171,0.4653 -0.83421,0.4653 -1.25131,0 l -4.21616,-6.9676 z"
       id="path5189-5-08-5"
       style="fill:#d40000;stroke:none" />
    <path
       d="m 61.33379,1021.8474 -10.42753,0 c -0.59223,0.02 -1.61312,-0.766 -1.25132,-1.3958 l 4.49567,-7.5056 c 0.0265,-0.012 3.61069,0 3.61069,0 l 4.8238,7.5056 c 0.37794,0.6425 -0.66671,1.4018 -1.25131,1.3958 z"
       id="path5189-7-2-1"
       style="fill:#d40000;stroke:none" />
    <path
       d="m 76.20591,1021.8927 -10.42754,0 c -0.59222,0.02 -1.61312,-0.766 -1.25131,-1.3958 l 4.59723,-7.533 3.80599,0 4.52693,7.5369 c 0.37795,0.6424 -0.66671,1.4018 -1.2513,1.3958 z"
       id="path5189-7-6-7"
       style="fill:#d40000;stroke:none" />
    <path
       d="m 68.5,1013.3622 3.5,0 0,1 -3.5,0 z"
       id="rect3819-9-5"
       style="fill:#999999;fill-opacity:0.78431373;fill-rule:nonzero;stroke:none" />
    <path
       d="m 67.50001,1018.8622 0,-6"
       style="fill:none;stroke:#000000;stroke-width:0.1;stroke-linecap:butt;stroke-linejoin:miter;stroke-miterlimit:4;stroke-opacity:1;stroke-dasharray:none" />
    <path
       d="m 121.39726,1018.8547 -73.89452,0"
       style="fill:none;stroke:#000000;stroke-width:0.20548213;stroke-linecap:butt;stroke-linejoin:miter;stroke-miterlimit:4;stroke-opacity:1;stroke-dasharray:none" />
    <g
       id="text5342-2"
       style="font-size:40px;font-style:normal;font-variant:normal;font-weight:normal;font-stretch:normal;line-height:125%;letter-spacing:0px;word-spacing:0px;fill:#000000;fill-opacity:1;stroke:none;font-family:Arial;-inkscape-font-specification:Arial">
      <path
         d="m 15.724605,1030.9418 -0.263672,0 c -0.002,-0.2217 -0.111818,-0.3614 -0.32959,-0.419 -0.06445,-0.017 -0.13672,-0.025 -0.216797,-0.025 -0.208009,0 -0.353028,0.062 -0.435059,0.1861 l -0.03516,0.072 c -0.01172,0.034 -0.01758,0.071 -0.01758,0.1114 0,0.1123 0.05371,0.1963 0.161133,0.2519 0.0498,0.026 0.115722,0.05 0.197754,0.072 l 0.549316,0.1479 c 0.240233,0.065 0.388182,0.1954 0.443848,0.3897 0.01465,0.05 0.02197,0.1025 0.02197,0.1582 -10e-7,0.168 -0.05811,0.3149 -0.174316,0.4409 -0.02246,0.022 -0.04443,0.042 -0.06592,0.06 -0.146486,0.1123 -0.351564,0.1684 -0.615234,0.1684 -0.337892,0 -0.583009,-0.104 -0.735352,-0.312 -0.08398,-0.1142 -0.126953,-0.2651 -0.128906,-0.4526 l 0.263672,0 c -0.002,0.09 0.01416,0.1689 0.04834,0.2373 0.01758,0.033 0.03955,0.066 0.06592,0.098 0.101561,0.1221 0.26953,0.1831 0.503906,0.1831 0.177733,0 0.31201,-0.031 0.402832,-0.092 0.08789,-0.062 0.13867,-0.1495 0.152344,-0.2608 0.002,-0.015 0.0029,-0.029 0.0029,-0.043 -10e-7,-0.1523 -0.109864,-0.2632 -0.32959,-0.3325 l -0.07178,-0.022 -0.543457,-0.1435 c -0.286133,-0.074 -0.429199,-0.2442 -0.429199,-0.5098 0,-0.248 0.104003,-0.4282 0.312012,-0.5405 0.127929,-0.068 0.282714,-0.1025 0.464355,-0.1026 0.352538,10e-5 0.591795,0.1114 0.717774,0.334 0.05566,0.098 0.08349,0.2124 0.0835,0.3443"
         id="path6381"
         style="font-size:3px;font-family:Khmer OS;-inkscape-font-specification:Khmer OS" />
      <path
         d="m 16.820308,1032.4872 c -0.439454,0 -0.65918,-0.1953 -0.65918,-0.586 l 0,-1.3183 0.219727,0 0,1.3183 c -1e-6,0.2442 0.146483,0.3663 0.439453,0.3663 0.292967,0 0.439452,-0.1221 0.439453,-0.3663 l 0,-1.3183 0.219726,0 0,1.3183 c -10e-7,0.3907 -0.219727,0.586 -0.659179,0.586 m -0.146485,-2.1621 c 0,0.073 -0.03613,0.1098 -0.108398,0.1098 -0.07324,10e-4 -0.109864,-0.035 -0.109863,-0.1084 -1e-6,-0.073 0.03662,-0.1098 0.109863,-0.1098 0.07226,-10e-4 0.108398,0.035 0.108398,0.1084 m 0.294434,0 c -1e-6,-0.073 0.03662,-0.1099 0.109863,-0.1099 0.07227,10e-4 0.108397,0.038 0.108399,0.1099 -2e-6,0.073 -0.03662,0.1098 -0.109864,0.1098 -0.07324,0 -0.109376,-0.037 -0.108398,-0.1098"
         id="path6383"
         style="font-size:3px;font-family:Khmer OS;-inkscape-font-specification:Khmer OS" />
      <path
         d="m 19.931636,1032.4872 -0.306152,0 -0.503907,-1.7974 -0.489258,1.7974 -0.306152,0 -0.561035,-2.187 0.312012,0 0.411621,1.7754 0.484863,-1.7754 0.300293,0 0.498047,1.7754 0.402832,-1.7754 0.312012,0 -0.555176,2.187"
         id="path6385"
         style="font-size:3px;font-family:Khmer OS;-inkscape-font-specification:Khmer OS" />
      <path
         d="m 21.077144,1031.4911 0,0.75 1.290527,0 0,0.2461 -1.568848,0 0,-2.187 1.514649,0 0,0.2461 -1.236328,0 0,0.6987 1.192382,0 0,0.2461 -1.192382,0"
         id="path6387"
         style="font-size:3px;font-family:Khmer OS;-inkscape-font-specification:Khmer OS" />
      <path
         d="m 23.706538,1031.3651 0.773438,1.1221 -0.344239,0 -0.597656,-0.9126 -0.600586,0.9126 -0.338379,0 0.773438,-1.1221 -0.725098,-1.0649 0.338379,0 0.561035,0.8584 0.563965,-0.8584 0.333984,0 -0.738281,1.0649"
         id="path6389"
         style="font-size:3px;font-family:Khmer OS;-inkscape-font-specification:Khmer OS" />
    </g>
  </g>
  <g
     id="layer2" />
</svg>
