<?xml version="1.0" encoding="UTF-8" standalone="no"?>
<!-- Created with Inkscape (http://www.inkscape.org/) -->

<svg
   xmlns:dc="http://purl.org/dc/elements/1.1/"
   xmlns:cc="http://creativecommons.org/ns#"
   xmlns:rdf="http://www.w3.org/1999/02/22-rdf-syntax-ns#"
   xmlns:svg="http://www.w3.org/2000/svg"
   xmlns="http://www.w3.org/2000/svg"
   version="1.1"
   width="428"
   height="50"
   id="svg2">
  <defs
     id="defs4" />
  <metadata
     id="metadata7">
    <rdf:RDF>
      <cc:Work
         rdf:about="">
        <dc:format>image/svg+xml</dc:format>
        <dc:type
           rdf:resource="http://purl.org/dc/dcmitype/StillImage" />
        <dc:title></dc:title>
      </cc:Work>
    </rdf:RDF>
  </metadata>
  <g
     transform="translate(0,-1002.3622)"
     id="layer1">
    <path
       d="m 40,48.75 a 1.25,1.25 0 1 1 -5.09e-4,-0.03565"
       transform="matrix(2,0,0,2,-30,952.3622)"
       id="path4050"
       style="fill:#1a1a1a;fill-opacity:1;fill-rule:nonzero;stroke:none" />
    <path
       d="m 40,48.75 a 1.25,1.25 0 1 1 -5.09e-4,-0.03565"
       transform="matrix(2,0,0,2,-12.5,952.3622)"
       id="path4050-2"
       style="fill:#1a1a1a;fill-opacity:1;fill-rule:nonzero;stroke:none" />
    <path
       d="m 75,16.5 -60,0 C 14,16.5 13.5,16 12.5,16 L 10,16 C 0,16 0.5,37.5 0.5,42.5 l 0,5 c 0,1 1.5,1 2.5,1 l 72,0 z"
       transform="translate(0,1002.3622)"
       id="path3936"
       style="fill:#cccccc;stroke:#000000;stroke-width:0.5;stroke-linecap:butt;stroke-linejoin:miter;stroke-miterlimit:4;stroke-opacity:1;stroke-dasharray:none" />
    <path
       d="m 75,1050.8622 0.5,0.5 0.5,-0.5 0,-32 -0.5,-0.5 -0.5,0.5 z"
       id="path2989"
       style="fill:#808080;stroke:none" />
    <path
       d="m 75,1050.8622 0.5,0.5 0.5,-0.5 0,-32 -0.5,-0.5 -0.5,0.5 z"
       id="path2989-1"
       style="fill:#808080;stroke:none" />
    <path
       d="m 76,1050.8622 0.5,0.5 0.5,-0.5 0,-32 -0.5,-0.5 -0.5,0.5 z"
       id="path2989-1-3"
       style="fill:#4d4d4d;stroke:none" />
    <path
       d="m 77,1050.8622 0.5,0.5 0.5,-0.5 0,-32 -0.5,-0.5 -0.5,0.5 z"
       id="path2989-1-7"
       style="fill:#808080;stroke:none" />
    <path
       d="m 79,1050.8622 0.5,0.5 0.5,-0.5 0,-32 -0.5,-0.5 -0.5,0.5 z"
       id="path2989-1-5"
       style="fill:#808080;stroke:none" />
    <path
       d="m 78,1050.8622 0.5,0.5 0.5,-0.5 0,-32 -0.5,-0.5 -0.5,0.5 z"
       id="path2989-1-3-9"
       style="fill:#4d4d4d;stroke:none" />
    <path
       d="m 80,1050.8622 0.5,0.5 0.5,-0.5 0,-32 -0.5,-0.5 -0.5,0.5 z"
       id="path2989-1-3-9-2"
       style="fill:#4d4d4d;stroke:none" />
    <rect
       width="54"
       height="32"
       x="82"
       y="1018.8622"
       id="rect3938"
       style="fill:#cccccc;fill-opacity:1;fill-rule:nonzero;stroke:#000000;stroke-width:0.5;stroke-miterlimit:4;stroke-opacity:1;stroke-dasharray:none" />
    <path
       d="m 81,1050.8622 0.5,0.5 0.5,-0.5 0,-32 -0.5,-0.5 -0.5,0.5 z"
       id="path2989-1-5-4"
       style="fill:#808080;stroke:none" />
    <path
       d="m 136,1050.8622 0.5,0.5 0.5,-0.5 0,-32 -0.5,-0.5 -0.5,0.5 z"
       id="path2989-9"
       style="fill:#808080;stroke:none" />
    <path
       d="m 136,1050.8622 0.5,0.5 0.5,-0.5 0,-32 -0.5,-0.5 -0.5,0.5 z"
       id="path2989-1-4"
       style="fill:#808080;stroke:none" />
    <path
       d="m 137,1050.8622 0.5,0.5 0.5,-0.5 0,-32 -0.5,-0.5 -0.5,0.5 z"
       id="path2989-1-3-6"
       style="fill:#4d4d4d;stroke:none" />
    <path
       d="m 138,1050.8622 0.5,0.5 0.5,-0.5 0,-32 -0.5,-0.5 -0.5,0.5 z"
       id="path2989-1-7-0"
       style="fill:#808080;stroke:none" />
    <path
       d="m 140,1050.8622 0.5,0.5 0.5,-0.5 0,-32 -0.5,-0.5 -0.5,0.5 z"
       id="path2989-1-5-6"
       style="fill:#808080;stroke:none" />
    <path
       d="m 139,1050.8622 0.5,0.5 0.5,-0.5 0,-32 -0.5,-0.5 -0.5,0.5 z"
       id="path2989-1-3-9-0"
       style="fill:#4d4d4d;stroke:none" />
    <path
       d="m 141,1050.8622 0.5,0.5 0.5,-0.5 0,-32 -0.5,-0.5 -0.5,0.5 z"
       id="path2989-1-3-9-2-6"
       style="fill:#4d4d4d;stroke:none" />
    <path
       d="m 142,1050.8622 0.5,0.5 0.5,-0.5 0,-32 -0.5,-0.5 -0.5,0.5 z"
       id="path2989-1-5-4-5"
       style="fill:#808080;stroke:none" />
    <path
       d="m 40,48.75 a 1.25,1.25 0 1 1 -5.09e-4,-0.03565"
       transform="matrix(2,0,0,2,76.5,952.3622)"
       id="path4050-8"
       style="fill:#1a1a1a;fill-opacity:1;fill-rule:nonzero;stroke:none" />
    <path
       d="m 40,48.75 a 1.25,1.25 0 1 1 -5.09e-4,-0.03565"
       transform="matrix(2,0,0,2,94,952.3622)"
       id="path4050-2-5"
       style="fill:#1a1a1a;fill-opacity:1;fill-rule:nonzero;stroke:none" />
    <rect
       width="39"
       height="31.999983"
       x="143"
       y="1018.8622"
       id="rect3938-4"
       style="fill:#cccccc;fill-opacity:1;fill-rule:nonzero;stroke:#000000;stroke-width:0.48605001;stroke-miterlimit:4;stroke-opacity:1;stroke-dasharray:none" />
    <path
       d="m 182,1050.8622 0.5,0.5 0.5,-0.5 0,-32 -0.5,-0.5 -0.5,0.5 z"
       id="path2989-8"
       style="fill:#808080;stroke:none" />
    <path
       d="m 182,1050.8622 0.5,0.5 0.5,-0.5 0,-32 -0.5,-0.5 -0.5,0.5 z"
       id="path2989-1-0"
       style="fill:#808080;stroke:none" />
    <path
       d="m 183,1050.8622 0.5,0.5 0.5,-0.5 0,-32 -0.5,-0.5 -0.5,0.5 z"
       id="path2989-1-3-7"
       style="fill:#4d4d4d;stroke:none" />
    <path
       d="m 184,1050.8622 0.5,0.5 0.5,-0.5 0,-32 -0.5,-0.5 -0.5,0.5 z"
       id="path2989-1-7-7"
       style="fill:#808080;stroke:none" />
    <path
       d="m 186,1050.8622 0.5,0.5 0.5,-0.5 0,-32 -0.5,-0.5 -0.5,0.5 z"
       id="path2989-1-5-7"
       style="fill:#808080;stroke:none" />
    <path
       d="m 185,1050.8622 0.5,0.5 0.5,-0.5 0,-32 -0.5,-0.5 -0.5,0.5 z"
       id="path2989-1-3-9-8"
       style="fill:#4d4d4d;stroke:none" />
    <path
       d="m 187,1050.8622 0.5,0.5 0.5,-0.5 0,-32 -0.5,-0.5 -0.5,0.5 z"
       id="path2989-1-3-9-2-8"
       style="fill:#4d4d4d;stroke:none" />
    <rect
       width="50"
       height="31.999983"
       x="-239"
       y="1018.8622"
       transform="scale(-1,1)"
       id="rect3938-4-1-7"
       style="fill:#cccccc;fill-opacity:1;fill-rule:nonzero;stroke:#000000;stroke-width:0.4344357;stroke-miterlimit:4;stroke-opacity:1;stroke-dasharray:none" />
    <path
       d="m 188,1050.8622 0.5,0.5 0.5,-0.5 0,-32 -0.5,-0.5 -0.5,0.5 z"
       id="path2989-1-5-4-3"
       style="fill:#808080;stroke:none" />
    <rect
       width="54"
       height="11.000017"
       x="82"
       y="1027.3622"
       id="rect3976"
       style="fill:#333333;fill-opacity:1;fill-rule:nonzero;stroke:none" />
    <rect
       width="39"
       height="11.000017"
       x="143"
       y="1027.3622"
       id="rect3976-5"
       style="fill:#333333;fill-opacity:1;fill-rule:nonzero;stroke:none" />
    <rect
       width="50"
       height="11.000017"
       x="189"
       y="1027.3622"
       id="rect3976-5-7"
       style="fill:#333333;fill-opacity:1;fill-rule:nonzero;stroke:none" />
    <path
       d="m 75,25 0,11 -71.5,0 c 0,-3.5 0,-6 1.5,-11 z"
       transform="translate(0,1002.3622)"
       id="path4014"
       style="fill:#333333;stroke:none" />
    <rect
       width="12.5"
       height="22.5"
       x="22.5"
       y="1027.3622"
       id="rect4016"
       style="fill:#b3b3b3;fill-opacity:1;fill-rule:nonzero;stroke:none" />
    <rect
       width="10.5"
       height="22.499931"
       x="23.5"
       y="1027.3622"
       id="rect4018"
       style="fill:#333333;fill-opacity:1;fill-rule:nonzero;stroke:none" />
    <rect
       width="12.5"
       height="22.499983"
       x="121"
       y="1027.3622"
       id="rect4016-5"
       style="fill:#b3b3b3;fill-opacity:1;fill-rule:nonzero;stroke:none" />
    <rect
       width="10.5"
       height="22.499931"
       x="122"
       y="1027.3622"
       id="rect4018-9"
       style="fill:#333333;fill-opacity:1;fill-rule:nonzero;stroke:none" />
    <rect
       width="12.5"
       height="22.499983"
       x="191.5"
       y="1027.3622"
       id="rect4016-4"
       style="fill:#b3b3b3;fill-opacity:1;fill-rule:nonzero;stroke:none" />
    <rect
       width="10.5"
       height="22.499931"
       x="192.5"
       y="1027.3622"
       id="rect4018-7"
       style="fill:#333333;fill-opacity:1;fill-rule:nonzero;stroke:none" />
    <rect
       width="24.5"
       height="4.9999828"
       x="150.5"
       y="1045.8622"
       id="rect4091"
       style="fill:none;stroke:#000000;stroke-width:0.22599953;stroke-miterlimit:4;stroke-opacity:1;stroke-dasharray:none" />
    <rect
       width="24.5"
       height="5.0000172"
       x="44"
       y="1045.8622"
       id="rect4091-7"
       style="fill:none;stroke:#000000;stroke-width:0.22599953;stroke-miterlimit:4;stroke-opacity:1;stroke-dasharray:none" />
    <path
       d="m 353,1050.8622 -0.5,0.5 -0.5,-0.5 0,-32 0.5,-0.5 0.5,0.5 z"
       id="path2989-91"
       style="fill:#808080;stroke:none" />
    <path
       d="m 353,1050.8622 -0.5,0.5 -0.5,-0.5 0,-32 0.5,-0.5 0.5,0.5 z"
       id="path2989-1-04"
       style="fill:#808080;stroke:none" />
    <path
       d="m 352,1050.8622 -0.5,0.5 -0.5,-0.5 0,-32 0.5,-0.5 0.5,0.5 z"
       id="path2989-1-3-8"
       style="fill:#4d4d4d;stroke:none" />
    <path
       d="m 351,1050.8622 -0.5,0.5 -0.5,-0.5 0,-32 0.5,-0.5 0.5,0.5 z"
       id="path2989-1-7-02"
       style="fill:#808080;stroke:none" />
    <path
       d="m 349,1050.8622 -0.5,0.5 -0.5,-0.5 0,-32 0.5,-0.5 0.5,0.5 z"
       id="path2989-1-5-0"
       style="fill:#808080;stroke:none" />
    <path
       d="m 350,1050.8622 -0.5,0.5 -0.5,-0.5 0,-32 0.5,-0.5 0.5,0.5 z"
       id="path2989-1-3-9-89"
       style="fill:#4d4d4d;stroke:none" />
    <path
       d="m 348,1050.8622 -0.5,0.5 -0.5,-0.5 0,-32 0.5,-0.5 0.5,0.5 z"
       id="path2989-1-3-9-2-88"
       style="fill:#4d4d4d;stroke:none" />
    <rect
       width="54"
       height="32"
       x="-346"
       y="1018.8622"
       transform="scale(-1,1)"
       id="rect3938-9"
       style="fill:#cccccc;fill-opacity:1;fill-rule:nonzero;stroke:#000000;stroke-width:0.5;stroke-miterlimit:4;stroke-opacity:1;stroke-dasharray:none" />
    <path
       d="m 347,1050.8622 -0.5,0.5 -0.5,-0.5 0,-32 0.5,-0.5 0.5,0.5 z"
       id="path2989-1-5-4-8"
       style="fill:#808080;stroke:none" />
    <path
       d="m 292,1050.8622 -0.5,0.5 -0.5,-0.5 0,-32 0.5,-0.5 0.5,0.5 z"
       id="path2989-9-5"
       style="fill:#808080;stroke:none" />
    <path
       d="m 292,1050.8622 -0.5,0.5 -0.5,-0.5 0,-32 0.5,-0.5 0.5,0.5 z"
       id="path2989-1-4-5"
       style="fill:#808080;stroke:none" />
    <path
       d="M 282.5,16.5 290,10 277.5,5"
       transform="translate(0,1002.3622)"
       id="path4303"
       style="fill:none;stroke:#000000;stroke-width:1px;stroke-linecap:butt;stroke-linejoin:miter;stroke-opacity:1" />
    <path
       d="m 291,1050.8622 -0.5,0.5 -0.5,-0.5 0,-32 0.5,-0.5 0.5,0.5 z"
       id="path2989-1-3-6-6"
       style="fill:#4d4d4d;stroke:none" />
    <path
       d="m 290,1050.8622 -0.5,0.5 -0.5,-0.5 0,-32 0.5,-0.5 0.5,0.5 z"
       id="path2989-1-7-0-5"
       style="fill:#808080;stroke:none" />
    <path
       d="m 288,1050.8622 -0.5,0.5 -0.5,-0.5 0,-32 0.5,-0.5 0.5,0.5 z"
       id="path2989-1-5-6-0"
       style="fill:#808080;stroke:none" />
    <path
       d="m 289,1050.8622 -0.5,0.5 -0.5,-0.5 0,-32 0.5,-0.5 0.5,0.5 z"
       id="path2989-1-3-9-0-2"
       style="fill:#4d4d4d;stroke:none" />
    <path
       d="m 287,1050.8622 -0.5,0.5 -0.5,-0.5 0,-32 0.5,-0.5 0.5,0.5 z"
       id="path2989-1-3-9-2-6-6"
       style="fill:#4d4d4d;stroke:none" />
    <path
       d="m 40,48.75 a 1.25,1.25 0 1 1 -5.09e-4,-0.03565"
       transform="matrix(-2,0,0,2,352,952.3622)"
       id="path4050-8-6"
       style="fill:#1a1a1a;fill-opacity:1;fill-rule:nonzero;stroke:none" />
    <path
       d="m 40,48.75 a 1.25,1.25 0 1 1 -5.09e-4,-0.03565"
       transform="matrix(-2,0,0,2,334.5,952.3622)"
       id="path4050-2-5-5"
       style="fill:#1a1a1a;fill-opacity:1;fill-rule:nonzero;stroke:none" />
    <rect
       width="39"
       height="31.999983"
       x="-284.99997"
       y="1018.8622"
       transform="scale(-1,1)"
       id="rect3938-4-7"
       style="fill:#cccccc;fill-opacity:1;fill-rule:nonzero;stroke:#000000;stroke-width:0.48605001;stroke-miterlimit:4;stroke-opacity:1;stroke-dasharray:none" />
    <path
       d="m 286,1050.8622 -0.5,0.5 -0.5,-0.5 0,-32 0.5,-0.5 0.5,0.5 z"
       id="path2989-1-5-4-5-6"
       style="fill:#808080;stroke:none" />
    <path
       d="m 246,1050.8622 -0.5,0.5 -0.5,-0.5 0,-32 0.5,-0.5 0.5,0.5 z"
       id="path2989-8-2"
       style="fill:#808080;stroke:none" />
    <path
       d="m 246,1050.8622 -0.5,0.5 -0.5,-0.5 0,-32 0.5,-0.5 0.5,0.5 z"
       id="path2989-1-0-3"
       style="fill:#808080;stroke:none" />
    <path
       d="m 245,1050.8622 -0.5,0.5 -0.5,-0.5 0,-32 0.5,-0.5 0.5,0.5 z"
       id="path2989-1-3-7-5"
       style="fill:#4d4d4d;stroke:none" />
    <path
       d="m 244,1050.8622 -0.5,0.5 -0.5,-0.5 0,-32 0.5,-0.5 0.5,0.5 z"
       id="path2989-1-7-7-6"
       style="fill:#808080;stroke:none" />
    <path
       d="m 242,1050.8622 -0.5,0.5 -0.5,-0.5 0,-32 0.5,-0.5 0.5,0.5 z"
       id="path2989-1-5-7-3"
       style="fill:#808080;stroke:none" />
    <path
       d="m 243,1050.8622 -0.5,0.5 -0.5,-0.5 0,-32 0.5,-0.5 0.5,0.5 z"
       id="path2989-1-3-9-8-9"
       style="fill:#4d4d4d;stroke:none" />
    <path
       d="m 241,1050.8622 -0.5,0.5 -0.5,-0.5 0,-32 0.5,-0.5 0.5,0.5 z"
       id="path2989-1-3-9-2-8-6"
       style="fill:#4d4d4d;stroke:none" />
    <path
       d="m 240,1050.8622 -0.5,0.5 -0.5,-0.5 0,-32 0.5,-0.5 0.5,0.5 z"
       id="path2989-1-5-4-3-0"
       style="fill:#808080;stroke:none" />
    <rect
       width="54"
       height="11.000017"
       x="-346"
       y="1027.3622"
       transform="scale(-1,1)"
       id="rect3976-9"
       style="fill:#333333;fill-opacity:1;fill-rule:nonzero;stroke:none" />
    <rect
       width="39"
       height="11.000017"
       x="-284.99997"
       y="1027.3622"
       transform="scale(-1,1)"
       id="rect3976-5-75"
       style="fill:#333333;fill-opacity:1;fill-rule:nonzero;stroke:none" />
    <rect
       width="12.500031"
       height="22.499983"
       x="-307.00003"
       y="1027.3622"
       transform="scale(-1,1)"
       id="rect4016-5-5"
       style="fill:#b3b3b3;fill-opacity:1;fill-rule:nonzero;stroke:none" />
    <rect
       width="10.500031"
       height="22.499931"
       x="-306.00003"
       y="1027.3622"
       transform="scale(-1,1)"
       id="rect4018-9-3"
       style="fill:#333333;fill-opacity:1;fill-rule:nonzero;stroke:none" />
    <rect
       width="12.5"
       height="22.499983"
       x="-236.5"
       y="1027.3622"
       transform="scale(-1,1)"
       id="rect4016-4-7"
       style="fill:#b3b3b3;fill-opacity:1;fill-rule:nonzero;stroke:none" />
    <rect
       width="10.5"
       height="22.499931"
       x="-235.5"
       y="1027.3622"
       transform="scale(-1,1)"
       id="rect4018-7-0"
       style="fill:#333333;fill-opacity:1;fill-rule:nonzero;stroke:none" />
    <rect
       width="24.5"
       height="4.9999828"
       x="-277.99997"
       y="1045.8622"
       transform="scale(-1,1)"
       id="rect4091-4"
       style="fill:none;stroke:#000000;stroke-width:0.22599953;stroke-miterlimit:4;stroke-opacity:1;stroke-dasharray:none" />
    <path
       d="m 40,48.75 a 1.25,1.25 0 1 1 -5.09e-4,-0.03565"
       transform="matrix(-2,0,0,2,458,952.3622)"
       id="path4050-9"
       style="fill:#1a1a1a;fill-opacity:1;fill-rule:nonzero;stroke:none" />
    <path
       d="m 40,48.75 a 1.25,1.25 0 1 1 -5.09e-4,-0.03565"
       transform="matrix(-2,0,0,2,440.5,952.3622)"
       id="path4050-2-2"
       style="fill:#1a1a1a;fill-opacity:1;fill-rule:nonzero;stroke:none" />
    <path
       d="m 353,1018.8622 60,0 c 1,0 1.5,-0.5 2.5,-0.5 l 2.5,0 c 10,0 9.5,21.5 9.5,26.5 l 0,5 c 0,1 -1.5,1 -2.5,1 l -72,0 z"
       id="path3936-7"
       style="fill:#cccccc;stroke:#000000;stroke-width:0.5;stroke-linecap:butt;stroke-linejoin:miter;stroke-miterlimit:4;stroke-opacity:1;stroke-dasharray:none" />
    <path
       d="m 353,1050.8622 -0.5,0.5 -0.5,-0.5 0,-32 0.5,-0.5 0.5,0.5 z"
       id="path2989-0"
       style="fill:#808080;stroke:none" />
    <path
       d="m 353,1027.3622 0,11 71.5,0 c 0,-3.5 0,-6 -1.5,-11 z"
       id="path4014-0"
       style="fill:#333333;stroke:none" />
    <rect
       width="12.5"
       height="22.5"
       x="-405.5"
       y="1027.3622"
       transform="scale(-1,1)"
       id="rect4016-56"
       style="fill:#b3b3b3;fill-opacity:1;fill-rule:nonzero;stroke:none" />
    <rect
       width="10.5"
       height="22.499931"
       x="-404.5"
       y="1027.3622"
       transform="scale(-1,1)"
       id="rect4018-6"
       style="fill:#333333;fill-opacity:1;fill-rule:nonzero;stroke:none" />
    <rect
       width="24.5"
       height="5.0000172"
       x="-384"
       y="1045.8622"
       transform="scale(-1,1)"
       id="rect4091-7-5"
       style="fill:none;stroke:#000000;stroke-width:0.22599953;stroke-miterlimit:4;stroke-opacity:1;stroke-dasharray:none" />
    <rect
       width="2.759347"
       height="1.2593644"
       x="282.12033"
       y="1017.4825"
       id="rect4305"
       style="fill:#000000;fill-opacity:1;fill-rule:nonzero;stroke:#000000;stroke-width:0.24065959;stroke-linecap:round;stroke-linejoin:miter;stroke-miterlimit:4;stroke-opacity:1;stroke-dasharray:none" />
  </g>
</svg>
